<svg xmlns="http://www.w3.org/2000/svg" width="245" height="259" fill="none" viewBox="0 0 245 259"><path fill="#db7878" d="m161.315 143.154-39.107 16.953-4.085-16.75 27.866-12.596 14.913-18.402-10.668-8.626-6.646-39.677 14.42-27.309 29.388-.662-8.652 17.428-9.18-2.483-8.502 17.55 5.994 27.898 10.669 8.626 20-6.88 7.256-8.953.824-18.818 9.539-11.77 11.842 19.453-8.725 36.853-39.142 5.948z"/><path fill="#7c2d67" d="m150.815 124.986-27.725 12.281-.146.064.04.156 1.425 5.622 35.841-13.603.982-17.375z"/><path fill="#9f113b" d="m126.02 168.897 12.062-12.362-6.318-21.072-16.445-2.257-77.73 11.765-13.083 15.394 10.702 35.691 19.639 6.469z"/><path fill="#cf5454" d="m132.005 135.457-16.398-2.097-.027-.003-.027.004-.524.081-67.19 25.749-6.292 16.093 4.996 16.664 18.978 4.959 60.585-28.357.031-.014.024-.025 12.121-12.166.081-.082-6.233-20.79z"/><path fill="#9f113b" d="m154.918 123.913-12.084 3.478-3.025 12.193 9.059 8.714 12.084-3.479 3.026-12.192z"/><path fill="#cf5454" d="m142.947 127.168-1.311 5.286 12.285 11.818 7.781-2.24 2.389-9.628-9.059-8.714z"/><path fill="#9f113b" d="m204.688 69.957-.003.064-.83 18.717-7.17 8.847-19.806 6.825-10.503-8.492-5.934-27.707 8.394-17.316 9.003 2.43.153.042.071-.142 6.42-12.924-15.497.64-16.305 20.12 2.689 39.704 24.322 19.665 37.817-5.77.129-.02.03-.126 8.728-36.786.018-.077-.041-.067-11.804-19.409-.143-.234z"/></svg>