<svg xmlns="http://www.w3.org/2000/svg" width="125" height="82" fill="none" viewBox="0 0 125 82"><path fill="#db7878" d="m71.92 60.013-20.648-7.706 4.493-7.709 14.899 5.3 12.16-1.512-.874-7.041 11.772-17.173 15.176-5.008 11.18 10.293-9.48 3.393-2.526-4.218-9.468 3.493-7.785 12.549.874 7.041 9.918 4.609 5.916-.735 7.064-6.719 7.779-.966-2.576 11.498-16.482 10.608-16.71-11.821z"/><path fill="#7c2d67" d="M74.534 49.475 59.8 44.109l-.077-.028-.041.072-1.489 2.607 18.23 7.784 6.605-6.124z"/><path fill="#9f113b" d="m49.533 56.951 8.93-.282 5.214-10.121-5.312-6.74L25.2 16.318l-10.4 1.045L5.97 34.507l4.989 9.455z"/><path fill="#cf5454" d="m63.77 46.632-5.353-6.663-.008-.011-.012-.008-.224-.158L23.91 25.294l-8.122 3.742-4.123 8.004 5.285 8.655 32.74 11.157.017.006h.017l8.882-.188.06-.002 5.144-9.986z"/><path fill="#9f113b" d="m76.447 50.547-5.749-3.037-5.504 3.46.244 6.497 5.748 3.037 5.505-3.46z"/><path fill="#cf5454" d="m70.82 47.468-2.385 1.5.33 8.81 3.702 1.956 4.347-2.732-.244-6.497z"/><path fill="#9f113b" d="m114.354 48.285-.024.022-7.03 6.68-5.846.726-9.826-4.56-.861-6.931 7.739-12.457 9.343-3.444 2.48 4.135.042.07.077-.027 7.032-2.515-6-5.32-13.296 1.653L84.928 42.08l1.995 16.053 16.153 11.412.055.039.056-.037 16.459-10.581.034-.023.009-.04 2.575-11.467.031-.139z"/></svg>