<svg xmlns="http://www.w3.org/2000/svg" width="242" height="282" fill="none" viewBox="0 0 242 282"><path fill="#db7878" d="m77.09 133.144 38.236-25.153 7.42 16.966-27.149 18.468-12.372 22.221 12.882 7.157 14.371 40.748-10.203 31.552-30.967 6.125 5.929-20.035 10.17.933 5.748-20.136-11.502-28.407-12.882-7.157-19.886 10.971-6.02 10.81 2.61 20.06-7.914 14.213-16.126-18.395 2.412-40.598 40.308-13.517z"/><path fill="#7c2d67" d="m91.562 150.426 27.058-18.109.142-.095-.071-.158-2.548-5.684-35.4 21.006 2.176 18.562z"/><path fill="#9f113b" d="M109.666 99.396 99.191 114.7l10.582 21.125 17.816-.648 80.056-26.796 10.994-18.7-17.923-35.78-21.973-3.217z"/><path fill="#cf5454" d="m109.52 135.875 17.735-.809.03-.001.028-.01.539-.183 66.32-39.641 3.68-18.186-8.368-16.706-20.994-1.742-58.85 41.182-.031.02-.021.03-10.572 15.108-.071.102 10.44 20.842z"/><path fill="#9f113b" d="m87.418 152.318 12.14-5.91.946-13.458-11.196-7.546-12.14 5.911-.946 13.457z"/><path fill="#cf5454" d="m99.481 146.663.41-5.833-15.184-10.235-7.816 3.805-.746 10.627 11.195 7.547z"/><path fill="#9f113b" d="m44.748 218.586-.009-.068-2.584-19.954 5.948-10.683 19.69-10.877 12.682 7.045 11.404 28.217-5.676 19.868-9.974-.909-.17-.016-.048.164-4.401 14.858 16.275-3.537 13.527-24.296-10.19-41.507-29.368-16.315-38.94 13.084-.132.045-.008.139-2.428 40.527-.005.085.056.064 16.078 18.354.194.222z"/></svg>