<svg xmlns="http://www.w3.org/2000/svg" width="434" height="567" fill="none" viewBox="0 0 434 567"><path fill="url(#a)" fill-opacity=".2" d="m28.361 554.108 329.015 9.173 48.437-46.887 1.466-52.581 13.497-379.382 1.539-55.21-14.451-17.067L159.568 5.23 23.42 132.99l-2.15 77.119L14.5 452.862l-2.223 79.748z"/><path fill="url(#b)" fill-opacity=".2" d="m25.814 47.108 48.649-44.25 64.925 1.81L23.982 112.834z"/><path fill="url(#c)" d="m430.207 92.587-9.431-8.156-13.497 379.382 12.813-8.413z"/><path fill="url(#d)" d="m21.27 210.11-10.822 10.223C7.51 294.215 2.16 441.993 4.266 442.052s7.7 7.231 10.235 10.81z"/><path stroke="url(#e)" stroke-width="5.655" d="M33.63 144.677 23.002 525.893l11.843 16.117 322.873 9.002 37.048-37.557 18.385-470.458M21.269 210.11l2.15-77.119L159.569 5.231l248.296 6.922 14.451 17.067-1.539 55.21M21.269 210.11l-10.821 10.223C7.51 294.215 2.16 441.993 4.266 442.052s7.7 7.231 10.235 10.81M21.27 210.11l-6.768 242.752m0 0-2.223 79.748 16.083 21.498 329.015 9.173 48.437-46.887 1.466-52.581m13.497-379.382 9.431 8.156L420.092 455.4l-12.813 8.413m13.497-379.382-13.497 379.382M25.814 47.108l48.649-44.25 64.925 1.81L23.982 112.834z"/><defs><linearGradient id="a" x1="223.912" x2="208.519" y1="7.025" y2="559.131" gradientUnits="userSpaceOnUse"><stop stop-color="#9b103a"/><stop offset="1" stop-color="#350514"/></linearGradient><linearGradient id="b" x1="223.912" x2="208.519" y1="7.025" y2="559.131" gradientUnits="userSpaceOnUse"><stop stop-color="#9b103a"/><stop offset="1" stop-color="#350514"/></linearGradient><linearGradient id="c" x1="-211.003" x2="-184.302" y1="425.354" y2="-3.513" gradientUnits="userSpaceOnUse"><stop stop-color="#9f113b"/><stop offset="1" stop-color="#56002f"/></linearGradient><linearGradient id="d" x1="-211.003" x2="-184.302" y1="425.354" y2="-3.513" gradientUnits="userSpaceOnUse"><stop stop-color="#9f113b"/><stop offset="1" stop-color="#56002f"/></linearGradient><linearGradient id="e" x1="223.912" x2="208.519" y1="7.025" y2="559.131" gradientUnits="userSpaceOnUse"><stop stop-color="#9f113b"/><stop offset="1" stop-color="#56002f"/></linearGradient></defs></svg>