<svg xmlns="http://www.w3.org/2000/svg" width="438" height="570" fill="none" viewBox="0 0 438 570"><path fill="url(#a)" fill-opacity=".2" d="m30.705 550.793 324.054 11.316 48.043-45.908 1.81-51.849 15.94-374.074 1.901-54.441-14.117-16.932-244.553-8.54L28.771 135.43l-2.655 76.045-8.36 239.368-2.745 78.637z"/><path fill="url(#b)" fill-opacity=".2" d="M31.728 50.744 79.961 7.438l63.947 2.233L29.465 115.555z"/><path fill="url(#c)" d="m429.786 98.387-9.234-8.11-15.94 374.075 12.681-8.209z"/><path fill="url(#d)" d="m26.116 211.475-10.732 10.007c-3.41 72.846-9.709 218.556-7.635 218.629s7.536 7.185 10.008 10.732z"/><path stroke="url(#e)" stroke-width="14.679" d="M38.749 147.026 25.621 522.929l11.555 15.977 318.005 11.105 36.757-36.785 21.39-463.865M26.116 211.475l2.655-76.045L163.783 10.365l244.553 8.54 14.117 16.932-1.901 54.44M26.116 211.476l-10.732 10.007c-3.41 72.846-9.709 218.556-7.635 218.629s7.536 7.185 10.008 10.732m8.359-239.368-8.36 239.368m0 0-2.745 78.637 15.694 21.313 324.054 11.316 48.043-45.908 1.81-51.849m15.94-374.074 9.234 8.11-12.493 357.755-12.681 8.209m15.94-374.074-15.94 374.074M31.728 50.744 79.961 7.438l63.947 2.233L29.465 115.555z"/><defs><linearGradient id="a" x1="227.158" x2="208.146" y1="12.578" y2="556.989" gradientUnits="userSpaceOnUse"><stop stop-color="#9b103a"/><stop offset="1" stop-color="#350514"/></linearGradient><linearGradient id="b" x1="227.158" x2="208.146" y1="12.578" y2="556.989" gradientUnits="userSpaceOnUse"><stop stop-color="#9b103a"/><stop offset="1" stop-color="#350514"/></linearGradient><linearGradient id="c" x1="-204.2" x2="-174.874" y1="422.158" y2="-.628" gradientUnits="userSpaceOnUse"><stop stop-color="#9f113b"/><stop offset="1" stop-color="#56002f"/></linearGradient><linearGradient id="d" x1="-204.2" x2="-174.874" y1="422.158" y2="-.628" gradientUnits="userSpaceOnUse"><stop stop-color="#9f113b"/><stop offset="1" stop-color="#56002f"/></linearGradient><linearGradient id="e" x1="-204.2" x2="-174.874" y1="422.158" y2="-.628" gradientUnits="userSpaceOnUse"><stop stop-color="#9f113b"/><stop offset="1" stop-color="#56002f"/></linearGradient></defs></svg>