<svg xmlns="http://www.w3.org/2000/svg" width="352" height="90" fill="none" viewBox="0 0 352 90"><g filter="url(#a)"><path fill="url(#b)" d="m298.537 75.695 1.86-21.402 11.4-.93 1.23 9.732 11.517.541 1.374-12.452-2.587-3.525-21.95-.318-1.933-4.315 1.178-22.45 1.705-1.642 37.866 1.717-1.051 15.032-7.731-.362-.068-6.027-17.358-.704.145 8.967 24.906 1.944-.171 34.453-4.221 4.07z"/><path fill="url(#c)" d="m264.414 18.538 21.667-.865 7.696 58.257-12.175.395-1.286-16.2-6.808.546-1.361 14.803-19.096-.68zm9.945 11.592-2.637 20.94 6.945.193z"/><path fill="url(#d)" d="m209.812 18.485 18.194-.962 12.058 37.807-2.421-37.832 9.504-.91 1.007 54.543-12.009.106-11.875-38.683-1.741 39.773-15.911-1.619z"/><path fill="url(#e)" d="m102.113 13.131 34.902.386 2.485 1.538 1.348 25.312-5.195 4.999-8.856.34 13.211 24.761-9.823 1.049-13.669-25.362-.474-.013-.525 24.525-16.874-1.058zm12.424 7.694.031 15.87 11.191.9 1.937-7.146-2.11-9.316z"/><path fill="url(#f)" d="m66.973 13.033 21.667-.865 7.696 58.257-12.175.395-1.286-16.2-6.808.546-1.36 14.803-19.096-.68zm9.946 11.592-2.638 20.94 6.946.193z"/><path fill="url(#g)" d="m14.21 11.856 30.466.85 3.998 3.931 2.358 17.406-2.968 4.472 5.106 3.816-.751 21.286-6.174 6.146-35.33-2.013zm16.201 30.87-.948 17.018 6.787.19 1.511-3.191-.74-13.099zm-.645-22.207-.02 12.048 5.21.146 1.026-8.494-.695-3.4z"/><path fill="url(#h)" d="M151.346 13.495c1.805-2.818 5.464-4.272 9.012-3.372l.2.054 14.584 4.07a.2.2 0 0 0 .049.007l21.165.59c2.86.08 5.118 2.3 5.044 4.961l-.052 1.86a.18.18 0 0 0 .096.161c3.095 1.722 4.674 5.23 3.605 8.584l-4.316 13.55a.2.2 0 0 0-.007.047l-.549 19.686c-.073 2.619-2.379 4.687-5.179 4.675l-.134-.002-2-.056a.2.2 0 0 0-.173.088c-1.804 2.82-5.464 4.273-9.012 3.373l-.2-.054-14.584-4.07a.2.2 0 0 0-.05-.007l-21.164-.59-.133-.005c-2.752-.142-4.914-2.268-4.913-4.832l.002-.124.052-1.86a.18.18 0 0 0-.096-.161c-3.038-1.69-4.615-5.1-3.662-8.398l.057-.186 4.316-13.55a.2.2 0 0 0 .008-.047l.549-19.686c.074-2.66 2.453-4.752 5.313-4.673l2 .056a.2.2 0 0 0 .172-.089m27.133 54.414c-.224-.006-.274.289-.059.35l5.658 1.578c2.139.597 4.352.023 5.843-1.324.117-.106.036-.284-.127-.289zm-34.25-7.147c-.104-.032-.212.037-.215.139l-.034 1.225c-.055 1.97 1.618 3.616 3.736 3.675l14.722.41c.224.007.275-.289.06-.349l-18.07-5.042zm.242-4.277c-.133-.092-.334-.012-.338.142l-.052 1.85c-.002.07.04.134.108.164q.401.176.838.299l26.995 7.533a.2.2 0 0 0 .05.007l6.783.19c.224.006.274-.29.059-.35l-33.251-9.279a4 4 0 0 1-1.192-.556m8.592-41.598a.19.19 0 0 0-.176.099 5.4 5.4 0 0 0-.319.779l-7.989 25.082a.2.2 0 0 0-.007.046l-.176 6.31c-.006.209.312.257.375.057l3.516-11.037a1 1 0 0 1 .028.071l.496 1.582a.55.55 0 0 0 .282.324l3.552 1.773a.6.6 0 0 0 .362.058l7.582-1.11a.6.6 0 0 1 .433.098l.379.26a.54.54 0 0 1 .221.319l.594 2.54a.5.5 0 0 1-.05.358l-.171.31a.57.57 0 0 1-.382.276l-6.681 1.428c-.309.066-.501.353-.429.642l.743 2.957c.072.288.382.468.691.402l8.672-1.854a.57.57 0 0 0 .381-.276l1.824-3.304a.5.5 0 0 0 .05-.358l-.308-1.319a.524.524 0 0 1 .315-.596l4.557-1.999a.6.6 0 0 1 .384-.035l.058.014c.155.036.287.13.365.26l1.492 2.478a.5.5 0 0 1 .065.355l-.071.38a.54.54 0 0 1-.254.357l-5.707 3.43a.54.54 0 0 0-.232.277l-1.242 3.43a.5.5 0 0 0 .042.43l1.903 3.204a.6.6 0 0 0 .783.212l2.853-1.46a.515.515 0 0 0 .224-.727l-.96-1.617a.5.5 0 0 1-.042-.43l.132-.366a.54.54 0 0 1 .232-.277l5.534-3.325c.333-.2.78-.033.873.327l.779 3.014c.075.288.386.466.695.398l3.171-.698c.309-.068.499-.357.425-.645l-1.514-5.855a.5.5 0 0 1 .06-.39l.356-.582a.57.57 0 0 1 .373-.255l2.883-.6a.6.6 0 0 1 .342.027l.503.189c.164.061.289.19.339.348l2.181 6.932c.041.13.134.242.26.312l3.624 2.002c.117.065.256.09.39.068l1.736-.273-5.038 15.817c-.13.41-.334.782-.592 1.106-.099.123-.012.31.153.315l1.989.055a.19.19 0 0 0 .176-.099q.188-.372.318-.779l7.989-25.083a.2.2 0 0 0 .008-.045l.176-6.31c.005-.208-.312-.256-.376-.056l-3.461 10.864a.6.6 0 0 0-.433-.095l-1.799.284a.6.6 0 0 1-.391-.068l-.724-.4a.55.55 0 0 1-.26-.312l-2.294-7.291a.56.56 0 0 0-.339-.348l-3.773-1.419a.6.6 0 0 0-.341-.026l-6.119 1.272a.57.57 0 0 0-.372.256l-.857 1.395c-.221.36-.783.357-1.002-.007l-1.955-3.25a.58.58 0 0 0-.365-.259l-3.445-.797a.6.6 0 0 0-.384.035l-5.268 2.31a.61.61 0 0 1-.588-.054l-2.951-2.029a.6.6 0 0 0-.433-.099l-7.941 1.164a.6.6 0 0 1-.363-.058l-.599-.3a.55.55 0 0 1-.282-.323l-.613-1.956a.56.56 0 0 0-.364-.358l-1.959-.64 5.021-15.763c.131-.41.334-.782.593-1.106.098-.123.011-.31-.154-.315zm46.153 35.075c.006-.209-.312-.257-.376-.057l-5.347 16.79-.062.184c-.034.097.041.198.15.201l1.318.037c2.118.059 3.88-1.49 3.935-3.461zm-56.154-3.114c.006-.208-.312-.256-.376-.056l-1.674 5.257c-.633 1.988-.007 4.048 1.447 5.441.114.11.305.034.309-.117zm58.517-22.444c-.114-.11-.306-.035-.31.117l-.294 10.525c-.005.208.312.256.376.056l1.675-5.257c.633-1.988.006-4.048-1.447-5.441m-28.812 3.532c-1.589-.045-2.911 1.117-2.952 2.595s1.214 2.712 2.803 2.757 2.91-1.118 2.951-2.596-1.213-2.712-2.802-2.756m-23.628-13.159c-2.119-.059-3.881 1.49-3.936 3.461l-.382 13.694c-.005.209.313.257.376.057l5.348-16.79q.023-.074.048-.146c.04-.116-.049-.237-.179-.24zm16.043.448c-.224-.007-.274.289-.059.349l33.252 9.28c.441.122.842.313 1.192.555.133.092.333.012.337-.142l.052-1.85a.175.175 0 0 0-.108-.164 6 6 0 0 0-.838-.299l-26.995-7.533a.2.2 0 0 0-.05-.007zm16.417.457c-.224-.006-.275.29-.06.35l18.07 5.042.199.058c.104.032.213-.038.216-.14l.034-1.224c.055-1.97-1.618-3.616-3.737-3.675zm-21.64-3.625c-2.139-.597-4.351-.023-5.843 1.324-.117.106-.035.284.128.289l11.314.315c.224.006.275-.29.059-.35z"/><path fill="url(#i)" d="M187.646 19.84c2.965-.328 6.069-.079 8.806.41l3.172.886.199.058c.099.03.2-.031.212-.124q.71.199 1.335.403l-.007.255a.18.18 0 0 0 .096.16c3.095 1.722 4.673 5.23 3.605 8.584l-4.316 13.55a.2.2 0 0 0-.008.047l-.549 19.686c-.073 2.619-2.378 4.686-5.178 4.674l-.134-.001-2-.056a.2.2 0 0 0-.172.089c-1.805 2.819-5.465 4.272-9.013 3.372l-.2-.053-14.584-4.07a.2.2 0 0 0-.05-.008l-21.163-.59-.134-.006c-2.752-.141-4.914-2.267-4.912-4.83l.001-.125.052-1.86a.2.2 0 0 0-.014-.07c2.32.507 5.602 1.085 10.144 1.68 1.093.143 2.129.186 3.11.142l16.094 4.491a.2.2 0 0 0 .049.009l6.783.189c.224.006.274-.29.059-.35l-18.639-5.203c3.686-1.372 6.327-4.213 8.174-7.53a.61.61 0 0 0 .565.01l2.853-1.46a.516.516 0 0 0 .225-.727l-.96-1.617a.5.5 0 0 1-.043-.43l.132-.366a.54.54 0 0 1 .233-.277l5.533-3.325c.333-.2.78-.033.873.327l.78 3.014c.074.288.385.466.694.398l3.171-.699c.309-.068.499-.356.425-.643l-1.514-5.856a.5.5 0 0 1 .06-.39l.357-.582a.57.57 0 0 1 .372-.256l2.884-.599a.6.6 0 0 1 .341.027l.503.188c.164.062.29.191.34.349l2.18 6.932c.041.13.134.242.26.312l3.624 2.002a.6.6 0 0 0 .39.067l1.736-.273-5.037 15.817c-.131.41-.334.783-.593 1.107-.098.123-.012.31.153.315l1.989.056a.19.19 0 0 0 .176-.1q.188-.373.318-.778l7.989-25.084a.2.2 0 0 0 .008-.045l.176-6.31c.005-.208-.312-.256-.376-.057l-3.46 10.865a.6.6 0 0 0-.434-.095l-1.799.284a.6.6 0 0 1-.391-.069l-.724-.4a.55.55 0 0 1-.26-.31l-2.294-7.292a.56.56 0 0 0-.339-.349l-3.773-1.418a.6.6 0 0 0-.341-.026l-6.119 1.271a.57.57 0 0 0-.372.257l-.857 1.394c-.221.361-.783.358-1.002-.006l-1.955-3.25a.58.58 0 0 0-.365-.259l-1.347-.312a45 45 0 0 1 .656-1.965c.859-.443 1.451-1.281 1.479-2.262a2.5 2.5 0 0 0-.177-.995c.979-2.231 1.966-4.068 2.653-5.185 1.416-1.838 3.313-3.054 5.444-3.813l14.886 4.154a4 4 0 0 1 1.192.556c.133.091.333.012.337-.141l.052-1.85a.175.175 0 0 0-.108-.165 6 6 0 0 0-.837-.298zm-9.152 48.13c-.224-.005-.274.29-.059.35l5.658 1.579c2.139.597 4.352.023 5.844-1.324.117-.106.035-.284-.128-.289zm-34.25-7.146c-.103-.032-.212.037-.215.139l-.035 1.226c-.054 1.97 1.619 3.615 3.737 3.675l14.722.41c.224.006.275-.29.06-.35l-18.07-5.042zm54.987-10.8c.005-.21-.312-.257-.376-.057l-5.348 16.789-.06.185c-.034.096.04.198.149.201l1.318.037c2.118.059 3.88-1.49 3.935-3.461zm-25.489-8.44a.5.5 0 0 1 .066.354l-.072.381a.54.54 0 0 1-.254.357l-1.678 1.008c.14-.837.246-1.644.319-2.403q.096-.969.266-1.947zm27.852-17.118c-.114-.11-.306-.035-.31.117l-.294 10.524c-.006.209.313.257.377.057l1.674-5.257c.633-1.988.006-4.048-1.447-5.441"/></g><defs><linearGradient id="b" x1="186.216" x2="184.488" y1="15.984" y2="77.944" gradientUnits="userSpaceOnUse"><stop stop-color="#19a8a0"/><stop offset="1" stop-color="#198078"/></linearGradient><linearGradient id="c" x1="186.215" x2="184.487" y1="15.984" y2="77.944" gradientUnits="userSpaceOnUse"><stop stop-color="#19aba3"/><stop offset="1" stop-color="#197871"/></linearGradient><linearGradient id="d" x1="185.951" x2="184.223" y1="15.977" y2="77.936" gradientUnits="userSpaceOnUse"><stop stop-color="#18aaa2"/><stop offset="1" stop-color="#187770"/></linearGradient><linearGradient id="e" x1="166.666" x2="167.234" y1="15.439" y2="65.325" gradientUnits="userSpaceOnUse"><stop stop-color="#19aca4"/><stop offset="1" stop-color="#197871"/></linearGradient><linearGradient id="f" x1="166.667" x2="164.939" y1="15.439" y2="77.399" gradientUnits="userSpaceOnUse"><stop stop-color="#19a9a1"/><stop offset="1" stop-color="#187770"/></linearGradient><linearGradient id="g" x1="166.667" x2="164.939" y1="15.439" y2="77.399" gradientUnits="userSpaceOnUse"><stop stop-color="#19a29a"/><stop offset="1" stop-color="#197871"/></linearGradient><linearGradient id="h" x1="180" x2="164.17" y1="16.353" y2="65.608" gradientUnits="userSpaceOnUse"><stop stop-color="#196a64"/><stop offset="1" stop-color="#19afa6"/></linearGradient><linearGradient id="i" x1="181.428" x2="168.786" y1="24.47" y2="67.194" gradientUnits="userSpaceOnUse"><stop stop-color="#19afa6"/><stop offset="1" stop-color="#196a64"/></linearGradient><filter id="a" width="351.464" height="94.174" x="-.035" y="-4.062" color-interpolation-filters="sRGB" filterUnits="userSpaceOnUse"><feFlood flood-opacity="0" result="BackgroundImageFix"/><feColorMatrix in="SourceAlpha" result="hardAlpha" values="0 0 0 0 0 0 0 0 0 0 0 0 0 0 0 0 0 0 127 0"/><feOffset dy="1.057"/><feGaussianBlur stdDeviation="5.457"/><feComposite in2="hardAlpha" operator="out"/><feColorMatrix values="0 0 0 0 0 0 0 0 0 0 0 0 0 0 0 0 0 0 0.25 0"/><feBlend in2="BackgroundImageFix" result="effect1_dropShadow_2045_6062"/><feBlend in="SourceGraphic" in2="effect1_dropShadow_2045_6062" result="shape"/></filter></defs></svg>