<svg xmlns="http://www.w3.org/2000/svg" width="190" height="190" fill="none" viewBox="0 0 190 190"><path fill="url(#a)" d="M140.126 74.693a53 53 0 0 1 1.453 3.65l-5.924 7.975c.66 3.029.987 6.074.999 9.09l7.536 6.721a51 51 0 0 1-1.55 7.626l-9.468 2.805a42 42 0 0 1-4.413 7.834l2.314 9.882a48.4 48.4 0 0 1-5.661 5.143l-9.403-3.441a41 41 0 0 1-3.974 2.019 41 41 0 0 1-4.171 1.572l-3.8 9.263c-2.535.441-5.08.676-7.616.711l-5.735-8.374a42 42 0 0 1-8.76-2.026l-8.458 5.099a51 51 0 0 1-6.675-3.999l.12-10.097a43.5 43.5 0 0 1-6.036-6.869l-9.884-1.005a53.5 53.5 0 0 1-3.168-7.186l5.924-7.975a43.5 43.5 0 0 1-1-9.09L45.241 87.3a51 51 0 0 1 1.55-7.625l9.468-2.805a42 42 0 0 1 4.413-7.834l-2.314-9.882a48 48 0 0 1 5.661-5.144l9.404 3.441a41 41 0 0 1 8.143-3.59l3.801-9.263a48 48 0 0 1 7.616-.711l5.735 8.374a42 42 0 0 1 8.76 2.025l8.458-5.098a51 51 0 0 1 6.674 3.999l-.12 10.097a43.4 43.4 0 0 1 6.037 6.868l9.884 1.005a54 54 0 0 1 1.715 3.536m-24.77 10.921c-5.17-11.726-18.603-17.158-30.003-12.132s-16.45 18.608-11.28 30.334c5.171 11.727 18.604 17.159 30.004 12.132s16.45-18.607 11.279-30.334"/><circle cx="94.599" cy="94.438" r="37.949" fill="url(#b)" stroke="url(#c)" stroke-width=".53" transform="rotate(119.821 94.6 94.438)"/><circle cx="94.632" cy="94.558" r="34.684" fill="url(#d)" stroke="url(#e)" stroke-width=".53" transform="rotate(119.821 94.632 94.558)"/><circle cx="94.632" cy="94.559" r="29.389" fill="url(#f)" stroke="url(#g)" stroke-width=".53" transform="rotate(119.821 94.632 94.559)"/><path fill="url(#h)" d="M107.6 88.851q.227.516.413 1.038l-1.684 2.267c.187.86.28 1.726.284 2.584l2.142 1.91q-.139 1.105-.441 2.168l-2.691.797a12 12 0 0 1-1.254 2.227l.657 2.809a13.6 13.6 0 0 1-1.609 1.462l-2.673-.978q-.542.314-1.13.574-.586.257-1.185.447l-1.08 2.633q-1.082.187-2.165.202l-1.63-2.381a12 12 0 0 1-2.49-.575l-2.405 1.449a14.5 14.5 0 0 1-1.897-1.137l.034-2.87a12.4 12.4 0 0 1-1.716-1.952l-2.81-.286a15 15 0 0 1-.9-2.043l1.684-2.267a12.4 12.4 0 0 1-.284-2.584l-2.142-1.91q.139-1.105.44-2.168l2.692-.797a12 12 0 0 1 1.254-2.227l-.657-2.809a14 14 0 0 1 1.609-1.462l2.673.978a11.7 11.7 0 0 1 2.315-1.02l1.08-2.634q1.082-.187 2.165-.202l1.63 2.38c.849.102 1.684.296 2.49.577l2.404-1.45a14.5 14.5 0 0 1 1.898 1.137l-.034 2.87c.63.58 1.207 1.233 1.716 1.953l2.809.285q.26.49.488 1.005m-7.041 3.105c-1.47-3.334-5.288-4.878-8.529-3.449s-4.676 5.29-3.206 8.623 5.288 4.877 8.529 3.448 4.676-5.289 3.206-8.622"/><g filter="url(#i)"><path fill="url(#j)" d="M92.803 87.033c3.082-9.764 8.352-26.183 11.316-34.64l-2.854-3.096c1.956-2.856 5.98-8.466 6.429-8.055.448.413.818 6.599.947 9.64l-2.938 2.098c-1.161 9.003-3.701 26.007-5.188 35.71l-3.14 7.062c.168 1.993.295 4.334.36 5.872l-3.567 2.547-3.81-4.133a143 143 0 0 1 3.315-4.636z"/><path fill="url(#k)" d="M91.166 100.359c-8.51 2.042-22.86 5.412-30.36 6.966l-1.024 3.429c-2.95-.169-8.823-.631-8.72-1.136.105-.506 4.482-3.486 6.657-4.913l2.824 1.213c7.112-3.102 20.697-8.71 28.466-11.883l6.554-.816a134 134 0 0 1 4.15-2.835l3.429 1.474-1.366 4.575a123 123 0 0 1-4.847-.376z"/></g><defs><linearGradient id="a" x1="140.126" x2="49.304" y1="74.693" y2="114.737" gradientUnits="userSpaceOnUse"><stop stop-color="#1ac8be"/><stop offset="1" stop-color="#187c75"/></linearGradient><linearGradient id="b" x1="94.599" x2="94.599" y1="56.224" y2="132.652" gradientUnits="userSpaceOnUse"><stop stop-color="#1ac8be"/><stop offset="1" stop-color="#187c75"/></linearGradient><linearGradient id="c" x1="94.599" x2="94.599" y1="56.224" y2="132.652" gradientUnits="userSpaceOnUse"><stop stop-color="#1ac8be"/><stop offset="1" stop-color="#187c75"/></linearGradient><linearGradient id="d" x1="94.632" x2="94.632" y1="59.61" y2="129.507" gradientUnits="userSpaceOnUse"><stop stop-color="#1ac8be"/><stop offset="1" stop-color="#187c75"/></linearGradient><linearGradient id="e" x1="94.632" x2="94.632" y1="59.61" y2="129.507" gradientUnits="userSpaceOnUse"><stop stop-color="#1ac8be"/><stop offset="1" stop-color="#187c75"/></linearGradient><linearGradient id="f" x1="94.632" x2="94.632" y1="64.905" y2="124.212" gradientUnits="userSpaceOnUse"><stop stop-color="#1ac8be"/><stop offset="1" stop-color="#187c75"/></linearGradient><linearGradient id="g" x1="94.632" x2="94.632" y1="64.905" y2="124.212" gradientUnits="userSpaceOnUse"><stop stop-color="#1ac8be"/><stop offset="1" stop-color="#187c75"/></linearGradient><linearGradient id="h" x1="107.6" x2="81.783" y1="88.851" y2="100.234" gradientUnits="userSpaceOnUse"><stop stop-color="#1ac8be"/><stop offset="1" stop-color="#187c75"/></linearGradient><linearGradient id="j" x1="96.107" x2="103.818" y1="71.665" y2="73.322" gradientUnits="userSpaceOnUse"><stop stop-color="#1ac8be"/><stop offset="1" stop-color="#187c75"/></linearGradient><linearGradient id="k" x1="78.447" x2="76.29" y1="104.696" y2="98.372" gradientUnits="userSpaceOnUse"><stop stop-color="#1ac8be"/><stop offset="1" stop-color="#187c75"/></linearGradient><filter id="i" width="62.17" height="74.122" x="48.766" y="39.632" color-interpolation-filters="sRGB" filterUnits="userSpaceOnUse"><feFlood flood-opacity="0" result="BackgroundImageFix"/><feColorMatrix in="SourceAlpha" result="hardAlpha" values="0 0 0 0 0 0 0 0 0 0 0 0 0 0 0 0 0 0 127 0"/><feOffset dy=".706"/><feGaussianBlur stdDeviation="1.147"/><feComposite in2="hardAlpha" operator="out"/><feColorMatrix values="0 0 0 0 0 0 0 0 0 0 0 0 0 0 0 0 0 0 0.44 0"/><feBlend in2="BackgroundImageFix" result="effect1_dropShadow_352_7602"/><feBlend in="SourceGraphic" in2="effect1_dropShadow_352_7602" result="shape"/></filter></defs></svg>