<svg width="831" height="464" viewBox="0 0 831 464" fill="none" xmlns="http://www.w3.org/2000/svg">
<g filter="url(#filter0_d_3330_3)">
<path d="M644.45 192.808L673.776 147.031L709.539 140.594L667.338 192.808H644.45Z" fill="url(#paint0_linear_3330_3)" stroke="black" stroke-width="2.86103" stroke-linejoin="round"/>
<path d="M651.603 87.3163V67.2891C659.47 79.4484 688.081 79.8061 697.021 67.2891V87.3163C677.371 99.1162 667.433 99.6502 651.603 87.3163Z" fill="#66686B" stroke="black" stroke-width="2.86103" stroke-linejoin="round"/>
<path d="M673.774 53.3398C660.542 53.3398 653.389 56.5585 651.243 66.9297C655.892 75.8705 685.218 83.3807 697.02 66.9297C694.788 57.675 687.006 53.3398 673.774 53.3398Z" fill="url(#paint1_linear_3330_3)" stroke="black" stroke-width="2.86103" stroke-linejoin="round"/>
<path d="M818.258 104.827C781.065 21.5015 627.999 -1.74594 503.902 55.117C566.583 17.2594 609.76 4.9467 692.373 11.127C752.812 15.6486 823.265 50.4678 818.258 104.827Z" fill="url(#paint2_linear_3330_3)" stroke="black" stroke-width="2.86103" stroke-linejoin="round"/>
<path d="M512.483 2.91209C567.169 27.2036 597.847 41.3232 652.316 59.4174L650.17 68.3581C643.674 66.4324 640.747 67.2803 636.938 72.292C629.096 79.9221 624.966 80.9382 617.984 78.3717C582.192 67.1342 555.141 48.9639 503.9 11.4952C501.754 9.92617 501.397 5.38208 503.9 2.91209C505.688 1.14788 508.599 0.734032 512.483 2.91209Z" fill="url(#paint3_linear_3330_3)" stroke="black" stroke-width="2.86103" stroke-linejoin="round"/>
<path d="M664.118 65.1384V48.6875C671.333 54.755 675.636 55.1063 683.788 48.6875V65.1384C675.63 70.1973 671.337 69.9639 664.118 65.1384Z" fill="#66686B" stroke="black" stroke-width="2.86103" stroke-linejoin="round"/>
<path d="M683.788 48.3392C675.733 55.1481 671.432 54.8836 664.118 48.3392C664.833 44.7602 668.097 42.7911 673.417 42.6172C679.854 42.6156 681.642 44.0449 683.788 48.3392Z" fill="url(#paint4_linear_3330_3)" stroke="black" stroke-width="2.86103" stroke-linejoin="round"/>
<path d="M671.987 105.905C671.704 99.7729 674.63 97.6363 682.359 94.8182L698.451 89.4546C705.961 88.0252 711.325 88.0252 712.042 96.6064V128.793C712.042 135.947 713.114 139.166 707.75 141.31L684.147 147.747C674.371 149.572 671.924 147.892 671.987 140.595V105.905Z" fill="url(#paint5_linear_3330_3)" stroke="black" stroke-width="2.86103" stroke-linejoin="round"/>
<path d="M643.735 99.4731C643.711 89.3425 644.798 85.2954 651.603 85.168L655.894 98.0426L643.735 99.4731Z" fill="#737373" stroke="black" stroke-width="2.86103" stroke-linejoin="round"/>
<path d="M674.491 96.9633C663.789 96.0803 659.66 94.4071 653.748 89.4531L655.894 98.3938L668.411 106.619L674.491 96.9633Z" fill="#737373" stroke="black" stroke-width="2.86103" stroke-linejoin="round"/>
<path d="M652.675 98.7539L483.874 124.503L485.662 179.578L671.987 135.232V106.979L652.675 98.7539Z" fill="url(#paint6_linear_3330_3)" stroke="black" stroke-width="2.86103" stroke-linejoin="round"/>
<path d="M175.49 192.808L146.165 147.031L110.402 140.594L152.602 192.808H175.49Z" fill="url(#paint7_linear_3330_3)" stroke="black" stroke-width="2.86103" stroke-linejoin="round"/>
<path d="M168.339 87.3163V67.2891C160.471 79.4484 131.861 79.8061 122.92 67.2891V87.3163C142.571 99.1162 152.509 99.6502 168.339 87.3163Z" fill="#66686B" stroke="black" stroke-width="2.86103" stroke-linejoin="round"/>
<path d="M146.166 53.3398C159.398 53.3398 166.551 56.5585 168.696 66.9297C164.047 75.8705 134.722 83.3807 122.92 66.9297C125.151 57.675 132.933 53.3398 146.166 53.3398Z" fill="url(#paint8_linear_3330_3)" stroke="black" stroke-width="2.86103" stroke-linejoin="round"/>
<path d="M1.68347 104.827C38.8768 21.5015 191.942 -1.74594 316.039 55.117C253.359 17.2594 210.181 4.9467 127.569 11.127C67.129 15.6486 -3.32333 50.4678 1.68347 104.827Z" fill="url(#paint9_linear_3330_3)" stroke="black" stroke-width="2.86103" stroke-linejoin="round"/>
<path d="M307.457 2.91209C252.771 27.2036 222.093 41.3232 167.624 59.4174L169.77 68.3581C176.267 66.4324 179.194 67.2803 183.002 72.292C190.845 79.9221 194.974 80.9382 201.957 78.3717C237.749 67.1342 264.799 48.9639 316.04 11.4952C318.186 9.92617 318.543 5.38208 316.04 2.91209C314.252 1.14788 311.342 0.734032 307.457 2.91209Z" fill="url(#paint10_linear_3330_3)" stroke="black" stroke-width="2.86103" stroke-linejoin="round"/>
<path d="M155.823 65.1384V48.6875C148.609 54.755 144.305 55.1063 136.154 48.6875V65.1384C144.311 70.1973 148.605 69.9639 155.823 65.1384Z" fill="#66686B" stroke="black" stroke-width="2.86103" stroke-linejoin="round"/>
<path d="M136.154 48.3392C144.208 55.1481 148.51 54.8836 155.823 48.3392C155.108 44.7602 151.844 42.7911 146.525 42.6172C140.088 42.6156 138.299 44.0449 136.154 48.3392Z" fill="url(#paint11_linear_3330_3)" stroke="black" stroke-width="2.86103" stroke-linejoin="round"/>
<path d="M147.953 105.905C148.236 99.7729 145.31 97.6363 137.582 94.8182L121.49 89.4546C113.979 88.0252 108.615 88.0252 107.899 96.6064V128.793C107.899 135.947 106.827 139.166 112.19 141.31L135.794 147.747C145.57 149.572 148.016 147.892 147.953 140.595V105.905Z" fill="url(#paint12_linear_3330_3)" stroke="black" stroke-width="2.86103" stroke-linejoin="round"/>
<path d="M176.206 99.4731C176.229 89.3425 175.143 85.2954 168.338 85.168L164.046 98.0426L176.206 99.4731Z" fill="#737373" stroke="black" stroke-width="2.86103" stroke-linejoin="round"/>
<path d="M145.451 96.9633C156.152 96.0803 160.281 94.4071 166.193 89.4531L164.048 98.3938L151.531 106.619L145.451 96.9633Z" fill="#737373" stroke="black" stroke-width="2.86103" stroke-linejoin="round"/>
<path d="M167.266 98.7539L336.066 124.503L334.278 179.578L147.954 135.232V106.979L167.266 98.7539Z" fill="url(#paint13_linear_3330_3)" stroke="black" stroke-width="2.86103" stroke-linejoin="round"/>
<path d="M785.209 369.84C734.943 445.997 580.135 444.007 466.955 367.694C522.633 415.253 563.23 434.433 645.745 441.789C706.115 447.171 781.297 424.289 785.209 369.84Z" fill="url(#paint14_linear_3330_3)" stroke="black" stroke-width="2.86103" stroke-linejoin="round"/>
<path d="M620.851 348.857L458.497 295.962L469.23 241.913L645.846 316.01L641.245 343.886L620.851 348.857Z" fill="url(#paint15_linear_3330_3)" stroke="black" stroke-width="2.86103" stroke-linejoin="round"/>
<path d="M611.305 345.908L608.044 326.148C617.787 336.864 646.074 332.558 652.856 318.752L656.118 338.512C638.651 353.354 628.933 355.5 611.305 345.908Z" fill="#66686B" stroke="black" stroke-width="2.86103" stroke-linejoin="round"/>
<path d="M627.65 308.776C614.594 310.931 608.061 315.272 607.633 325.854C613.676 333.918 643.833 336.552 652.798 318.399C649.09 309.631 640.705 306.621 627.65 308.776Z" fill="url(#paint16_linear_3330_3)" stroke="black" stroke-width="2.86103" stroke-linejoin="round"/>
<path d="M620.044 321.997L617.365 305.766C625.472 310.577 629.775 310.223 636.772 302.562L639.451 318.794C632.227 325.113 627.952 325.583 620.044 321.997Z" fill="#66686B" stroke="black" stroke-width="2.86103" stroke-linejoin="round"/>
<path d="M636.716 302.204C629.878 310.234 625.591 310.673 617.309 305.407C617.432 301.76 620.331 299.285 625.551 298.247C631.902 297.198 633.899 298.317 636.716 302.204Z" fill="url(#paint17_linear_3330_3)" stroke="black" stroke-width="2.86103" stroke-linejoin="round"/>
<path d="M518.063 448.624C554.331 401.03 576.235 372.629 615.294 330.573C611.298 329.318 609.503 328.199 607.318 325.035C602.548 329.847 599.574 330.511 593.825 327.948C583.28 325.029 579.17 326.124 574.282 331.732C548.303 358.795 533.322 387.734 506.41 445.226C505.283 447.633 507.154 451.789 510.537 452.751C512.953 453.438 515.704 452.402 518.063 448.624Z" fill="url(#paint18_linear_3330_3)" stroke="black" stroke-width="2.86103" stroke-linejoin="round"/>
<path d="M32.4028 369.84C82.6694 445.997 237.477 444.007 350.657 367.694C294.979 415.253 254.383 434.433 171.867 441.789C111.498 447.171 36.3154 424.289 32.4028 369.84Z" fill="url(#paint19_linear_3330_3)" stroke="black" stroke-width="2.86103" stroke-linejoin="round"/>
<path d="M196.765 348.857L359.119 295.962L348.386 241.913L171.77 316.01L176.371 343.886L196.765 348.857Z" fill="url(#paint20_linear_3330_3)" stroke="black" stroke-width="2.86103" stroke-linejoin="round"/>
<path d="M206.311 345.9L209.572 326.141C199.829 336.856 171.543 332.55 164.76 318.744L161.498 338.504C178.965 353.347 188.683 355.492 206.311 345.9Z" fill="#66686B" stroke="black" stroke-width="2.86103" stroke-linejoin="round"/>
<path d="M189.966 308.776C203.022 310.931 209.555 315.272 209.983 325.854C203.94 333.918 173.783 336.552 164.818 318.399C168.527 309.631 176.911 306.621 189.966 308.776Z" fill="url(#paint21_linear_3330_3)" stroke="black" stroke-width="2.86103" stroke-linejoin="round"/>
<path d="M197.572 321.981L200.251 305.75C192.145 310.562 187.842 310.207 180.844 302.547L178.165 318.778C185.389 325.098 189.664 325.567 197.572 321.981Z" fill="#66686B" stroke="black" stroke-width="2.86103" stroke-linejoin="round"/>
<path d="M180.897 302.2C187.736 310.23 192.023 310.669 200.304 305.403C200.182 301.756 197.282 299.281 192.062 298.244C185.711 297.194 183.714 298.313 180.897 302.2Z" fill="url(#paint22_linear_3330_3)" stroke="black" stroke-width="2.86103" stroke-linejoin="round"/>
<path d="M299.553 448.624C263.284 401.03 241.38 372.629 202.322 330.573C206.318 329.318 208.113 328.199 210.297 325.035C215.067 329.847 218.041 330.511 223.791 327.948C234.336 325.029 238.445 326.124 243.333 331.732C269.313 358.795 284.294 387.734 311.205 445.226C312.333 447.633 310.461 451.789 307.078 452.751C304.662 453.438 301.911 452.402 299.553 448.624Z" fill="url(#paint23_linear_3330_3)" stroke="black" stroke-width="2.86103" stroke-linejoin="round"/>
<path d="M352.267 85.5234L346.187 106.981C338.819 113.227 335.788 117.082 332.955 125.22L329.736 201.395C331.018 209.799 333.357 213.342 340.108 216.773L344.041 300.101L358.347 316.194H374.44L384.811 329.784H431.66L440.959 316.194H456.694L470.642 300.101L473.861 216.773C482.831 211.936 484.488 208.425 484.232 201.395V125.22C482.147 118.133 478.673 113.413 469.569 104.12L464.205 85.5234C456.193 72.7141 449.226 69.8258 434.522 68.7148H379.089C361.939 70.6163 356.654 74.7482 352.267 85.5234Z" fill="url(#paint24_linear_3330_3)" stroke="black" stroke-width="2.86103" stroke-linejoin="round"/>
</g>
<defs>
<filter id="filter0_d_3330_3" x="0" y="0" width="830.096" height="463.405" filterUnits="userSpaceOnUse" color-interpolation-filters="sRGB">
<feFlood flood-opacity="0" result="BackgroundImageFix"/>
<feColorMatrix in="SourceAlpha" type="matrix" values="0 0 0 0 0 0 0 0 0 0 0 0 0 0 0 0 0 0 127 0" result="hardAlpha"/>
<feOffset dx="5.64159" dy="4.51327"/>
<feGaussianBlur stdDeviation="2.25664"/>
<feComposite in2="hardAlpha" operator="out"/>
<feColorMatrix type="matrix" values="0 0 0 0 0 0 0 0 0 0 0 0 0 0 0 0 0 0 0.25 0"/>
<feBlend mode="normal" in2="BackgroundImageFix" result="effect1_dropShadow_3330_3"/>
<feBlend mode="normal" in="SourceGraphic" in2="effect1_dropShadow_3330_3" result="shape"/>
</filter>
<linearGradient id="paint0_linear_3330_3" x1="676.994" y1="140.594" x2="676.994" y2="192.808" gradientUnits="userSpaceOnUse">
<stop stop-color="#737373"/>
<stop offset="1" stop-color="#D9D9D9"/>
</linearGradient>
<linearGradient id="paint1_linear_3330_3" x1="674.131" y1="53.3398" x2="674.131" y2="76.6515" gradientUnits="userSpaceOnUse">
<stop stop-color="#C7CBD1"/>
<stop offset="1" stop-color="#66686B"/>
</linearGradient>
<linearGradient id="paint2_linear_3330_3" x1="566.13" y1="29.3767" x2="818.258" y2="95.8957" gradientUnits="userSpaceOnUse">
<stop stop-color="#009F92"/>
<stop offset="1" stop-color="#B7B7B5"/>
</linearGradient>
<linearGradient id="paint3_linear_3330_3" x1="511.768" y1="7.20204" x2="623.706" y2="75.1515" gradientUnits="userSpaceOnUse">
<stop stop-color="#D9D9D9"/>
<stop offset="1" stop-color="#737373"/>
</linearGradient>
<linearGradient id="paint4_linear_3330_3" x1="673.953" y1="42.6172" x2="673.953" y2="53.3472" gradientUnits="userSpaceOnUse">
<stop stop-color="#D9D9D9"/>
<stop offset="1" stop-color="#737373"/>
</linearGradient>
<linearGradient id="paint5_linear_3330_3" x1="692.049" y1="88.7461" x2="692.049" y2="148.427" gradientUnits="userSpaceOnUse">
<stop stop-color="#67696C"/>
<stop offset="1" stop-color="#C8CCD2"/>
</linearGradient>
<linearGradient id="paint6_linear_3330_3" x1="577.93" y1="98.7539" x2="577.93" y2="179.578" gradientUnits="userSpaceOnUse">
<stop stop-color="#D9D9D9"/>
<stop offset="1" stop-color="#009F92"/>
</linearGradient>
<linearGradient id="paint7_linear_3330_3" x1="142.946" y1="140.594" x2="142.946" y2="192.808" gradientUnits="userSpaceOnUse">
<stop stop-color="#737373"/>
<stop offset="1" stop-color="#D9D9D9"/>
</linearGradient>
<linearGradient id="paint8_linear_3330_3" x1="145.808" y1="53.3398" x2="145.808" y2="76.6515" gradientUnits="userSpaceOnUse">
<stop stop-color="#C7CBD1"/>
<stop offset="1" stop-color="#66686B"/>
</linearGradient>
<linearGradient id="paint9_linear_3330_3" x1="253.812" y1="29.3767" x2="1.68348" y2="95.8957" gradientUnits="userSpaceOnUse">
<stop stop-color="#009F92"/>
<stop offset="1" stop-color="#B7B7B5"/>
</linearGradient>
<linearGradient id="paint10_linear_3330_3" x1="308.172" y1="7.20204" x2="196.235" y2="75.1515" gradientUnits="userSpaceOnUse">
<stop stop-color="#D9D9D9"/>
<stop offset="1" stop-color="#737373"/>
</linearGradient>
<linearGradient id="paint11_linear_3330_3" x1="145.988" y1="42.6172" x2="145.988" y2="53.3472" gradientUnits="userSpaceOnUse">
<stop stop-color="#D9D9D9"/>
<stop offset="1" stop-color="#737373"/>
</linearGradient>
<linearGradient id="paint12_linear_3330_3" x1="127.891" y1="88.7461" x2="127.891" y2="148.427" gradientUnits="userSpaceOnUse">
<stop stop-color="#67696C"/>
<stop offset="1" stop-color="#C8CCD2"/>
</linearGradient>
<linearGradient id="paint13_linear_3330_3" x1="242.01" y1="98.7539" x2="242.01" y2="179.578" gradientUnits="userSpaceOnUse">
<stop stop-color="#D9D9D9"/>
<stop offset="1" stop-color="#009F92"/>
</linearGradient>
<linearGradient id="paint14_linear_3330_3" x1="524.16" y1="403.224" x2="783.755" y2="378.653" gradientUnits="userSpaceOnUse">
<stop stop-color="#009F92"/>
<stop offset="1" stop-color="#B7B7B5"/>
</linearGradient>
<linearGradient id="paint15_linear_3330_3" x1="547.104" y1="336.684" x2="560.267" y2="256.939" gradientUnits="userSpaceOnUse">
<stop stop-color="#D9D9D9"/>
<stop offset="1" stop-color="#009F92"/>
</linearGradient>
<linearGradient id="paint16_linear_3330_3" x1="628.003" y1="308.718" x2="631.799" y2="331.718" gradientUnits="userSpaceOnUse">
<stop stop-color="#C7CBD1"/>
<stop offset="1" stop-color="#66686B"/>
</linearGradient>
<linearGradient id="paint17_linear_3330_3" x1="626.08" y1="298.16" x2="627.828" y2="308.747" gradientUnits="userSpaceOnUse">
<stop stop-color="#D9D9D9"/>
<stop offset="1" stop-color="#737373"/>
</linearGradient>
<linearGradient id="paint18_linear_3330_3" x1="515.373" y1="445.207" x2="580.848" y2="331.804" gradientUnits="userSpaceOnUse">
<stop stop-color="#D9D9D9"/>
<stop offset="1" stop-color="#737373"/>
</linearGradient>
<linearGradient id="paint19_linear_3330_3" x1="293.453" y1="403.224" x2="33.8574" y2="378.653" gradientUnits="userSpaceOnUse">
<stop stop-color="#009F92"/>
<stop offset="1" stop-color="#B7B7B5"/>
</linearGradient>
<linearGradient id="paint20_linear_3330_3" x1="270.512" y1="336.684" x2="257.349" y2="256.939" gradientUnits="userSpaceOnUse">
<stop stop-color="#D9D9D9"/>
<stop offset="1" stop-color="#009F92"/>
</linearGradient>
<linearGradient id="paint21_linear_3330_3" x1="189.614" y1="308.718" x2="185.817" y2="331.718" gradientUnits="userSpaceOnUse">
<stop stop-color="#C7CBD1"/>
<stop offset="1" stop-color="#66686B"/>
</linearGradient>
<linearGradient id="paint22_linear_3330_3" x1="191.533" y1="298.156" x2="189.785" y2="308.743" gradientUnits="userSpaceOnUse">
<stop stop-color="#D9D9D9"/>
<stop offset="1" stop-color="#737373"/>
</linearGradient>
<linearGradient id="paint23_linear_3330_3" x1="302.243" y1="445.207" x2="236.768" y2="331.804" gradientUnits="userSpaceOnUse">
<stop stop-color="#D9D9D9"/>
<stop offset="1" stop-color="#737373"/>
</linearGradient>
<linearGradient id="paint24_linear_3330_3" x1="406.996" y1="68.7148" x2="406.996" y2="329.784" gradientUnits="userSpaceOnUse">
<stop stop-color="white"/>
<stop offset="0.783773" stop-color="#7BA1A2"/>
</linearGradient>
</defs>
</svg>
