<svg xmlns="http://www.w3.org/2000/svg" width="956" height="762" fill="none" viewBox="0 0 956 762"><path fill="url(#a)" d="M163.589 173.834c-42.639 2.953-79.63 45.812-92.795 66.873 1.309 26.512 69.702 116.961 103.735 158.871.737-5.386 53.81-52.54 80.255-75.443z"/><path fill="url(#b)" d="M267.071 38.282c-33.886-5.197-99.041 50.177-127.383 78.513-7.54 23.1 53.458 133.261 84.9 185.453l120.154-80.875c-12.755-9.155-57.095-125.875-77.671-183.09"/><path fill="url(#c)" d="M542.232 489.921c14.297 15.678 140.267 33.492 201.464 40.439l16.457 48.591c-138.264 33.391-221.17 12.734-245.34-1.768z"/><path fill="url(#d)" d="m880.823 492.735-12.882-39.695-63.893 10.222c-10.197 20.706.877 42.121 7.689 50.241z"/><path fill="url(#e)" d="M426.749 444.263c-36.274 36.721-48.232 98.745-49.676 125.167 73.23 41.81 153.312 51.563 184.2 51.213-10.912-26.442-4.76-101.3-.32-135.424-6.878 6.189-92.335-24.725-134.204-40.956"/><path fill="url(#f)" d="M368.95 398.509c2.905-27.315 36.768-65.734 53.336-81.529 73.669 93.773 201.438 125.556 256.114 129.726l-8.627 80.791c1.934 1.751-12.005 2.473-83.231-8.651-71.227-11.123-174.739-84.859-217.592-120.337"/><path fill="url(#g)" d="M875.441 540.416c-3.468-2.664-8.585-18.967-10.709-26.785l-46.437 11.787c-3.766 11.53 9.772 30.307 17.012 38.254z"/><path fill="url(#h)" d="M596.258 459.291c-17.129 25.047-.592 76.638 9.817 99.304 68.971 21.531 189.805-4.978 241.601-20.924l-23.937-56.033c-33.279 24.746-165.52-4.587-227.481-22.347"/><path fill="url(#i)" d="M296.599 217.305c-42.534 12.526-99.548 67.733-122.739 93.771 72.594 128.522 214.512 205.668 276.397 228.175-2.455-24.162 19.034-76.701 30.085-99.95-50.855-28.872-143.685-160.027-183.743-221.996"/><defs><linearGradient id="a" x1="71.743" x2="252.885" y1="238.779" y2="327.99" gradientUnits="userSpaceOnUse"><stop stop-color="#222059"/><stop offset="1" stop-color="#ee6f36"/></linearGradient><linearGradient id="b" x1="139.214" x2="345.691" y1="117.758" y2="219.446" gradientUnits="userSpaceOnUse"><stop stop-color="#222059"/><stop offset="1" stop-color="#ee6f36"/></linearGradient><linearGradient id="c" x1="533.869" x2="744.78" y1="506.901" y2="610.773" gradientUnits="userSpaceOnUse"><stop stop-color="#222059"/><stop offset="1" stop-color="#ee6f36"/></linearGradient><linearGradient id="d" x1="803.104" x2="876.574" y1="465.18" y2="501.363" gradientUnits="userSpaceOnUse"><stop stop-color="#222059"/><stop offset="1" stop-color="#ee6f36"/></linearGradient><linearGradient id="e" x1="395.798" x2="580.107" y1="491.63" y2="582.401" gradientUnits="userSpaceOnUse"><stop stop-color="#222059"/><stop offset="1" stop-color="#ee6f36"/></linearGradient><linearGradient id="f" x1="382.71" x2="679.125" y1="363.202" y2="509.184" gradientUnits="userSpaceOnUse"><stop stop-color="#222059"/><stop offset="1" stop-color="#ee6f36"/></linearGradient><linearGradient id="g" x1="819.242" x2="871.178" y1="523.494" y2="549.072" gradientUnits="userSpaceOnUse"><stop stop-color="#222059"/><stop offset="1" stop-color="#ee6f36"/></linearGradient><linearGradient id="h" x1="595.006" x2="828.717" y1="461.066" y2="576.166" gradientUnits="userSpaceOnUse"><stop stop-color="#222059"/><stop offset="1" stop-color="#ee6f36"/></linearGradient><linearGradient id="i" x1="185.701" x2="498.584" y1="287.032" y2="441.124" gradientUnits="userSpaceOnUse"><stop stop-color="#222059"/><stop offset="1" stop-color="#ee6f36"/></linearGradient></defs></svg>