<svg xmlns="http://www.w3.org/2000/svg" width="951" height="703" fill="none" viewBox="0 0 951 703"><path fill="url(#a)" d="M808.052 527.237c42.156-7.047 74.845-53.271 85.92-75.502-3.858-26.264-80.647-109.702-118.559-148.138-.215 5.431-48.498 57.48-72.613 82.825z"/><path fill="url(#b)" d="M718.11 672.128c34.229 1.908 93.746-59.485 119.226-90.42 5.279-23.719-66.048-127.49-102.372-176.411l-111.803 92.076c13.577 7.883 68.957 119.788 94.949 174.755"/><path fill="url(#c)" d="M400.715 249.102c-15.741-14.228-142.84-19.822-204.423-20.841l-21.061-46.779c134.403-46.557 218.914-33.984 244.369-21.878z"/><path fill="url(#d)" d="m63.43 278.923 16.647 38.27 62.61-16.331c8.155-21.592-4.931-41.84-12.494-49.266z"/><path fill="url(#e)" d="M520.06 283.421c32.568-40.045 38.494-102.933 37.386-129.371-76.917-34.561-157.567-36.553-188.277-33.228 13.408 25.267 14.497 100.37 13.366 134.763 6.249-6.823 94.287 15.714 137.525 27.836"/><path fill="url(#f)" d="M581.999 323.394c-.26 27.467-30.263 68.97-45.233 86.288-82.361-86.239-212.598-105.564-267.421-104.447l.803-81.246c-2.094-1.557 11.71-3.618 83.677.592 71.967 4.209 182.102 67.629 228.174 98.813"/><path fill="url(#g)" d="M64.193 230.945c3.708 2.318 10.372 18.052 13.24 25.629l45.085-16.206c2.638-11.839-12.646-29.225-20.618-36.438z"/><path fill="url(#h)" d="M349.892 284.794c14.637-26.581-6.794-76.339-19.338-97.896-70.726-14.786-188.443 23.242-238.461 44.104l29.223 53.466c30.741-27.837 165.193-11.382 228.576.326"/><path fill="url(#i)" d="M671.472 496.784c41.129-16.566 92.559-77.01 113.133-105.161-84.639-120.93-233.329-184.043-297.094-200.484 4.771 23.814-11.556 78.179-20.316 102.385 53.401 23.837 158.435 145.438 204.277 203.26"/><defs><linearGradient id="a" x1="893.213" x2="704.318" y1="453.745" y2="382.402" gradientUnits="userSpaceOnUse"><stop stop-color="#222059"/><stop offset="1" stop-color="#ee6f36"/></linearGradient><linearGradient id="b" x1="837.715" x2="622.402" y1="580.703" y2="499.382" gradientUnits="userSpaceOnUse"><stop stop-color="#222059"/><stop offset="1" stop-color="#ee6f36"/></linearGradient><linearGradient id="c" x1="407.403" x2="187.466" y1="231.395" y2="148.327" gradientUnits="userSpaceOnUse"><stop stop-color="#222059"/><stop offset="1" stop-color="#ee6f36"/></linearGradient><linearGradient id="d" x1="143.442" x2="66.828" y1="298.863" y2="269.926" gradientUnits="userSpaceOnUse"><stop stop-color="#222059"/><stop offset="1" stop-color="#ee6f36"/></linearGradient><linearGradient id="e" x1="546.304" x2="354.107" y1="233.291" y2="160.701" gradientUnits="userSpaceOnUse"><stop stop-color="#222059"/><stop offset="1" stop-color="#ee6f36"/></linearGradient><linearGradient id="f" x1="571.704" x2="262.604" y1="359.862" y2="243.118" gradientUnits="userSpaceOnUse"><stop stop-color="#222059"/><stop offset="1" stop-color="#ee6f36"/></linearGradient><linearGradient id="g" x1="121.761" x2="67.602" y1="242.374" y2="221.919" gradientUnits="userSpaceOnUse"><stop stop-color="#222059"/><stop offset="1" stop-color="#ee6f36"/></linearGradient><linearGradient id="h" x1="350.968" x2="107.254" y1="282.906" y2="190.859" gradientUnits="userSpaceOnUse"><stop stop-color="#222059"/><stop offset="1" stop-color="#ee6f36"/></linearGradient><linearGradient id="i" x1="775.136" x2="448.863" y1="416.696" y2="293.467" gradientUnits="userSpaceOnUse"><stop stop-color="#222059"/><stop offset="1" stop-color="#ee6f36"/></linearGradient></defs></svg>