<svg xmlns="http://www.w3.org/2000/svg" width="438" height="570" fill="none" viewBox="0 0 438 570"><path fill="#0b2f4d" fill-opacity=".2" d="m30.702 551.035 324.207 11.321 48.065-45.93 1.811-51.873 15.948-374.25 1.902-54.467-14.124-16.94-244.668-8.544L28.767 135.476l-2.657 76.08-8.363 239.481L15 529.712zM31.725 50.75 79.981 7.423l63.977 2.234L29.461 115.591z"/><path fill="url(#a)" d="m429.971 98.415-9.238-8.113-15.948 374.251 12.687-8.213z"/><path fill="url(#b)" d="m429.971 98.415-9.238-8.113-15.948 374.251 12.687-8.213z"/><path fill="url(#c)" d="m26.11 211.556-10.737 10.013c-3.41 72.88-9.713 218.659-7.638 218.732 2.075.072 7.539 7.188 10.012 10.736z"/><path fill="url(#d)" d="m26.11 211.556-10.737 10.013c-3.41 72.88-9.713 218.659-7.638 218.732 2.075.072 7.539 7.188 10.012 10.736z"/><path stroke="url(#e)" stroke-width="14.649" d="M38.749 147.077 25.616 523.158l11.56 15.984 318.155 11.11 36.775-36.802 21.4-464.084M26.11 211.556l2.657-76.08L163.843 10.352l244.668 8.544 14.124 16.94-1.902 54.466M26.11 211.556l-10.737 10.013c-3.41 72.88-9.713 218.659-7.638 218.732 2.075.072 7.539 7.188 10.012 10.736m8.363-239.481-8.363 239.481m0 0L15 529.712l15.702 21.323 324.207 11.321 48.065-45.93 1.811-51.873m15.948-374.25 9.238 8.112-12.499 357.925-12.687 8.213m15.948-374.25-15.948 374.25M31.725 50.75 79.981 7.423l63.977 2.234L29.461 115.591z"/><defs><linearGradient id="a" x1="270.828" x2="87.496" y1="66.404" y2="468.437" gradientUnits="userSpaceOnUse"><stop stop-color="#19afa6"/><stop offset="1" stop-color="#196a64"/></linearGradient><linearGradient id="b" x1="227.247" x2="208.226" y1="12.566" y2="557.234" gradientUnits="userSpaceOnUse"><stop stop-color="#222059"/><stop offset="1" stop-color="#ee6f36"/></linearGradient><linearGradient id="c" x1="270.828" x2="87.496" y1="66.404" y2="468.437" gradientUnits="userSpaceOnUse"><stop stop-color="#19afa6"/><stop offset="1" stop-color="#196a64"/></linearGradient><linearGradient id="d" x1="227.247" x2="208.226" y1="12.566" y2="557.234" gradientUnits="userSpaceOnUse"><stop stop-color="#222059"/><stop offset="1" stop-color="#ee6f36"/></linearGradient><linearGradient id="e" x1="227.247" x2="208.226" y1="12.566" y2="557.234" gradientUnits="userSpaceOnUse"><stop stop-color="#222059"/><stop offset="1" stop-color="#bf5626"/></linearGradient></defs></svg>