<svg xmlns="http://www.w3.org/2000/svg" width="433" height="565" fill="none" viewBox="0 0 433 565"><path fill="#0b0f4d" fill-opacity=".2" d="m28.19 551.275 327.018 10.577 48.359-46.448 1.692-52.324 15.114-377.504 1.777-54.94-14.289-17.048L161.07 5.606 25.16 132.154l-2.483 76.741-7.813 241.558-2.567 79.357zM27.924 46.693 76.48 2.87l64.532 2.087-115.205 107.14z"/><path fill="url(#a)" d="m429.711 93.735-9.338-8.16-15.114 377.505 12.775-8.316z"/><path fill="url(#b)" d="m429.711 93.735-9.338-8.16-15.114 377.505 12.775-8.316z"/><path fill="url(#c)" d="m22.677 208.895-10.803 10.126c-3.25 73.515-9.23 220.561-7.136 220.629 2.093.068 7.623 7.23 10.126 10.803z"/><path fill="url(#d)" d="m22.677 208.895-10.803 10.126c-3.25 73.515-9.23 220.561-7.136 220.629 2.093.068 7.623 7.23 10.126 10.803z"/><path stroke="url(#e)" stroke-width="5.669" d="m35.257 143.829-12.27 379.343 11.702 16.092 320.914 10.38 36.996-37.214 20.379-468.122m-390.3 164.587 2.481-76.741L161.07 5.606l246.791 7.982 14.289 17.049-1.777 54.939M22.677 208.895l-10.803 10.126c-3.25 73.515-9.23 220.561-7.136 220.629 2.093.068 7.623 7.23 10.126 10.803m7.813-241.558-7.813 241.558m0 0-2.567 79.357 15.892 21.465 327.019 10.577 48.359-46.448 1.692-52.324m15.114-377.504 9.338 8.159-11.677 361.029-12.775 8.316m15.114-377.504L405.259 463.08M27.924 46.693 76.48 2.87l64.532 2.087-115.205 107.14z"/><defs><linearGradient id="a" x1="269.119" x2="85.257" y1="61.861" y2="467.821" gradientUnits="userSpaceOnUse"><stop stop-color="#19afa6"/><stop offset="1" stop-color="#196a64"/></linearGradient><linearGradient id="b" x1="225.024" x2="207.254" y1="7.674" y2="557.067" gradientUnits="userSpaceOnUse"><stop stop-color="#222059"/><stop offset="1" stop-color="#ee6f36"/></linearGradient><linearGradient id="c" x1="269.119" x2="85.257" y1="61.861" y2="467.821" gradientUnits="userSpaceOnUse"><stop stop-color="#19afa6"/><stop offset="1" stop-color="#196a64"/></linearGradient><linearGradient id="d" x1="225.024" x2="207.254" y1="7.674" y2="557.067" gradientUnits="userSpaceOnUse"><stop stop-color="#222059"/><stop offset="1" stop-color="#ee6f36"/></linearGradient><linearGradient id="e" x1="225.024" x2="207.254" y1="7.674" y2="557.067" gradientUnits="userSpaceOnUse"><stop stop-color="#222059"/><stop offset="1" stop-color="#f4763e"/></linearGradient></defs></svg>