<svg xmlns="http://www.w3.org/2000/svg" width="303" height="86" fill="none" viewBox="0 0 303 86"><g filter="url(#a)"><path fill="#fff" d="m270.176 18.338 20.906-.847 7.037 60.425-11.747.382-1.133-16.8-6.571.549-1.411 15.347-18.416-.749zm9.516 12.043-2.683 21.706 6.698.217z"/><path fill="url(#b)" d="m270.176 18.338 20.906-.847 7.037 60.425-11.747.382-1.133-16.8-6.571.549-1.411 15.347-18.416-.749zm9.516 12.043-2.683 21.706 6.698.217z"/><path fill="#fff" d="m220.519 15.818 33.665.48 2.386 1.6 1.133 26.25-5.044 5.171-8.546.333 12.58 25.705-9.483 1.065-13.017-26.329-.457-.015-.67 25.43-16.27-1.136zm11.933 8.006-.075 16.457 10.789.959 1.916-7.406-1.973-9.665z"/><path fill="url(#c)" d="m220.519 15.818 33.665.48 2.386 1.6 1.133 26.25-5.044 5.171-8.546.333 12.58 25.705-9.483 1.065-13.017-26.329-.457-.015-.67 25.43-16.27-1.136zm11.933 8.006-.075 16.457 10.789.959 1.916-7.406-1.973-9.665z"/><path fill="#fff" d="m192.447 28.093-8.427-.959 1.454-11.992 30.961 1.61-1.174 12.764-9.351-.683-.883 46.148-13.39-.661z"/><path fill="url(#d)" d="m192.447 28.093-8.427-.959 1.454-11.992 30.961 1.61-1.174 12.764-9.351-.683-.883 46.148-13.39-.661z"/><path fill="#fff" d="m153.449 15.02 21.069-1.147 4.93 3.055 2.228 15.921-14.055 1.07-3.246-8.03-3.83.638.944 36.759 7.505-1.13-.515-17.084 13.889-.618 2.4 15.318-5.487 14.148-27.452.636-4.911-3.665.171-47.695z"/><path fill="url(#e)" d="m153.449 15.02 21.069-1.147 4.93 3.055 2.228 15.921-14.055 1.07-3.246-8.03-3.83.638.944 36.759 7.505-1.13-.515-17.084 13.889-.618 2.4 15.318-5.487 14.148-27.452.636-4.911-3.665.171-47.695z"/><path fill="#fff" d="m107.6 13.232 33.174 1.53.244 11.286-19.619-1.244-.099 7.769 14.669 3.523.328 8.697-16.57 3.426.078 11.737 23.023-.322-.453 14.006L108.3 71.7l-1.935-3.796z"/><path fill="url(#f)" d="m107.6 13.232 33.174 1.53.244 11.286-19.619-1.244-.099 7.769 14.669 3.523.328 8.697-16.57 3.426.078 11.737 23.023-.322-.453 14.006L108.3 71.7l-1.935-3.796z"/><path fill="#fff" d="m78.614 12.143 14.281 1.376-.573 46.006 9.905.015.564 10.839-24.373-.331z"/><path fill="url(#g)" d="m78.614 12.143 14.281 1.376-.573 46.006 9.905.015.564 10.839-24.373-.331z"/><path fill="url(#h)" d="M42.534 3.69c16.776.542 30.575 12.189 34.573 27.656-3.91-7.743-11.71-13.681-21.395-15.247-15.47-2.5-29.89 7.1-32.21 21.445-2.318 14.344 8.342 28 23.812 30.501 9.921 1.604 19.411-1.77 25.554-8.181-6.71 10.962-18.958 18.107-32.722 17.662-20.39-.66-36.383-17.723-35.724-38.113C5.082 19.024 22.145 3.03 42.534 3.69"/><path fill="url(#i)" d="M50.484 19.637c11.846.383 21.139 10.297 20.756 22.144a21.5 21.5 0 0 1-1.028 5.918c-.659 2.038-3.117 2.61-4.875 1.39-1.453-1.01-1.906-2.919-1.496-4.64.222-.932.354-1.9.386-2.895.258-7.974-5.997-14.647-13.97-14.905S35.61 32.647 35.353 40.62c-.258 7.974 5.996 14.647 13.97 14.905a14.38 14.38 0 0 0 8.459-2.404c1.465-.975 3.401-1.206 4.847-.202 1.766 1.227 2.08 3.743.387 5.07a21.37 21.37 0 0 1-13.92 4.548C37.25 62.153 27.957 52.24 28.34 40.393s10.297-21.139 22.144-20.756"/><path fill="#17619a" d="M53.8 51.522q-3.51 1.154-6.632.658-3.084-.509-5.312-2.398-2.24-1.926-3.243-4.98-1.016-3.09-.381-5.92.66-2.88 2.7-5.03 2.03-2.19 5.158-3.218 3.015-.99 5.845-.483 2.856.456 5.057 2.396 2.19 1.902 3.28 5.222a10 10 0 0 1 .267.992.73.73 0 0 1-.485.855L44.708 44.66a.734.734 0 0 1-.926-.468l-.683-2.078a.734.734 0 0 1 .468-.926l10.963-3.604c.436-.143.759.41.42.72-.228.208-.596.111-.717-.173q-.504-1.18-1.333-1.956a4.85 4.85 0 0 0-2.395-1.242q-1.371-.31-2.897.191-1.526.502-2.483 1.577-.931 1.025-1.18 2.46-.259 1.395.28 3.036l.301.916q.552 1.68 1.703 2.738a5.44 5.44 0 0 0 2.738 1.256q1.587.198 3.419-.405 1.64-.54 2.698-1.436a7.2 7.2 0 0 0 1.42-1.595c.225-.344.676-.481 1.035-.28l3.063 1.706a.694.694 0 0 1 .297.92q-.876 1.701-2.452 3.048-1.86 1.542-4.647 2.457"/><path fill="url(#j)" d="M42.534 3.689c16.775.542 30.575 12.19 34.573 27.656-3.91-7.742-11.71-13.68-21.395-15.246-15.47-2.501-29.89 7.1-32.209 21.444-1.72 10.641 3.703 20.902 12.932 26.512-13.55-5.49-22.905-18.984-22.405-34.448a35.74 35.74 0 0 1 6.56-19.56A36.77 36.77 0 0 1 42.534 3.69"/></g><defs><linearGradient id="b" x1="166.553" x2="168.631" y1="78.909" y2="14.666" gradientUnits="userSpaceOnUse"><stop stop-color="#17619a"/><stop offset="1" stop-color="#b1e5ff"/></linearGradient><linearGradient id="c" x1="166.553" x2="168.631" y1="78.91" y2="14.667" gradientUnits="userSpaceOnUse"><stop stop-color="#17619a"/><stop offset="1" stop-color="#b1e5ff"/></linearGradient><linearGradient id="d" x1="166.553" x2="168.631" y1="78.909" y2="14.667" gradientUnits="userSpaceOnUse"><stop stop-color="#17619a"/><stop offset="1" stop-color="#b1e5ff"/></linearGradient><linearGradient id="e" x1="166.553" x2="168.631" y1="78.909" y2="14.666" gradientUnits="userSpaceOnUse"><stop stop-color="#17619a"/><stop offset="1" stop-color="#b1e5ff"/></linearGradient><linearGradient id="f" x1="166.553" x2="168.631" y1="78.909" y2="14.667" gradientUnits="userSpaceOnUse"><stop stop-color="#17619a"/><stop offset="1" stop-color="#b1e5ff"/></linearGradient><linearGradient id="g" x1="166.553" x2="168.631" y1="78.909" y2="14.667" gradientUnits="userSpaceOnUse"><stop stop-color="#17619a"/><stop offset="1" stop-color="#b1e5ff"/></linearGradient><linearGradient id="h" x1="40.415" x2="18.283" y1="43.674" y2="83.219" gradientUnits="userSpaceOnUse"><stop stop-color="#17619a"/><stop offset="1" stop-color="#082134"/></linearGradient><linearGradient id="i" x1="49.096" x2="50.484" y1="62.536" y2="19.637" gradientUnits="userSpaceOnUse"><stop stop-color="#17619a"/><stop offset="1" stop-color="#b1e5ff"/></linearGradient><linearGradient id="j" x1="50.73" x2="16.342" y1="12.006" y2="60.239" gradientUnits="userSpaceOnUse"><stop stop-color="#45afe4"/><stop offset="1" stop-color="#26617e"/></linearGradient><filter id="a" width="305.827" height="92.171" x="-1.174" y="-1.173" color-interpolation-filters="sRGB" filterUnits="userSpaceOnUse"><feFlood flood-opacity="0" result="BackgroundImageFix"/><feColorMatrix in="SourceAlpha" result="hardAlpha" values="0 0 0 0 0 0 0 0 0 0 0 0 0 0 0 0 0 0 127 0"/><feOffset dy=".734"/><feGaussianBlur stdDeviation="2.201"/><feComposite in2="hardAlpha" operator="out"/><feColorMatrix values="0 0 0 0 0 0 0 0 0 0 0 0 0 0 0 0 0 0 0.46 0"/><feBlend in2="BackgroundImageFix" result="effect1_dropShadow_2045_6624"/><feBlend in="SourceGraphic" in2="effect1_dropShadow_2045_6624" result="shape"/></filter></defs></svg>