<svg xmlns="http://www.w3.org/2000/svg" width="291" height="267" fill="none" viewBox="0 0 291 267"><path fill="url(#a)" d="M228.046 215.135c13.121 1.696 26.954-9.063 32.231-14.655 1.215-8.127-14.045-39.738-21.826-54.528-.551 1.59-19.527 12.675-28.946 18.019z"/><path fill="url(#b)" d="M188.395 249.986c9.969 3.637 33.112-9.208 43.437-16.085 3.693-6.553-8.123-43.698-14.493-61.451l-41.387 17.241c3.315 3.555 9.676 41.677 12.443 60.295"/><path fill="url(#c)" d="M132.338 96.174c-3.386-5.628-40.537-18.694-58.69-24.523l-2.04-15.75c43.996-1.728 67.904 9.583 74.358 15.455z"/><path fill="url(#d)" d="m29.74 74.733 1.497 12.832 20.014.782c4.354-5.665 2.295-12.838.721-15.716z"/><path fill="url(#e)" d="M164.614 117.053c13.242-8.94 20.643-27.038 22.688-34.97-19.685-17.143-43.398-24.972-52.795-26.744 1.705 8.69-4.714 31.036-8.137 41.124 2.464-1.46 26.523 13.118 38.244 20.59"/><path fill="url(#f)" d="M179.375 134.455c-2.543 8.114-15.157 17.716-21.146 21.503-16.658-32.941-53.506-50.357-69.848-54.947l7.53-23.997c-.48-.65 3.795-.02 24.737 7.686 20.943 7.707 47.877 36.381 58.727 49.755"/><path fill="url(#g)" d="M34.273 60.588c.891 1.02 1.453 6.28 1.622 8.781l14.811-.754c1.844-3.27-1.123-9.793-2.837-12.645z"/><path fill="url(#h)" d="M114.078 102.186c6.722-6.56 4.84-23.226 3.058-30.738-19.625-10.728-57.912-10.03-74.602-8.339l3.858 18.463c11.605-5.488 49.96 11.456 67.686 20.614"/><path fill="url(#i)" d="M190.317 193.854c13.672-1.216 34.334-14.506 42.956-20.999-14.22-43.423-52.604-75.467-70.019-86.061-.724 7.483-10.441 22.123-15.208 28.508 13.68 11.855 33.881 57.307 42.271 78.552"/><defs><linearGradient id="a" x1="259.872" x2="210.315" y1="201.007" y2="162.916" gradientUnits="userSpaceOnUse"><stop stop-color="#222059"/><stop offset="1" stop-color="#ee6f36"/></linearGradient><linearGradient id="b" x1="232.034" x2="175.547" y1="233.637" y2="190.218" gradientUnits="userSpaceOnUse"><stop stop-color="#222059"/><stop offset="1" stop-color="#ee6f36"/></linearGradient><linearGradient id="c" x1="135.909" x2="78.209" y1="91.529" y2="47.178" gradientUnits="userSpaceOnUse"><stop stop-color="#222059"/><stop offset="1" stop-color="#ee6f36"/></linearGradient><linearGradient id="d" x1="51.654" x2="31.555" y1="87.823" y2="72.373" gradientUnits="userSpaceOnUse"><stop stop-color="#222059"/><stop offset="1" stop-color="#ee6f36"/></linearGradient><linearGradient id="e" x1="176.888" x2="126.466" y1="104.558" y2="65.801" gradientUnits="userSpaceOnUse"><stop stop-color="#222059"/><stop offset="1" stop-color="#ee6f36"/></linearGradient><linearGradient id="f" x1="173.052" x2="91.96" y1="144.335" y2="82.004" gradientUnits="userSpaceOnUse"><stop stop-color="#222059"/><stop offset="1" stop-color="#ee6f36"/></linearGradient><linearGradient id="g" x1="50.302" x2="36.093" y1="69.141" y2="58.22" gradientUnits="userSpaceOnUse"><stop stop-color="#222059"/><stop offset="1" stop-color="#ee6f36"/></linearGradient><linearGradient id="h" x1="114.566" x2="50.628" y1="101.723" y2="52.578" gradientUnits="userSpaceOnUse"><stop stop-color="#222059"/><stop offset="1" stop-color="#ee6f36"/></linearGradient><linearGradient id="i" x1="228.217" x2="142.62" y1="179.433" y2="113.639" gradientUnits="userSpaceOnUse"><stop stop-color="#222059"/><stop offset="1" stop-color="#ee6f36"/></linearGradient></defs></svg>