<svg xmlns="http://www.w3.org/2000/svg" width="208" height="166" fill="none" viewBox="0 0 208 166"><path fill="url(#a)" d="M-39.64 112.813c-12-4.847-18.634-20.655-20.45-27.953 2.862-7.51 31.032-27.142 44.76-36.02-.293 1.62 10.568 20.172 16.036 29.246z"/><path fill="url(#b)" d="M-22.552 161.542c-10.244-1.68-23.813-23.731-29.317-34.546-.006-7.358 27.883-33.359 41.828-45.44l27.015 34.55c-4.53 1.44-28.238 30.891-39.526 45.436"/><path fill="url(#c)" d="M99.01 57.295c5.586-3.174 43.526 3.505 61.797 7.241l9.293-12.448C133.42 29.514 107.613 27.69 99.295 29.6z"/><path fill="url(#d)" d="m196.763 88.223-7.43 10.222-17.438-8.932c-.996-6.918 4.2-12.046 6.923-13.745z"/><path fill="url(#e)" d="M61.48 59.616c-7.003-13.973-4.632-32.952-2.571-40.695 25.004-5.174 48.976-.476 57.837 2.52-5.621 6.59-10.866 28.721-12.787 38.963-1.4-2.427-28.903-1.536-42.48-.788"/><path fill="url(#f)" d="M40.548 67.373c-1.724 8.137 4.424 22.373 7.714 28.474 30.001-20.095 69.769-17.27 85.903-13.345l5.089-24.07c.721-.324-3.225-1.838-24.776-5.312-21.55-3.473-58.266 8.054-73.93 14.253"/><path fill="url(#g)" d="M199.684 73.99c-1.249.442-4.25 4.656-5.595 6.708l-12.265-7.746c-.004-3.673 5.654-7.81 8.484-9.42z"/><path fill="url(#h)" d="M111.694 71.179c-2.585-8.818 7.013-22.122 12.134-27.672 21.877.265 54.184 19.224 67.603 28.67l-12.145 13.89c-7.262-10.244-48.088-14.194-67.592-14.888"/><path fill="url(#i)" d="M2.732 112.764c-11.073-7.593-22.314-28.833-26.55-38.504C9.13 44.06 57.224 35.15 77.152 34.47c-2.972 6.727-1.71 23.869-.707 31.599-17.349 3.546-56.37 32.608-73.713 46.695"/><defs><linearGradient id="a" x1="-59.998" x2=".52" y1="85.504" y2="76.798" gradientUnits="userSpaceOnUse"><stop stop-color="#222059"/><stop offset="1" stop-color="#ee6f36"/></linearGradient><linearGradient id="b" x1="-51.916" x2="17.067" y1="126.674" y2="116.749" gradientUnits="userSpaceOnUse"><stop stop-color="#222059"/><stop offset="1" stop-color="#ee6f36"/></linearGradient><linearGradient id="c" x1="98.193" x2="168.657" y1="51.622" y2="41.485" gradientUnits="userSpaceOnUse"><stop stop-color="#222059"/><stop offset="1" stop-color="#ee6f36"/></linearGradient><linearGradient id="d" x1="171.802" x2="196.348" y1="88.872" y2="85.341" gradientUnits="userSpaceOnUse"><stop stop-color="#222059"/><stop offset="1" stop-color="#ee6f36"/></linearGradient><linearGradient id="e" x1="57.008" x2="118.584" y1="43.077" y2="34.218" gradientUnits="userSpaceOnUse"><stop stop-color="#222059"/><stop offset="1" stop-color="#ee6f36"/></linearGradient><linearGradient id="f" x1="41.2" x2="140.23" y1="78.828" y2="64.581" gradientUnits="userSpaceOnUse"><stop stop-color="#222059"/><stop offset="1" stop-color="#ee6f36"/></linearGradient><linearGradient id="g" x1="181.916" x2="199.267" y1="73.594" y2="71.098" gradientUnits="userSpaceOnUse"><stop stop-color="#222059"/><stop offset="1" stop-color="#ee6f36"/></linearGradient><linearGradient id="h" x1="111.499" x2="189.58" y1="70.55" y2="59.317" gradientUnits="userSpaceOnUse"><stop stop-color="#222059"/><stop offset="1" stop-color="#ee6f36"/></linearGradient><linearGradient id="i" x1="-22.663" x2="81.868" y1="82.293" y2="67.254" gradientUnits="userSpaceOnUse"><stop stop-color="#222059"/><stop offset="1" stop-color="#ee6f36"/></linearGradient></defs></svg>