<svg xmlns="http://www.w3.org/2000/svg" width="296" height="249" fill="none" viewBox="0 0 296 249"><path fill="url(#a)" d="M55.497 53.04c-13.23-.103-25.666 12.245-30.23 18.432-.226 8.214 18.732 37.756 28.24 51.5.355-1.645 17.856-14.936 26.563-21.376z"/><path fill="url(#b)" d="M90.658 13.664c-10.335-2.41-31.76 13.131-41.181 21.203-2.877 6.95 13.33 42.4 21.793 59.256l39.007-22.104c-3.719-3.129-14.629-40.207-19.619-58.355"/><path fill="url(#c)" d="M164.845 159.597c4.039 5.179 42.495 13.672 61.217 17.271l3.924 15.388c-43.467 7.019-68.564-1.328-75.679-6.379z"/><path fill="url(#d)" d="m269.279 168.516-3.032-12.557-19.963 1.636c-3.64 6.148-.731 13.02 1.179 15.688z"/><path fill="url(#e)" d="M130.288 142.76c-12.069 10.471-17.234 29.329-18.308 37.45 21.607 14.645 46.092 19.559 55.633 20.186-2.739-8.421.94-31.378 3.121-41.805-2.269 1.747-27.91-9.826-40.446-15.831"/><path fill="url(#f)" d="M113.537 127.265c1.546-8.361 12.911-19.414 18.4-23.895 20.507 30.693 59.186 43.541 75.962 46.128l-4.584 24.73c.555.586-3.764.477-25.482-4.649-21.719-5.127-51.914-30.346-64.296-42.314"/><path fill="url(#g)" d="M266.484 183.104c-1.007-.905-2.199-6.058-2.668-8.521l-14.613 2.533c-1.436 3.469 2.296 9.587 4.341 12.212z"/><path fill="url(#h)" d="M182.247 151.429c-5.882 7.323-2.005 23.639.669 30.882 20.775 8.285 58.699 2.976 75.064-.714l-6.055-17.863c-10.86 6.847-50.977-5.351-69.678-12.305"/><path fill="url(#i)" d="M95.515 69.618C82.09 72.473 63.181 88.156 55.404 95.641c19.35 41.393 61.316 68.577 79.881 76.995-.183-7.516 7.698-23.22 11.662-30.133-15.01-10.12-40.542-52.807-51.432-72.885"/><defs><linearGradient id="a" x1="25.606" x2="79.392" y1="70.9" y2="102.74" gradientUnits="userSpaceOnUse"><stop stop-color="#222059"/><stop offset="1" stop-color="#ee6f36"/></linearGradient><linearGradient id="b" x1="49.307" x2="110.616" y1="35.153" y2="71.447" gradientUnits="userSpaceOnUse"><stop stop-color="#222059"/><stop offset="1" stop-color="#ee6f36"/></linearGradient><linearGradient id="c" x1="161.86" x2="224.485" y1="164.639" y2="201.712" gradientUnits="userSpaceOnUse"><stop stop-color="#222059"/><stop offset="1" stop-color="#ee6f36"/></linearGradient><linearGradient id="d" x1="245.947" x2="267.762" y1="158.164" y2="171.078" gradientUnits="userSpaceOnUse"><stop stop-color="#222059"/><stop offset="1" stop-color="#ee6f36"/></linearGradient><linearGradient id="e" x1="119.609" x2="174.335" y1="156.643" y2="189.04" gradientUnits="userSpaceOnUse"><stop stop-color="#222059"/><stop offset="1" stop-color="#ee6f36"/></linearGradient><linearGradient id="f" x1="118.623" x2="206.637" y1="116.695" y2="168.798" gradientUnits="userSpaceOnUse"><stop stop-color="#222059"/><stop offset="1" stop-color="#ee6f36"/></linearGradient><linearGradient id="g" x1="249.541" x2="264.963" y1="176.545" y2="185.674" gradientUnits="userSpaceOnUse"><stop stop-color="#222059"/><stop offset="1" stop-color="#ee6f36"/></linearGradient><linearGradient id="h" x1="181.818" x2="251.214" y1="151.947" y2="193.028" gradientUnits="userSpaceOnUse"><stop stop-color="#222059"/><stop offset="1" stop-color="#ee6f36"/></linearGradient><linearGradient id="i" x1="59.63" x2="152.533" y1="88.502" y2="143.499" gradientUnits="userSpaceOnUse"><stop stop-color="#222059"/><stop offset="1" stop-color="#ee6f36"/></linearGradient></defs></svg>