<svg xmlns="http://www.w3.org/2000/svg" width="42" height="34" fill="none" viewBox="0 0 42 34"><path fill="url(#a)" d="M27.987 13.23a1.49 1.49 0 0 1 .772 2.88l-14.902 3.992a1.49 1.49 0 0 1-.772-2.88z"/><path fill="url(#b)" d="M37.385 12.496a17 17 0 0 1 .572 4.37c0 9.316-7.551 16.867-16.867 16.867-5.711 0-10.76-2.84-13.811-7.183l-5.402 1.447a1.49 1.49 0 0 1-.772-2.88l25.07-6.717q.096-.026.19-.038l-.003-.012c1.573-.422 3.194.526 3.62 2.116l-2.848.763-.003-.012q-.089.038-.184.063l-16.592 4.445a13.89 13.89 0 0 0 10.735 5.06c7.687 0 13.918-6.232 13.918-13.918 0-1.248-.164-2.457-.472-3.608zM21.09 0c5.619 0 10.596 2.747 13.66 6.972l5.373-1.44a1.49 1.49 0 0 1 .772 2.88L15.94 15.1q-.095.026-.19.038l.003.012c-1.573.422-3.193-.526-3.62-2.117l2.848-.763.004.012q.088-.036.183-.062l16.484-4.417A13.89 13.89 0 0 0 21.09 2.95c-7.686 0-13.917 6.231-13.917 13.918 0 1.336.188 2.63.54 3.853l-2.85.763a16.9 16.9 0 0 1-.64-4.616C4.224 7.55 11.776 0 21.09 0"/><defs><linearGradient id="a" x1="30.109" x2="25.376" y1="13.61" y2="25.301" gradientUnits="userSpaceOnUse"><stop stop-color="#f49a54"/><stop offset="1" stop-color="#ea513d"/></linearGradient><linearGradient id="b" x1="43.051" x2="-1.533" y1="10.38" y2="22.292" gradientUnits="userSpaceOnUse"><stop stop-color="#f49a54"/><stop offset="1" stop-color="#ea513d"/></linearGradient></defs></svg>