<svg xmlns="http://www.w3.org/2000/svg" width="163" height="162" fill="none" viewBox="0 0 163 162"><path fill="url(#a)" d="M34.543 46.498a62 62 0 0 1 2.868-3.58l11.575 1.366a51 51 0 0 1 8.67-6.27L60.1 26.515a60.4 60.4 0 0 1 8.666-2.848l8.38 7.937c3.502-.4 7.04-.43 10.55-.079l8.709-8.055a57 57 0 0 1 8.539 2.739l1.983 11.485a48 48 0 0 1 4.374 2.845 48 48 0 0 1 4.034 3.3l11.647-1.523a56 56 0 0 1 5.167 7.28l-5.178 10.636a48.5 48.5 0 0 1 3.05 10.017l10.124 5.59a59 59 0 0 1-.176 9.053l-10.348 5.723a50.3 50.3 0 0 1-3.469 10.07l4.743 10.561a62 62 0 0 1-5.466 7.358l-11.575-1.365a51 51 0 0 1-8.669 6.269l-2.445 11.499a60.5 60.5 0 0 1-8.666 2.849l-8.38-7.937c-3.502.399-7.04.429-10.55.078l-8.708 8.056a57 57 0 0 1-8.54-2.739l-1.984-11.487a48 48 0 0 1-8.407-6.144l-11.646 1.523a56 56 0 0 1-5.168-7.279l5.178-10.636a48.5 48.5 0 0 1-3.05-10.018l-10.124-5.588a59 59 0 0 1 .176-9.055l10.348-5.722a50.3 50.3 0 0 1 3.47-10.07l-4.744-10.562a62 62 0 0 1 2.598-3.778m25.57 18.689c-8.92 12.008-6.611 28.714 5.157 37.316 11.768 8.601 28.539 5.84 37.459-6.168s6.611-28.714-5.157-37.315c-11.768-8.602-28.539-5.84-37.46 6.167"/><path fill="url(#b)" d="M126.33 80.774c0 24.563-20.074 44.474-44.837 44.474-24.762 0-44.836-19.911-44.836-44.474S56.73 36.3 81.493 36.3c24.763 0 44.837 19.912 44.837 44.474"/><path fill="url(#c)" d="M125.709 80.774c0-24.222-19.796-43.857-44.216-43.857S37.278 56.552 37.278 80.774s19.796 43.858 44.215 43.858v.616c-24.762 0-44.836-19.911-44.836-44.474S56.73 36.3 81.493 36.3c24.763 0 44.837 19.912 44.837 44.474 0 24.563-20.074 44.474-44.837 44.474v-.616c24.42 0 44.216-19.636 44.216-43.858"/><path fill="url(#d)" d="M122.602 80.672c0 22.463-18.359 40.673-41.005 40.673S40.59 103.135 40.59 80.672s18.36-40.674 41.006-40.674 41.005 18.21 41.005 40.674"/><path fill="url(#e)" d="M121.981 80.672c0-22.123-18.081-40.058-40.384-40.058S41.213 58.55 41.213 80.672s18.08 40.057 40.384 40.057v.616c-22.647 0-41.006-18.21-41.006-40.673s18.36-40.674 41.006-40.674 41.005 18.21 41.005 40.674-18.359 40.673-41.005 40.673v-.616c22.303 0 40.384-17.934 40.384-40.057"/><path fill="url(#f)" d="M116.389 80.672c0 19.06-15.577 34.511-34.792 34.511S46.804 99.731 46.804 80.672 62.381 46.16 81.597 46.16c19.215 0 34.792 15.45 34.792 34.51"/><path fill="url(#g)" d="M115.768 80.672c0-18.72-15.299-33.895-34.171-33.895S47.426 61.952 47.426 80.672s15.298 33.894 34.17 33.894v.617c-19.215 0-34.792-15.452-34.792-34.511S62.381 46.16 81.597 46.16c19.215 0 34.792 15.45 34.792 34.51s-15.577 34.512-34.792 34.512v-.617c18.872 0 34.171-15.175 34.171-33.894"/><path fill="url(#h)" d="M68.22 70.881q.393-.526.816-1.017l3.29.388a14.5 14.5 0 0 1 2.465-1.782l.695-3.269a17 17 0 0 1 2.463-.81l2.382 2.257c.996-.114 2.001-.122 2.999-.023l2.475-2.29a16 16 0 0 1 2.428.78l.563 3.264a13.7 13.7 0 0 1 2.39 1.747l3.311-.433a16 16 0 0 1 1.469 2.069l-1.472 3.023c.392.916.681 1.871.867 2.848l2.878 1.589q.075 1.283-.05 2.573l-2.942 1.627a14.3 14.3 0 0 1-.986 2.862l1.349 3.003a17.6 17.6 0 0 1-1.554 2.091l-3.29-.388a14.5 14.5 0 0 1-2.465 1.782l-.695 3.269c-.802.333-1.626.603-2.463.81l-2.382-2.257c-.996.114-2.001.122-2.999.023l-2.475 2.29a16 16 0 0 1-2.428-.78l-.564-3.264a13.7 13.7 0 0 1-2.39-1.747l-3.31.433a16 16 0 0 1-1.469-2.069l1.472-3.023a13.8 13.8 0 0 1-.867-2.848l-2.878-1.588a17 17 0 0 1 .05-2.574l2.942-1.627a14.3 14.3 0 0 1 .986-2.862l-1.349-3.002q.347-.547.739-1.075m7.27 5.313c-2.536 3.413-1.88 8.162 1.465 10.607s8.113 1.66 10.648-1.753 1.88-8.162-1.466-10.607-8.112-1.66-10.648 1.753"/><g filter="url(#i)"><path fill="url(#j)" d="M75 86.843c-11.738 2.552-31.53 6.755-41.866 8.667l-1.495 4.657c-4.047-.313-12.1-1.112-11.942-1.8s6.245-4.638 9.269-6.526l3.842 1.736c9.846-4.04 28.647-11.32 39.397-15.438l9.018-.93a183 183 0 0 1 5.773-3.757l4.668 2.11-1.995 6.216a169 169 0 0 1-6.65-.647z"/><path fill="url(#k)" d="M89.536 80.81c7.04 7.41 18.836 19.948 24.789 26.621l4.094-.96c1.547 3.079 4.495 9.284 3.918 9.471-.577.188-6.167-2.5-8.889-3.868l-.406-3.557c-7.308-5.381-20.94-15.846-28.703-21.85l-4.648-6.146a156 156 0 0 1-5.31-2.545l-.493-4.32 5.465-1.282c.683 1.359 1.639 3.327 2.444 5.118z"/></g><g filter="url(#l)"><path fill="url(#m)" d="m107.305 86.547-2-5.034 1.962 1.313 3.494-1.357.43 3.983 3.69-1.226 9.652 1.342-11.38 1.197-1.728 2.539-2.392-5.296z"/><path fill="url(#n)" d="m118.118 88.449-4.331.33 2.914 1.17.141 1.846 6.594-1.546-5.151.392z"/></g><path fill="url(#o)" d="m107.305 86.547-2-5.034 1.962 1.313 3.494-1.357.43 3.983 3.69-1.226 9.652 1.342-11.38 1.197-1.728 2.539-2.392-5.296z"/><path fill="url(#p)" d="m118.118 88.449-4.331.33 2.914 1.17.141 1.846 6.594-1.546-5.151.392z"/><g filter="url(#q)"><path fill="url(#r)" d="m117.176 35.808-3.226-1.502 1.523-.249 1.04-2.198 2.007 1.701 1.192-2.223 5.178-3.653-4.846 5.628.331 1.975-3.531-1.453z"/><path fill="url(#s)" d="m123.154 31.898-1.904 2.08 1.914-.738.906.816 2.423-3.663-2.264 2.473z"/></g><path fill="url(#t)" d="m117.176 35.808-3.226-1.502 1.523-.249 1.04-2.198 2.007 1.701 1.192-2.223 5.178-3.653-4.846 5.628.331 1.975-3.531-1.453z"/><path fill="url(#u)" d="m123.154 31.898-1.904 2.08 1.914-.738.906.816 2.423-3.663-2.264 2.473z"/><g filter="url(#v)"><path fill="url(#w)" d="m31.035 62.308 1.193 3.326-1.25-.898-2.31.812-.192-2.608-2.434.723-6.266-1.08 7.449-.54 1.183-1.62 1.444 3.505z"/><path fill="url(#x)" d="m24.022 60.837 2.833-.124-1.876-.824-.05-1.205-4.336.868 3.369-.147z"/></g><path fill="url(#y)" d="m31.035 62.308 1.193 3.326-1.25-.898-2.31.812-.192-2.608-2.434.723-6.266-1.08 7.449-.54 1.183-1.62 1.444 3.505z"/><path fill="url(#z)" d="m24.022 60.837 2.833-.124-1.876-.824-.05-1.205-4.336.868 3.369-.147z"/><g filter="url(#A)"><path fill="url(#B)" d="m72.293 51.91-3.68 6.47-.281-3.222-4.467-2.553 3.905-3.892-4.495-2.874L56.4 34.398 67.49 45.49l4.214-.347-3.624 7.114z"/><path fill="url(#C)" d="m65.04 38.76 4.092 4.322-1.253-4.11 1.869-1.74-7.357-5.679 4.868 5.14z"/></g><path fill="url(#D)" d="m72.293 51.91-3.68 6.47-.281-3.222-4.467-2.553 3.905-3.892-4.495-2.874L56.4 34.398 67.49 45.49l4.214-.347-3.624 7.114z"/><path fill="url(#E)" d="m65.04 38.76 4.092 4.322-1.253-4.11 1.869-1.74-7.357-5.679 4.868 5.14z"/><g filter="url(#F)"><path fill="url(#G)" d="m62.026 104.122 6.853 2.353-3.032.828-1.636 4.669-4.428-3.015-1.94 4.753-9.706 8.495 8.614-12.42-1.093-3.925 7.46 2.187z"/><path fill="url(#H)" d="m50.754 113.303 3.408-4.615-3.716 1.899-2.007-1.459-4.122 7.931 4.053-5.489z"/></g><path fill="url(#I)" d="m62.026 104.122 6.853 2.353-3.032.828-1.636 4.669-4.428-3.015-1.94 4.753-9.706 8.495 8.614-12.42-1.093-3.925 7.46 2.187z"/><path fill="url(#J)" d="m50.754 113.303 3.408-4.615-3.716 1.899-2.007-1.459-4.122 7.931 4.053-5.489z"/><defs><linearGradient id="a" x1="34.543" x2="127.761" y1="46.498" y2="115.748" gradientUnits="userSpaceOnUse"><stop stop-color="#e14833"/><stop offset="1" stop-color="#ef7237"/></linearGradient><linearGradient id="b" x1="81.493" x2="81.493" y1="36.3" y2="125.248" gradientUnits="userSpaceOnUse"><stop stop-color="#222059"/><stop offset="1" stop-color="#35328c"/></linearGradient><linearGradient id="c" x1="81.493" x2="81.493" y1="36.3" y2="125.248" gradientUnits="userSpaceOnUse"><stop stop-color="#605eaf"/><stop offset="1" stop-color="#2c1d43"/></linearGradient><linearGradient id="d" x1="81.597" x2="81.597" y1="39.998" y2="121.345" gradientUnits="userSpaceOnUse"><stop stop-color="#222059"/><stop offset="1" stop-color="#35328c"/></linearGradient><linearGradient id="e" x1="81.597" x2="81.597" y1="39.998" y2="121.345" gradientUnits="userSpaceOnUse"><stop stop-color="#e14833"/><stop offset="1" stop-color="#ef7237"/></linearGradient><linearGradient id="f" x1="81.597" x2="81.597" y1="46.161" y2="115.183" gradientUnits="userSpaceOnUse"><stop stop-color="#222059"/><stop offset="1" stop-color="#35328c"/></linearGradient><linearGradient id="g" x1="81.597" x2="81.597" y1="46.161" y2="115.183" gradientUnits="userSpaceOnUse"><stop stop-color="#e14833"/><stop offset="1" stop-color="#ef7237"/></linearGradient><linearGradient id="h" x1="68.221" x2="94.719" y1="70.882" y2="90.566" gradientUnits="userSpaceOnUse"><stop stop-color="#e14833"/><stop offset="1" stop-color="#ef7237"/></linearGradient><linearGradient id="j" x1="57.423" x2="54.661" y1="92.413" y2="83.698" gradientUnits="userSpaceOnUse"><stop stop-color="#e04632"/><stop offset="1" stop-color="#f07537"/></linearGradient><linearGradient id="k" x1="101.369" x2="96.219" y1="91.137" y2="97.037" gradientUnits="userSpaceOnUse"><stop stop-color="#e04632"/><stop offset="1" stop-color="#f07537"/></linearGradient><linearGradient id="m" x1="116.98" x2="111.199" y1="80.513" y2="89.152" gradientUnits="userSpaceOnUse"><stop stop-color="#ffa147"/><stop offset="1" stop-color="#d34426"/></linearGradient><linearGradient id="n" x1="118.773" x2="118.527" y1="91.648" y2="88.418" gradientUnits="userSpaceOnUse"><stop stop-color="#ffa147"/><stop offset="1" stop-color="#d34426"/></linearGradient><linearGradient id="o" x1="116.98" x2="111.199" y1="80.513" y2="89.152" gradientUnits="userSpaceOnUse"><stop stop-color="#ffa147"/><stop offset="1" stop-color="#d34426"/></linearGradient><linearGradient id="p" x1="118.773" x2="118.527" y1="91.648" y2="88.418" gradientUnits="userSpaceOnUse"><stop stop-color="#ffa147"/><stop offset="1" stop-color="#d34426"/></linearGradient><linearGradient id="r" x1="119.024" x2="120.115" y1="28.64" y2="35.329" gradientUnits="userSpaceOnUse"><stop stop-color="#ffa147"/><stop offset="1" stop-color="#d34426"/></linearGradient><linearGradient id="s" x1="124.919" x2="123.345" y1="33.129" y2="31.688" gradientUnits="userSpaceOnUse"><stop stop-color="#ffa147"/><stop offset="1" stop-color="#d34426"/></linearGradient><linearGradient id="t" x1="119.024" x2="120.115" y1="28.64" y2="35.329" gradientUnits="userSpaceOnUse"><stop stop-color="#ffa147"/><stop offset="1" stop-color="#d34426"/></linearGradient><linearGradient id="u" x1="124.919" x2="123.345" y1="33.129" y2="31.688" gradientUnits="userSpaceOnUse"><stop stop-color="#ffa147"/><stop offset="1" stop-color="#d34426"/></linearGradient><linearGradient id="w" x1="24.591" x2="28.551" y1="66.04" y2="60.525" gradientUnits="userSpaceOnUse"><stop stop-color="#ffa147"/><stop offset="1" stop-color="#d34426"/></linearGradient><linearGradient id="x" x1="23.665" x2="23.757" y1="58.739" y2="60.849" gradientUnits="userSpaceOnUse"><stop stop-color="#ffa147"/><stop offset="1" stop-color="#d34426"/></linearGradient><linearGradient id="y" x1="24.591" x2="28.551" y1="66.04" y2="60.525" gradientUnits="userSpaceOnUse"><stop stop-color="#ffa147"/><stop offset="1" stop-color="#d34426"/></linearGradient><linearGradient id="z" x1="23.665" x2="23.757" y1="58.739" y2="60.849" gradientUnits="userSpaceOnUse"><stop stop-color="#ffa147"/><stop offset="1" stop-color="#d34426"/></linearGradient><linearGradient id="B" x1="57.482" x2="71.739" y1="46.803" y2="45.56" gradientUnits="userSpaceOnUse"><stop stop-color="#ffa147"/><stop offset="1" stop-color="#d34426"/></linearGradient><linearGradient id="C" x1="67.923" x2="64.677" y1="35.304" y2="38.378" gradientUnits="userSpaceOnUse"><stop stop-color="#ffa147"/><stop offset="1" stop-color="#d34426"/></linearGradient><linearGradient id="D" x1="57.482" x2="71.739" y1="46.803" y2="45.56" gradientUnits="userSpaceOnUse"><stop stop-color="#ffa147"/><stop offset="1" stop-color="#d34426"/></linearGradient><linearGradient id="E" x1="67.923" x2="64.677" y1="35.304" y2="38.378" gradientUnits="userSpaceOnUse"><stop stop-color="#ffa147"/><stop offset="1" stop-color="#d34426"/></linearGradient><linearGradient id="G" x1="59.811" x2="56.181" y1="119.02" y2="105.717" gradientUnits="userSpaceOnUse"><stop stop-color="#ffa147"/><stop offset="1" stop-color="#d34426"/></linearGradient><linearGradient id="H" x1="46.919" x2="50.412" y1="111.186" y2="113.766" gradientUnits="userSpaceOnUse"><stop stop-color="#ffa147"/><stop offset="1" stop-color="#d34426"/></linearGradient><linearGradient id="I" x1="59.811" x2="56.181" y1="119.02" y2="105.717" gradientUnits="userSpaceOnUse"><stop stop-color="#ffa147"/><stop offset="1" stop-color="#d34426"/></linearGradient><linearGradient id="J" x1="46.919" x2="50.412" y1="111.186" y2="113.766" gradientUnits="userSpaceOnUse"><stop stop-color="#ffa147"/><stop offset="1" stop-color="#d34426"/></linearGradient><filter id="i" width="108.094" height="48.955" x="17.006" y="70.512" color-interpolation-filters="sRGB" filterUnits="userSpaceOnUse"><feFlood flood-opacity="0" result="BackgroundImageFix"/><feColorMatrix in="SourceAlpha" result="hardAlpha" values="0 0 0 0 0 0 0 0 0 0 0 0 0 0 0 0 0 0 127 0"/><feOffset dy=".827"/><feGaussianBlur stdDeviation="1.344"/><feComposite in2="hardAlpha" operator="out"/><feColorMatrix values="0 0 0 0 0 0 0 0 0 0 0 0 0 0 0 0 0 0 0.44 0"/><feBlend in2="BackgroundImageFix" result="effect1_dropShadow_249_1490"/><feBlend in="SourceGraphic" in2="effect1_dropShadow_249_1490" result="shape"/></filter><filter id="l" width="30.003" height="21.101" x="99.918" y="76.081" color-interpolation-filters="sRGB" filterUnits="userSpaceOnUse"><feFlood flood-opacity="0" result="BackgroundImageFix"/><feBlend in="SourceGraphic" in2="BackgroundImageFix" result="shape"/><feGaussianBlur result="effect1_foregroundBlur_249_1490" stdDeviation="2.694"/></filter><filter id="q" width="19.575" height="15.156" x="110.434" y="24.168" color-interpolation-filters="sRGB" filterUnits="userSpaceOnUse"><feFlood flood-opacity="0" result="BackgroundImageFix"/><feBlend in="SourceGraphic" in2="BackgroundImageFix" result="shape"/><feGaussianBlur result="effect1_foregroundBlur_249_1490" stdDeviation="1.758"/></filter><filter id="v" width="19.484" height="13.982" x="16.26" y="55.168" color-interpolation-filters="sRGB" filterUnits="userSpaceOnUse"><feFlood flood-opacity="0" result="BackgroundImageFix"/><feBlend in="SourceGraphic" in2="BackgroundImageFix" result="shape"/><feGaussianBlur result="effect1_foregroundBlur_249_1490" stdDeviation="1.758"/></filter><filter id="A" width="30.71" height="41.643" x="48.992" y="24.145" color-interpolation-filters="sRGB" filterUnits="userSpaceOnUse"><feFlood flood-opacity="0" result="BackgroundImageFix"/><feBlend in="SourceGraphic" in2="BackgroundImageFix" result="shape"/><feGaussianBlur result="effect1_foregroundBlur_249_1490" stdDeviation="3.704"/></filter><filter id="F" width="31.595" height="25.114" x="40.801" y="100.607" color-interpolation-filters="sRGB" filterUnits="userSpaceOnUse"><feFlood flood-opacity="0" result="BackgroundImageFix"/><feBlend in="SourceGraphic" in2="BackgroundImageFix" result="shape"/><feGaussianBlur result="effect1_foregroundBlur_249_1490" stdDeviation="1.758"/></filter></defs></svg>