<svg xmlns="http://www.w3.org/2000/svg" width="280" height="280" fill="none" viewBox="0 0 280 280"><path fill="url(#a)" d="M75.839 214.305c-2.646-3.533-14.183-16.395-19.642-22.407l-.392-.433 13.272-11.633-8.127-18.659-18.121-5.365-.354-.105-.051-.365-3.713-26.233-.075-.526.52-.115 18.641-4.106 2.674-14.28-12.746-14.541.226-.362 12.5-20.029.244-.392.435.156 16.215 5.81L89.243 70.29l-7.636-13.104-.328-.563.6-.255 38.859-16.48.744-.315.053.806 1.019 15.526 17.881-.805-2.305-13.115-.13-.742.75.072 39.639 3.818.909.087-.473.782-8.535 14.07 19.496 13.635 6.486-14.929.375-.861.596.726L221.86 88.67l.473.579-.68.308-12.869 5.832 8.275 18.036 16.773-4.775.653-.185.075.675 4.365 39.27.128 1.149-.992-.593-12.44-7.425-6.738 24.157 14.025 1.788.742.094-.283.693-14.772 36.197-.261.636-.579-.369-15.01-9.544-13.882 12.167 8.358 5.91.674.477-.683.465-37.968 25.908-.812.554-.083-.979-1.653-19.485-16.847 1.447-.336 13.968-.014.581-.581-.021-30.449-1.098-.726-.026.193-.7 5.437-19.738L87.9 201.235l-11.165 13.098-.465.546zm84.973-30.954 27.152-40.61-21.594-43.818-48.744-3.208-27.152 40.609 21.594 43.818z"/><path fill="url(#b)" d="M75.839 214.305c-2.646-3.533-14.183-16.395-19.642-22.407l-.392-.433 13.272-11.633-8.127-18.659-18.121-5.365-.354-.105-.051-.365-3.713-26.233-.075-.526.52-.115 18.641-4.106 2.674-14.28-12.746-14.541.226-.362 12.5-20.029.244-.392.435.156 16.215 5.81L89.243 70.29l-7.636-13.104-.328-.563.6-.255 38.859-16.48.744-.315.053.806 1.019 15.526 17.881-.805-2.305-13.115-.13-.742.75.072 39.639 3.818.909.087-.473.782-8.535 14.07 19.496 13.635 6.486-14.929.375-.861.596.726L221.86 88.67l.473.579-.68.308-12.869 5.832 8.275 18.036 16.773-4.775.653-.185.075.675 4.365 39.27.128 1.149-.992-.593-12.44-7.425-6.738 24.157 14.025 1.788.742.094-.283.693-14.772 36.197-.261.636-.579-.369-15.01-9.544-13.882 12.167 8.358 5.91.674.477-.683.465-37.968 25.908-.812.554-.083-.979-1.653-19.485-16.847 1.447-.336 13.968-.014.581-.581-.021-30.449-1.098-.726-.026.193-.7 5.437-19.738L87.9 201.235l-11.165 13.098-.465.546zm84.973-30.954 27.152-40.61-21.594-43.818-48.744-3.208-27.152 40.609 21.594 43.818z"/><defs><linearGradient id="a" x1="65.858" x2="214.21" y1="174.766" y2="107.101" gradientUnits="userSpaceOnUse"><stop stop-color="#19afa6"/><stop offset="1" stop-color="#196a64"/></linearGradient><linearGradient id="b" x1="66.574" x2="212.455" y1="203.817" y2="75.954" gradientUnits="userSpaceOnUse"><stop stop-color="#222059"/><stop offset="1" stop-color="#ee6f36"/></linearGradient></defs></svg>