<svg xmlns="http://www.w3.org/2000/svg" width="171" height="173" fill="none" viewBox="0 0 171 173"><g filter="url(#a)"><path fill="url(#b)" d="M44.588 123.068c-1.233-2.17-6.773-10.18-9.394-13.92l-.09-.128 8.204-5.52-3.273-11.187-9.817-4.319-.091-.04-.002-.098-.21-14.907-.002-.142.142-.013 10.819-.973 2.569-7.964-6.066-8.988.072-.089 8.407-10.288.08-.096.11.056 8.737 4.445 7.588-5.105-3.39-7.987-.07-.161.17-.048 22.886-6.427.209-.06-.013.218-.543 8.903 10.405.856-.365-7.678-.01-.203.198.045 21.879 4.958.24.054-.154.192-5.866 7.368 10.197 9.246 4.791-8.048.13-.216.133.214 11.624 18.514.106.17-.192.058-7.768 2.388 3.438 10.957 9.856-1.492.18-.026-.003.182-.349 22.229-.005.31-.245-.19-6.599-5.17-5.643 13.387 7.901 2.047.195.051-.1.174-10.826 19.149-.091.161-.142-.118-7.807-6.478-8.905 5.992 4.408 4.039.164.15-.198.1-23.058 11.753-.235.12.011-.263.467-11.161-9.838-.407-1.202 7.92-.023.154-.155-.024-16.937-2.784-.193-.031.075-.18 4.493-10.754-13.507-9.445-7.27 6.605-.141.13zm68.976-39.837 4.683-5.375-2.321-6.737-7.006-1.365-4.683 5.374 2.322 6.737zM91.876 63.106l4.683-5.374-2.32-6.738-7.006-1.365-4.683 5.373 2.322 6.738zm-1.144 40.49 13.379-15.353-6.634-19.25-20.014-3.9-13.38 15.352 6.635 19.252zm17.374 7.612 4.683-5.374-2.322-6.737-7.005-1.364-4.682 5.371 2.321 6.74zM65.537 72.15l4.683-5.372-2.322-6.738-7.006-1.365-4.683 5.373 2.323 6.738zm15.832 48.373 4.682-5.373-2.322-6.738-7.004-1.364-4.683 5.372 2.322 6.739zm-21.29-20.393 4.684-5.373-2.322-6.738-7.006-1.365-4.682 5.373 2.322 6.739z"/></g><defs><linearGradient id="b" x1="174.746" x2="103.37" y1="164.414" y2="210.021" gradientUnits="userSpaceOnUse"><stop stop-color="#9f113b"/><stop offset="1" stop-color="#56002f"/></linearGradient><filter id="a" width="159.827" height="163.663" x="5.264" y="5.693" color-interpolation-filters="sRGB" filterUnits="userSpaceOnUse"><feFlood flood-opacity="0" result="BackgroundImageFix"/><feColorMatrix in="SourceAlpha" result="hardAlpha" values="0 0 0 0 0 0 0 0 0 0 0 0 0 0 0 0 0 0 127 0"/><feOffset dy="1.232"/><feGaussianBlur stdDeviation="12.324"/><feComposite in2="hardAlpha" operator="out"/><feColorMatrix values="0 0 0 0 0 0 0 0 0 0 0 0 0 0 0 0 0 0 0.25 0"/><feBlend in2="BackgroundImageFix" result="effect1_dropShadow_2045_6106"/><feBlend in="SourceGraphic" in2="effect1_dropShadow_2045_6106" result="shape"/></filter></defs></svg>