<svg xmlns="http://www.w3.org/2000/svg" width="453" height="436" fill="none" viewBox="0 0 453 436"><path fill="url(#a)" d="M253.357.07c-9.904.97-48.73 1.338-66.937 1.4h-.583l.825 39.402-44.033 15.076-36.619-22.07-.315-.19-.303.208-49.085 33.58-.437.3.265.458 21.667 37.513-20.1 26.713-43.213.904-.115.409-14.25 51.043-.124.444.407.215 34.557 18.262.764 36.516-33.853 7.322-.635.137.217.612 31.55 89.34.268.758.628-.502 27.814-22.263 26.722 32.007-25.908 16.48-.634.404.558.503 66.36 59.889.675.609.256-.873 10.573-36.094 53.625 11.988-15.263 34.155-.382.854.935-.05 87.029-4.694.743-.04-.23-.708-10.053-30.836 43.686-14.014 17.769 35.568.302.605.546-.399 71.673-52.244.93-.678-1.103-.331-32.041-9.632 30.751-49.25 24.837 21.064.568.481.319-.673 37.597-79.297.292-.618-.661-.179-39.064-10.551-.897-42.871 23.337 5.087.804.176-.116-.814-14.584-102.142-.139-.97-.775.597-35.354 27.209-23.946-31.18L384.55 72.04l.417-.4-.405-.413-47.936-48.784-.506-.516-.385.612-24.774 39.389-61.845-22.314L253.98.71l.089-.71zm28.386 316.234-6.782 27.607-27.3 7.931-20.518-19.677 6.782-27.608 27.3-7.931zM166.337 291.91l-6.782 27.608-27.3 7.931-20.517-19.678 6.781-27.608 27.3-7.93zm129.406-96.801-19.376 78.879-77.999 22.659-58.624-56.22 19.377-78.879 78-22.659zm64.704 39.122-6.781 27.608-27.3 7.931-20.518-19.678 6.781-27.607 27.3-7.931zM135.38 185.323l-6.782 27.608-27.3 7.93-20.517-19.676 6.78-27.608 27.301-7.931zm194.078-59.592-6.782 27.607-27.3 7.931-20.517-19.677 6.781-27.608 27.3-7.93zM214.092 103.25l-6.782 27.608-27.3 7.931-20.518-19.677 6.781-27.608 27.3-7.93z"/><defs><linearGradient id="a" x1="189.566" x2="224.979" y1="1044.36" y2="43.541" gradientUnits="userSpaceOnUse"><stop offset=".573" stop-color="#9f4153"/><stop offset=".846" stop-color="#ffa147"/></linearGradient></defs></svg>