<svg xmlns="http://www.w3.org/2000/svg" width="272" height="262" fill="none" viewBox="0 0 272 262"><path fill="url(#a)" d="M151.961.093c-5.897.578-29.09.798-39.991.835l-.771.002.496 23.682-25.862 8.854-21.732-13.098-.418-.251-.401.275-29.353 20.081-.58.396.35.608 12.82 22.195-11.733 15.594-25.948.543-.152.542-8.522 30.525-.164.587.54.286 20.449 10.806.444 21.25-19.91 4.306-.84.183.286.81 18.868 53.427.355 1.005.832-.667L37.34 189.81l15.417 18.465-15.095 9.602-.84.535.738.667 39.685 35.813.895.809.339-1.158 6.214-21.211 31.193 6.972-8.922 19.963-.505 1.132 1.238-.067 52.045-2.807.985-.053-.306-.938-5.881-18.043 25.387-8.146 10.466 20.953.401.8.723-.527 42.861-31.243 1.232-.898-1.459-.439-18.641-5.604 17.847-28.583 14.487 12.286.752.638.422-.891 22.483-47.421.388-.82-.875-.236-23.061-6.229-.519-24.799 13.441 2.931 1.066.231-.155-1.079-8.721-61.082-.184-1.284-1.027.791-20.811 16.017-13.841-18.02 13.542-12.992.554-.531-.538-.547-28.667-29.173-.67-.683-.511.81-14.636 23.271-36.357-13.116L152.787.94l.117-.94zm17.021 189.525-4.055 16.51-16.326 4.742-12.27-11.767 4.056-16.509 16.325-4.743zM99.967 175.03l-4.056 16.511-16.325 4.743-12.27-11.768 4.054-16.51 16.326-4.742zm77.39-57.888-11.588 47.171-46.645 13.55-35.058-33.621 11.588-47.17 46.645-13.55zm38.689 23.395-4.056 16.51-16.326 4.742-12.269-11.766 4.054-16.511 16.327-4.743zM81.456 111.29 77.4 127.8l-16.326 4.743-12.27-11.768 4.056-16.51 16.325-4.742zm116.062-35.638-4.055 16.51-16.327 4.743-12.269-11.767 4.055-16.51 16.326-4.743zM128.525 62.21l-4.056 16.51-16.325 4.742-12.27-11.766 4.055-16.51 16.326-4.743z"/><defs><linearGradient id="a" x1="113.779" x2="135.003" y1="626.7" y2="26.134" gradientUnits="userSpaceOnUse"><stop offset=".573" stop-color="#9f4153"/><stop offset=".846" stop-color="#ffa147"/></linearGradient></defs></svg>