<svg xmlns="http://www.w3.org/2000/svg" width="159" height="165" fill="none" viewBox="0 0 159 165"><path fill="url(#a)" d="M154.612 67.943c-.111 3.463.649 16.985 1.045 23.331l.021.351-13.783.617-4.196 15.512 8.485 12.192.127.183-.113.191-10.572 17.863-.162.277-.288-.142-13.474-6.646-8.717 7.504.676 15.108-.242.085-17.45 6.132-.264.092-.145-.237-7.105-11.544-12.53.561-1.757 11.838-.059.388-.378-.106-31.836-8.943-.469-.132.279-.398 7.035-10.08-11.51-8.391-5.066 9.254-.219.399-.325-.317-22.377-21.74-.394-.383.516-.19 12.2-4.461-5.313-18.1-11.389 6.015-.5.264-.007-.566L4 73.306l-.005-.45.436.111 10.827 2.76 3.815-15.273L6.393 55.13l-.377-.158.219-.345L22.79 28.468l.371-.588.245.652 4.02 10.76 16.157-11.628-7.787-8.047-.313-.323.393-.218 26.757-14.91.36-.201.134.392 4.535 13.26 14.657-.656-2.255-7.833-.138-.479.496.039 35.908 2.74.59.045-.33.492-8.585 12.814 11.176 7.472 7.104-8.45.226-.268.264.229 18.089 15.578.33.284-.353.257-13.056 9.46 9.093 20.814 13.323-2.563.425-.081zM87.586 45.28 51.098 56.828 42.855 94.2 71.1 120.027l36.488-11.548 8.243-37.373z"/><path fill="url(#b)" d="M154.612 67.943c-.111 3.463.649 16.985 1.045 23.331l.021.351-13.783.617-4.196 15.512 8.485 12.192.127.183-.113.191-10.572 17.863-.162.277-.288-.142-13.474-6.646-8.717 7.504.676 15.108-.242.085-17.45 6.132-.264.092-.145-.237-7.105-11.544-12.53.561-1.757 11.838-.059.388-.378-.106-31.836-8.943-.469-.132.279-.398 7.035-10.08-11.51-8.391-5.066 9.254-.219.399-.325-.317-22.377-21.74-.394-.383.516-.19 12.2-4.461-5.313-18.1-11.389 6.015-.5.264-.007-.566L4 73.306l-.005-.45.436.111 10.827 2.76 3.815-15.273L6.393 55.13l-.377-.158.219-.345L22.79 28.468l.371-.588.245.652 4.02 10.76 16.157-11.628-7.787-8.047-.313-.323.393-.218 26.757-14.91.36-.201.134.392 4.535 13.26 14.657-.656-2.255-7.833-.138-.479.496.039 35.908 2.74.59.045-.33.492-8.585 12.814 11.176 7.472 7.104-8.45.226-.268.264.229 18.089 15.578.33.284-.353.257-13.056 9.46 9.093 20.814 13.323-2.563.425-.081zM87.586 45.28 51.098 56.828 42.855 94.2 71.1 120.027l36.488-11.548 8.243-37.373z"/><defs><linearGradient id="a" x1="141.372" x2="17.691" y1="96.996" y2="65.793" gradientUnits="userSpaceOnUse"><stop stop-color="#19afa6"/><stop offset="1" stop-color="#196a64"/></linearGradient><linearGradient id="b" x1="155.136" x2="3.531" y1="78.908" y2="85.691" gradientUnits="userSpaceOnUse"><stop stop-color="#222059"/><stop offset="1" stop-color="#ee6f36"/></linearGradient></defs></svg>