<svg xmlns="http://www.w3.org/2000/svg" width="134" height="135" fill="none" viewBox="0 0 134 135"><g filter="url(#a)"><path fill="url(#b)" d="M34.772 95.976c-.958-1.685-5.269-7.919-7.31-10.833l-.11-.157 6.402-4.308-2.525-8.633-7.614-3.349-.11-.049-.003-.12-.164-11.607-.003-.175.174-.015 8.38-.753 1.975-6.125-4.733-7.014.089-.108 6.547-8.011.096-.117.135.069 6.766 3.442 5.828-3.92-2.618-6.168-.083-.197.206-.058 17.819-5.005.254-.071-.015.265-.418 6.865 7.956.654-.28-5.9-.01-.246.24.054 17.036 3.86.292.066-.187.234-4.527 5.687 7.83 7.1 3.686-6.194.158-.265.163.261 9.051 14.416.131.207-.235.072-5.983 1.84 2.639 8.409 7.616-1.152.221-.035-.004.223-.272 17.309-.007.378-.298-.233-5.067-3.968-4.328 10.267 6.074 1.573.237.062-.121.213-8.43 14.91-.11.196-.173-.144-6.04-5.011-6.82 4.588 3.37 3.087.199.183-.24.123-17.953 9.151-.288.146.013-.322.361-8.621-7.53-.311-.927 6.106-.029.188-.187-.03-13.19-2.169-.235-.038.092-.219 3.477-8.323-10.426-7.29-5.62 5.106-.174.159zm38.63-8.708L87.465 71.13l-6.973-20.236-21.035-4.098-14.064 16.14 6.972 20.236z"/></g><defs><linearGradient id="b" x1="136.314" x2="80.644" y1="128.273" y2="163.845" gradientUnits="userSpaceOnUse"><stop stop-color="#9f113b"/><stop offset="1" stop-color="#56002f"/></linearGradient><filter id="a" width="89.211" height="92.263" x="21.829" y="22.694" color-interpolation-filters="sRGB" filterUnits="userSpaceOnUse"><feFlood flood-opacity="0" result="BackgroundImageFix"/><feColorMatrix in="SourceAlpha" result="hardAlpha" values="0 0 0 0 0 0 0 0 0 0 0 0 0 0 0 0 0 0 127 0"/><feOffset dy="1.506"/><feGaussianBlur stdDeviation=".753"/><feComposite in2="hardAlpha" operator="out"/><feColorMatrix values="0 0 0 0 0 0 0 0 0 0 0 0 0 0 0 0 0 0 0.25 0"/><feBlend in2="BackgroundImageFix" result="effect1_dropShadow_2045_6121"/><feBlend in="SourceGraphic" in2="effect1_dropShadow_2045_6121" result="shape"/></filter></defs></svg>