<svg xmlns="http://www.w3.org/2000/svg" width="329" height="342" fill="none" viewBox="0 0 329 342"><path fill="url(#a)" d="M320.568 140.871c-.23 7.179 1.346 35.215 2.166 48.374l.047.728-28.579 1.279-8.702 32.162 17.595 25.28.263.378-.234.396-21.92 37.039-.338.571-.594-.294-27.937-13.777-18.074 15.556 1.402 31.325-.502.176-36.182 12.714-.545.192-.303-.492-14.734-23.935-25.977 1.163-3.643 24.544-.12.805-.783-.22-66.01-18.542-.971-.273.577-.827 14.586-20.897-23.862-17.399-10.506 19.188-.452.825-.676-.656-46.395-45.075-.818-.796 1.071-.392 25.295-9.251-11.017-37.526-23.612 12.47-1.037.548-.013-1.173-.742-63.068-.012-.933.905.231 22.45 5.721 7.91-31.665-26.29-11.042-.78-.328.453-.715 34.324-54.235.77-1.22.506 1.352 8.338 22.31 33.499-24.108-16.146-16.685-.649-.67 57.041-31.783.276.811 9.402 27.494 30.389-1.36-4.676-16.241-.284-.991 1.027.078 74.45 5.683 1.223.093-.682 1.02-17.801 26.567 23.173 15.494 14.73-17.52.466-.556.549.473 37.503 32.299.687.59-.734.533-27.069 19.615 18.852 43.155 27.625-5.313.88-.17zm-138.97-46.988-75.653 23.942-17.091 77.49 58.562 53.546 75.654-23.943 17.091-77.489z"/><path fill="url(#b)" d="M320.568 140.871c-.23 7.179 1.346 35.215 2.166 48.374l.047.728-28.579 1.279-8.702 32.162 17.595 25.28.263.378-.234.396-21.92 37.039-.338.571-.594-.294-27.937-13.777-18.074 15.556 1.402 31.325-.502.176-36.182 12.714-.545.192-.303-.492-14.734-23.935-25.977 1.163-3.643 24.544-.12.805-.783-.22-66.01-18.542-.971-.273.577-.827 14.586-20.897-23.862-17.399-10.506 19.188-.452.825-.676-.656-46.395-45.075-.818-.796 1.071-.392 25.295-9.251-11.017-37.526-23.612 12.47-1.037.548-.013-1.173-.742-63.068-.012-.933.905.231 22.45 5.721 7.91-31.665-26.29-11.042-.78-.328.453-.715 34.324-54.235.77-1.22.506 1.352 8.338 22.31 33.499-24.108-16.146-16.685-.649-.67 57.041-31.783.276.811 9.402 27.494 30.389-1.36-4.676-16.241-.284-.991 1.027.078 74.45 5.683 1.223.093-.682 1.02-17.801 26.567 23.173 15.494 14.73-17.52.466-.556.549.473 37.503 32.299.687.59-.734.533-27.069 19.615 18.852 43.155 27.625-5.313.88-.17zm-138.97-46.988-75.653 23.942-17.091 77.49 58.562 53.546 75.654-23.943 17.091-77.489z"/><defs><linearGradient id="a" x1="293.117" x2="36.681" y1="201.109" y2="136.415" gradientUnits="userSpaceOnUse"><stop stop-color="#19afa6"/><stop offset="1" stop-color="#196a64"/></linearGradient><linearGradient id="b" x1="321.655" x2="7.322" y1="163.605" y2="177.67" gradientUnits="userSpaceOnUse"><stop stop-color="#222059"/><stop offset="1" stop-color="#ee6f36"/></linearGradient></defs></svg>