<svg xmlns="http://www.w3.org/2000/svg" width="73" height="71" fill="none" viewBox="0 0 73 71"><path fill="url(#a)" d="M32.55.984c1.536.168 7.582.295 10.422.337l.17.002-.199 6.161 6.75 2.397 5.714-3.355.093-.055.088.062 7.59 5.321.128.09-.079.133-3.418 5.762 3.033 4.129 6.754.218.031.12 2.131 7.982.035.13-.12.062-5.378 2.763-.18 5.58 5.2 1.187.185.042-.065.179-5.076 13.868-.081.222-.183-.149-4.236-3.473-4.115 4.817 3.935 2.566.184.12-.165.145-10.45 9.217-.199.177-.072-.257-1.564-5.575-8.215 1.738 2.281 5.264.108.251-.273-.018-13.556-.887-.218-.013.07-.206 1.597-4.716-6.647-2.216-2.801 5.455-.091.174-.159-.117-11.078-8.27-.269-.202.323-.093 4.913-1.417-4.605-7.567-3.84 3.182-.167.138-.091-.197L.976 39.765l-.084-.181.194-.05 6.05-1.56.212-6.525-3.549.733-.236.048.037-.237 2.455-15.895.043-.283.225.177 5.4 4.255 3.697-4.7-3.51-3.446-.12-.118.12-.12 7.557-7.518.15-.149.11.18 3.759 6.13 9.56-3.326-.68-6.01-.024-.209zM20.151 30.063l3.888 16.644 16.358 4.955 12.47-11.689-3.887-16.645-16.358-4.955z"/><path fill="url(#b)" d="M32.55.984c1.536.168 7.582.295 10.422.337l.17.002-.199 6.161 6.75 2.397 5.714-3.355.093-.055.088.062 7.59 5.321.128.09-.079.133-3.418 5.762 3.033 4.129 6.754.218.031.12 2.131 7.982.035.13-.12.062-5.378 2.763-.18 5.58 5.2 1.187.185.042-.065.179-5.076 13.868-.081.222-.183-.149-4.236-3.473-4.115 4.817 3.935 2.566.184.12-.165.145-10.45 9.217-.199.177-.072-.257-1.564-5.575-8.215 1.738 2.281 5.264.108.251-.273-.018-13.556-.887-.218-.013.07-.206 1.597-4.716-6.647-2.216-2.801 5.455-.091.174-.159-.117-11.078-8.27-.269-.202.323-.093 4.913-1.417-4.605-7.567-3.84 3.182-.167.138-.091-.197L.976 39.765l-.084-.181.194-.05 6.05-1.56.212-6.525-3.549.733-.236.048.037-.237 2.455-15.895.043-.283.225.177 5.4 4.255 3.697-4.7-3.51-3.446-.12-.118.12-.12 7.557-7.518.15-.149.11.18 3.759 6.13 9.56-3.326-.68-6.01-.024-.209zM20.151 30.063l3.888 16.644 16.358 4.955 12.47-11.689-3.887-16.645-16.358-4.955z"/><defs><linearGradient id="a" x1="45.032" x2="26.881" y1="7.88" y2="61.901" gradientUnits="userSpaceOnUse"><stop stop-color="#19afa6"/><stop offset="1" stop-color="#196a64"/></linearGradient><linearGradient id="b" x1="37.447" x2="35.256" y1="1.126" y2="68.893" gradientUnits="userSpaceOnUse"><stop stop-color="#222059"/><stop offset="1" stop-color="#ee6f36"/></linearGradient></defs></svg>