<svg xmlns="http://www.w3.org/2000/svg" width="115" height="117" fill="none" viewBox="0 0 115 117"><g filter="url(#a)"><path fill="url(#b)" d="M95.113 37.852c.531 1.864 3.244 8.938 4.538 12.252l.07.178-7.242 2.673.41 8.985 6.607 5.054.096.073-.028.119L96.977 78.5l-.039.17-.172-.027-8.32-1.248-3.37 5.486 2.937 7.933-.111.084-8.256 6.235-.121.092-.116-.1-5.76-4.943-6.591 2.433 1.084 6.61.034.211-.213.008-18.5.653-.264.01.078-.254 2.033-6.572-7.578-2.515-1.124 5.798-.047.243-.221-.11-15.64-7.775-.268-.134.236-.183 5.747-4.456-5.926-8.749-5.05 5.148-.216.22-.097-.292-5.38-16.145-.079-.232.245-.015 6.248-.374-.572-8.794-7.672-.68-.222-.02.056-.215 4.362-16.753.095-.366.236.297 3.983 5.053 6.638-8.952-5.532-2.965-.215-.116.168-.178 11.72-12.495.153-.165.135.181 4.683 6.295 7.711-2.847-2.542-3.794-.151-.226.264-.062 19.61-4.648.314-.075-.09.31-2.39 8.291 7.243 2.082 2.346-5.715.072-.176.175.074 12.3 5.223.22.093-.14.192-5.348 7.264 8.403 9.547 6.67-3.633.206-.113zm-39.596-.666L38.031 49.543l1.983 21.309 19.47 8.95L76.97 67.446l-1.983-21.308z"/></g><defs><linearGradient id="b" x1="4.098" x2="66.617" y1="-17.522" y2="-38.911" gradientUnits="userSpaceOnUse"><stop stop-color="#9f113b"/><stop offset="1" stop-color="#56002f"/></linearGradient><filter id="a" width="89.04" height="90.933" x="12.187" y="14.187" color-interpolation-filters="sRGB" filterUnits="userSpaceOnUse"><feFlood flood-opacity="0" result="BackgroundImageFix"/><feColorMatrix in="SourceAlpha" result="hardAlpha" values="0 0 0 0 0 0 0 0 0 0 0 0 0 0 0 0 0 0 127 0"/><feOffset dy="1.506"/><feGaussianBlur stdDeviation=".753"/><feComposite in2="hardAlpha" operator="out"/><feColorMatrix values="0 0 0 0 0 0 0 0 0 0 0 0 0 0 0 0 0 0 0.25 0"/><feBlend in2="BackgroundImageFix" result="effect1_dropShadow_2045_6117"/><feBlend in="SourceGraphic" in2="effect1_dropShadow_2045_6117" result="shape"/></filter></defs></svg>