<svg xmlns="http://www.w3.org/2000/svg" width="377" height="370" fill="none" viewBox="0 0 377 370"><path fill="url(#a)" d="M220.03 45.83c5.811 2.785 29.394 11.63 40.493 15.716l.614.226-9.286 23.922 23.254 18.774 27.116-5.3.405-.08.24.337 22.477 31.388.347.485-.457.382-21.412 17.95 6.233 20.462 26.221 10.178-.037.476-2.649 34.299-.04.516-.514.071-24.976 3.439-8.441 21.745 18.832 11.867.617.39-.463.563-39.094 47.481-.576.698-.47-.773-11.88-19.531-22.912 13.295 11.951 15.564.515.67-.783.317-53.782 21.783-.947.384.065-1.021 1.554-24.11-34.79-4.529 1.698 23.894.074 1.049-.968-.413-52.039-22.201-.769-.328.515-.658 12.816-16.36-23.132-17.945-18.572 17.587-.552.522-.423-.63-32.107-47.791-.721-1.075 1.29.074 21.33 1.225-7.674-36.217-19.536 7.219-.784.291-.078-.833-5.312-56.72-.072-.765.767.065 25.969 2.227 9.874-25.439-15.023-2.036-.917-.124.437-.815 31.59-59.06.52-.97.59.93 15.371 24.22 21.098-13.42-9.056-18.427-.287-.584.588-.279 40.077-19.104.733-.35.171.795 6.312 29.314 42.244.131 5.629-24.598.179-.783zm-88.833 97.084-7.706 70.762 57.429 42.054 65.135-28.707 7.706-70.762-57.429-42.055z"/><defs><linearGradient id="a" x1="239.085" x2="136.949" y1="53.16" y2="316.277" gradientUnits="userSpaceOnUse"><stop stop-color="#e04632"/><stop offset="1" stop-color="#35328c"/></linearGradient></defs></svg>