<svg xmlns="http://www.w3.org/2000/svg" width="215" height="212" fill="none" viewBox="0 0 215 212"><path fill="url(#a)" d="M8.692 62.286c-.905 4.58-6.058 22.102-8.532 30.32l-.16.53 18.51 5.207.95 21.626-15.187 13.293-.271.237.113.342 8.875 26.845.153.464.479-.105 20.252-4.431 9.48 12.579-5.53 19.656.344.216 21.776 13.619.363.227.306-.301 13.123-12.879 16.73 4.707-1.227 16.057-.046.606.607-.021 45.87-1.609.784-.028-.302-.724-6.424-15.408 18.023-7.308 4.023 13.715.196.665.599-.348 36.954-21.441.769-.446-.748-.481-15.113-9.713 12.643-21.955 13.544 11.49.671.569.209-.854 9.765-39.86.167-.68-.701.008-15.458.176-.507-21.143 18.741-2.949.652-.103-.226-.62-14.451-39.65-.364-.997-.596.878-8.685 12.79L171.6 44.753l12.922-8.04.618-.385-.545-.483-31.707-28.118-.477-.423-.342.537-10.161 15.936-19.538-5.497 5.396-9.487.387-.682-.775-.123L77.886.15 76.946 0l.35.885 7.69 19.492-17.301 6.214-7.026-13.325-.248-.472-.476.24-29.263 14.708-.633.32.472.528 14.761 16.543-18.596 24.356-17.231-7.595-.622-.274zM159.881 94.15l11.905 6.949-.06 13.413-11.965 6.466-11.905-6.948.06-13.414zm-27.183 48.538 11.904 6.949-.06 13.414-11.966 6.466-11.905-6.948.062-13.415zm-27.242-71.94 34.014 19.853-.173 38.326-34.186 18.475-34.015-19.854.173-38.327zm27.07-23.62 11.905 6.948-.06 13.415-11.965 6.465-11.905-6.948.06-13.414zm-53.635 94.468 11.905 6.948-.06 13.414-11.967 6.466-11.904-6.949.06-13.414zm-1.063-95.818 11.905 6.948-.06 13.415-11.967 6.466-11.904-6.95.06-13.413zM51.537 94.57l11.905 6.949-.06 13.414-11.966 6.465-11.905-6.948.06-13.414z"/><defs><linearGradient id="a" x1="486.754" x2="25.596" y1="238.726" y2="79.577" gradientUnits="userSpaceOnUse"><stop offset=".573" stop-color="#9f4153"/><stop offset=".846" stop-color="#ffa147"/></linearGradient></defs></svg>