<svg xmlns="http://www.w3.org/2000/svg" width="214" height="206" fill="none" viewBox="0 0 214 206"><path fill="url(#a)" fill-rule="evenodd" d="M91.91.045c4.667.36 22.968.15 31.561 0l.474-.01v18.646l20.689 6.604 16.973-10.72.254-.16.251.164 23.479 15.351.362.237-.208.379-9.785 17.789 9.602 12.221H206l.101.332 7.224 23.931.109.36-.33.183-16.013 8.897v16.949l15.876 3.087.52.101-.166.503-13.997 42.443-.206.624-.521-.4-13.183-10.107-12.025 15.031 12.189 7.4.525.319-.448.421-30.702 28.896-.541.509-.225-.708-5.286-16.741-24.756 6.081 7.432 15.738.326.69-.764-.024-41.087-1.354-.609-.021.177-.582L94 188.652l-20.388-6.071-7.955 16.794-.236.5-.453-.316-34.315-23.931-.771-.537.894-.29 14.77-4.779-14.722-22.515-11.334 10.028-.455.403-.271-.544L.25 120.371l-.25-.5.537-.158 18.176-5.32V94.566L8 97.137l-.653.156.08-.667 5.87-48.311.097-.794.644.475L30.82 60.36l10.763-14.638-10.978-10.1-.35-.32.325-.344 22.124-23.479.405-.43.326.494L65.417 29.74 94.065 18.72 91.411.58 91.326 0zm-34.646 89.12 13.386 49.96 49.958 13.386 36.574-36.572-13.387-49.959-49.96-13.387z" clip-rule="evenodd"/><path fill="url(#b)" fill-rule="evenodd" d="M91.91.045c4.667.36 22.968.15 31.561 0l.474-.01v18.646l20.689 6.604 16.973-10.72.254-.16.251.164 23.479 15.351.362.237-.208.379-9.785 17.789 9.602 12.221H206l.101.332 7.224 23.931.109.36-.33.183-16.013 8.897v16.949l15.876 3.087.52.101-.166.503-13.997 42.443-.206.624-.521-.4-13.183-10.107-12.025 15.031 12.189 7.4.525.319-.448.421-30.702 28.896-.541.509-.225-.708-5.286-16.741-24.756 6.081 7.432 15.738.326.69-.764-.024-41.087-1.354-.609-.021.177-.582L94 188.652l-20.388-6.071-7.955 16.794-.236.5-.453-.316-34.315-23.931-.771-.537.894-.29 14.77-4.779-14.722-22.515-11.334 10.028-.455.403-.271-.544L.25 120.371l-.25-.5.537-.158 18.176-5.32V94.566L8 97.137l-.653.156.08-.667 5.87-48.311.097-.794.644.475L30.82 60.36l10.763-14.638-10.978-10.1-.35-.32.325-.344 22.124-23.479.405-.43.326.494L65.417 29.74 94.065 18.72 91.411.58 91.326 0zm-34.646 89.12 13.386 49.96 49.958 13.386 36.574-36.572-13.387-49.959-49.96-13.387z" clip-rule="evenodd"/><defs><linearGradient id="a" x1="130.332" x2="80.736" y1="19.675" y2="184.766" gradientUnits="userSpaceOnUse"><stop stop-color="#19afa6"/><stop offset="1" stop-color="#196a64"/></linearGradient><linearGradient id="b" x1="106.744" x2="106.744" y1="0" y2="205.085" gradientUnits="userSpaceOnUse"><stop stop-color="#222059"/><stop offset="1" stop-color="#ee6f36"/></linearGradient></defs></svg>