<svg xmlns="http://www.w3.org/2000/svg" width="238" height="242" fill="none" viewBox="0 0 238 242"><path fill="url(#a)" d="M159.365 230.285c4.348-2.947 22.313-12.941 30.784-17.586l.599-.327-10.415-18.23 16.387-17.846 22.468.993.432.019.196-.384 14.351-28.067.283-.554-.53-.324-19.382-11.853 2.531-17.11 19.975-11.412-.112-.487-6.291-27.376-.121-.527-.541.006-20.499.246-9.347-16.358 13.679-11.784.577-.498-.566-.51-37.317-33.608-.702-.632-.366.871-7.173 17.078-19.823-7.848 7.686-13.87.428-.771-.858-.207L109.632.251 108.592 0l.226 1.045 4.145 19.148-27.24 7.78-1.508-19.32-.085-1.096-.936.576L43.859 32.36l-.744.46.635.599 12.221 11.56-16.318 17.093L22.63 50.19l-.652-.455-.339.717-20.142 42.48-.578 1.22 1.323-.276 16.886-3.532-1.79 29.815-16.484-3.431L0 116.55l.049.872 2.577 46.445.044.802.783-.186 20.594-4.917 10.906 19.089-11.707 3.412-.928.27.578.775 32.66 43.866.686.923.465-1.052 9.421-21.285 18.408 8.168-5.042 15.853-.206.647.65.198 34.675 10.575.812.248.054-.848 1.54-24.318 33.864-5.184 7.48 19.072.307.782zM65.847 89.925l-3.833-14.573 10.703-10.606 14.537 3.965 3.834 14.573L80.385 93.89zm59.916-17.87-3.835-14.574 10.703-10.606 14.537 3.965 3.835 14.573L140.3 76.02zm-35.741 77.848-10.955-41.636 30.58-30.305 41.535 11.331 10.955 41.635-30.58 30.306zm-40.032-1.832L46.156 133.5l10.703-10.608 14.537 3.966 3.834 14.572-10.703 10.608zm117.181-34.227-3.835-14.571 10.704-10.608 14.537 3.966 3.834 14.572-10.703 10.608zm-75.276 76.901-3.835-14.572 10.703-10.607 14.537 3.966 3.835 14.572-10.704 10.608zm59.411-18.751-3.833-14.572 10.702-10.607 14.538 3.966 3.834 14.572-10.703 10.607z"/><defs><linearGradient id="a" x1="-76.277" x2="161.54" y1="-273.774" y2="202.827" gradientUnits="userSpaceOnUse"><stop offset=".573" stop-color="#9f4153"/><stop offset=".846" stop-color="#ffa147"/></linearGradient></defs></svg>