<svg xmlns="http://www.w3.org/2000/svg" width="154" height="147" fill="none" viewBox="0 0 154 147"><path fill="url(#a)" fill-rule="evenodd" d="M65.927.042c3.335.256 16.426.107 22.578-.001l.442-.008v13.372l14.691 4.69 12.108-7.647.236-.15.234.153 16.803 10.987.336.22-.194.354-6.97 12.672 6.8 8.656h14.654l.092.308 5.17 17.126.102.336-.307.17-11.408 6.338v11.988l11.28 2.194.485.094-.155.468-10.016 30.374-.193.581-.485-.372-9.356-7.173-8.473 10.59 8.625 5.238.489.296-.417.391-21.973 20.681-.503.474-.208-.66-3.756-11.891-17.506 4.3 5.266 11.152.304.643-.71-.023-29.405-.97-.567-.018.165-.542 3.104-10.245-14.411-4.293-5.656 11.942-.22.465-.422-.294-24.557-17.126-.718-.501.833-.27 10.443-3.38-10.398-15.904-8.025 7.099-.424.375-13.5-27.002L0 85.833l.5-.147L13.436 81.9V67.913l-7.542 1.812-.609.145.075-.621 4.2-34.574.091-.74.6.442 11.927 8.789 7.59-10.322-7.79-7.167-.325-.3.302-.32L37.788 8.257l.377-.4.303.458L47 21.27l20.352-7.829L65.462.538 65.386 0zm-24.802 63.88 9.58 35.753 35.753 9.58 26.173-26.173-9.579-35.754-35.754-9.58z" clip-rule="evenodd"/><defs><linearGradient id="a" x1="94.875" x2="75.804" y1="353.251" y2="14.539" gradientUnits="userSpaceOnUse"><stop offset=".573" stop-color="#9f4153"/><stop offset=".846" stop-color="#ffa147"/></linearGradient></defs></svg>