<svg xmlns="http://www.w3.org/2000/svg" width="267" height="256" fill="none" viewBox="0 0 267 256"><path fill="url(#a)" fill-rule="evenodd" d="M114.727.057c5.826.448 28.67.186 39.396-.002l.594-.01V23.32l25.824 8.242 21.188-13.382.316-.199.313.205 29.308 19.162.452.296-.261.473-12.213 22.206 11.987 15.255h25.512l.125.415 9.017 29.871.136.449-.411.229-19.989 11.104v21.157l19.817 3.855.649.126-.207.628-17.471 52.978-.257.779-.652-.499-16.455-12.615-15.009 18.762 15.213 9.237.656.398-.558.525-38.325 36.07-.676.636-.279-.885-6.6-20.896-30.902 7.59 9.277 19.645.407.863-.954-.031-51.287-1.691-.759-.025.22-.726 5.467-18.039-25.45-7.58-9.93 20.965-.295.623-.565-.395-42.834-29.871-.963-.671 1.117-.361 18.436-5.966-18.375-28.104-14.149 12.517-.568.502-.34-.679L.313 150.253 0 149.629l.669-.196 22.688-6.641v-24.75l-13.37 3.21-.816.196.101-.833L16.6 60.31l.12-.991.804.592 20.947 15.434 13.435-18.272-13.705-12.609-.434-.4.404-.428L65.788 14.33l.505-.537.405.616 14.96 22.715 35.76-13.754L114.104.722l-.105-.72zM71.48 111.301l16.71 62.362 62.361 16.71 45.652-45.652-16.71-62.361-62.361-16.71z" clip-rule="evenodd"/><defs><linearGradient id="a" x1="133.244" x2="133.244" y1=".001" y2="256" gradientUnits="userSpaceOnUse"><stop stop-color="#e04632"/><stop offset="1" stop-color="#35328c"/></linearGradient></defs></svg>