<svg xmlns="http://www.w3.org/2000/svg" width="517" height="497" fill="none" viewBox="0 0 517 497"><path fill="url(#a)" fill-rule="evenodd" d="M222.439.07c11.354.874 55.797.364 76.638-.002l.735-.012V45.19l50.678 16.174 41.357-26.119.392-.248.389.254 56.981 37.258.56.366-.322.586-23.878 43.413 23.596 30.031h49.497l.155.514 17.532 58.077.168.557-.509.283-39.077 21.709v41.717l38.865 7.556.804.158-.256.778-33.971 103.005-.318.965-.806-.619-32.313-24.773-29.728 37.159 29.981 18.202.811.494-.691.65-74.515 70.131-.837.788-.345-1.097-12.947-40.995-60.946 14.969 18.252 38.65.505 1.069-1.182-.039-99.717-3.288-.94-.03.273-.9 10.747-35.468-50.214-14.958-19.459 41.082-.365.771-.701-.488-83.28-58.077-1.192-.832 1.382-.447 36.358-11.764-36.283-55.491-27.864 24.65-.705.623-.42-.841L0 290.727l.83-.243 44.408-12.998v-48.951l-26.505 6.362-1.01.243.126-1.032 14.245-117.251.15-1.227.994.733 41.059 30.254 26.584-36.154-26.92-24.765-.537-.495.502-.531 53.693-56.982.627-.665.502.763 29.267 44.443 70.145-26.98L221.669.895l-.13-.894zm-24.917 362.675 8.423 31.435 31.435 8.423 23.012-23.012-8.423-31.435-31.435-8.423zm131.496-30.682 8.422 31.435 31.435 8.423 23.012-23.012-8.423-31.434-31.435-8.423zM178.593 224.374l24.065 89.814 89.814 24.065 65.748-65.748-24.066-89.814-89.813-24.065zm-73.115 46.324 8.422 31.435 31.435 8.423 23.012-23.012-8.423-31.435-31.435-8.422zm256.417-61.365 8.422 31.435 31.435 8.422 23.012-23.011-8.423-31.435-31.435-8.423zm-223.546-63.555 8.422 31.435 31.435 8.423 23.012-23.012-8.423-31.435-31.435-8.423zm131.495-28.492 8.423 31.435 31.434 8.424 23.012-23.013-8.423-31.435-31.435-8.423z" clip-rule="evenodd"/><defs><linearGradient id="a" x1="258.5" x2="258.5" y1=".001" y2="496.852" gradientUnits="userSpaceOnUse"><stop stop-color="#e04632"/><stop offset="1" stop-color="#35328c"/></linearGradient></defs></svg>