<svg xmlns="http://www.w3.org/2000/svg" width="252" height="243" fill="none" viewBox="0 0 252 243"><path fill="url(#a)" fill-rule="evenodd" d="M108.49.053c5.511.424 27.113.177 37.255 0l.562-.01V22.05l24.419 7.794 20.037-12.653.299-.19.296.195 27.715 18.12.427.28-.246.447-11.55 20.999 11.335 14.426h24.125l.118.392 8.528 28.247.128.426-.388.216-18.904 10.5v20.007l18.741 3.645.614.119-.195.595-16.523 50.098-.242.737-.616-.472-15.562-11.931-14.193 17.744 14.388 8.734.619.376-.528.497-36.242 34.109-.638.602-.265-.837-6.24-19.76-29.223 7.177 8.772 18.577.386.816-.901-.03-48.5-1.598-.718-.024.208-.687 5.169-17.058-24.065-7.169-9.391 19.826-.28.589-.534-.373-40.504-28.247-.91-.635 1.055-.342 17.434-5.64-17.377-26.577-13.38 11.837-.536.474-.322-.641L.002 141.495l.633-.186 21.456-6.28v-23.404l-12.645 3.036-.771.184.096-.787 6.928-57.027.114-.938.76.56L36.38 71.25 49.085 53.97 36.124 42.046l-.41-.377.383-.406L62.212 13.55l.477-.508.384.582L77.22 35.105l33.817-13.007L107.902.683 107.803 0zM67.594 105.251l15.802 58.971 58.971 15.802 43.17-43.17-15.802-58.972-58.97-15.8z" clip-rule="evenodd"/><path fill="url(#b)" fill-rule="evenodd" d="M108.49.053c5.511.424 27.113.177 37.255 0l.562-.01V22.05l24.419 7.794 20.037-12.653.299-.19.296.195 27.715 18.12.427.28-.246.447-11.55 20.999 11.335 14.426h24.125l.118.392 8.528 28.247.128.426-.388.216-18.904 10.5v20.007l18.741 3.645.614.119-.195.595-16.523 50.098-.242.737-.616-.472-15.562-11.931-14.193 17.744 14.388 8.734.619.376-.528.497-36.242 34.109-.638.602-.265-.837-6.24-19.76-29.223 7.177 8.772 18.577.386.816-.901-.03-48.5-1.598-.718-.024.208-.687 5.169-17.058-24.065-7.169-9.391 19.826-.28.589-.534-.373-40.504-28.247-.91-.635 1.055-.342 17.434-5.64-17.377-26.577-13.38 11.837-.536.474-.322-.641L.002 141.495l.633-.186 21.456-6.28v-23.404l-12.645 3.036-.771.184.096-.787 6.928-57.027.114-.938.76.56L36.38 71.25 49.085 53.97 36.124 42.046l-.41-.377.383-.406L62.212 13.55l.477-.508.384.582L77.22 35.105l33.817-13.007L107.902.683 107.803 0zM67.594 105.251l15.802 58.971 58.971 15.802 43.17-43.17-15.802-58.972-58.97-15.8z" clip-rule="evenodd"/><defs><linearGradient id="a" x1="153.845" x2="95.301" y1="23.225" y2="218.099" gradientUnits="userSpaceOnUse"><stop stop-color="#19afa6"/><stop offset="1" stop-color="#196a64"/></linearGradient><linearGradient id="b" x1="126.001" x2="126.001" y1="0" y2="242.084" gradientUnits="userSpaceOnUse"><stop stop-color="#222059"/><stop offset="1" stop-color="#ee6f36"/></linearGradient></defs></svg>