<svg xmlns="http://www.w3.org/2000/svg" width="162" height="168" fill="none" viewBox="0 0 162 168"><path fill="url(#a)" d="M157.786 69.337c-.113 3.534.663 17.333 1.067 23.81l.021.36-14.066.629-4.283 15.83 8.661 12.443.13.186-.116.195-10.789 18.23-.167.281-.293-.144-13.75-6.781-8.896 7.658.69 15.418-.247.086-17.81 6.258-.268.094-.148-.242-7.252-11.78-12.787.572-1.794 12.081-.058.396-.385-.108-32.492-9.127-.478-.134.285-.408 7.18-10.286-11.746-8.564-5.17 9.445-.224.407-.332-.324-22.836-22.186-.403-.391.527-.193 12.452-4.554-5.423-18.471-11.623 6.139-.51.269-.007-.578-.366-31.042-.005-.459.445.113 11.05 2.816 3.893-15.586-12.939-5.434-.384-.162.223-.352 16.894-26.695.38-.6.249.666 4.104 10.98 16.488-11.866-7.947-8.212-.32-.33.402-.223 27.674-15.42.137.399 4.627 13.532 14.959-.67-2.302-7.993-.141-.488.506.039 36.645 2.797.602.045-.336.502-8.761 13.078 11.406 7.625 7.249-8.624.23-.274.27.234 18.46 15.898.337.29-.361.263-13.324 9.654 9.281 21.241 13.596-2.615.434-.083zM89.384 46.21 52.147 57.995l-8.413 38.141 28.825 26.356 37.237-11.785 8.413-38.141z"/><path fill="url(#b)" d="M157.786 69.337c-.113 3.534.663 17.333 1.067 23.81l.021.36-14.066.629-4.283 15.83 8.661 12.443.13.186-.116.195-10.789 18.23-.167.281-.293-.144-13.75-6.781-8.896 7.658.69 15.418-.247.086-17.81 6.258-.268.094-.148-.242-7.252-11.78-12.787.572-1.794 12.081-.058.396-.385-.108-32.492-9.127-.478-.134.285-.408 7.18-10.286-11.746-8.564-5.17 9.445-.224.407-.332-.324-22.836-22.186-.403-.391.527-.193 12.452-4.554-5.423-18.471-11.623 6.139-.51.269-.007-.578-.366-31.042-.005-.459.445.113 11.05 2.816 3.893-15.586-12.939-5.434-.384-.162.223-.352 16.894-26.695.38-.6.249.666 4.104 10.98 16.488-11.866-7.947-8.212-.32-.33.402-.223 27.674-15.42.137.399 4.627 13.532 14.959-.67-2.302-7.993-.141-.488.506.039 36.645 2.797.602.045-.336.502-8.761 13.078 11.406 7.625 7.249-8.624.23-.274.27.234 18.46 15.898.337.29-.361.263-13.324 9.654 9.281 21.241 13.596-2.615.434-.083zM89.384 46.21 52.147 57.995l-8.413 38.141 28.825 26.356 37.237-11.785 8.413-38.141z"/><defs><linearGradient id="a" x1="144.275" x2="18.055" y1="98.987" y2="67.144" gradientUnits="userSpaceOnUse"><stop stop-color="#19afa6"/><stop offset="1" stop-color="#196a64"/></linearGradient><linearGradient id="b" x1="158.321" x2="3.604" y1="80.528" y2="87.451" gradientUnits="userSpaceOnUse"><stop stop-color="#222059"/><stop offset="1" stop-color="#ee6f36"/></linearGradient></defs></svg>