<svg xmlns="http://www.w3.org/2000/svg" width="185" height="188" fill="none" viewBox="0 0 185 188"><g filter="url(#a)"><path fill="url(#b)" d="M149.128 62.085c.791 2.773 4.82 13.28 6.74 18.197l.066.168-10.722 3.957.613 13.458 9.844 7.531.091.069-.025.113-3.842 16.798-.037.16-.163-.024-12.417-1.864-5.064 8.242 4.352 11.751-.106.08-12.257 9.256-.114.087-.109-.093-8.596-7.376-9.918 3.66 1.623 9.896.032.199-.202.007-27.46.968-.25.01.072-.24 3.047-9.851-11.453-3.802-1.69 8.721-.044.23-.21-.104-23.214-11.542-.255-.127.225-.174 8.606-6.672-8.922-13.167-7.583 7.729-.204.208-.092-.277-7.988-23.965-.073-.22.232-.014 9.376-.56-.861-13.243-11.477-1.017-.21-.02.053-.203 6.476-24.868.09-.347.222.282 5.997 7.606 10-13.492-8.31-4.456-.206-.11.16-.169 17.397-18.548.145-.156.128.171 6.996 9.406 11.638-4.296-3.845-5.74-.142-.214.25-.059 29.109-6.9.297-.071-.084.293-3.579 12.406 10.936 3.144 3.518-8.567.069-.166.165.07 18.261 7.752.208.088-.133.18-7.988 10.851 12.582 14.294 9.972-5.433.195-.106zM60.765 87.987l-6.73 4.755.764 8.201 7.493 3.444 6.73-4.754-.763-8.2zm18.847 28.522-6.73 4.755.764 8.201 7.494 3.444 6.73-4.754-.764-8.2zM91.98 71.351 72.753 84.936l2.183 23.431 21.41 9.844 19.226-13.585-2.183-23.432zM74.55 58.058l-6.73 4.756.765 8.2 7.493 3.445 6.73-4.755-.764-8.2zm37.117 55.485-6.73 4.755.765 8.2 7.493 3.445 6.73-4.755-.764-8.2zm-4.54-58.646-6.73 4.756.764 8.2 7.493 3.446 6.73-4.756-.764-8.2zm18.327 28.716-6.73 4.754.764 8.2 7.493 3.446 6.73-4.755-.764-8.2z"/></g><defs><linearGradient id="b" x1="14.274" x2="106.919" y1="-19.893" y2="-51.589" gradientUnits="userSpaceOnUse"><stop stop-color="#9f113b"/><stop offset="1" stop-color="#56002f"/></linearGradient><filter id="a" width="184.423" height="187.249" x="0" y="0" color-interpolation-filters="sRGB" filterUnits="userSpaceOnUse"><feFlood flood-opacity="0" result="BackgroundImageFix"/><feColorMatrix in="SourceAlpha" result="hardAlpha" values="0 0 0 0 0 0 0 0 0 0 0 0 0 0 0 0 0 0 127 0"/><feOffset dy="1.424"/><feGaussianBlur stdDeviation="14.245"/><feComposite in2="hardAlpha" operator="out"/><feColorMatrix values="0 0 0 0 0 0 0 0 0 0 0 0 0 0 0 0 0 0 0.25 0"/><feBlend in2="BackgroundImageFix" result="effect1_dropShadow_2045_6095"/><feBlend in="SourceGraphic" in2="effect1_dropShadow_2045_6095" result="shape"/></filter></defs></svg>