<svg xmlns="http://www.w3.org/2000/svg" width="106" height="102" fill="none" viewBox="0 0 106 102"><path fill="url(#a)" d="M47.264 1.426c2.244.246 11.053.43 15.185.49l.158.003-.29 8.947 9.926 3.525L80.6 9.484l.086-.051.081.057 11.053 7.748.118.083-.074.123-5.006 8.443 4.476 6.091 9.811.318.029.111 3.103 11.621.032.12-.111.058-7.876 4.047-.267 8.251 7.643 1.744.171.039-.061.166-7.39 20.194-.076.204-.168-.138-6.237-5.11-6.112 7.154 5.813 3.793.171.11-.153.135-15.215 13.42-.185.163-.066-.238-2.301-8.196-12.148 2.57 3.364 7.763.1.233-.253-.016-19.738-1.291-.202-.013.065-.19 2.353-6.95-9.834-3.278-4.113 8.007-.085.163-.147-.11-16.13-12.042-.25-.187.3-.086 7.265-2.094-6.819-11.204-5.67 4.698-.154.129-.085-.184-8.326-18.094-.078-.168.18-.046 8.875-2.29.313-9.675-5.278 1.087-.22.046.035-.22 3.574-23.143.04-.263.21.164 7.932 6.25 5.485-6.975-5.167-5.073-.112-.11.111-.11L28.288 6.295l.14-.138.102.166 5.509 8.987 14.055-4.891-1-8.821-.023-.193zM40 73.146l1.468 6.283 6.175 1.87 4.708-4.412-1.468-6.283-6.175-1.87zm26.254-5.237 1.467 6.283 6.175 1.87 4.708-4.412-1.468-6.283-6.175-1.87zM37.136 45.605l4.194 17.952L58.973 68.9l13.45-12.607-4.194-17.952-17.643-5.345zm-14.785 8.71 1.467 6.284 6.176 1.87 4.707-4.411-1.467-6.284-6.176-1.87zM73.555 43.8l1.468 6.284 6.175 1.87 4.708-4.413-1.468-6.283-6.175-1.87zm-43.89-14.026 1.467 6.283 6.175 1.87 4.708-4.412-1.468-6.284-6.175-1.87zm26.24-4.803 1.468 6.283 6.175 1.87 4.706-4.412-1.467-6.283-6.175-1.87z"/><defs><linearGradient id="a" x1="54.409" x2="51.223" y1="1.643" y2="100.122" gradientUnits="userSpaceOnUse"><stop stop-color="#222059"/><stop offset="1" stop-color="#f4763e"/></linearGradient></defs></svg>