<svg xmlns="http://www.w3.org/2000/svg" width="190" height="190" fill="none" viewBox="0 0 190 190"><path fill="url(#a)" d="M140.126 74.693a53 53 0 0 1 1.453 3.65l-5.924 7.975c.66 3.028.987 6.074.999 9.09l7.536 6.721a51 51 0 0 1-1.55 7.625l-9.468 2.805a42 42 0 0 1-4.413 7.834l2.314 9.882a48 48 0 0 1-5.662 5.144l-9.402-3.442a40.882 40.882 0 0 1-8.145 3.591l-3.801 9.263a48 48 0 0 1-7.616.711l-5.735-8.374a42 42 0 0 1-8.76-2.025l-8.457 5.098a51 51 0 0 1-6.675-3.999l.12-10.097a43.5 43.5 0 0 1-6.037-6.868l-9.883-1.006a53 53 0 0 1-3.169-7.185l5.925-7.976a43.5 43.5 0 0 1-1-9.089L45.24 87.3a51 51 0 0 1 1.55-7.626l9.469-2.805a42 42 0 0 1 4.413-7.834l-2.315-9.882a48 48 0 0 1 5.662-5.143l9.403 3.44a41 41 0 0 1 8.144-3.59l3.8-9.263a48 48 0 0 1 7.617-.71l5.735 8.373a42 42 0 0 1 8.76 2.026l8.457-5.099a51 51 0 0 1 6.675 4l-.12 10.096a43.5 43.5 0 0 1 6.037 6.869l9.883 1.005a53 53 0 0 1 1.716 3.536m-24.77 10.92c-5.17-11.726-18.603-17.157-30.003-12.131s-16.45 18.607-11.28 30.334 18.604 17.158 30.004 12.132 16.45-18.607 11.279-30.334"/><circle cx="94.599" cy="94.438" r="37.949" fill="url(#b)" stroke="url(#c)" stroke-width=".53" transform="rotate(119.821 94.599 94.438)"/><circle cx="94.632" cy="94.558" r="34.684" fill="url(#d)" stroke="url(#e)" stroke-width=".53" transform="rotate(119.821 94.632 94.558)"/><circle cx="94.631" cy="94.558" r="29.389" fill="url(#f)" stroke="url(#g)" stroke-width=".53" transform="rotate(119.821 94.631 94.558)"/><path fill="url(#h)" d="M107.599 88.85q.227.517.413 1.038l-1.684 2.267c.188.861.281 1.727.284 2.584l2.142 1.91q-.139 1.106-.44 2.168l-2.692.798a12 12 0 0 1-1.254 2.227l.658 2.809a14 14 0 0 1-1.61 1.462l-2.672-.979a11.5 11.5 0 0 1-2.316 1.021l-1.08 2.633q-1.082.188-2.165.202l-1.63-2.38a12 12 0 0 1-2.49-.576l-2.404 1.449a14.5 14.5 0 0 1-1.898-1.136l.035-2.87a12.4 12.4 0 0 1-1.717-1.953l-2.809-.286a15 15 0 0 1-.9-2.042l1.683-2.267c-.187-.861-.28-1.727-.284-2.584l-2.142-1.91q.139-1.105.44-2.168l2.692-.797a12 12 0 0 1 1.255-2.227l-.658-2.81a14 14 0 0 1 1.61-1.461l2.672.978a11.7 11.7 0 0 1 2.315-1.02l1.08-2.634q1.083-.187 2.165-.202l1.63 2.38c.849.102 1.684.296 2.49.576l2.405-1.45c.657.33 1.292.71 1.897 1.138l-.034 2.87c.63.58 1.207 1.233 1.716 1.952l2.809.286q.26.489.488 1.005m-7.041 3.105c-1.47-3.333-5.288-4.877-8.529-3.448s-4.675 5.289-3.206 8.622c1.47 3.334 5.288 4.878 8.529 3.449s4.676-5.29 3.206-8.623"/><g filter="url(#i)"><path fill="url(#j)" d="M92.803 87.033c3.08-9.764 8.351-26.184 11.315-34.64l-2.854-3.097c1.956-2.856 5.98-8.465 6.429-8.054.448.412.819 6.598.948 9.64l-2.938 2.097c-1.162 9.003-3.702 26.007-5.189 35.711l-3.14 7.062c.168 1.992.295 4.333.36 5.871l-3.567 2.548-3.809-4.133c.863-1.26 2.13-3.058 3.314-4.637z"/><path fill="url(#k)" d="M91.165 100.359c-8.51 2.042-22.86 5.412-30.36 6.966l-1.024 3.429c-2.95-.169-8.822-.631-8.72-1.136.105-.506 4.482-3.486 6.657-4.913l2.824 1.213c7.113-3.102 20.698-8.71 28.467-11.883l6.553-.816a134 134 0 0 1 4.151-2.835l3.429 1.474-1.366 4.575a123 123 0 0 1-4.848-.376z"/></g><defs><linearGradient id="a" x1="140.126" x2="49.304" y1="74.692" y2="114.737" gradientUnits="userSpaceOnUse"><stop stop-color="#b5301e"/><stop offset="1" stop-color="#343279"/></linearGradient><linearGradient id="b" x1="94.599" x2="94.599" y1="56.224" y2="132.652" gradientUnits="userSpaceOnUse"><stop stop-color="#222059"/><stop offset="1" stop-color="#ee6f36"/></linearGradient><linearGradient id="c" x1="94.599" x2="94.599" y1="56.224" y2="132.652" gradientUnits="userSpaceOnUse"><stop stop-color="#605eaf"/><stop offset="1" stop-color="#2c1d43"/></linearGradient><linearGradient id="d" x1="94.632" x2="94.632" y1="59.609" y2="129.507" gradientUnits="userSpaceOnUse"><stop stop-color="#222059"/><stop offset="1" stop-color="#ee6f36"/></linearGradient><linearGradient id="e" x1="94.632" x2="94.632" y1="59.609" y2="129.507" gradientUnits="userSpaceOnUse"><stop stop-color="#e14833"/><stop offset="1" stop-color="#35328c"/></linearGradient><linearGradient id="f" x1="94.631" x2="94.631" y1="64.905" y2="124.212" gradientUnits="userSpaceOnUse"><stop stop-color="#222059"/><stop offset="1" stop-color="#ee6f36"/></linearGradient><linearGradient id="g" x1="94.631" x2="94.631" y1="64.905" y2="124.212" gradientUnits="userSpaceOnUse"><stop stop-color="#e14833"/><stop offset="1" stop-color="#35328c"/></linearGradient><linearGradient id="h" x1="107.599" x2="81.782" y1="88.851" y2="100.234" gradientUnits="userSpaceOnUse"><stop stop-color="#e14833"/><stop offset="1" stop-color="#35328c"/></linearGradient><linearGradient id="j" x1="96.106" x2="103.818" y1="71.664" y2="73.321" gradientUnits="userSpaceOnUse"><stop stop-color="#e04632"/><stop offset="1" stop-color="#f07537"/></linearGradient><linearGradient id="k" x1="78.446" x2="76.29" y1="104.696" y2="98.372" gradientUnits="userSpaceOnUse"><stop stop-color="#e04632"/><stop offset="1" stop-color="#f07537"/></linearGradient><filter id="i" width="62.17" height="74.122" x="48.765" y="39.632" color-interpolation-filters="sRGB" filterUnits="userSpaceOnUse"><feFlood flood-opacity="0" result="BackgroundImageFix"/><feColorMatrix in="SourceAlpha" result="hardAlpha" values="0 0 0 0 0 0 0 0 0 0 0 0 0 0 0 0 0 0 127 0"/><feOffset dy=".706"/><feGaussianBlur stdDeviation="1.147"/><feComposite in2="hardAlpha" operator="out"/><feColorMatrix values="0 0 0 0 0 0 0 0 0 0 0 0 0 0 0 0 0 0 0.44 0"/><feBlend in2="BackgroundImageFix" result="effect1_dropShadow_203_5047"/><feBlend in="SourceGraphic" in2="effect1_dropShadow_203_5047" result="shape"/></filter></defs></svg>