<svg width="1302" height="744" viewBox="0 0 1302 744" fill="none" xmlns="http://www.w3.org/2000/svg">
<g filter="url(#filter0_d_3330_462)">
<g clip-path="url(#clip0_3330_462)">
<g filter="url(#filter1_d_3330_462)">
<path d="M341.914 704.961L601.275 364.885L598.047 457.438L349.447 125.972H537.78L694.904 342.285L623.875 344.438L786.38 125.972H965.027L715.351 454.209V363.809L973.637 704.961H783.151L618.495 474.657L688.447 484.342L524.866 704.961H341.914Z" fill="url(#paint0_linear_3330_462)"/>
</g>
<g filter="url(#filter2_d_3330_462)">
<path d="M959.748 22.7702C961.827 24.3252 970.061 33.5789 972.388 36.1912C979.613 44.3038 987.395 52.3342 994.522 60.4536C1001.71 62.2709 1010.33 64.8857 1017.42 67.2963C1018.11 67.5303 1019.15 68.4961 1019.71 69.0164C1024.75 74.2011 1030.67 79.4597 1034.79 85.3296C1036.88 88.3153 1038.86 103.928 1040.37 105.483C1053.84 119.443 1069.35 130.485 1086.87 138.736C1097.52 143.468 1108.34 147.779 1119.33 151.658C1121.84 152.562 1128.53 155.139 1130.82 155.29C1134.91 155.56 1147.55 151.907 1151.01 151.343C1154.95 150.7 1176.9 157.52 1179.9 158.974C1181.29 159.65 1194.62 173.331 1195.99 174.932C1205.19 177.382 1214.41 179.763 1223.65 182.075C1229.02 183.404 1234.82 184.67 1240.09 186.245C1241.24 186.647 1240.82 186.306 1241.49 187.165C1241.56 188.487 1236.55 195.422 1235.64 196.778L1225.21 212.28L1215.89 226.123C1214.44 228.273 1212.15 231.903 1210.59 233.812C1209.9 233.837 1210.07 233.928 1209.51 233.683C1165.32 216.825 1125.49 213.151 1078.92 217.425C1112.06 237.284 1144.95 258.197 1178 278.291L1189.72 285.501C1193.28 287.716 1197.34 290.088 1200.77 292.384C1198.67 295.167 1196.15 300.696 1194.2 304.002C1195.63 304.858 1196.75 305.538 1198.27 306.264C1204.39 298.447 1218.91 283.759 1228.27 280.851C1246.79 291.489 1265.21 302.916 1283.58 313.79C1289.28 317.166 1272.86 344.456 1269.74 348.693C1257.26 365.654 1232.41 406.191 1213.51 414.383C1211.83 414.121 1210.2 413.295 1208.73 412.449C1203.61 409.505 1160.73 381.64 1159.87 379.9C1157.63 375.385 1165.98 356.541 1168.36 351.537C1169.12 349.954 1171.19 347.134 1171.39 345.547C1171.42 345.323 1171.26 345.116 1171.19 344.9C1169.7 344.713 1168.12 347.531 1167.26 348.719C1164.49 352.507 1161.77 356.328 1159.04 360.137C1154.39 359.948 1148.92 359.595 1144.32 359.044C1138.87 361.513 1133.01 365.817 1127.6 368.481L1114.89 366.696C1112.05 369.871 1108.7 373.788 1105.7 376.763C1098.14 377.724 1090.22 378.761 1082.64 379.543C1079.74 378.246 1076.63 376.796 1073.7 375.593C1066.55 385.272 1060.21 394.905 1051.3 402.992C1049.38 404.733 1047.46 407.033 1045.4 408.578C1035.39 409.48 1024.43 410.39 1014.5 411.59C1014.2 411.203 1013.95 410.584 1013.74 410.121C1013.12 408.523 998.292 399.005 995.658 396.798C999.017 389.15 1000.31 388.046 1005.34 381.366C1002.35 379.282 999.314 377.081 996.189 375.216C991.72 380.199 954.992 422.098 953.498 422.822C952.529 422.644 952.592 422.614 951.803 421.99C944.158 416.071 935.765 410.07 927.962 404.272L876.708 366.22C874.075 364.262 848.352 344.795 847.096 344.732C846.336 346.575 847.875 357.82 847.95 361.213C845.346 363.479 842.707 365.738 840.194 368.106C840.701 374.807 840.943 381.612 841.385 388.336C840.033 389.809 838.456 391.295 836.987 392.667C829.958 399.231 823.168 406.2 816.033 412.641C808.861 413.385 798.669 414.968 791.801 415.15C788.145 411.631 784.517 408.083 780.917 404.507L766.126 404.926C762.259 402.588 756.44 398.536 752.767 395.913C751.763 393.322 750.771 390.73 749.794 388.131L750.667 386.674C751.057 387.255 753.558 393.947 753.948 394.969C757.77 397.849 762.371 400.683 766.384 403.563C770.729 403.651 776.82 403.271 781.308 403.102C784.733 406.022 789.227 410.659 792.551 413.894C799.794 412.801 808.176 412.191 815.68 411.196C823.394 403.405 832.011 395.438 839.972 387.824L838.727 367.429C840.811 365.402 844.488 362.401 846.77 360.432C846.069 356.482 845.156 348.107 845.72 344.059C845.804 343.454 847.129 341.107 847.501 340.441C848.035 338.113 847.715 330.738 847.659 328.06C845.602 325.3 841.64 321.47 840.219 318.53C840.352 317.498 840.163 317.979 840.972 317.12C843.603 313.969 848.15 310.088 851.183 306.664C849.905 302.794 848.538 299.137 847.108 295.32C849.573 292.507 853.368 288.85 856.067 286.114C853.843 282.796 850.436 278.51 847.982 275.223L855.08 264.775C855.757 263.573 857.223 261.606 858.057 260.414C850.717 255.812 843.034 250.361 835.701 245.54C838.612 240.973 844.164 234.098 847.55 229.649L864.136 207.656C868.367 202.133 872.88 196.591 876.896 190.93L876.571 190.636C875.453 190.658 874.335 190.593 873.228 190.443C868.428 189.756 855.258 180.056 850.475 176.951C844.339 172.966 835.792 167.988 830.066 163.559C828.115 162.068 826.375 160.319 824.894 158.36C819.929 151.7 817.761 142.064 818.181 133.646C819.237 102.897 847.462 63.0633 881.491 67.8823C889.821 69.062 914.255 87.7368 923.32 92.2755C931.359 96.3008 933.723 118.414 932.077 127.098C944.468 134.351 956.598 142.255 968.905 149.659C972.586 151.872 976.334 154.186 979.925 156.536C981.534 157.227 989.846 162.597 991.828 163.843C990.212 158.549 989.093 152.532 987.342 146.872C981.102 126.717 973.165 110.203 960.008 93.7989C952.043 84.7325 946.41 79.7498 936.036 73.6744C937.309 69.6304 943.471 56.9073 945.571 52.6715C950.25 43.2332 954.884 31.9321 959.748 22.7702ZM1016.51 410.098C1021.7 409.352 1027.02 409.156 1032.04 408.397C1035.83 408.155 1039.63 407.793 1043.4 407.316C1037.93 403.676 1032.51 399.974 1027.12 396.212C1023.56 400.822 1020.02 405.451 1016.51 410.098Z" fill="black"/>
<path d="M859.1 261.27C867.634 266.56 877.128 273.278 885.537 278.935L933.632 311.271L980.587 342.826C988.035 347.834 997.529 353.842 1004.64 359.031C990.986 374.912 976.02 391.325 961.982 406.939C950.674 398.575 843.106 320.19 841.86 318.174L841.843 317.812L840.974 317.114C843.604 313.963 848.151 310.082 851.185 306.658C849.906 302.788 848.54 299.131 847.11 295.314C849.575 292.501 853.369 288.844 856.068 286.108C853.845 282.79 850.438 278.504 847.984 275.217L855.081 264.769L855.692 266.258C856.814 264.583 857.95 262.921 859.1 261.27Z" fill="#3E3374"/>
<path d="M855.079 264.77L855.69 266.26L849.685 275.189C851.545 277.721 855.802 283.803 857.88 285.606C862.217 289.374 873.873 294.488 877.781 298.022C878.541 302.568 879.383 307.098 880.308 311.614C878.009 314.008 873.573 318.411 871.626 320.891C865.127 316.633 858.459 312.147 851.905 308.015C850.227 309.724 843.525 316.739 841.84 317.814L840.971 317.116C843.602 313.964 848.149 310.084 851.183 306.659C849.904 302.79 848.538 299.133 847.107 295.316C849.573 292.502 853.367 288.845 856.066 286.109C853.842 282.791 850.436 278.506 847.981 275.218L855.079 264.77Z" fill="black"/>
<path d="M857.203 286.986L875.864 298.197C873.18 301.171 870.569 304.39 867.846 307.43C861.968 303.494 854.929 299.194 848.828 295.551C851.578 292.656 854.37 289.8 857.203 286.986Z" fill="#F4F1F0"/>
<path d="M849.448 297.711C851.792 298.571 864.304 306.681 867.372 308.573C868.319 311.286 869.654 315.477 870.261 318.266C864.492 314.925 858.906 310.692 853.126 307.264C851.851 304.352 850.629 300.756 849.448 297.711Z" fill="#F4F1F0"/>
<path d="M876.414 299.574C877.249 301.335 878.424 308.861 878.846 311.289C876.528 313.537 874.105 316.18 871.856 318.532L868.883 308.507C871.084 305.664 874.045 302.349 876.414 299.574Z" fill="#F4F1F0"/>
<path d="M911.959 316.453L912.666 316.709C913.475 318.336 915.225 333.948 915.667 337.013C912.34 337.531 895.543 338.154 891.771 338.129L890.665 337.95C889.563 336.214 888.046 321.598 888.335 319.008C890.658 317.868 907.894 316.887 911.959 316.453Z" fill="black"/>
<path d="M911.085 318.003L911.308 318.03C912.248 318.892 913.792 333.399 914.193 335.788C909.576 336.45 897.408 336.644 892.298 336.867L891.635 336.764C890.972 335.46 889.644 322.227 889.365 319.758C895.93 318.981 904.484 318.346 911.085 318.003Z" fill="#467A0D"/>
<path d="M908.772 151.149L1068.94 250.85C1090.46 264.245 1112.86 277.755 1134.12 291.426C1132.2 294.502 1128.61 299.057 1126.31 302.17L1111.03 322.81L1060.13 391.573C1059.5 392.41 1059.14 393.14 1058.18 393.404C1048.45 386.511 1037.6 379.515 1027.64 372.828L968.857 333.371L885.336 277.201C869.498 266.549 853.477 255.533 837.518 245.108C844.986 236.162 854.49 222.804 861.691 213.292L908.772 151.149Z" fill="#393939"/>
<path d="M912.503 155.54C913.833 156.082 924.547 162.88 926.503 164.098L960.095 185.014L1063.12 249.019C1079.23 259.033 1097.32 270.883 1113.58 280.271C1113.37 285.015 1113.24 289.761 1113.2 294.509C1106.57 303.223 1099.92 312.691 1093.44 321.601L1053.92 375.923L1053.75 376.002C1052.63 376.04 1052.23 375.733 1051.31 375.118C1041.8 368.806 1032.4 362.29 1022.92 355.958L929.887 293.522L877.923 258.653C870.44 253.627 859.928 247.052 852.895 241.817C854.18 238.127 856.524 232.071 858.126 228.625C858.909 226.942 863.284 221.334 864.604 219.58L875.754 204.774L912.503 155.54Z" fill="black"/>
<path d="M912.936 157.277L1047.44 240.856L1087.94 266.021C1094.69 270.226 1104.28 276.615 1111.11 280.251C1109.77 282.423 1106.76 286.256 1105.18 288.405L1093.46 304.293L1054.5 357.151C1053.96 357.884 1053.86 358.173 1053.07 358.597C1046.1 354.298 1038.48 348.975 1031.62 344.398L992.826 318.535L859.038 229.401C864.814 221.283 871.316 212.897 877.309 204.893L912.936 157.277Z" fill="#393939"/>
<path d="M913.574 174.971C972.551 212.43 1031.74 249.549 1091.14 286.327C1088.49 290.524 1081.29 299.213 1077.84 303.625L1052.82 335.793L1050.08 339.163C1036.84 329.776 1021.59 320.102 1007.95 310.998L921.998 253.691L893.96 234.994C890.363 232.606 880.871 226.638 878.111 223.9C879.322 221.475 882.358 217.528 884.035 215.225L894.203 201.27L906.59 184.292C908.536 181.627 911.516 177.295 913.574 174.971Z" fill="black"/>
<path d="M913.783 176.691L1023.69 245.599C1045.11 259.01 1068.21 272.957 1089.27 286.784L1052.04 334.57L1049.84 337.367C1034.66 326.921 1018.76 316.58 1003.39 306.328L915.078 247.447C903.351 239.624 891.179 231.721 879.577 223.752C882.973 218.679 887.486 212.814 891.161 207.778L913.783 176.691Z" fill="#819C7A"/>
<path d="M858.607 230.671L1052.73 360.054C1052.31 362.85 1052.3 372.094 1051.28 373.248L1050.4 372.9C1032.33 360.347 1013.13 347.808 994.773 335.544L928.495 290.964C904.085 274.683 878.632 257.937 854.491 241.283C855.905 237.762 857.277 234.224 858.607 230.671Z" fill="#393939"/>
<path d="M1111.68 281.743C1112.79 282.909 1111.85 292.121 1111.69 294.227C1092.25 320.775 1073.05 347.881 1053.45 374.255L1053.02 374.095C1053.19 369.318 1053.55 364.554 1054.1 359.805C1068.25 341.434 1081.61 322.114 1095.64 303.615C1101 296.559 1106.67 289.036 1111.68 281.743Z" fill="#393939"/>
<path d="M960.13 24.7901C968.635 34.3845 977.461 43.7763 986.054 53.3006C988.262 55.7486 991.388 59.4196 993.807 61.5083C997.246 65.7784 1005.35 73.9388 1009.46 78.0857C1027.32 96.0978 1046.34 114.981 1067.13 129.54C1074.12 134.435 1080.21 136.962 1087.65 140.524C1118.89 154.571 1157.5 165.87 1190.45 174.86C1200.04 177.45 1209.65 179.942 1219.3 182.334C1224.87 183.752 1231.81 185.703 1237.32 186.749C1238.52 187.055 1239.08 187.009 1239.9 187.766C1237.23 191.884 1211.09 231.409 1209.7 232.435C1206.4 230.689 1193.82 226.773 1190.18 225.694C1153.52 214.954 1115.05 211.772 1077.12 216.341L1020.7 181.576L1003.13 170.83C1000.08 168.961 995.964 166.608 993.2 164.537C987.839 138.027 977.67 113.28 960.521 92.2442C952.681 83.3269 947.368 79.0645 937.544 72.8835C945.214 57.1928 952.769 40.6693 960.13 24.7901Z" fill="#393939"/>
<path d="M923.978 123.827C928.915 126.474 934.67 130.228 939.562 133.236L966.46 149.786C970.09 152.023 975.447 155.565 979.099 157.508C990.02 164.545 1001.54 171.336 1012.63 178.163L1075.46 216.739L1175.98 278.633C1177.75 279.762 1187.38 286.062 1188.74 286.429C1192.03 288.662 1195.4 290.433 1198.65 292.808C1197.44 295.138 1194.51 301.315 1192.95 302.927C1189.16 306.82 1186.22 304.501 1182.02 309.945L986.06 187.522C961.377 172.129 935.093 156.258 910.809 140.458C912.323 138.899 913.483 138.006 914.887 136.232C917.913 132.209 920.967 127.696 923.978 123.827Z" fill="#393939"/>
<path d="M1254.49 298.054C1264.29 303.786 1274.31 309.707 1284 315.609C1283.76 316.732 1283.5 317.85 1283.2 318.959C1278.87 334.542 1262.75 356.76 1253.27 369.766C1244.35 381.999 1228.3 404.323 1215.03 411.938C1214.6 412.25 1212.89 412.987 1212.31 413.253L1186.8 396.53C1188.91 393.177 1191.26 388.7 1193.3 385.18C1197.31 378.248 1201.43 371.387 1205.68 364.6C1220.25 341.222 1236.58 318.978 1254.49 298.054Z" fill="#3E3374"/>
<path d="M1227.71 282.5C1229.12 282.664 1251.12 295.84 1253.23 297.384C1227.45 327.75 1204.86 360.695 1185.84 395.693C1185.17 395.679 1162.98 380.954 1161.02 379.684C1161.23 353.78 1203.97 292.685 1227.71 282.5Z" fill="#3E3374"/>
<path d="M847.55 173.431C845.681 168.966 844.348 165.414 843.623 160.549C840.786 141.512 848.213 121.104 859.393 105.937C869.518 92.2013 884.429 82.6631 901.401 80.177C908.525 84.762 915.989 88.9876 922.962 93.7663C926.95 96.4999 929.524 104.636 930.017 109.229C921.726 96.964 906.268 103.307 896.562 110.214C883.924 119.206 873.219 137.286 870.422 152.564C869.05 160.964 869.237 174.651 873.795 182.351C874.966 184.328 876.811 185.052 878.975 185.36C879.608 185.448 880.24 185.53 880.874 185.606C880.164 186.596 879.375 187.759 878.64 188.708L875.328 189.289C870.069 188.968 865.904 185.503 861.6 182.681L847.55 173.431Z" fill="#3E3374"/>
<path d="M1120.46 312.367C1125.35 315.881 1131.65 319.812 1136.74 323.179L1168.67 344.358C1156.06 361.757 1163.33 358.303 1143.12 357.85C1138.42 360.717 1132.33 364.345 1127.52 366.908C1123.44 366.488 1119.37 365.782 1115.29 365.395C1114.19 365.289 1113.94 365.761 1113.25 366.407L1105.01 375.459C1098.95 376.303 1087.73 378.132 1081.75 377.64C1080.95 377.572 1075.6 374.838 1074.47 374.275C1079.36 368.488 1085.65 359.351 1090.33 353.033L1120.46 312.367Z" fill="#393939"/>
<path d="M879.208 68.9165C885.684 69.3127 893.867 75.4259 899.566 79.1132C862.749 86.2262 839.148 122.982 842.195 159.708C842.595 164.527 843.948 166.949 845.05 171.222L844.812 171.596L844.053 171.16C839.951 168.945 830.335 162.605 827.282 159.072C821.1 151.92 818.92 141.63 819.641 132.396C821.333 112.604 830.687 94.2551 845.709 81.2579C855.069 73.2334 866.678 67.9538 879.208 68.9165Z" fill="#3E3374"/>
<path d="M908.128 141.116C909.917 141.126 922.715 149.544 925.384 151.212L957.315 171.169L1105.97 263.998L1153.98 293.98C1161.99 298.958 1174.04 305.989 1181.34 311.206C1180.31 312.394 1178.81 314.542 1177.82 315.877C1178.23 317.014 1178.6 318.313 1178.96 319.48C1173.05 316.213 1167.14 312.393 1161.23 309.023C1158.72 307.455 1135.3 293.791 1134.92 292.991C1135.46 292.149 1135.53 292.155 1135.75 291.196C1135.17 290.142 1113.54 276.972 1110.12 274.844L1061.48 244.626L908.459 149.4C904.359 154.632 900.404 160.238 896.216 165.347C895.443 161.39 894.918 157.735 894.358 153.744C896.234 150.268 899.027 144.757 901.136 141.634C903.468 141.481 905.799 141.308 908.128 141.116Z" fill="#393939"/>
<path d="M845.042 322.84C850.232 325.912 858.9 332.686 863.934 336.402L897.903 361.439L937.206 390.406L952.685 401.743C955.153 403.565 958.735 406.048 960.996 408.012C958.738 411.925 955.841 417.278 953.365 420.906L952.8 421.014C944.511 415.189 935.979 408.621 927.824 402.548L878.392 365.785C870.681 360.17 863.018 354.487 855.405 348.736C853.235 347.118 850.569 345.269 848.439 343.598C847.76 343.069 847.989 342.564 848.064 341.857C849.85 339.18 848.849 332.216 849.208 328.036C848.098 326.106 846.559 324.471 845.042 322.84Z" fill="#393939"/>
<path d="M882.124 184.026C879.571 184.192 876.361 184.214 874.932 181.608C870.716 173.923 870.149 161.932 871.607 153.378C874.234 137.969 884.489 121.254 896.842 111.724C902.537 107.543 912.903 102.286 920.173 103.751C924.695 104.662 926.585 106.667 929.106 110.263C931.634 115.55 931.795 120.746 930.866 126.374C928.211 124.853 926.253 123.556 923.732 121.837C922.939 122.982 920.892 126.514 919.554 126.412C915.221 122.733 909.336 121.336 904.262 124.481C896.35 129.386 890.823 136.805 888.478 145.841C887.128 151.044 886.739 158.141 889.451 163.019C890.981 165.63 892.475 166.145 895.152 166.833L882.124 184.026Z" fill="#393939"/>
<path d="M1133.82 294.185C1147.82 303.221 1164.23 312.109 1178.67 321.02C1175.96 326.573 1171.74 332.463 1169.12 337.991C1169.39 339.498 1169.85 341.219 1169.62 342.685L1169.19 342.954L1168.05 342.271C1152.6 332.163 1136.68 321.075 1121.07 311.336C1125.06 306.512 1130.13 299.303 1133.82 294.185Z" fill="#393939"/>
<path d="M1005.87 359.725C1011.72 364.052 1019.3 368.877 1025.43 372.995L1057.72 394.632C1053.48 398.637 1049.19 403.027 1045.1 407.187C1043.57 405.587 1030.39 396.838 1027.72 395.029C1027.82 393.299 1028.27 390.612 1028.52 388.82L1009.83 375.619C1008.58 377.114 1007.45 378.673 1006.28 380.233C1005.16 379.588 1003.95 378.768 1002.86 378.055C1000.82 376.523 998.195 374.807 996.063 373.332C993.094 376.371 989.59 380.577 986.675 383.866L968.79 404.034C965.61 407.606 961.853 412.023 958.465 415.257C959.316 413.676 960.618 411.038 961.742 409.684C975.872 392.652 991.454 376.501 1005.87 359.725Z" fill="#393939"/>
<path d="M1152.72 152.431C1155.53 152.37 1173.98 158.494 1177.56 159.425C1180.33 160.145 1190.56 171.32 1193.36 174.236C1188.5 172.905 1183.12 171.66 1178.39 170.172C1164.92 166.454 1146.59 161.386 1133.64 156.486C1140.01 155.196 1146.37 153.844 1152.72 152.431Z" fill="#393939"/>
<path d="M996.5 62.3906C999.096 63.0112 1015.23 67.6511 1017.44 68.7652C1022.05 73.4808 1027.21 78.6942 1031.73 83.3698C1034.9 86.6513 1037.23 99.1991 1038.26 104.137C1027.48 94.6718 1017.2 83.9624 1007.12 73.7347C1003.58 70.15 999.76 66.1985 996.5 62.3906Z" fill="#393939"/>
<path d="M894.713 165.892L893.711 165.259C885.69 160.287 888.661 145.579 892.509 138.686C895.692 132.983 901.35 126.668 907.692 124.472C911.753 123.066 915.643 125.398 919.057 127.303C919.133 129.081 915.561 133.228 914.279 135.12C912.801 136.688 911.126 138.226 909.555 139.715C906.628 139.876 902.872 140.208 900.017 140.703C898.03 144.744 895.159 149.52 892.977 153.623C893.505 157.816 894.274 161.52 894.713 165.892Z" fill="#F4F1F0"/>
<path d="M1010.01 377.434C1013.63 379.513 1023.28 386.764 1026.89 389.431C1023.72 393.52 1020.5 397.573 1017.22 401.589C1015.86 401.758 1003.08 391.369 1000.67 389.664C1003.86 385.642 1006.97 381.563 1010.01 377.434Z" fill="#3E3374"/>
<path d="M1193.39 304.829C1194.67 305.71 1195.99 306.489 1197.32 307.298C1187.27 319.647 1180.16 330.332 1172.23 344.081C1170.49 342.93 1170.71 339.95 1170.57 337.996C1173.05 332.937 1177.75 325.326 1180.65 320.215L1179.25 316.197L1184.84 308.581C1187.69 307.37 1190.55 306.077 1193.39 304.829Z" fill="#F4F1F0"/>
<path d="M999.85 390.718C1005.05 394.369 1011.07 399.243 1016.17 403.17C1015.55 405.154 1015.19 406.378 1014.29 408.263C1009.15 404.973 1002.3 400.015 997.354 396.378C998.003 394.617 999.054 392.461 999.85 390.718Z" fill="#3E3374"/>
<path d="M1026.46 392.196C1026.55 392.808 1026.57 394.039 1026.25 394.554C1023.47 399.126 1019.63 403.691 1016.35 407.895C1015.57 404.408 1024.07 395.104 1026.46 392.196Z" fill="#3E3374"/>
<path d="M700.167 323.629C703.352 320.528 712.083 312.281 715.082 309.786C721.606 304.358 763.018 264.44 765.429 264.458C766.151 267.503 762.936 300.017 762.563 304.9C761.941 312.873 761.315 321.329 760.537 329.271C758.343 332.093 751.044 338.63 748.108 341.346C748.517 344.573 748.567 349.7 748.695 353.074L749.445 373.018C749.582 376.694 749.557 383.394 750.668 386.68L749.794 388.137C750.772 390.737 751.763 393.328 752.767 395.919C756.44 398.542 762.26 402.594 766.127 404.932L780.917 404.513C784.517 408.09 788.145 411.637 791.801 415.157C798.669 414.974 808.862 413.391 816.034 412.647C823.168 406.206 829.958 399.237 836.987 392.673C838.457 391.301 840.033 389.815 841.385 388.342C840.944 381.618 840.702 374.813 840.194 368.112C842.707 365.744 845.346 363.486 847.95 361.219C847.875 357.826 846.337 346.581 847.097 344.738C848.352 344.801 874.076 364.268 876.709 366.226L927.962 404.278C935.765 410.076 944.159 416.078 951.804 421.996C952.592 422.62 952.529 422.65 953.499 422.828C954.992 422.104 991.721 380.205 996.19 375.222C999.315 377.087 1002.35 379.288 1005.34 381.372C1000.31 388.053 999.017 389.156 995.659 396.805C998.292 399.011 1013.12 408.529 1013.74 410.127C1013.95 410.591 1014.2 411.209 1014.5 411.596L985.471 414.392C979.71 414.949 972.783 415.439 967.115 416.271C965.672 417.598 959.728 423.687 958.533 424.227C953.311 426.576 944.302 427.467 938.593 428.878C936.9 430.588 932.801 434.935 931.109 436.351C924.075 437.178 915.302 437.317 908.682 438.36C901.746 445.284 895.136 452.636 888.29 459.656C886.985 460.996 885.654 462.391 884.439 463.807L885.493 484.425C886.449 485.172 887.568 485.989 888.432 486.817C890.995 488.657 899.825 495.511 901.989 497.703C902.432 501.298 903.06 505.534 903.28 509.101C905.639 510.989 908.451 512.935 910.993 514.599C917.28 518.714 923.424 523.458 929.75 527.471C954.627 525.018 980.256 523.285 1005 520.508C1008.22 516.757 1013.07 510.752 1016.43 507.331L1058.22 495.969C1066.66 493.667 1075.71 491 1084.15 489.035L1023.08 566.509C1020.55 569.698 1018.01 572.974 1015.36 576.057C1010.5 577.17 1001.1 578.296 995.822 579.086L958.676 584.703L914.704 591.374C909.987 592.09 899.369 594.165 895.044 593.95C892.577 593.829 880.068 590.202 876.892 589.381L840.815 580.173C841.572 575.537 842.63 571.075 843.533 566.48C836.059 563.22 825.427 559.883 817.492 556.94C798.644 549.947 779.515 543.397 760.685 536.358C758.662 533.593 755.823 528.67 753.944 525.609L741.797 505.826L726.806 481.43C723.95 476.786 720.444 471.391 717.895 466.698C715.619 470.628 712.7 476.088 710.163 479.675C705.093 470.309 700.235 457.391 695.356 447.61C694.059 445.008 686.99 429.486 686.559 427.707C686.394 427.15 698.624 332.506 700.167 323.629Z" fill="#F4F1F0"/>
<path d="M689.033 417.682C689.925 418.815 695.16 429.878 695.993 431.776C699.699 440.229 704.925 449.625 708.407 458.035C710.146 455.015 712.881 449.939 714.76 447.162C718.453 452.415 722.131 458.426 725.488 463.923C738.693 485.547 752.902 506.774 766.032 528.419L830.484 551.306C838.831 554.292 853.23 558.835 860.834 562.232C858.185 565.975 855.516 569.441 852.708 573.072C856.683 573.758 861.429 575.434 865.345 576.624L885.946 582.81C898.846 586.672 897.922 586.135 911.142 584.158L933.129 580.868L1019.99 568.132L1021.65 565.943L1080.54 491.393C1074.41 492.833 1067.9 494.803 1061.76 496.43C1046.88 500.37 1032.03 504.687 1017.12 508.516C1013.69 512.619 1009.09 518.222 1005.44 521.986C1001.97 522.144 998.368 522.504 994.917 522.857C973.114 525.073 951.092 526.453 929.331 528.95L902.108 510.142C901.486 506.187 901.345 502.311 900.611 498.324C895.878 494.343 890.911 490.631 886.154 486.611C887.043 486.737 887.551 486.771 888.43 486.814C890.994 488.654 899.823 495.508 901.987 497.7C902.43 501.294 903.058 505.53 903.278 509.098C905.638 510.986 908.45 512.932 910.991 514.596C917.278 518.711 923.423 523.454 929.749 527.467C954.626 525.015 980.255 523.282 1004.99 520.505C1008.22 516.754 1013.07 510.749 1016.43 507.328L1058.22 495.966C1066.66 493.663 1075.7 490.997 1084.15 489.032L1023.08 566.506C1020.55 569.695 1018.01 572.971 1015.35 576.054C1010.5 577.167 1001.09 578.293 995.821 579.083L958.674 584.7L914.702 591.371C909.986 592.087 899.367 594.162 895.043 593.947C892.575 593.826 880.066 590.199 876.89 589.378L840.813 580.17C841.57 575.533 842.628 571.072 843.532 566.477C836.057 563.217 825.426 559.88 817.49 556.936C798.643 549.944 779.514 543.394 760.683 536.355C758.661 533.59 755.822 528.667 753.942 525.606L741.796 505.823L726.805 481.427C723.948 476.783 720.443 471.388 717.893 466.695C715.618 470.624 712.699 476.085 710.161 479.671C705.091 470.306 700.233 457.388 695.354 447.606C694.057 445.005 686.988 429.483 686.558 427.704L687.132 427.943C687.776 426.837 687.378 420.943 688.57 419.775L689.546 419.872C689.027 419.171 689.092 418.857 689.046 417.984L689.033 417.682Z" fill="black"/>
<path d="M688.682 420.185C690.829 422.338 705.536 455.248 708.421 460.72L714.732 449.52C717.863 453.64 724.061 464.119 726.98 468.756L751.846 508.319C755.918 514.798 760.971 523.44 765.302 529.454C796.4 540.714 827.896 551.381 858.914 562.792C856.333 566.13 853.128 570.091 850.857 573.557C854.154 574.929 861.945 576.926 865.817 578.087L883.526 583.363C895.513 587.011 895.35 587.881 907.737 585.995L923.068 583.678L982.661 574.931C986.199 574.408 1016.9 569.569 1018.21 570.134L1017.85 570.824L1014.65 574.855C1005.9 575.994 996.522 577.578 987.733 578.894L927.314 588.056L907.473 591.082C905.003 591.457 897.613 592.751 895.522 592.493C890.471 591.873 883.855 589.724 878.745 588.424L842.382 579.213C843.324 575.185 844.352 569.56 845.077 565.487C828.147 559.667 810.835 553.081 793.932 547.003C784.666 543.674 770.006 538.821 761.481 535.083C758.303 530.688 753.416 522.069 750.34 517.055L727.991 480.668C725.114 475.981 720.887 468.561 717.785 464.409C715.427 467.915 712.441 473.27 710.38 477.039C708.194 473.041 704.843 465.033 702.822 460.608L687.672 427.368C687.863 425.031 688.313 422.518 688.682 420.185Z" fill="#393939"/>
<path d="M700.167 323.629C703.352 320.528 712.083 312.281 715.082 309.786C721.606 304.358 763.018 264.44 765.429 264.458C766.151 267.503 762.936 300.017 762.563 304.9C761.941 312.873 761.315 321.329 760.537 329.271C758.343 332.093 751.044 338.63 748.108 341.346C748.517 344.573 748.567 349.7 748.695 353.074L749.445 373.018C749.582 376.694 749.557 383.394 750.668 386.68L749.794 388.137C747.787 383.156 747.971 371.982 747.8 366.108C747.559 357.873 746.69 348.593 746.993 340.458C751.079 336.629 755.13 332.762 759.147 328.864C760.024 323.246 760.122 315.809 760.971 309.546C761.489 297.063 763.032 284.321 764.026 271.843C764.173 269.99 764.257 268.131 764.508 266.29L701.338 324.454C697.611 350.25 694.754 376.291 691.128 402.115C690.399 407.308 689.834 412.496 689.034 417.685L689.048 417.988C689.094 418.86 689.029 419.174 689.547 419.875L688.572 419.779C687.38 420.946 687.777 426.84 687.134 427.946L686.559 427.707C686.394 427.15 698.624 332.506 700.167 323.629Z" fill="black"/>
<path d="M966.504 414.803C976.117 414.018 985.962 412.958 995.585 412.044C1000.84 411.543 1008.86 411 1013.74 410.122C1013.95 410.585 1014.2 411.204 1014.5 411.591L985.47 414.387C979.71 414.944 972.783 415.434 967.115 416.266C965.672 417.592 959.727 423.682 958.533 424.222C953.311 426.571 944.302 427.462 938.593 428.873C936.9 430.583 932.801 434.929 931.109 436.346C924.075 437.173 915.301 437.312 908.681 438.354C901.745 445.279 895.136 452.631 888.29 459.651C886.985 460.991 885.653 462.386 884.439 463.802L885.493 484.419C886.449 485.167 887.568 485.984 888.431 486.812C887.552 486.769 887.044 486.735 886.155 486.609C885.415 486.155 884.528 485.592 884.383 484.708C883.243 477.736 883.623 470.308 882.884 463.272C891.032 454.843 899.826 444.897 908.07 436.904C915.023 436.764 923.151 435.388 930.47 435.198C932.755 432.701 935.334 430.111 937.707 427.675C943.752 426.073 951.13 425.007 957.482 423.493L966.504 414.803Z" fill="black"/>
<path d="M880.401 409.88C886.072 409.581 890.924 413.91 891.27 419.577C891.615 425.248 887.324 430.134 881.658 430.522C875.929 430.917 870.976 426.567 870.627 420.837C870.278 415.104 874.666 410.186 880.401 409.88Z" fill="black"/>
<path d="M880.885 411.278C885.825 411.294 889.818 415.308 889.807 420.249C889.796 425.19 885.787 429.187 880.847 429.184C875.897 429.179 871.889 425.16 871.899 420.212C871.91 415.261 875.935 411.26 880.885 411.278Z" fill="#BE2339"/>
<path d="M899.55 390.153C903.275 389.714 906.947 391.328 909.144 394.367C911.34 397.41 911.715 401.403 910.123 404.801C908.532 408.199 905.225 410.465 901.482 410.726C895.885 411.117 891 406.97 890.476 401.384C889.951 395.798 893.978 390.814 899.55 390.153Z" fill="black"/>
<path d="M900.852 391.446C905.761 391.513 909.703 395.516 909.69 400.428C909.678 405.336 905.716 409.32 900.806 409.361C897.583 409.389 894.594 407.681 892.979 404.891C891.364 402.102 891.372 398.66 893.001 395.878C894.631 393.094 897.629 391.402 900.852 391.446Z" fill="#BE2339"/>
<path d="M905.135 414.488C910.869 414.352 915.617 418.914 915.709 424.647C915.802 430.385 911.204 435.094 905.468 435.142C899.795 435.189 895.145 430.652 895.054 424.98C894.962 419.309 899.463 414.624 905.135 414.488Z" fill="black"/>
<path d="M904.682 415.882C909.622 415.523 913.917 419.239 914.275 424.176C914.632 429.117 910.917 433.412 905.977 433.768C901.037 434.128 896.743 430.412 896.386 425.472C896.029 420.534 899.743 416.238 904.682 415.882Z" fill="#BE2339"/>
<path d="M858.366 391.855C864.063 391.91 868.642 396.563 868.598 402.261C868.554 407.958 863.904 412.542 858.207 412.507C852.499 412.471 847.905 407.808 847.949 402.101C847.993 396.394 852.659 391.806 858.366 391.855Z" fill="black"/>
<path d="M859.014 393.25C863.915 393.627 867.593 397.891 867.249 402.792C866.905 407.696 862.666 411.404 857.76 411.089C855.257 410.93 852.936 409.727 851.363 407.774C849.79 405.817 849.111 403.292 849.49 400.814C850.198 396.189 854.35 392.893 859.014 393.25Z" fill="#BE2339"/>
<path d="M876.235 371.692C881.913 370.904 887.145 374.894 887.885 380.581C888.625 386.265 884.588 391.464 878.898 392.152C873.276 392.834 868.155 388.857 867.424 383.243C866.694 377.626 870.626 372.471 876.235 371.692Z" fill="black"/>
<path d="M878.302 372.975C883.212 373.32 886.92 377.569 886.594 382.483C886.268 387.393 882.031 391.118 877.118 390.808C874.61 390.649 872.284 389.445 870.711 387.485C869.138 385.525 868.462 382.994 868.85 380.51C869.566 375.926 873.673 372.652 878.302 372.975Z" fill="#BE2339"/>
<path d="M853.645 367.607C859.301 367.914 863.652 372.723 863.391 378.381C863.13 384.039 858.356 388.428 852.695 388.216C846.97 387.997 842.518 383.157 842.782 377.43C843.046 371.707 847.924 367.294 853.645 367.607Z" fill="black"/>
<path d="M853.655 368.976C858.527 369.26 862.269 373.403 862.058 378.278C861.846 383.153 857.76 386.956 852.881 386.818C849.66 386.728 846.738 384.907 845.235 382.056C843.732 379.204 843.881 375.767 845.625 373.058C847.37 370.346 850.438 368.786 853.655 368.976Z" fill="#BE2339"/>
</g>
<g filter="url(#filter3_d_3330_462)">
<path d="M89.4224 322.657C86.4049 308.35 90.349 282.747 103.872 274.264C108.942 271.084 114.471 267.878 119.654 264.822L146.225 249.019L220.724 204.659C228.227 200.202 235.798 195.731 243.334 191.158C246.351 189.327 249.723 187.345 253.716 188.873C260.94 192.874 268.133 197.118 275.316 201.256L322.018 228.067L384.656 264.113L405.776 276.205C423.856 286.565 424.704 285.239 424.366 306.342C426.698 307.938 428.613 309.252 431.066 310.638C439.16 303.257 449.488 299.04 460.537 299.544C478.702 300.373 503.006 318.063 514.732 331.108C530.593 348.75 545.613 375.53 545.161 399.79C545.114 402.326 544.133 407.399 543.647 410.049C541.062 421.997 537.266 431.729 527.747 439.749C519.081 446.052 508.877 449.439 498.584 444.978C498.241 446.585 498.319 447.232 498.358 448.902C502.162 448.914 508.698 448.731 512.28 449.003C517.298 448.945 536.946 448.162 540.427 449.937L548.268 454.037C554.403 450.031 564.292 443.307 570.528 439.955C574.935 441.61 579.432 443.817 583.718 445.811C584.804 441.972 586.72 436.23 587.561 432.594L708.371 496.004C711.782 497.791 744.503 514.559 745.66 515.848C747.443 517.884 747.369 528.017 747.563 531.471C747.964 538.54 749.078 546.21 749.05 553.221C748.295 554.533 748.311 554.226 746.816 555.129L745.313 556.13C745.154 557.013 745.126 556.694 745.41 557.554C747.478 567.213 747.933 577.966 749.856 587.87C747.435 589.287 744.994 590.673 742.533 592.02C735.818 596.147 730.262 596.287 722.285 596.081C718.225 593.577 714.199 591.023 710.209 588.415C709.512 580.228 707.569 569.354 707.246 561.926L583.492 499.427C562.17 514.306 538.683 527.118 517.539 542.274C514.394 544.528 506.553 554.35 503.131 557.854C505.669 560.276 509.15 563.417 511.431 565.964C510.898 571.644 509.765 580.971 508.453 586.465C502.224 590.342 495.964 594.169 489.676 597.945C486.963 599.592 481.407 603.143 478.663 604.346C460.548 602.294 463.694 603.61 447.218 595.995C441.176 598.004 435.142 600.048 429.123 602.123C438.432 608.25 448.001 615.141 457.169 621.549L496.933 649.424L526.24 650.214C541.198 650.537 540.08 649.63 553.356 658.351C553.118 661.555 552.885 665.199 552.063 668.313C549.144 669.972 544.764 672.284 542.066 674.075C541.712 678.1 541.665 681.417 541.622 685.435C545.064 687.479 550.969 690.282 553.831 692.229C553.426 695.639 553.122 699.057 552.912 702.487C549.969 703.678 540.178 707.945 537.966 708.066C531.773 708.404 522.608 707.696 516.243 707.373L475.276 705.465L401.478 655.143C391.021 648.03 377.726 638.328 367.146 631.776C351.595 640.867 335.778 652.04 320.279 661.418C314.894 664.681 308.546 669.185 303.162 672.16C299.552 670.715 294.448 667.815 290.815 665.896C283.594 662.123 276.422 658.261 269.299 654.31C265.369 652.122 256.285 647.396 252.942 645.118C253.188 641.404 253.557 637.184 253.582 633.497C255.988 632.022 258.564 630.375 260.998 628.993L255.298 626.61C253.182 617.785 251.602 607.121 249.741 597.984C240.936 592.95 232.081 587.508 223.284 582.365C224.668 594.212 225.016 600.293 221.867 612.058C219.077 625.579 211.939 629.406 201.346 636.896C178.942 652.737 163.167 656.751 137.856 641.809C135.964 641.104 128.45 635.701 126.847 634.443C106.09 618.182 87.8472 590.77 84.6315 564.492C82.8964 555.145 83.5477 543.835 85.9692 534.644C83.0801 533.219 80.2471 531.533 77.4869 529.871C57.416 517.767 36.6206 506.59 16.6514 494.338C19.1285 486.217 21.6688 477.251 24.4858 469.306C33.9718 463.053 46.7774 455.793 56.6717 449.891L103.71 421.606C103.628 413.437 103.348 402.277 103.835 394.296C101.004 392.62 95.9106 390.421 93.5467 388.548C93.2816 387.01 95.0865 374.304 95.408 371.407C95.6163 369.516 95.8814 366.387 96.2299 364.597C90.7698 361.645 60.5585 346.178 57.9412 343.614C59.247 341.565 85.6387 324.9 89.4224 322.657ZM476.432 674.515C476.097 672.611 476.432 672.576 474.801 671.455C468.039 666.803 461.253 662.1 454.483 657.463C452.789 656.299 446.646 651.865 445.213 651.273C445.295 651.709 445.4 652.254 445.525 652.912C454.304 660.095 464.484 666.32 473.73 672.993C474.645 673.655 475.587 674.262 476.432 674.515ZM428.788 641.657C428.668 640.333 428.89 639.718 427.57 638.87C422.941 635.888 399.22 618.509 396.016 617.426C396.168 617.843 396.351 618.345 396.565 618.941C405.484 625.695 419.974 635.483 428.788 641.657ZM125.694 408.426L127.207 407.422C127.043 405.739 122.844 404.417 121.255 403.519L121.211 411.097C122.678 410.211 124.202 409.256 125.694 408.426Z" fill="black"/>
<path d="M121.181 413.024L129.643 407.965C133.575 410.019 137.493 412.1 141.397 414.208C136.512 417.865 129.863 422.537 125.301 426.35C136.394 433.284 150.834 440.743 162.48 447.163L232.579 486.07C244.703 492.797 259.833 500.654 271.448 507.77C279.807 502.378 289.025 496.694 297.182 491.127C297.184 525.546 296.825 560.646 297.198 595.011C300.672 595.708 303.653 595.961 306.987 596.545C308.74 595.603 310.39 594.699 312.201 593.866C312.304 580.346 313.818 563.792 313.533 550.797C315.93 551.132 322.174 551.891 324.259 550.797C342.095 541.438 358.876 529.486 376.342 519.387C377.883 521.038 379.156 522.447 380.893 523.923L376.131 528.233C373.418 527.633 370.759 527.329 368.208 526.773C366.464 528.824 364.806 530.783 363.153 532.908C365.682 533.691 368.715 534.547 371.129 535.524C370.767 537.432 370.393 539.281 370.14 541.212C366.954 542.567 363.749 543.879 360.528 545.152L363.343 551.638C366.462 550.894 369.556 550.046 372.624 549.103C373.433 550.018 374.387 551.038 375.123 551.996C373.496 554.41 368.178 562.648 366.384 564.536C364.441 566.58 351.952 573.755 348.798 575.32C347.993 575.717 342.673 575.51 340.366 576.655L339.93 577.375C340.497 578.823 340.634 578.574 342.055 579.707L287.129 613.102C279.829 617.544 268.257 625.093 260.999 628.99C260.375 626.202 259.173 626.327 256.623 625.315C254.99 617.513 252.484 604.934 251.479 597.183C244.694 592.936 229.742 583.713 222.8 580.198C222.278 574.381 219.471 564.952 217.739 559.529C224.762 556.041 226.521 552.86 233.578 557.112C239.972 553.779 248.89 549.216 255.466 546.308L255.464 512.73C243.443 506.353 231.264 497.812 219.353 491.349C215.364 493.58 198.891 502.25 196.766 504.925C196.242 507.934 196.866 517.258 196.705 521.517C184.716 507.455 162.917 491.688 144.13 490.216C130.584 489.157 107.867 506.945 97.4121 515C91.516 519.543 88.4774 526.263 86.3303 533.126C64.4737 519.602 40.8449 507.054 18.7402 493.67C20.2492 487.211 23.6078 476.89 25.7412 470.42L78.9996 438.423C86.6095 433.836 96.0701 427.755 103.752 423.584L102.886 485.486L110.994 490.158C113.72 489.337 119.163 488.258 120.55 486.059C120.859 481.243 120.809 475.843 120.714 470.969C120.479 458.896 121.202 446.882 121.137 434.829L121.181 413.024Z" fill="#BEBDBC"/>
<path d="M85.8113 562.526C85.0101 548.706 84.9805 530.494 95.0515 519.628C103.063 510.982 119.039 501.015 129.659 495.705C132.273 494.401 136.856 491.571 139.601 491.477C156.058 490.917 178.32 504.811 189.657 516.171C209.153 535.699 222.13 567.26 222.745 594.769C222.866 600.2 221.71 604.876 220.691 610.12C216.759 627.125 208.976 629.375 195.566 638.567C175.108 652.59 162.253 652.706 140.2 641.377C139.492 641.502 138.532 641.638 137.858 641.806C135.965 641.101 128.452 635.697 126.848 634.44C106.091 618.178 87.8485 590.767 84.6328 564.489L85.8113 562.526Z" fill="#393939"/>
<path d="M85.8113 562.527C90.6512 591.441 105.739 615.734 128.802 633.81C132.232 636.496 136.543 638.968 140.2 641.378C139.492 641.503 138.532 641.639 137.858 641.806C135.965 641.102 128.452 635.698 126.848 634.441C106.091 618.179 87.8485 590.768 84.6328 564.489L85.8113 562.527Z" fill="black"/>
<path d="M113.391 521.458C123.674 520.002 135.878 524.639 144.437 530.14C165.85 543.894 182.735 568.234 188.369 592.967C190.914 604.14 191.205 619.159 184.657 628.978C179.986 635.982 175.102 638.746 167.118 640.416C155.572 642.238 143.042 637.336 133.557 630.956C112.693 616.917 95.9135 592.13 90.8696 567.58C88.5891 556.48 88.6697 541.905 95.3553 532.367C100.156 525.519 105.503 522.973 113.391 521.458Z" fill="black"/>
<path d="M113.098 522.976C124.86 522.513 132.606 524.763 142.866 531.101C164.348 544.688 180.505 567.728 186.59 592.297C191.129 610.626 189.093 633.708 167.385 638.788C156.409 640.564 145.302 636.297 136.088 630.465C115.239 617.263 98.4156 592.869 92.8621 568.942C90.2958 557.886 89.9045 543.75 96.3126 533.893C100.458 527.516 105.863 524.577 113.098 522.976Z" fill="#393939"/>
<path d="M126.268 550.598C154.647 548.161 181.564 603.505 154.174 611.182C125.603 615.352 97.0264 558.216 126.268 550.598Z" fill="black"/>
<path d="M126.055 552.153C154.756 550.849 178.023 603.075 154.042 609.568C128.94 613.621 99.4965 561.173 126.055 552.153Z" fill="#87868B"/>
<path d="M248.588 190.064C250.223 189.951 251.914 189.869 253.389 190.646C259.913 194.082 266.483 198.025 272.855 201.721L305.949 220.769L356.205 249.602C375.329 260.762 394.522 271.803 413.781 282.725C406.61 284.67 404.13 286.608 397.905 290.355L379.958 301.158L323.599 335.035L283.517 359.128C272.115 365.961 259.604 370.44 255.576 384.128C252.048 396.115 250.624 409.211 256.293 420.743L256.716 421.31L256.569 421.757C254.272 421.439 237.238 411.181 233.774 409.183L188.591 383.338L128.915 349.23C118.701 343.406 108.448 337.643 98.3099 331.695C91.8563 327.908 90.3804 322.417 90.2753 315.337C90.1752 308.58 90.3438 302.517 92.1973 295.956C93.8418 290.065 96.9356 282.298 101.686 278.151C105.866 274.5 112.682 270.89 117.581 267.981L144.394 252.054L208.458 213.924C221.681 206.042 235.272 197.7 248.588 190.064Z" fill="#393939"/>
<path d="M424.384 308.555C435.958 315.954 449.265 323.581 461.162 330.652L482.87 318.254L502.706 343.108C506.143 347.397 510.406 353.012 513.999 357.034C508.903 360.057 503.613 363.162 498.653 366.404C483.703 357.298 466.655 346.889 451.476 338.367C443.157 344.413 433.724 349.908 425.167 355.688C421.445 358.201 416.742 360.862 413.386 363.678C418.116 366.681 424.084 369.803 429.068 372.56L455.591 387.263C446.754 392.634 437.037 398.284 428.41 403.855C424.995 401.404 411.225 394.893 406.55 392.581C393.625 401.383 379.796 409.569 366.742 418.228C371.57 422.251 378.235 427.554 383.366 431.268C376.367 435.29 367.987 440.319 361.192 444.691L332.282 428.815C328.001 426.464 321.039 422.377 316.842 420.479L292.227 436.516C288.2 439.152 282.093 442.885 278.366 445.704C281.148 447.514 302.523 460.054 303.041 460.914C296.671 461.498 290.209 462.218 290.991 470.795C291.205 473.162 292.439 475.318 294.371 476.701C298.062 479.391 304.707 479.145 307.116 475.213C310.435 469.79 308.166 465.617 304.699 461.693C309.495 464.48 318.969 469.728 323.256 472.881L306.417 483.155C284.625 477.849 262.196 473.314 240.57 467.801C245.84 463.6 253.051 458.707 257.778 454.467C241.231 444.306 222.505 435.048 206.229 424.895C195.131 426.308 182.562 427.017 171.288 428.064C165.162 425.18 158.34 421.346 152.311 418.138L119.652 400.769C115.514 398.577 97.3616 389.608 94.9194 387.394C95.6591 385.821 96.5853 374.523 96.792 372.173C97.3071 369.891 97.7575 366.016 97.8478 363.655C86.8268 357.495 71.2945 349.026 60.0146 343.625C69.3616 337.532 81.0413 330.495 89.874 324.203C93.5615 332.602 100.128 334.668 107.752 339.023L129.607 351.507L197.432 390.298L239.018 414.062C244.527 417.193 250.355 421.058 256.066 423.629C264.559 427.453 271.412 421.865 278.117 417.826L296.157 406.99L352.152 373.472L392.862 349.133C412.21 337.57 424.723 333.844 424.384 308.555Z" fill="#BEBDBC"/>
<path d="M493.259 343.251C497.985 341.909 502.906 344.652 504.245 349.378C505.588 354.104 502.843 359.023 498.117 360.365C496.466 360.833 494.715 360.814 493.076 360.31C489.408 359.183 486.878 355.833 486.796 351.998C486.71 347.951 489.365 344.357 493.259 343.251Z" fill="black"/>
<path d="M493.88 344.799C497.699 343.767 501.635 345.998 502.713 349.804C503.792 353.61 501.608 357.575 497.816 358.698C495.32 359.437 492.622 358.778 490.75 356.972C488.877 355.166 488.122 352.493 488.768 349.973C489.414 347.454 491.369 345.477 493.88 344.799Z" fill="#989716"/>
<path d="M111.423 347.91C114.505 347.065 117.803 347.942 120.057 350.207C122.312 352.471 123.174 355.773 122.316 358.851C121.457 361.929 119.01 364.307 115.909 365.078C111.194 366.25 106.412 363.412 105.184 358.71C103.956 354.009 106.737 349.194 111.423 347.91Z" fill="black"/>
<path d="M112.177 349.423C114.298 348.918 116.533 349.399 118.258 350.731C119.983 352.064 121.012 354.106 121.058 356.285C121.13 359.681 118.822 362.666 115.518 363.452C111.644 364.374 107.757 361.981 106.835 358.108C105.912 354.234 108.304 350.346 112.177 349.423Z" fill="#989716"/>
<path d="M507.907 368.511C528.443 367.628 534.103 388.796 529.876 404.912C526.909 416.227 521.599 426.87 511.889 433.955C507.63 437.066 502.468 439.939 497.991 442.707L497.863 442.236C496.115 435.933 492.907 433.449 487.534 430.093C480.406 425.646 473.056 420.054 465.791 415.963C446.333 405.002 426.385 435.933 431.279 452.88L456.187 468.433C448.07 473.229 439.746 478.473 431.703 483.433C430.983 480.731 429.928 477.258 427.923 475.277C419.891 467.335 407.184 458.579 398.082 451.677C380.057 451.225 358.364 475.491 368.654 494.528C369.573 496.226 385.184 505.721 388.424 507.776C389.342 508.318 389.011 507.924 389.529 508.87C389.459 508.983 389.397 509.108 389.315 509.217C388.264 510.579 332.325 544.878 326.677 547.953C325.036 548.845 323.552 549.37 321.697 549.619C317.163 550.223 312.862 548.88 309.328 546.011C303.648 541.405 300.68 534.004 300.079 526.845C298.957 513.495 304.67 500.146 313.189 490.094C317.368 485.161 322.191 481.066 327.517 477.43C339.348 469.351 352.033 462.192 364.249 454.698L432.727 412.599L479.787 383.739C487.487 378.976 495.402 373.866 503.254 369.321C504.224 368.761 506.704 368.609 507.907 368.511Z" fill="#BEBDBC"/>
<path d="M489.535 487.984L549.072 474.467C555.562 473.004 574.128 469.247 579.851 467.141C587.828 470.742 595.642 475.032 603.607 478.785C603.735 485.372 603.607 493.536 604.113 499.917C612.861 500.15 612.215 500.944 621.087 498.091C620.99 494.684 621.227 491.06 621.383 487.638C634.448 493.781 648.775 500.979 661.602 507.567C660.8 513.807 660.909 522.353 660.361 529.006C668.275 530.805 668.941 531.132 676.926 528.737C677.116 524.272 677.338 519.81 677.599 515.349L706.934 529.823C707.775 538.567 709.713 547.767 710.683 556.67C713.517 557.858 716.409 559.228 719.213 560.509C719.107 567.937 719.061 575.369 719.068 582.801L729.097 588.232L737.74 583.104C738.487 577.689 738.791 565.519 739.009 559.851C740.523 558.835 742.061 557.464 743.751 557.694L744.304 558.753C744.747 564.97 745.818 571.561 746.604 577.775C746.838 579.601 747.511 585.666 747.889 587.064C746.087 588.099 743.447 589.501 741.761 590.587C734.956 594.593 730.942 594.55 722.958 594.632C719.209 592.214 715.39 589.812 711.749 587.235C711.73 582.217 709.398 566.792 708.791 560.778L576.912 494.33C567.311 495.549 553.16 499.126 543.307 501.003C527.707 503.973 511.936 507.154 496.488 510.782C500.14 511.942 505.026 514.189 508.646 515.73C504.695 524.969 501.787 521.177 493.405 518.424C490.851 520.176 487.499 522.107 484.817 523.754C485.868 526.456 486.911 530.065 487.81 532.883C484.801 533.148 481.325 533.678 478.303 534.067C476.945 531.743 475.364 528.422 473.986 525.903C470.724 525.981 467.457 526.028 464.191 526.039C463.039 528.757 461.894 532.004 460.847 534.783C457.752 534.308 455.097 534.005 451.978 533.713C452.508 530.645 453.068 527.585 453.668 524.533C451.227 522.987 448.019 521.29 445.461 519.842C438.38 522.065 436.768 526.826 432.369 518.109C435.191 516.595 437.951 514.96 440.642 513.215C439.462 510.712 439.131 510.039 438.477 507.31C435.265 507.345 432.057 507.438 428.849 507.582C428.748 505.702 428.46 503.876 428.207 502.015C431.193 501.708 434.899 501.007 437.885 500.516L441.097 494.026C439.018 492.574 436.916 491.149 434.794 489.756C436.577 488.518 438.387 487.073 440.12 485.746C442.892 487.108 444.36 487.774 447.268 488.779L453.493 485.123C452.917 483.612 451.682 481.28 450.939 479.762C453.033 478.824 455.116 478.065 457.257 477.259C458.682 478.684 460.333 480.611 461.707 482.141L470.673 481.596C472.281 479.669 473.542 477.586 474.905 475.48C477.206 476.099 479.686 476.648 482.014 477.204L479.795 483.161C483.801 484.492 486.113 485.536 489.535 487.984Z" fill="#BEBDBC"/>
<path d="M463.81 491.963C468.656 491.029 473.336 494.217 474.239 499.068C475.138 503.923 471.915 508.579 467.056 509.447C462.248 510.308 457.647 507.123 456.751 502.319C455.86 497.515 459.013 492.89 463.81 491.963Z" fill="black"/>
<path d="M464.508 493.441C468.417 492.928 472.022 495.637 472.61 499.534C473.201 503.435 470.562 507.091 466.677 507.756C464.092 508.2 461.472 507.211 459.825 505.175C458.174 503.139 457.754 500.371 458.727 497.934C459.7 495.501 461.908 493.784 464.508 493.441Z" fill="#989716"/>
<path d="M413.621 284.272C418.584 283.628 421.072 288.554 422.306 292.623C423.723 297.292 422.797 302.445 423.116 307.139C423.879 318.46 420.251 330.178 410.378 336.612C403.662 340.954 396.316 345.187 389.277 349.39L350.143 372.792L292.612 407.238C288.318 409.81 268.169 422.37 264.451 423.319C259.185 423.587 256.925 419.918 255.587 415.126C252.447 403.884 254.147 389.858 259.391 379.464C261.277 375.726 263.608 373.131 267.096 370.809C273.269 366.979 279.781 363.211 286.013 359.475L324.899 336.084L378.123 304.089L395.743 293.493C401.902 289.793 406.726 286.347 413.621 284.272Z" fill="#393939"/>
<path d="M451.702 340.348C467.368 350.066 484.353 359.736 500.292 369.22L411.366 423.828C384.161 440.541 356.162 457.347 329.236 474.391L281.169 445.664L289.503 440.272L316.994 422.314C331.756 430.329 346.471 438.427 361.14 446.61C369.414 441.444 377.939 436.363 386.282 431.287C381.323 428.059 374.323 422.13 369.297 418.383C381.537 411.351 394.357 401.966 406.713 394.591C413.643 397.379 422.157 402.901 429.13 405.194C437.243 400.294 451.06 392.485 458.495 387.191C454.665 384.632 448.572 381.481 444.438 379.193C435.012 374.036 425.626 368.812 416.279 363.521C427.288 355.827 440.33 347.759 451.702 340.348Z" fill="#BEBDBC"/>
<path d="M465.228 359.205C470.075 358.185 474.824 361.313 475.802 366.17C476.783 371.027 473.614 375.75 468.747 376.687C463.939 377.612 459.287 374.489 458.322 369.691C457.356 364.893 460.436 360.213 465.228 359.205Z" fill="black"/>
<path d="M465.127 360.835C468.977 359.804 472.941 362.07 473.999 365.911C475.062 369.752 472.828 373.731 468.997 374.823C465.119 375.929 461.086 373.663 460.012 369.778C458.937 365.893 461.234 361.878 465.127 360.835Z" fill="#989716"/>
<path d="M328.779 441.756C333.606 440.849 338.251 444.041 339.135 448.872C340.019 453.704 336.806 458.336 331.97 459.197C327.166 460.053 322.573 456.865 321.695 452.065C320.817 447.264 323.983 442.659 328.779 441.756Z" fill="black"/>
<path d="M329.564 443.217C333.446 442.785 336.969 445.514 337.515 449.384C338.06 453.249 335.43 456.85 331.579 457.505C328.989 457.944 326.365 456.944 324.727 454.888C323.089 452.837 322.696 450.053 323.702 447.628C324.708 445.198 326.954 443.513 329.564 443.217Z" fill="#989716"/>
<path d="M588.657 435.031C601.645 442.21 615.788 449.331 628.99 456.253L700.817 493.969C706.377 496.893 740.893 515.774 744.265 516.382C745.604 518.955 747.282 547.939 747.274 552.474C746.865 553.195 746.994 553.066 746.429 553.662C743.969 554.674 737.794 558.7 735.342 560.288C722.72 560.463 723.666 560.938 712.427 555.589C710.69 547.394 709.659 537.245 708.3 528.765L579.396 465.02L588.657 435.031Z" fill="#BEBDBC"/>
<path d="M609.156 451.495C613.941 450.432 618.686 453.445 619.761 458.23C620.831 463.018 617.826 467.768 613.041 468.846C608.245 469.928 603.484 466.915 602.409 462.119C601.335 457.322 604.356 452.561 609.156 451.495Z" fill="black"/>
<path d="M609.569 453.035C613.466 452.217 617.293 454.693 618.138 458.583C618.986 462.472 616.534 466.318 612.648 467.19C608.728 468.07 604.839 465.59 603.986 461.662C603.13 457.734 605.637 453.864 609.569 453.035Z" fill="#989716"/>
<path d="M724.411 512.242C727.552 511.546 730.83 512.601 732.976 515.003C735.117 517.405 735.794 520.78 734.739 523.824C733.688 526.869 731.072 529.103 727.899 529.668C723.142 530.517 718.579 527.402 717.629 522.664C716.679 517.922 719.692 513.294 724.411 512.242Z" fill="black"/>
<path d="M725.079 513.733C728.957 513.072 732.652 515.618 733.411 519.476C734.17 523.334 731.717 527.095 727.879 527.947C725.309 528.52 722.635 527.655 720.887 525.689C719.139 523.719 718.594 520.959 719.466 518.475C720.338 515.995 722.487 514.177 725.079 513.733Z" fill="#989716"/>
<path d="M668.936 481.075C672.07 480.448 675.301 481.554 677.392 483.971C679.486 486.389 680.117 489.741 679.05 492.754C677.979 495.768 675.375 497.975 672.225 498.532C667.433 499.38 662.847 496.215 661.948 491.431C661.044 486.646 664.163 482.029 668.936 481.075Z" fill="black"/>
<path d="M669.593 482.545C673.517 481.973 677.169 484.663 677.784 488.58C678.399 492.496 675.752 496.179 671.843 496.837C669.274 497.273 666.669 496.292 665.026 494.271C663.384 492.251 662.951 489.506 663.894 487.077C664.84 484.652 667.016 482.919 669.593 482.545Z" fill="#989716"/>
<path d="M727.006 537.908C731.833 536.989 736.489 540.174 737.389 545.009C738.288 549.84 735.084 554.485 730.245 555.361C725.437 556.233 720.827 553.056 719.936 548.248C719.044 543.444 722.202 538.823 727.006 537.908Z" fill="black"/>
<path d="M727.266 539.443C731.151 538.688 734.924 541.195 735.73 545.072C736.539 548.95 734.083 552.753 730.217 553.614C727.671 554.182 725.012 553.333 723.264 551.395C721.52 549.456 720.951 546.727 721.777 544.251C722.606 541.775 724.704 539.937 727.266 539.443Z" fill="#989716"/>
<path d="M384.014 572.625C387.665 574.856 391.831 578.239 395.537 580.633C402.011 584.81 408.127 589.007 414.329 593.585C416.474 595.263 418.187 596.501 420.453 598.016C445.174 615.251 471.651 633.194 495.886 650.845C510.037 651.593 525.127 651.091 539.193 652.418C540.567 652.55 550.14 658.269 551.635 659.437C551.814 661.181 550.95 665.269 550.611 667.181C547.45 669.225 543.156 671.342 539.769 673.34C519.268 673.024 497.131 670.903 476.821 670.817L342.561 577.892C345.96 577.051 350.208 576.615 353.733 576.234C363.722 575.156 374.012 573.154 384.014 572.625Z" fill="#BEBDBC"/>
<path d="M483.151 648.467C486.231 647.587 489.548 648.432 491.829 650.679C494.114 652.925 495.018 656.226 494.192 659.321C493.367 662.416 490.942 664.83 487.843 665.644C485.207 666.333 482.4 665.776 480.228 664.137C478.051 662.494 476.747 659.952 476.689 657.227C476.595 653.178 479.254 649.577 483.151 648.467Z" fill="black"/>
<path d="M483.684 650.056C487.511 648.974 491.494 651.185 492.595 655.008C493.697 658.827 491.505 662.821 487.69 663.943C483.848 665.072 479.818 662.86 478.709 659.01C477.599 655.164 479.83 651.146 483.684 650.056Z" fill="#989716"/>
<path d="M384.769 579.926C389.495 578.653 394.361 581.432 395.666 586.151C396.97 590.869 394.217 595.755 389.507 597.091C386.82 597.85 383.936 597.305 381.709 595.619C379.486 593.933 378.178 591.302 378.182 588.51C378.189 584.492 380.887 580.973 384.769 579.926Z" fill="black"/>
<path d="M385.042 581.549C388.873 580.385 392.922 582.553 394.07 586.384C395.222 590.219 393.042 594.26 389.204 595.397C385.384 596.529 381.371 594.361 380.226 590.546C379.082 586.731 381.234 582.709 385.042 581.549Z" fill="#989716"/>
<path d="M433.372 614.584C438.102 613.28 442.999 616.048 444.315 620.778C445.631 625.504 442.875 630.406 438.148 631.733C435.466 632.489 432.581 631.94 430.362 630.258C428.139 628.572 426.835 625.94 426.839 623.153C426.847 619.155 429.517 615.647 433.372 614.584Z" fill="black"/>
<path d="M433.493 616.25C434.965 615.752 436.557 615.74 438.037 616.215C441.05 617.184 443.09 619.995 443.07 623.164C443.051 626.216 441.12 628.934 438.243 629.954C434.447 631.301 430.282 629.3 428.962 625.496C427.642 621.689 429.678 617.539 433.493 616.25Z" fill="#989716"/>
<path d="M530.242 653.555C533.384 652.893 536.635 653.975 538.753 656.385C540.871 658.795 541.525 662.158 540.462 665.187C539.403 668.216 536.794 670.439 533.633 671C528.856 671.852 524.278 668.71 523.352 663.945C522.425 659.18 525.493 654.555 530.242 653.555Z" fill="black"/>
<path d="M530.952 655.027C532.938 654.727 534.954 655.264 536.523 656.514C538.758 658.285 539.739 661.205 539.034 663.969C538.326 666.729 536.06 668.816 533.249 669.299C529.286 669.976 525.533 667.29 524.895 663.323C524.256 659.352 526.977 655.626 530.952 655.027Z" fill="#989716"/>
<path d="M142.99 415.07C151.313 419.031 162.264 425.221 170.547 429.724C182.436 429.101 193.977 427.15 206.299 426.815C222.082 436.182 239.145 445.736 255.199 454.678C249.846 458.634 241.791 464.314 237.054 468.581C243.016 470.461 253.664 472.552 260.012 474.015L304.819 484.309L295.205 490.549L271.502 505.799C258.282 499.157 243.095 489.919 229.807 482.697C195.781 464.201 162.024 444.638 127.964 426.228C132.857 422.83 138.174 418.669 142.99 415.07Z" fill="#BEBDBC"/>
<path d="M354.184 588.102C361.67 592.941 369.535 598.644 376.897 603.787V625.83L385.151 631.665C387.564 630.571 390.099 629.59 392.528 628.555C397.048 626.628 396.982 625.098 396.25 620.944C406.146 628.313 418.433 636.598 428.707 643.59L428.722 661.891C431.572 663.246 434.402 664.648 437.209 666.092L445.081 660.747L445.108 655.133L476.199 676.79C476.276 682.354 476.004 688.076 476.02 693.714C478.846 695.734 481.727 697.681 484.662 699.549C487.952 698.272 491.226 696.941 494.473 695.559C494.664 691.483 494.761 687.407 494.765 683.327C502.368 683.206 514.152 684.117 522.122 684.503C522.102 688.598 521.834 693.106 521.756 697.268C525.096 698.596 528.043 700.087 531.496 701.266C533.957 700.371 540.299 698.183 541.159 695.82L541.171 687.216C544.854 689.19 548.525 691.195 552.176 693.227C551.814 696.069 551.674 698.374 551.199 701.313C548.828 702.337 540.287 706.168 538.309 706.316C531.403 706.833 522.196 706.121 515.106 705.774C502.006 705.19 488.906 704.54 475.809 703.82L340.163 611.262C344.644 604.713 349.797 595.175 354.184 588.102Z" fill="#BEBDBC"/>
<path d="M422.461 511.914C424.809 512.007 428.122 512.809 430.512 513.316L425.732 519.833C428.764 522.087 430.684 523.395 433.942 525.299C437.703 523.897 440.895 523.469 444.804 522.78C445.707 524.465 446.657 526.805 447.443 528.6C443.507 529.721 440.058 530.718 436.033 531.535L436.547 538.636C440.697 539.407 445.1 540.007 449.289 540.645C448.876 542.794 448.701 545.325 448.483 547.532C443.776 547.341 439.248 546.761 434.343 546.605C432.237 549.101 429.858 551.343 427.522 553.629C429.835 556.373 432.19 559.449 434.44 562.275C431.334 563.268 428.067 564.596 425.004 565.771C423.275 564.015 418.666 558.861 416.583 558.468C413.071 559.963 404.168 578.054 401.442 582.741L390.904 575.411L384.457 570.898C378.282 571.198 369.169 572.662 362.864 573.472C365.308 568.878 373.681 556.482 376.737 552.223L373.673 548.174C370.691 549.054 367.181 549.852 364.132 550.623L361.746 545.461C364.892 544.25 368.008 542.958 371.088 541.591C371.442 539.466 371.921 537.184 372.33 535.051C369.94 534.155 366.966 533.252 364.505 532.435C365.728 530.901 367.181 529.289 368.476 527.794C371.22 528.074 373.953 528.433 376.678 528.869C378.5 527.327 380.346 525.633 382.133 524.033L377.628 519.58L383.215 515.811L389.514 519.552C392.041 518.649 396.744 517.726 398.453 516.734C398.725 515.866 398.721 515.795 399.192 515.032C401.828 514.608 412.659 516.987 416.489 517.489L422.461 511.914Z" fill="#BEBDBC"/>
<path d="M403.312 528.56C406.453 527.902 409.704 528.988 411.822 531.398C413.94 533.808 414.594 537.176 413.539 540.204C412.48 543.233 409.871 545.46 406.714 546.029C402.26 546.83 397.916 544.164 396.612 539.831C395.895 537.444 396.211 534.867 397.484 532.726C398.761 530.581 400.871 529.07 403.312 528.56Z" fill="black"/>
<path d="M404.011 530.052C407.935 529.441 411.618 532.111 412.256 536.032C412.895 539.952 410.251 543.654 406.335 544.32C402.38 544.998 398.63 542.319 397.988 538.356C397.342 534.397 400.044 530.667 404.011 530.052Z" fill="#989716"/>
<path d="M343.264 580.844C345.19 581.354 350.858 585.687 352.79 587.077C347.836 595.295 342.945 603.548 338.12 611.837C341.856 614.418 345.543 617.018 349.408 619.401L294.04 654.451C290.31 652.57 286.578 650.589 282.869 648.658L255.314 634.354L343.264 580.844Z" fill="#2D3F71"/>
<path d="M432.412 311.591C433.175 310.9 433.958 310.232 434.76 309.586C442.951 303.106 453.412 300.202 463.771 301.53C477.603 303.265 499.097 317.525 508.787 327.324C526.617 345.359 542.007 370.784 543.494 396.5C543.661 399.361 543.12 403.087 542.754 405.991C540.418 418.495 536.553 430.887 526.03 438.965C517.029 445.066 509.756 446.946 499.264 443.91C503.321 441.052 507.969 438.782 512.018 435.905C528.073 424.48 538.635 397.311 529.245 378.894C525.726 371.999 517.64 366.783 509.924 366.817C507.705 366.827 502.718 367.974 500.896 367.447C501.92 365.567 513.073 359.478 516.161 357.341L483.303 316.242C476.198 320.006 468.205 324.792 461.147 328.821C452.298 323.099 441.584 317.021 432.412 311.591Z" fill="#393939"/>
<path d="M493.578 519.688C497.047 520.349 501.586 522.171 505.238 523.261C505.339 529.833 506.826 539.091 507.453 546.11C496.533 553.23 484.005 560.499 472.781 567.335C462.145 567.359 451.478 567.444 440.846 567.339C435.547 567.285 430.35 566.899 424.997 566.899C428.843 565.587 432.631 564.088 436.419 562.625C434.025 559.67 431.666 556.688 429.346 553.674L433.184 549.781L435.407 547.582C440.165 547.99 444.93 548.341 449.695 548.625C450.127 545.962 450.427 542.622 450.746 539.897C446.58 539.328 442.43 538.69 438.288 537.977L437.65 532.188C441.259 531.083 445.28 530.172 449.053 529.054C447.764 525.971 446.767 523.141 444.661 520.567L452.486 525.017C451.782 528.147 451.147 531.297 450.586 534.458C454.339 535.011 458.104 535.497 461.876 535.914C462.671 533.177 463.913 530.07 464.925 527.361C467.444 527.178 470.648 527.209 473.225 527.166C475.023 530.098 476.246 532.819 477.628 535.957C481.579 535.353 485.523 534.684 489.451 533.944C489 531.499 487.178 526.726 486.294 524.2L493.578 519.688Z" fill="#BEBDBC"/>
<path d="M502.299 559.742C503.518 560.318 508.766 565.586 510 566.785C509.505 569.167 509.303 573.24 508.158 575.015C502.576 575.248 486.439 589.4 480.253 591.327C476.768 592.413 467.728 592.051 463.212 592.518L462.613 592.58C457.291 590.081 451.934 587.656 446.546 585.297C438.678 586.803 425.142 588.174 416.729 589.38C415.035 589.567 413.248 589.692 411.543 589.836C408.549 587.936 405.672 585.861 402.928 583.619C404.508 580.777 406.054 577.919 407.568 575.042C413.42 574.918 418.765 575.396 424.546 575.466L475.012 576.167L502.299 559.742Z" fill="#2D3F71"/>
<path d="M455.962 415.127C457.543 415.06 459.956 415.029 461.385 415.698C469.234 419.385 478.308 425.972 485.639 430.823C475.245 432.264 468.77 436.351 463.227 445.527C459.372 451.904 457.983 459.247 459.84 466.538C460.128 467.407 460.315 468.212 460.533 469.096C459.123 468.571 453.365 464.783 451.563 463.65L432.755 451.889C430.147 444.967 433.931 435.791 437.427 429.725C441.787 422.157 447.452 417.315 455.962 415.127Z" fill="#BEBDBC"/>
<path d="M394.421 453.342C395.192 453.284 396.851 453.155 397.431 453.537C404.859 458.438 413.388 465.325 420.369 470.69C401.674 470.822 386.981 492.028 394.41 509.091L394.343 509.22L393.872 509.325C386.857 504.653 379.223 500.277 372.433 495.625C362.807 488.606 368.676 474.061 374.446 466.536C379.662 459.731 385.833 454.642 394.421 453.342Z" fill="#BEBDBC"/>
<path d="M483.219 432.665C504.289 431.426 500.069 466.83 475.009 474.29C451.249 475.204 458.521 438.96 483.219 432.665Z" fill="#BEBDBC"/>
<path d="M480.256 435.393C494.987 434.669 497.409 445.69 492.562 457.502C489.615 464.677 484.04 469.022 476.822 471.696C462.328 473.145 459.825 460.441 464.804 449.272C467.938 442.241 473.061 438.056 480.256 435.393Z" fill="black"/>
<path d="M480.945 436.965C501.434 435.93 494.053 464.178 476.693 470.08C463.718 471.696 461.872 460.059 466.131 450.517C469.277 443.478 473.871 439.679 480.945 436.965Z" fill="#393939"/>
<path d="M417.677 472.431C420.172 472.4 422.629 473.089 424.739 474.424C433.448 479.913 430.104 494.688 425.128 501.796C420.686 508.146 415.89 512.343 408.17 513.943C404.763 514.04 401.186 513.744 398.71 511.506C387.673 501.536 397.767 481.49 408.645 475.452C412.152 473.501 414.068 472.886 417.677 472.431Z" fill="#BEBDBC"/>
<path d="M414.482 475.142C417.686 475.064 420.108 474.893 422.957 476.668C430.74 481.511 428.602 493.377 424.511 500.019C420.606 506.364 416.249 509.724 409.078 511.601C388.04 513.333 394.121 479.132 414.482 475.142Z" fill="black"/>
<path d="M414.583 476.627C431.779 475.128 427.808 496.155 419.527 503.89C415.868 507.309 414.54 508.118 409.857 509.975C396.982 511.194 395.347 499.468 399.649 490.062C402.923 482.903 407.35 479.352 414.583 476.627Z" fill="#393939"/>
<path d="M570.357 441.879C571.708 441.914 581.211 446.449 583.184 447.345C581.798 451.775 578.295 462.252 577.633 466.37C559.857 470.205 542.174 474.472 524.426 478.431C521.724 479.035 519.03 479.689 516.297 480.16L504.466 482.978C510.812 478.388 523.69 471.108 530.74 466.826C544.257 458.619 557.042 450.393 570.357 441.879Z" fill="#BEBDBC"/>
<path d="M575.765 496.196C577.724 496.028 580.114 497.659 581.827 498.644L544.41 522.595C533.533 529.556 519.997 536.59 511.494 546.214L509.458 548.589C508.594 542.426 508.309 534.998 507.13 529.244C521.048 521.002 534.596 511.375 548.42 502.981C553.758 499.742 569.046 497.18 575.765 496.196Z" fill="#2D3F71"/>
<path d="M119.06 414.254C120.199 415.417 119.374 443.294 119.356 447.128C119.293 460.054 119.284 473.111 119.277 486.032C116.726 486.655 113.713 487.698 111.166 488.512L106.949 485.966L104.286 484.483L105.161 422.62C109.842 419.911 114.476 417.122 119.06 414.254Z" fill="#989716"/>
<path d="M498.253 450.277C505.794 451.2 536.363 449.421 539.679 451.434L546.862 455.101L516.34 473.698C511.84 476.439 503.68 481.71 499.156 483.848C499.156 472.39 498.596 461.626 498.253 450.277Z" fill="#BEBDBC"/>
<path d="M219.125 493.305C220.83 493.896 228.777 498.81 230.612 499.915C238.146 504.517 245.727 509.041 253.352 513.487C251.097 514.83 235.885 524.975 234.659 525.018C223.689 518.283 210.461 511.014 199.198 504.618L219.125 493.305Z" fill="#BEBDBC"/>
<path d="M480.867 593.249C489.35 588.425 499.675 580.955 508.162 575.598L508.442 576.15C508.621 577.926 508.936 579.666 508.613 581.394L507.722 581.757C507.391 583.216 507.297 583.835 507.161 585.323L478.235 602.865L477.85 602.783C472.357 601.666 466.182 601.826 460.872 600.241C456.71 599.003 451.389 595.608 447.351 594.448C440.702 595.994 433.807 599.163 427.267 600.879L421.922 596.99L420.454 598.014C418.188 596.5 416.475 595.262 414.33 593.584L415.019 592.716C414.412 591.742 414.439 592.206 414.54 591.302C423.16 589.535 437.046 588.18 446.285 586.849C451.459 589.406 456.87 591.536 462.122 594.172C468.362 593.708 474.611 593.397 480.867 593.249Z" fill="#2D3F71"/>
<path d="M479.86 598.911C482.959 597.03 506.325 581.789 507.723 581.758C507.392 583.218 507.299 583.837 507.162 585.324L478.237 602.866L477.851 602.784C472.358 601.667 466.184 601.827 460.873 600.242C456.712 599.004 451.39 595.609 447.353 594.449C440.703 595.995 433.809 599.164 427.268 600.881L421.923 596.992C423.998 595.851 443.522 592.873 447.578 592.141C460.114 597.338 466.312 598.339 479.86 598.911Z" fill="#2D3F71"/>
<path d="M508.442 576.156C508.621 577.932 508.936 579.672 508.613 581.4L507.722 581.762C506.324 581.793 482.958 597.035 479.859 598.915C466.311 598.343 460.113 597.342 447.577 592.145C443.521 592.877 423.997 595.855 421.922 596.996L420.454 598.02C418.188 596.506 416.475 595.268 414.33 593.59L415.019 592.721C416.378 593.006 418.414 594.633 419.652 595.497C428.774 593.734 438.374 592.472 447.379 590.588C454.207 592.943 461.363 595.832 468.584 596.506C470.924 596.724 478.119 597.856 479.859 596.829C489.159 591.328 498.219 585.321 507.434 579.66C508.212 579.181 508.294 577.087 508.442 576.156Z" fill="black"/>
<path d="M357.107 624.906C359.853 626.534 362.942 628.799 365.604 630.645L302.979 670.347C299.775 668.778 296.608 667.03 293.34 665.433L357.107 624.906Z" fill="#2D3F71"/>
<path d="M507.347 548.215C507.794 548.635 507.65 548.643 507.892 549.391C507.685 550.387 501.199 558.17 500.522 558.625C493.526 563.312 481.232 571.071 473.913 574.415C472.165 575.214 458.383 574.404 456.11 574.349L425.588 573.882C420.118 573.754 415.508 573.384 409.922 573.423C409.404 573.407 409.715 573.458 409.038 573.115C409.205 571.667 410.444 569.806 411.199 568.459L473.574 568.77C484.673 562.327 496.271 554.895 507.347 548.215Z" fill="#BEBDBC"/>
<path d="M253.509 515.184C254.139 516.04 253.878 541.995 253.875 545.312C247.375 548.392 240.92 551.561 234.51 554.819C233.384 552.709 235.746 533.54 235.668 529.697C235.572 524.928 249.47 517.819 253.509 515.184Z" fill="#BEBDBC"/>
<path d="M223.755 527.125C225.136 527.218 229.48 530.127 230.809 530.967C230.357 537.664 229.441 545.859 229.306 552.411C227.471 553.236 218.779 557.402 217.311 557.503L216.792 557.02C213.537 548.673 211.487 544.586 207.312 536.694C212.588 533.362 218.311 530.22 223.755 527.125Z" fill="#87868B"/>
<path d="M298.788 530.738C300.828 536.773 301.384 540.039 305.942 544.874C306.416 560.914 305.892 578.46 306.083 594.768C303.936 594.593 300.873 594.332 298.952 593.487C297.906 589.618 298.426 537.388 298.788 530.738Z" fill="#989716"/>
<path d="M350.625 620.613C352.376 621.4 354.005 622.684 355.587 623.813C337.426 636.123 316.018 649.084 297.305 661L293.546 663.367C293.663 661.203 293.892 658.859 294.066 656.683C297.189 654.067 310.013 646.195 314.311 643.532C326.277 636.123 338.6 627.765 350.625 620.613Z" fill="#2D3F71"/>
<path d="M457.433 469.465C464.892 472.797 463.751 475.686 473.776 475.779L470.284 480.821C467.45 481.101 465.18 481.23 462.33 481.315L457.628 476.266C455.085 477.411 452.337 478.45 449.736 479.482C450.608 481.265 451.617 483.087 452.551 484.846L446.984 487.953L440 485.065C438.365 486.053 436.675 487.424 435.141 488.596C434.269 489.106 434.518 488.829 434.028 489.674C434.775 491.161 438.298 493.174 439.883 494.213L437.181 499.812C433.996 500.294 430.641 500.933 427.452 501.482C430.31 495.109 431.524 492.559 431.801 485.36C438.621 480.568 449.978 474.098 457.433 469.465Z" fill="#BEBDBC"/>
<path d="M524.4 674.352C528.596 674.29 536.013 674.589 540.073 675.154C540.143 681.912 539.754 688.939 539.742 695.822L536.254 697.504L531.469 699.634L523.298 696.079C523.769 690.415 523.528 679.09 524.4 674.352Z" fill="#989716"/>
<path d="M477.813 672.411C480.951 672.4 490.606 672.466 493.164 673.431C494.09 675.646 493.724 693.352 491.817 694.987C489.29 695.867 487.382 696.724 484.938 697.825L477.739 692.928L477.813 672.411Z" fill="#989716"/>
<path d="M736.986 561.406L737.275 561.554L736.216 582.141C733.829 583.515 731.47 584.948 729.146 586.427L723.364 583.297L720.69 581.748C720.686 579.544 719.612 561.145 722.551 561.546C726.81 562.134 732.688 562.823 736.986 561.406Z" fill="#989716"/>
<path d="M255.246 636.273C259.311 637.99 265.219 641.28 269.266 643.39C277.148 647.466 285.008 651.585 292.845 655.751C292.477 658.413 292.139 661.084 291.829 663.759L291.366 664.074C289.524 663.595 281.735 659.223 279.442 657.97L254.508 644.27C254.875 641.405 255.083 639.154 255.246 636.273Z" fill="#2D3F71"/>
<path d="M378.56 604.895C381.192 606.269 392.428 614.386 394.791 616.332C394.861 618.921 395.406 622.168 394.962 624.664C394.764 625.769 393.779 625.956 392.735 626.458C390.504 627.358 387.62 628.798 385.385 629.83C383.073 628.203 380.776 626.548 378.498 624.874C378.471 618.213 378.49 611.552 378.56 604.895Z" fill="#989716"/>
<path d="M105.165 394.934C108.678 396.445 115.923 400.619 119.587 402.58L119.584 412.108L114.754 415.015C111.68 416.98 108.303 418.908 105.149 420.781L105.165 394.934Z" fill="#989716"/>
<path d="M495.324 673.224C503.632 673.143 514.213 673.964 522.634 674.396C522.626 677.094 522.704 680.314 522.373 682.946C518.231 682.482 513.867 682.595 509.686 682.385C504.675 682.132 499.735 681.746 494.717 681.739L495.324 673.224Z" fill="#BEBDBC"/>
<path d="M206.752 517.035C208.644 517.67 219.952 524.623 222.286 526.048C218.627 528.255 214.659 530.466 210.942 532.615L206.272 535.243C203.73 530.996 200.158 525.627 196.886 522.065C199.906 520.403 203.568 518.725 206.752 517.035Z" fill="#87868B"/>
<path d="M430.561 640.867C435.104 643.912 439.596 647.022 444.046 650.199C443.719 653.609 443.536 656.393 443.443 659.815L441.372 661.263C440.032 662.12 438.53 663.319 437.241 664.292C434.777 663.023 432.885 662.085 430.331 661.03C430.307 657.526 429.992 643.67 430.561 640.867Z" fill="#989716"/>
<path d="M663.317 508.332C667.556 510.368 671.769 512.474 675.946 514.643C675.958 517.71 675.533 523.753 675.3 527.089C675.082 527.315 674.86 527.537 674.638 527.759C668.822 529.402 668.226 528.997 662.27 527.833C662.305 523.196 662.289 512.346 663.317 508.332Z" fill="#989716"/>
<path d="M198.154 505.938C209.621 512.003 222.941 520.136 234.377 526.68C234.183 529.744 232.583 553.496 232.047 554.372L231.426 553.998C230.598 552.561 230.875 551.405 230.973 549.704C231.634 546.78 232.697 534.345 232.195 531.519C231.634 528.354 205.494 514.253 200.882 511.571C200.629 513.681 200.773 517.278 199.578 518.902L198.868 518.933C197.605 516.928 198.115 508.713 198.154 505.938Z" fill="#BEBDBC"/>
<path d="M605.027 479.641C607.955 480.637 615.796 484.912 619.498 486.547C619.525 488.782 619.798 494.909 619.198 496.801L618.338 497.241C612.576 499.172 611.755 498.803 605.662 498.304C605.327 493.773 605.07 484.157 605.027 479.641Z" fill="#989716"/>
<path d="M545.879 501.992L546.101 502.199C545.75 502.989 511.546 524.549 507.154 527.375C506.936 525.974 506.267 522.485 507.31 521.641C514.115 516.132 525.95 509.222 533.355 504.83C534.028 504.429 545.116 502.156 545.879 501.992Z" fill="#BEBDBC"/>
<path d="M307.638 546.828C309.048 547.864 310.465 548.794 311.918 549.764C312.044 554.618 311.604 559.991 311.431 564.892C311.114 574.142 310.902 583.4 310.796 592.654L307.608 594.429L307.638 546.828Z" fill="#989716"/>
<path d="M297.822 462.813C300.022 462.14 302.412 462.552 304.259 463.927C306.106 465.297 307.191 467.465 307.182 469.766C307.17 472.97 305.055 475.781 301.983 476.684C298.161 477.805 294.15 475.633 293.006 471.818C291.862 468.003 294.014 463.981 297.822 462.813Z" fill="#989716"/>
<path d="M426.929 502.129C427.875 503.005 427.856 506.952 427.965 508.467L437.183 508.101C437.876 509.678 438.565 511.527 439.216 513.146C436.483 514.809 433.726 516.424 430.939 517.993C432.305 520.24 433.45 522.385 434.688 524.701C431.869 523.101 429.814 521.552 427.194 519.628L431.099 514.299L431.531 513.617L431.375 512.956C429.767 512.014 424.469 511.301 422.394 510.931L416.32 516.42C413.946 516.319 410.917 515.895 408.507 515.619C417.566 513.131 421.506 509.709 426.929 502.129Z" fill="#BEBDBC"/>
<path d="M305.883 485.469C306.989 486.676 306.789 493.792 306.801 495.933C303.518 499.924 300.331 510.135 299.114 515.033L298.854 515.621C298.354 512.187 298.624 494.758 298.63 490.288L305.883 485.469Z" fill="#989716"/>
<path d="M496.614 456.207C497.428 458.905 497.529 480.196 497.615 484.436L492.281 485.783C491.421 481.586 492.168 471.121 491.343 465.414C493.85 462.082 494.823 459.952 496.614 456.207Z" fill="#989716"/>
<path d="M527.02 505.91L527.654 505.926L527.409 506.416C524.774 508.016 511.541 516.873 509.781 517.294C509.793 516.488 509.863 516.013 509.952 515.211C506.223 513.961 505.783 514.405 505.141 510.43C512.183 508.682 519.864 507.284 527.02 505.91Z" fill="#BEBDBC"/>
<path d="M489.436 467.609C490.46 468.653 490.756 483.925 490.479 485.802C489.432 485.977 488.801 485.428 487.618 484.899C487.485 484.832 486.606 484.439 486.559 484.346C485.442 482.138 485.535 473.519 485.5 471.3L489.436 467.609Z" fill="#989716"/>
<path d="M391.492 510.016C393.255 510.479 398.001 513.185 398.017 515.376C396.561 517.319 392.773 517.895 390.34 518.514C388.876 518.53 385.033 515.914 383.604 515.034C385.929 513.371 389.02 511.557 391.492 510.016Z" fill="#BEBDBC"/>
<path d="M324.945 473.848C326.051 474.346 326.288 474.362 327.146 475.238C327.225 475.066 315.955 484.729 314.514 486.193L314.094 486.566L313.553 486.345C312.93 484.698 313.027 482.802 312.972 481.003L324.945 473.848Z" fill="#BEBDBC"/>
<path d="M416.215 559.445C417.986 560.247 422.759 565.071 423.985 566.659C422.996 567.029 421.478 566.92 420.338 566.932L412.131 566.858C413.026 565.25 415.37 560.084 416.215 559.445Z" fill="#BEBDBC"/>
<path d="M310.739 482.324C311.701 483.118 311.864 487.097 312.074 488.744C311.142 490.013 309.962 491.43 308.972 492.688C308.705 492.785 308.889 492.746 308.418 492.583C308.57 487.576 306.118 485.236 310.739 482.324Z" fill="#989716"/>
<path d="M483.275 472.621L483.637 472.699L484.007 473.267C484.167 475.619 484.93 481.891 483.723 483.572C482.462 483.222 482.481 483.3 481.485 482.486L481.426 481.525L483.174 476.693L477.774 475.389C479.826 474.49 481.313 473.692 483.275 472.621Z" fill="#BEBDBC"/>
<path d="M362.884 568.895L363.129 569.502C362.049 571.515 361.673 572.032 360.215 573.796C358.305 574.068 356.398 574.36 354.494 574.672L354.319 574.559L354.424 574.096L362.884 568.895Z" fill="#2D3F71"/>
</g>
</g>
</g>
<defs>
<filter id="filter0_d_3330_462" x="0" y="0" width="1317.35" height="761.51" filterUnits="userSpaceOnUse" color-interpolation-filters="sRGB">
<feFlood flood-opacity="0" result="BackgroundImageFix"/>
<feColorMatrix in="SourceAlpha" type="matrix" values="0 0 0 0 0 0 0 0 0 0 0 0 0 0 0 0 0 0 127 0" result="hardAlpha"/>
<feOffset dx="11.2317" dy="13.4781"/>
<feGaussianBlur stdDeviation="2.24634"/>
<feComposite in2="hardAlpha" operator="out"/>
<feColorMatrix type="matrix" values="0 0 0 0 0 0 0 0 0 0 0 0 0 0 0 0 0 0 0.25 0"/>
<feBlend mode="normal" in2="BackgroundImageFix" result="effect1_dropShadow_3330_462"/>
<feBlend mode="normal" in="SourceGraphic" in2="effect1_dropShadow_3330_462" result="shape"/>
</filter>
<filter id="filter1_d_3330_462" x="336.298" y="120.357" width="654.186" height="601.452" filterUnits="userSpaceOnUse" color-interpolation-filters="sRGB">
<feFlood flood-opacity="0" result="BackgroundImageFix"/>
<feColorMatrix in="SourceAlpha" type="matrix" values="0 0 0 0 0 0 0 0 0 0 0 0 0 0 0 0 0 0 127 0" result="hardAlpha"/>
<feOffset dx="5.61586" dy="5.61586"/>
<feGaussianBlur stdDeviation="5.61586"/>
<feComposite in2="hardAlpha" operator="out"/>
<feColorMatrix type="matrix" values="0 0 0 0 0 0 0 0 0 0 0 0 0 0 0 0 0 0 0.25 0"/>
<feBlend mode="normal" in2="BackgroundImageFix" result="effect1_dropShadow_3330_462"/>
<feBlend mode="normal" in="SourceGraphic" in2="effect1_dropShadow_3330_462" result="shape"/>
</filter>
<filter id="filter2_d_3330_462" x="682.065" y="22.7695" width="607.201" height="580.181" filterUnits="userSpaceOnUse" color-interpolation-filters="sRGB">
<feFlood flood-opacity="0" result="BackgroundImageFix"/>
<feColorMatrix in="SourceAlpha" type="matrix" values="0 0 0 0 0 0 0 0 0 0 0 0 0 0 0 0 0 0 127 0" result="hardAlpha"/>
<feOffset dy="4.49269"/>
<feGaussianBlur stdDeviation="2.24634"/>
<feComposite in2="hardAlpha" operator="out"/>
<feColorMatrix type="matrix" values="0 0 0 0 0 0 0 0 0 0 0 0 0 0 0 0 0 0 0.25 0"/>
<feBlend mode="normal" in2="BackgroundImageFix" result="effect1_dropShadow_3330_462"/>
<feBlend mode="normal" in="SourceGraphic" in2="effect1_dropShadow_3330_462" result="shape"/>
</filter>
<filter id="filter3_d_3330_462" x="12.1587" y="188.328" width="742.19" height="528.814" filterUnits="userSpaceOnUse" color-interpolation-filters="sRGB">
<feFlood flood-opacity="0" result="BackgroundImageFix"/>
<feColorMatrix in="SourceAlpha" type="matrix" values="0 0 0 0 0 0 0 0 0 0 0 0 0 0 0 0 0 0 127 0" result="hardAlpha"/>
<feOffset dy="4.49269"/>
<feGaussianBlur stdDeviation="2.24634"/>
<feComposite in2="hardAlpha" operator="out"/>
<feColorMatrix type="matrix" values="0 0 0 0 0 0 0 0 0 0 0 0 0 0 0 0 0 0 0.25 0"/>
<feBlend mode="normal" in2="BackgroundImageFix" result="effect1_dropShadow_3330_462"/>
<feBlend mode="normal" in="SourceGraphic" in2="effect1_dropShadow_3330_462" result="shape"/>
</filter>
<linearGradient id="paint0_linear_3330_462" x1="684.69" y1="-337.039" x2="684.69" y2="827.962" gradientUnits="userSpaceOnUse">
<stop stop-color="#EF604F"/>
<stop offset="1" stop-color="#7872BB"/>
</linearGradient>
<clipPath id="clip0_3330_462">
<rect width="1301.63" height="743.54" fill="white"/>
</clipPath>
</defs>
</svg>
