<svg width="1506" height="1917" viewBox="0 0 1506 1917" fill="none" xmlns="http://www.w3.org/2000/svg">
<mask id="path-1-inside-1_2510_164" fill="white">
<path d="M456.083 1718.47C494.924 1706.06 527.303 1707.91 540.326 1726.53C561.507 1756.81 523.463 1819.98 455.353 1867.62C420.566 1891.96 384.664 1907.53 355.039 1912.92C309.473 1922.69 269.058 1912.11 257.521 1884.49C244.334 1852.93 273.497 1810.17 323.622 1784.89C337.181 1774.49 352.4 1764.36 368.913 1754.94C399.312 1737.6 429.559 1725.26 456.083 1718.47Z"/>
</mask>
<path d="M456.083 1718.47C494.924 1706.06 527.303 1707.91 540.326 1726.53C561.507 1756.81 523.463 1819.98 455.353 1867.62C420.566 1891.96 384.664 1907.53 355.039 1912.92C309.473 1922.69 269.058 1912.11 257.521 1884.49C244.334 1852.93 273.497 1810.17 323.622 1784.89C337.181 1774.49 352.4 1764.36 368.913 1754.94C399.312 1737.6 429.559 1725.26 456.083 1718.47Z" fill="#707171"/>
<path d="M456.083 1718.47L458.627 1728.41L458.919 1728.34L459.206 1728.24L456.083 1718.47ZM540.326 1726.53L548.731 1720.65L548.731 1720.65L540.326 1726.53ZM455.353 1867.62L461.233 1876.03H461.233L455.353 1867.62ZM355.039 1912.92L353.204 1902.82L353.046 1902.85L352.888 1902.89L355.039 1912.92ZM257.521 1884.49L248.056 1888.45L248.056 1888.45L257.521 1884.49ZM323.622 1784.89L328.24 1794.05L329.1 1793.62L329.863 1793.03L323.622 1784.89ZM368.913 1754.94L363.83 1746.03L363.83 1746.03L368.913 1754.94ZM456.083 1718.47L459.206 1728.24C477.827 1722.29 494.218 1720 507.018 1721.09C519.86 1722.18 527.782 1726.49 531.92 1732.41L540.326 1726.53L548.731 1720.65C539.846 1707.95 525.067 1702.03 508.754 1700.64C492.399 1699.26 473.18 1702.24 452.961 1708.7L456.083 1718.47ZM540.326 1726.53L531.92 1732.41C535.303 1737.24 536.798 1744 535.42 1753.11C534.031 1762.3 529.782 1773.24 522.536 1785.27C508.059 1809.31 482.634 1836.02 449.473 1859.22L455.353 1867.62L461.233 1876.03C496.183 1851.58 523.835 1822.88 540.111 1795.85C548.242 1782.35 553.79 1768.84 555.705 1756.18C557.631 1743.45 555.939 1730.95 548.731 1720.65L540.326 1726.53ZM455.353 1867.62L449.473 1859.22C415.593 1882.92 381.049 1897.76 353.204 1902.82L355.039 1912.92L356.873 1923.01C388.279 1917.3 425.54 1901 461.233 1876.03L455.353 1867.62ZM355.039 1912.92L352.888 1902.89C331.342 1907.51 311.591 1907.17 296.311 1902.85C281.011 1898.53 271.177 1890.57 266.986 1880.54L257.521 1884.49L248.056 1888.45C255.402 1906.03 271.545 1917.17 290.728 1922.59C309.931 1928.02 333.17 1928.1 357.189 1922.95L355.039 1912.92ZM257.521 1884.49L266.986 1880.54C262.206 1869.09 264.53 1854.21 275.354 1838.04C286.095 1821.99 304.43 1806.06 328.24 1794.05L323.622 1784.89L319.003 1775.73C292.689 1789 271.38 1807.09 258.304 1826.63C245.313 1846.04 239.649 1868.32 248.056 1888.45L257.521 1884.49ZM323.622 1784.89L329.863 1793.03C343.04 1782.93 357.871 1773.05 373.995 1763.85L368.913 1754.94L363.83 1746.03C346.929 1755.67 331.321 1766.06 317.38 1776.75L323.622 1784.89ZM368.913 1754.94L373.995 1763.85C403.716 1746.9 433.113 1734.94 458.627 1728.41L456.083 1718.47L453.54 1708.54C426.005 1715.58 394.908 1728.3 363.83 1746.03L368.913 1754.94Z" fill="#423434" mask="url(#path-1-inside-1_2510_164)"/>
<path d="M266.31 1882.87C284.589 1859.68 296.707 1841.95 321.49 1833.54" stroke="#423434" stroke-width="10.2579"/>
<path d="M290.46 1905.52C308.739 1882.32 320.857 1864.59 345.64 1856.18" stroke="#423434" stroke-width="10.2579"/>
<mask id="path-5-inside-2_2510_164" fill="white">
<path d="M1020.45 1718.48C981.613 1706.06 949.235 1707.91 936.211 1726.53C915.03 1756.81 953.074 1819.98 1021.18 1867.62C1055.98 1891.96 1091.89 1907.54 1121.52 1912.92C1167.07 1922.68 1207.48 1912.11 1219.01 1884.49C1232.2 1852.92 1203.04 1810.16 1152.91 1784.89C1139.35 1774.49 1124.13 1764.36 1107.62 1754.94C1077.22 1737.6 1046.98 1725.26 1020.45 1718.48Z"/>
</mask>
<path d="M1020.45 1718.48C981.613 1706.06 949.235 1707.91 936.211 1726.53C915.03 1756.81 953.074 1819.98 1021.18 1867.62C1055.98 1891.96 1091.89 1907.54 1121.52 1912.92C1167.07 1922.68 1207.48 1912.11 1219.01 1884.49C1232.2 1852.92 1203.04 1810.16 1152.91 1784.89C1139.35 1774.49 1124.13 1764.36 1107.62 1754.94C1077.22 1737.6 1046.98 1725.26 1020.45 1718.48Z" fill="#707171"/>
<path d="M1020.45 1718.48L1017.91 1728.41L1017.62 1728.34L1017.33 1728.25L1020.45 1718.48ZM936.211 1726.53L927.806 1720.65L927.806 1720.65L936.211 1726.53ZM1021.18 1867.62L1015.3 1876.03H1015.3L1021.18 1867.62ZM1121.52 1912.92L1123.35 1902.83L1123.51 1902.86L1123.67 1902.89L1121.52 1912.92ZM1219.01 1884.49L1228.48 1888.45L1228.48 1888.45L1219.01 1884.49ZM1152.91 1784.89L1148.29 1794.05L1147.43 1793.62L1146.67 1793.03L1152.91 1784.89ZM1107.62 1754.94L1112.7 1746.03L1112.7 1746.03L1107.62 1754.94ZM1020.45 1718.48L1017.33 1728.25C998.71 1722.3 982.319 1720 969.519 1721.09C956.677 1722.18 948.755 1726.49 944.617 1732.41L936.211 1726.53L927.806 1720.65C936.691 1707.95 951.47 1702.03 967.783 1700.65C984.138 1699.26 1003.36 1702.24 1023.58 1708.7L1020.45 1718.48ZM936.211 1726.53L944.617 1732.41C941.234 1737.24 939.739 1744 941.117 1753.12C942.506 1762.3 946.755 1773.24 954.001 1785.27C968.478 1809.31 993.904 1836.02 1027.06 1859.22L1021.18 1867.62L1015.3 1876.03C980.354 1851.58 952.702 1822.88 936.426 1795.86C928.295 1782.36 922.747 1768.85 920.832 1756.18C918.906 1743.45 920.598 1730.95 927.806 1720.65L936.211 1726.53ZM1021.18 1867.62L1027.06 1859.22C1060.95 1882.92 1095.5 1897.77 1123.35 1902.83L1121.52 1912.92L1119.68 1923.01C1088.27 1917.31 1051 1901 1015.3 1876.03L1021.18 1867.62ZM1121.52 1912.92L1123.67 1902.89C1145.21 1907.51 1164.95 1907.17 1180.23 1902.85C1195.53 1898.53 1205.36 1890.57 1209.55 1880.54L1219.01 1884.49L1228.48 1888.45C1221.13 1906.03 1204.99 1917.17 1185.82 1922.59C1166.62 1928.02 1143.38 1928.1 1119.37 1922.95L1121.52 1912.92ZM1219.01 1884.49L1209.55 1880.54C1214.33 1869.09 1212.01 1854.21 1201.18 1838.04C1190.44 1821.99 1172.1 1806.06 1148.29 1794.05L1152.91 1784.89L1157.53 1775.73C1183.84 1789 1205.15 1807.09 1218.23 1826.63C1231.22 1846.04 1236.89 1868.32 1228.48 1888.45L1219.01 1884.49ZM1152.91 1784.89L1146.67 1793.03C1133.49 1782.93 1118.66 1773.05 1102.54 1763.85L1107.62 1754.94L1112.7 1746.03C1129.6 1755.67 1145.21 1766.06 1159.15 1776.75L1152.91 1784.89ZM1107.62 1754.94L1102.54 1763.85C1072.82 1746.9 1043.42 1734.94 1017.91 1728.41L1020.45 1718.48L1023 1708.54C1050.53 1715.58 1081.63 1728.31 1112.7 1746.03L1107.62 1754.94Z" fill="#423434" mask="url(#path-5-inside-2_2510_164)"/>
<path d="M1210.23 1882.87C1191.95 1859.68 1179.83 1841.95 1155.05 1833.54" stroke="#423434" stroke-width="10.2579"/>
<path d="M1186.08 1905.52C1167.8 1882.33 1155.68 1864.6 1130.9 1856.19" stroke="#423434" stroke-width="10.2579"/>
<path d="M1381.46 1230.29C1375.5 1228.63 1370.07 1228.56 1365.19 1230.15C1360.33 1231.73 1355.67 1235.08 1351.43 1240.86L1351.33 1241L1351.22 1241.13C1330.12 1265.13 1309.13 1275.56 1295.56 1283.59C1288.61 1287.7 1284.27 1290.83 1282.12 1294.35C1280.25 1297.43 1279.72 1301.44 1282.49 1308.47L1283.14 1310.12C1283.39 1310.55 1283.7 1311.08 1284.09 1311.71C1285.56 1314.11 1287.9 1317.63 1291.02 1322.01C1297.23 1330.75 1306.43 1342.75 1317.72 1355.68C1340.37 1381.65 1371.04 1410.95 1402.56 1425.45C1406.05 1427.06 1414.78 1428.77 1425.9 1428.99C1436.87 1429.21 1449.58 1427.95 1460.89 1424.07C1472.2 1420.18 1481.76 1413.79 1487.12 1403.98C1492.44 1394.24 1494.01 1380.41 1487.9 1360.76C1474.41 1327.15 1448.18 1284.83 1420.86 1257.25C1407.13 1243.4 1393.52 1233.67 1381.46 1230.29Z" fill="#6F6E6A" stroke="#423535" stroke-width="7.74114"/>
<path d="M1489.18 1397.13C1484.2 1391.81 1469.18 1375.05 1463.03 1365.45" stroke="#423434" stroke-width="7.74114"/>
<path d="M1471.32 1419.29C1466.66 1414.64 1452.63 1399.98 1446.86 1391.59" stroke="#423434" stroke-width="7.74114"/>
<path d="M1439.81 1427.03C1434.47 1421.69 1418.35 1404.85 1411.74 1395.23" stroke="#423434" stroke-width="7.74114"/>
<path d="M123.678 1259.38C129.725 1258.09 135.15 1258.35 139.92 1260.24C144.673 1262.12 149.114 1265.76 152.988 1271.79L153.081 1271.93L153.186 1272.07C172.75 1297.33 193.053 1309.05 206.097 1317.9C212.786 1322.44 216.919 1325.83 218.842 1329.48C220.521 1332.67 220.801 1336.7 217.601 1343.54L216.849 1345.15C216.576 1345.57 216.23 1346.08 215.804 1346.68C214.184 1348.98 211.628 1352.36 208.251 1356.53C201.504 1364.86 191.575 1376.27 179.512 1388.48C155.292 1412.99 122.856 1440.33 90.501 1452.84C86.9133 1454.23 78.1013 1455.41 66.9844 1454.93C56.0175 1454.47 43.415 1452.42 32.3701 1447.84C21.3223 1443.26 12.1744 1436.29 7.43555 1426.17C2.73448 1416.12 2.02585 1402.22 9.34082 1382.99C24.8863 1350.27 53.6996 1309.66 82.6787 1283.84C97.2398 1270.86 111.429 1261.99 123.678 1259.38Z" fill="#6F6E6A" stroke="#423535" stroke-width="7.74114"/>
<path d="M5.80566 1419.21C11.1062 1414.21 27.1325 1398.41 33.8673 1389.21" stroke="#423434" stroke-width="7.74114"/>
<path d="M22.2559 1442.43C27.1908 1438.08 42.1119 1424.32 48.3822 1416.3" stroke="#423434" stroke-width="7.74114"/>
<path d="M53.2207 1452.11C58.8868 1447.11 76.0184 1431.31 83.2177 1422.11" stroke="#423434" stroke-width="7.74114"/>
<mask id="path-17-inside-3_2510_164" fill="white">
<path d="M805.848 625.546C1022.96 591.58 1235.45 820.547 1280.46 1136.96C1325.47 1453.37 1185.95 1737.41 968.838 1771.37C893.348 1783.18 818.417 1763.2 750.891 1718.82C683.364 1763.2 608.433 1783.18 532.943 1771.37C315.83 1737.41 176.31 1453.37 221.318 1136.96C266.327 820.548 478.82 591.581 695.934 625.547C714.866 628.508 733.207 633.374 750.889 639.995C768.571 633.374 786.914 628.508 805.848 625.546Z"/>
</mask>
<path d="M805.848 625.546C1022.96 591.58 1235.45 820.547 1280.46 1136.96C1325.47 1453.37 1185.95 1737.41 968.838 1771.37C893.348 1783.18 818.417 1763.2 750.891 1718.82C683.364 1763.2 608.433 1783.18 532.943 1771.37C315.83 1737.41 176.31 1453.37 221.318 1136.96C266.327 820.548 478.82 591.581 695.934 625.547C714.866 628.508 733.207 633.374 750.889 639.995C768.571 633.374 786.914 628.508 805.848 625.546Z" fill="#6F5F52"/>
<path d="M805.848 625.546L804.262 615.411V615.411L805.848 625.546ZM1280.46 1136.96L1290.62 1135.51V1135.51L1280.46 1136.96ZM968.838 1771.37L970.423 1781.51V1781.51L968.838 1771.37ZM750.891 1718.82L756.525 1710.24L750.891 1706.54L745.256 1710.24L750.891 1718.82ZM532.943 1771.37L531.358 1781.51H531.358L532.943 1771.37ZM221.318 1136.96L211.163 1135.51H211.163L221.318 1136.96ZM695.934 625.547L697.519 615.412L697.519 615.412L695.934 625.547ZM750.889 639.995L747.292 649.601L750.889 650.948L754.486 649.601L750.889 639.995ZM805.848 625.546L807.433 635.68C911.668 619.374 1015.87 665.993 1100.18 756.839C1184.46 847.657 1248.06 981.985 1270.31 1138.4L1280.46 1136.96L1290.62 1135.51C1267.86 975.52 1202.71 837.159 1115.21 742.883C1027.75 648.634 917.141 597.752 804.262 615.411L805.848 625.546ZM1280.46 1136.96L1270.31 1138.4C1292.56 1294.82 1269.12 1442.81 1213.74 1555.56C1158.33 1668.37 1071.54 1744.92 967.252 1761.24L968.838 1771.37L970.423 1781.51C1083.25 1763.85 1174.78 1681.41 1232.15 1564.6C1289.56 1447.74 1313.38 1295.51 1290.62 1135.51L1280.46 1136.96ZM968.838 1771.37L967.252 1761.24C894.692 1772.59 822.299 1753.48 756.525 1710.24L750.891 1718.82L745.256 1727.39C814.535 1772.93 892.004 1793.77 970.423 1781.51L968.838 1771.37ZM750.891 1718.82L745.256 1710.24C679.482 1753.48 607.089 1772.59 534.529 1761.24L532.943 1771.37L531.358 1781.51C609.777 1793.77 687.246 1772.93 756.525 1727.39L750.891 1718.82ZM532.943 1771.37L534.529 1761.24C430.244 1744.92 343.454 1668.37 288.042 1555.56C232.662 1442.81 209.225 1294.82 231.474 1138.4L221.318 1136.96L211.163 1135.51C188.404 1295.51 212.222 1447.74 269.628 1564.6C327.002 1681.41 418.529 1763.86 531.358 1781.51L532.943 1771.37ZM221.318 1136.96L231.474 1138.4C253.724 981.986 317.322 847.658 401.605 756.84C485.915 665.994 590.113 619.375 694.348 635.681L695.934 625.547L697.519 615.412C584.64 597.753 474.035 648.635 386.568 742.884C299.074 837.16 233.921 975.521 211.163 1135.51L221.318 1136.96ZM695.934 625.547L694.348 635.681C712.581 638.534 730.249 643.22 747.292 649.601L750.889 639.995L754.486 630.388C736.165 623.529 717.151 618.483 697.519 615.412L695.934 625.547ZM750.889 639.995L754.486 649.601C771.529 643.22 789.199 638.533 807.433 635.68L805.848 625.546L804.262 615.411C784.63 618.482 765.613 623.528 747.292 630.388L750.889 639.995Z" fill="#423535" mask="url(#path-17-inside-3_2510_164)"/>
<path d="M205.462 283.843L267.951 406.162L1247.78 433.18L1295.44 323.323C848.386 -249.523 362.941 82.193 205.462 283.843Z" fill="#6F5F52" stroke="#423434" stroke-width="7.09099"/>
<path d="M940.607 206.707C1122.37 63.9279 1433.75 -95.1252 1225.17 410.894C1193.2 370.209 1091.53 272.412 940.607 206.707Z" fill="#ABA198" stroke="#423434" stroke-width="12"/>
<path d="M1032.81 263.214C1163.17 162.261 1351.4 27.9993 1163.17 364.737L1032.81 263.214Z" fill="#707171" stroke="#423434" stroke-width="12"/>
<path d="M555.852 173.988C379.929 45.5935 78.5516 -97.4358 280.427 357.605C311.372 321.018 409.779 233.074 555.852 173.988Z" fill="#ABA198" stroke="#423434" stroke-width="12"/>
<path d="M486.188 229.931C360.016 139.149 177.836 18.4136 360.016 321.227L486.188 229.931Z" fill="#707171" stroke="#423434" stroke-width="12"/>
<path d="M1164.95 823.14C780.238 1017.6 422.085 904.164 291.099 823.14L126.221 941.344C108.267 962.318 105 1023.26 105.611 1051.1L22.2559 1136.42L56.1475 1186.64L22.2559 1215.52L65.3074 1261.29C79.9632 1319.24 175.226 1348.24 221.026 1355.5C230.186 1314.97 253.543 1267.22 264.077 1248.41C663.449 1388.83 1118.12 1294.47 1258.73 1235.96L1172.19 1360.34C1195.67 1360.34 1227.06 1393.67 1318 1340.55C1353.91 1319.57 1417.5 1280.05 1437.92 1215.52L1399.9 1175.97L1428.98 1136.27L1359.37 1075.77C1376.35 1020.55 1363.01 988.877 1337.16 954.959L1164.95 823.14Z" fill="#F5F0EE" stroke="#423434" stroke-width="9.67643"/>
<path d="M1255.8 1254.71C831.414 1387.68 404.708 1311.76 241.954 1256.36C217.235 1302.12 221.105 1347.12 227.398 1386.5C663.579 1503.58 1086.22 1447.18 1271.53 1398.4C1288.9 1330.18 1265.8 1268.92 1255.8 1254.71Z" fill="#424A3B" stroke="#423434" stroke-width="9.67643"/>
<path d="M1069.13 883.133C825.886 981.847 536.54 924.264 413.515 883.133L219.105 1158.79C165.216 1194.3 232.8 1241.83 237.79 1250.56C523.286 1405.59 1032.87 1370.72 1282.36 1261.65C1307.72 1250.56 1302.19 1216.11 1242.23 1158.79L1069.13 883.133Z" fill="#F5F0EE" stroke="#423434" stroke-width="9.67643"/>
<path d="M755.5 974.983C750.171 963.212 747.71 943.502 750.671 940.483L893.5 928.483C837.102 1003.19 816.5 1039.48 796.743 1043.48C787.418 1027.64 767.712 994.791 755.5 974.983Z" fill="#F5F0EE" stroke="#423434" stroke-width="8"/>
<path d="M740 974.983C745.329 963.212 747.79 943.502 744.829 940.483L602 928.483C658.398 1003.19 679 1039.48 698.757 1043.48C708.082 1027.64 727.788 994.791 740 974.983Z" fill="#F5F0EE" stroke="#423434" stroke-width="8"/>
<path d="M732.199 111.675C878.893 111.675 1011.95 165.834 1108.29 245.579C1204.71 325.393 1263.87 430.386 1263.87 531.834C1263.87 632.888 1205.14 712.34 1109.03 766.789C1012.82 821.297 879.565 850.417 732.199 850.417C584.834 850.417 452.239 821.296 356.682 766.796C261.236 712.36 203.129 632.912 203.129 531.834C203.129 430.366 261.658 325.372 357.424 245.568C453.109 165.832 585.509 111.675 732.199 111.675Z" fill="#ABA198" stroke="#423434" stroke-width="10.2579"/>
<path d="M48 679.912C612.102 1180.98 1185.91 891.451 1404.8 682.1L1335.73 668.625L1378.05 583.454C1340.26 599.872 1249.13 516.069 1208.29 472.115C1066.57 274.578 936.159 297.754 946 289.545C953.873 282.979 961.762 243.069 953.397 234.045C909.5 218.045 844 281.045 806.5 321.268C798.853 329.47 773.302 325.61 767.397 321.268C736.692 298.692 703.886 315.639 686.5 325.046C599.897 228.997 523.333 216.941 500.698 224.809C483.378 238.354 507.915 269.789 522.349 283.813H508.571C309.286 295.101 183.81 598.332 69.6508 587.044L110.984 665.546L48 679.912Z" fill="#E1DED7"/>
<path d="M1407.08 679.912C1189.92 889.421 614.07 1182.73 48 679.912L110.984 665.546L69.6508 587.044C183.81 598.332 309.286 295.101 508.571 283.813H522.349C507.915 269.789 483.378 238.354 500.698 224.809C523.333 216.941 599.897 228.997 686.5 325.046C703.886 315.639 736.692 298.692 767.397 321.268C773.302 325.61 798.853 329.47 806.5 321.268C844 281.045 909.5 218.045 953.397 234.045C961.762 243.069 953.873 282.979 946 289.545C936.159 297.754 1066.57 274.578 1208.29 472.115C1249.13 516.069 1340.26 599.872 1378.05 583.454L1335.73 668.625L1412 683.505" stroke="#423434" stroke-width="10.7096"/>
<path d="M516.957 695.032C341.546 730.935 269.741 642.717 269.741 564.757C293.129 441.252 411.813 361.137 468.232 336.518C556.039 306.155 627.571 336.518 652.361 355.496C731.962 253.327 804.52 312.925 830.848 355.496C873.521 314.464 963.175 314.727 998.565 328.825C1124.74 379.089 1203.38 501.671 1212.95 545.267C1219.52 642.101 1149.87 682.871 1116.02 699.654C1018.36 748.071 911.715 672.807 871.88 632.459C766.018 531.521 662.619 585.272 624.152 624.765C582.71 663.335 535.421 687.68 516.957 695.032Z" fill="#707171" stroke="#423434" stroke-width="8.20631"/>
<path d="M881.522 672.552C862.227 717.982 807.469 772.22 742.802 625.74" stroke="#6C1F10" stroke-width="9.67643"/>
<path d="M610.583 678.174C629.879 723.604 684.637 777.842 749.303 631.362" stroke="#6C1F10" stroke-width="9.67643"/>
<path d="M744.441 638.109C712.206 710.076 678.878 723.008 661.94 728.63C687.073 788.227 725.318 806.781 751.544 809.592C800.17 802.283 826.213 749.058 836.776 720.759C797.985 720.759 762.653 667.158 751.544 638.109H744.441Z" fill="#D78A91" stroke="#6F1D0C" stroke-width="8.70879"/>
<path d="M681.083 589.327C698.995 570.096 763.146 545.318 810.333 589.327C793.92 615.61 744.169 681.011 681.083 589.327Z" fill="#383838"/>
<path d="M681.083 589.327C698.995 570.096 763.146 545.318 810.333 589.327C793.92 615.61 744.169 681.011 681.083 589.327Z" stroke="black" stroke-width="6.15473"/>
<path d="M681.083 589.327C698.995 570.096 763.146 545.318 810.333 589.327C793.92 615.61 744.169 681.011 681.083 589.327Z" stroke="#6F1D0C" stroke-width="6.15473"/>
<path d="M944.331 363.649C970.668 361.906 995.833 374.352 1015.22 396.663C1034.61 418.977 1047.96 450.936 1050.37 487.281C1052.77 523.625 1043.75 557.065 1027.47 581.74C1011.19 606.411 987.886 622.066 961.55 623.809C935.213 625.552 910.048 613.105 890.663 590.794C871.274 568.48 857.922 536.521 855.517 500.176C853.112 463.832 862.135 430.392 878.414 405.717C894.69 381.046 917.995 365.392 944.331 363.649Z" fill="#D9D9D9" stroke="#423434" stroke-width="10.9092"/>
<path d="M547.131 363.649C520.795 361.906 495.63 374.352 476.245 396.663C456.856 418.977 443.503 450.936 441.098 487.281C438.692 523.625 447.717 557.065 463.996 581.74C480.272 606.411 503.577 622.066 529.913 623.809C556.25 625.552 581.415 613.105 600.8 590.794C620.188 568.48 633.541 536.521 635.946 500.176C638.351 463.832 629.327 430.392 613.049 405.717C596.773 381.046 573.468 365.392 547.131 363.649Z" fill="#D9D9D9" stroke="#423434" stroke-width="10.9092"/>
<path d="M568.14 394.058C549.076 392.796 530.632 402.765 516.261 420.819C501.903 438.858 491.919 464.659 489.979 493.963C488.04 523.267 494.537 550.159 506.393 569.932C518.258 589.723 535.228 602.037 554.292 603.298C573.356 604.56 591.799 594.59 606.17 576.536C620.528 558.497 630.512 532.696 632.452 503.392C634.391 474.088 627.894 447.196 616.038 427.423C604.173 407.633 587.204 395.32 568.14 394.058Z" fill="#242323" stroke="#181515" stroke-width="8.44843"/>
<path d="M922.99 394.459C942.054 393.197 960.498 403.167 974.868 421.221C989.226 439.259 999.211 465.06 1001.15 494.364C1003.09 523.668 996.593 550.56 984.737 570.334C972.871 590.124 955.902 602.438 936.838 603.7C917.774 604.961 899.33 594.991 884.96 576.937C870.602 558.899 860.618 533.097 858.678 503.793C856.739 474.49 863.236 447.597 875.092 427.824C886.957 408.034 903.926 395.721 922.99 394.459Z" fill="#242323" stroke="#181515" stroke-width="8.44843"/>
<path d="M522.5 149.046L429.15 93.5358C761.5 -97.0161 1052.31 84.827 1080.37 111.921L993.77 167.077C1176.46 269.26 1238.91 389.312 1247.29 436.565C903.973 164.077 420.916 310.233 234 405.546C273 275.046 458.152 174.366 522.5 149.046Z" fill="#6F5F52" stroke="#423434" stroke-width="9.67643"/>
<path d="M250 364.546C388 193.546 1025.46 136.113 1226.49 382.378" stroke="#423434" stroke-width="9.67643"/>
<mask id="path-43-inside-4_2510_164" fill="white">
<path d="M452.332 421.682C472.633 381.152 508.242 355.164 546.987 357.728C594.521 360.874 631.713 405.998 639.691 464.492L452.332 421.682Z"/>
</mask>
<path d="M452.332 421.682C472.633 381.152 508.242 355.164 546.987 357.728C594.521 360.874 631.713 405.998 639.691 464.492L452.332 421.682Z" fill="#707171"/>
<path d="M452.332 421.682L443.16 417.088L437.308 428.771L450.047 431.682L452.332 421.682ZM546.987 357.728L547.665 347.492L547.665 347.492L546.987 357.728ZM639.691 464.492L637.406 474.493L651.859 477.795L649.855 463.106L639.691 464.492ZM452.332 421.682L461.504 426.276C480.613 388.125 512.973 365.757 546.31 367.963L546.987 357.728L547.665 347.492C503.511 344.57 464.654 374.178 443.16 417.088L452.332 421.682ZM546.987 357.728L546.31 367.963C587.138 370.665 621.921 410.111 629.528 465.879L639.691 464.492L649.855 463.106C641.505 401.884 601.905 351.082 547.665 347.492L546.987 357.728ZM639.691 464.492L641.976 454.492L454.617 411.682L452.332 421.682L450.047 431.682L637.406 474.493L639.691 464.492Z" fill="#423434" mask="url(#path-43-inside-4_2510_164)"/>
<mask id="path-45-inside-5_2510_164" fill="white">
<path d="M1038.72 421.685C1018.42 381.155 982.816 355.166 944.07 357.73C896.536 360.876 859.345 406 851.366 464.494L1038.72 421.685Z"/>
</mask>
<path d="M1038.72 421.685C1018.42 381.155 982.816 355.166 944.07 357.73C896.536 360.876 859.345 406 851.366 464.494L1038.72 421.685Z" fill="#707171"/>
<path d="M1038.72 421.685L1047.9 417.091L1053.75 428.774L1041.01 431.685L1038.72 421.685ZM944.07 357.73L943.393 347.494L943.393 347.494L944.07 357.73ZM851.366 464.494L853.651 474.494L839.199 477.797L841.202 463.108L851.366 464.494ZM1038.72 421.685L1029.55 426.279C1010.44 388.128 978.084 365.759 944.748 367.965L944.07 357.73L943.393 347.494C987.547 344.572 1026.4 374.181 1047.9 417.091L1038.72 421.685ZM944.07 357.73L944.748 367.965C903.919 370.667 869.136 410.113 861.53 465.881L851.366 464.494L841.202 463.108C849.553 401.886 889.153 351.084 943.393 347.494L944.07 357.73ZM851.366 464.494L849.081 454.494L1036.44 411.685L1038.72 421.685L1041.01 431.685L853.651 474.494L851.366 464.494Z" fill="#423434" mask="url(#path-45-inside-5_2510_164)"/>
<path d="M897.5 1349.01C916 1295.41 909.167 1067.2 888 949.339L927 938.515L964.5 930.483C988.1 927.122 1002.83 1195.92 1008 1332.01L955 1355.48L897.5 1349.01Z" fill="#424A3B" stroke="#423434" stroke-width="8"/>
<path d="M607.5 947.945L531.5 937.121C507.9 933.76 492.667 1194.53 487.5 1330.62L540.5 1354.09L598 1347.62C579.5 1294.02 586.333 1065.8 607.5 947.945Z" fill="#424A3B" stroke="#423434" stroke-width="8"/>
<rect x="725" y="1455.62" width="56" height="68" fill="#424A3B" stroke="#423434" stroke-width="10"/>
<path d="M465.5 1433.46L431.309 1427.62C412.403 1533.85 351.004 1590.98 320.5 1607.52L342.121 1639.62C423.5 1579.12 457.958 1479.99 465.5 1433.46Z" fill="#424A3B" stroke="#423434" stroke-width="8"/>
<path d="M1044 1438.46L1078.19 1432.62C1097.1 1538.85 1158.5 1595.98 1189 1612.52L1167.38 1644.62C1086 1584.12 1051.54 1484.99 1044 1438.46Z" fill="#424A3B" stroke="#423434" stroke-width="8"/>
</svg>
