<svg width="1983" height="1931" viewBox="0 0 1983 1931" fill="none" xmlns="http://www.w3.org/2000/svg">
<path d="M1283.24 797.416C1283.39 798.132 1283.55 798.936 1283.73 799.827C1284.6 804.151 1285.86 810.515 1287.42 818.662C1290.53 834.958 1294.85 858.388 1299.64 886.906C1309.24 943.951 1320.75 1021.31 1328.42 1102.62C1336.09 1183.97 1339.91 1269.1 1334.18 1341.72C1331.31 1378.04 1326.07 1411.08 1317.8 1438.89C1309.52 1466.75 1298.31 1489 1283.75 1504.1C1253.83 1535.12 1209.13 1559.07 1156.63 1575.34C1104.2 1591.61 1044.34 1600.11 984.504 1600.5C924.665 1600.89 865.023 1593.17 813.005 1577.12C760.934 1561.05 716.865 1536.75 687.731 1504.24C673.475 1488.33 662.518 1465.44 654.435 1437.13C646.364 1408.87 641.252 1375.54 638.457 1339.07C632.867 1266.14 636.589 1181.2 644.073 1100.25C651.555 1019.33 662.779 942.557 672.137 886.005C676.815 857.733 681.024 834.524 684.063 818.389C685.583 810.321 686.81 804.022 687.656 799.743C687.826 798.886 687.983 798.109 688.121 797.416H1283.24Z" fill="#E1DED7" stroke="#423434" stroke-width="10.52"/>
<mask id="path-2-inside-1_2494_5" fill="white">
<path d="M676.704 1727C716.539 1714.27 749.747 1716.16 763.103 1735.26C784.825 1766.31 745.81 1831.09 675.959 1879.96C640.269 1904.92 603.433 1920.9 573.043 1926.41C526.33 1936.42 484.902 1925.57 473.073 1897.25C459.55 1864.88 489.458 1821.03 540.863 1795.11C554.769 1784.45 570.377 1774.06 587.312 1764.4C618.486 1746.61 649.503 1733.96 676.704 1727Z"/>
</mask>
<path d="M676.704 1727C716.539 1714.27 749.747 1716.16 763.103 1735.26C784.825 1766.31 745.81 1831.09 675.959 1879.96C640.269 1904.92 603.433 1920.9 573.043 1926.41C526.33 1936.42 484.902 1925.57 473.073 1897.25C459.55 1864.88 489.458 1821.03 540.863 1795.11C554.769 1784.45 570.377 1774.06 587.312 1764.4C618.486 1746.61 649.503 1733.96 676.704 1727Z" fill="#707171"/>
<path d="M676.704 1727L679.313 1737.19L679.612 1737.11L679.906 1737.02L676.704 1727ZM763.103 1735.26L771.723 1729.23L771.723 1729.23L763.103 1735.26ZM675.959 1879.96L681.989 1888.58V1888.58L675.959 1879.96ZM573.043 1926.41L571.165 1916.06L571.002 1916.09L570.84 1916.13L573.043 1926.41ZM473.073 1897.25L463.366 1901.31L463.366 1901.31L473.073 1897.25ZM540.863 1795.11L545.6 1804.5L546.481 1804.06L547.265 1803.46L540.863 1795.11ZM587.312 1764.4L582.099 1755.26V1755.26L587.312 1764.4ZM676.704 1727L679.906 1737.02C699.004 1730.91 715.815 1728.56 728.943 1729.67C742.114 1730.79 750.238 1735.22 754.483 1741.29L763.103 1735.26L771.723 1729.23C762.611 1716.2 747.454 1710.13 730.723 1708.71C713.949 1707.29 694.239 1710.35 673.502 1716.97L676.704 1727ZM763.103 1735.26L754.482 1741.29C757.952 1746.24 759.485 1753.17 758.072 1762.52C756.647 1771.94 752.29 1783.16 744.859 1795.5C730.011 1820.15 703.937 1847.55 669.929 1871.34L675.959 1879.96L681.989 1888.58C717.832 1863.5 746.19 1834.07 762.883 1806.35C771.221 1792.51 776.911 1778.65 778.875 1765.67C780.85 1752.61 779.115 1739.79 771.723 1729.23L763.103 1735.26ZM675.959 1879.96L669.929 1871.34C635.168 1895.65 599.727 1910.88 571.165 1916.06L573.043 1926.41L574.922 1936.76C607.139 1930.92 645.369 1914.19 681.989 1888.58L675.959 1879.96ZM573.043 1926.41L570.84 1916.13C548.752 1920.86 528.505 1920.51 512.841 1916.08C497.157 1911.64 487.077 1903.48 482.78 1893.2L473.073 1897.25L463.366 1901.31C470.898 1919.34 487.446 1930.76 507.112 1936.33C526.798 1941.9 550.621 1941.97 575.246 1936.7L573.043 1926.41ZM473.073 1897.25L482.78 1893.2C477.878 1881.46 480.262 1866.2 491.363 1849.61C502.378 1833.15 521.181 1816.82 545.6 1804.5L540.863 1795.11L536.127 1785.72C509.14 1799.32 487.287 1817.87 473.877 1837.91C460.554 1857.82 454.745 1880.67 463.366 1901.31L473.073 1897.25ZM540.863 1795.11L547.265 1803.46C560.779 1793.1 575.988 1782.97 592.524 1773.53L587.312 1764.4L582.099 1755.26C564.766 1765.15 548.76 1775.8 534.462 1786.76L540.863 1795.11ZM587.312 1764.4L592.524 1773.53C623.002 1756.15 653.149 1743.88 679.313 1737.19L676.704 1727L674.096 1716.8C645.858 1724.03 613.969 1737.08 582.099 1755.26L587.312 1764.4Z" fill="#423434" mask="url(#path-2-inside-1_2494_5)"/>
<path d="M482.083 1895.59C500.829 1871.8 513.257 1853.62 538.673 1844.99" stroke="#423434" stroke-width="10.52"/>
<path d="M506.85 1918.82C525.597 1895.03 538.024 1876.85 563.441 1868.22" stroke="#423434" stroke-width="10.52"/>
<mask id="path-6-inside-2_2494_5" fill="white">
<path d="M1255.5 1727C1215.67 1714.27 1182.46 1716.16 1169.1 1735.25C1147.38 1766.31 1186.4 1831.09 1256.25 1879.95C1291.94 1904.92 1328.77 1920.9 1359.16 1926.41C1405.88 1936.42 1447.3 1925.57 1459.13 1897.25C1472.66 1864.88 1442.75 1821.03 1391.34 1795.11C1377.44 1784.45 1361.83 1774.06 1344.89 1764.39C1313.72 1746.61 1282.7 1733.96 1255.5 1727Z"/>
</mask>
<path d="M1255.5 1727C1215.67 1714.27 1182.46 1716.16 1169.1 1735.25C1147.38 1766.31 1186.4 1831.09 1256.25 1879.95C1291.94 1904.92 1328.77 1920.9 1359.16 1926.41C1405.88 1936.42 1447.3 1925.57 1459.13 1897.25C1472.66 1864.88 1442.75 1821.03 1391.34 1795.11C1377.44 1784.45 1361.83 1774.06 1344.89 1764.39C1313.72 1746.61 1282.7 1733.96 1255.5 1727Z" fill="#707171"/>
<path d="M1255.5 1727L1252.9 1737.19L1252.6 1737.11L1252.3 1737.02L1255.5 1727ZM1169.1 1735.25L1160.48 1729.22L1160.48 1729.22L1169.1 1735.25ZM1256.25 1879.95L1250.22 1888.57H1250.22L1256.25 1879.95ZM1359.16 1926.41L1361.04 1916.06L1361.2 1916.09L1361.37 1916.13L1359.16 1926.41ZM1459.13 1897.25L1468.84 1901.31L1468.84 1901.31L1459.13 1897.25ZM1391.34 1795.11L1386.61 1804.5L1385.72 1804.06L1384.94 1803.46L1391.34 1795.11ZM1344.89 1764.39L1350.11 1755.26V1755.26L1344.89 1764.39ZM1255.5 1727L1252.3 1737.02C1233.2 1730.91 1216.39 1728.56 1203.26 1729.67C1190.09 1730.79 1181.97 1735.22 1177.72 1741.28L1169.1 1735.25L1160.48 1729.22C1169.6 1716.2 1184.75 1710.13 1201.48 1708.71C1218.26 1707.28 1237.97 1710.35 1258.71 1716.97L1255.5 1727ZM1169.1 1735.25L1177.72 1741.28C1174.25 1746.24 1172.72 1753.17 1174.13 1762.52C1175.56 1771.94 1179.92 1783.16 1187.35 1795.5C1202.19 1820.15 1228.27 1847.54 1262.28 1871.33L1256.25 1879.95L1250.22 1888.57C1214.37 1863.5 1186.02 1834.07 1169.32 1806.35C1160.98 1792.51 1155.3 1778.65 1153.33 1765.67C1151.36 1752.6 1153.09 1739.79 1160.48 1729.22L1169.1 1735.25ZM1256.25 1879.95L1262.28 1871.33C1297.04 1895.65 1332.48 1910.88 1361.04 1916.06L1359.16 1926.41L1357.28 1936.76C1325.07 1930.92 1286.84 1914.19 1250.22 1888.57L1256.25 1879.95ZM1359.16 1926.41L1361.37 1916.13C1383.45 1920.86 1403.7 1920.51 1419.37 1916.08C1435.05 1911.64 1445.13 1903.48 1449.43 1893.2L1459.13 1897.25L1468.84 1901.31C1461.31 1919.34 1444.76 1930.76 1425.09 1936.32C1405.41 1941.89 1381.58 1941.97 1356.96 1936.7L1359.16 1926.41ZM1459.13 1897.25L1449.43 1893.2C1454.33 1881.46 1451.94 1866.2 1440.84 1849.61C1429.83 1833.15 1411.02 1816.81 1386.61 1804.5L1391.34 1795.11L1396.08 1785.72C1423.07 1799.32 1444.92 1817.87 1458.33 1837.91C1471.65 1857.82 1477.46 1880.67 1468.84 1901.31L1459.13 1897.25ZM1391.34 1795.11L1384.94 1803.46C1371.43 1793.09 1356.22 1782.97 1339.68 1773.53L1344.89 1764.39L1350.11 1755.26C1367.44 1765.14 1383.45 1775.8 1397.74 1786.76L1391.34 1795.11ZM1344.89 1764.39L1339.68 1773.53C1309.2 1756.15 1279.06 1743.88 1252.9 1737.19L1255.5 1727L1258.11 1716.8C1286.35 1724.03 1318.24 1737.08 1350.11 1755.26L1344.89 1764.39Z" fill="#423434" mask="url(#path-6-inside-2_2494_5)"/>
<path d="M1450.12 1895.59C1431.38 1871.8 1418.95 1853.62 1393.53 1844.99" stroke="#423434" stroke-width="10.52"/>
<path d="M1425.36 1918.82C1406.61 1895.03 1394.18 1876.85 1368.77 1868.22" stroke="#423434" stroke-width="10.52"/>
<mask id="path-10-inside-3_2494_5" fill="white">
<path d="M1032.87 606.141C1266.38 571.308 1494.91 806.125 1543.32 1130.62C1591.73 1455.11 1441.67 1746.41 1208.17 1781.24C1126.98 1793.35 1046.39 1772.86 973.765 1727.34C901.141 1772.86 820.553 1793.35 739.365 1781.24C505.858 1746.41 355.805 1455.11 404.211 1130.62C452.618 806.125 681.153 571.308 914.66 606.141C935.022 609.178 954.748 614.168 973.765 620.958C992.782 614.168 1012.51 609.178 1032.87 606.141Z"/>
</mask>
<path d="M1032.87 606.141C1266.38 571.308 1494.91 806.125 1543.32 1130.62C1591.73 1455.11 1441.67 1746.41 1208.17 1781.24C1126.98 1793.35 1046.39 1772.86 973.765 1727.34C901.141 1772.86 820.553 1793.35 739.365 1781.24C505.858 1746.41 355.805 1455.11 404.211 1130.62C452.618 806.125 681.153 571.308 914.66 606.141C935.022 609.178 954.748 614.168 973.765 620.958C992.782 614.168 1012.51 609.178 1032.87 606.141Z" fill="#ABA198"/>
<path d="M1032.87 606.141L1031.32 595.736V595.736L1032.87 606.141ZM1543.32 1130.62L1553.72 1129.07V1129.07L1543.32 1130.62ZM1208.17 1781.24L1209.72 1791.65V1791.65L1208.17 1781.24ZM973.765 1727.34L979.352 1718.43L973.765 1714.93L968.178 1718.43L973.765 1727.34ZM739.365 1781.24L737.813 1791.65H737.813L739.365 1781.24ZM404.211 1130.62L393.807 1129.07H393.807L404.211 1130.62ZM914.66 606.141L916.212 595.736V595.736L914.66 606.141ZM973.765 620.958L970.228 630.866L973.765 632.129L977.302 630.866L973.765 620.958ZM1032.87 606.141L1034.42 616.546C1146.98 599.755 1259.29 647.793 1349.97 740.969C1440.64 834.132 1509 971.86 1532.91 1132.17L1543.32 1130.62L1553.72 1129.07C1529.23 964.884 1459.12 822.956 1365.05 726.295C1270.99 629.648 1152.27 577.693 1031.32 595.736L1032.87 606.141ZM1543.32 1130.62L1532.91 1132.17C1556.83 1292.48 1531.64 1444.17 1472.11 1559.74C1412.57 1675.32 1319.17 1754.05 1206.62 1770.84L1208.17 1781.24L1209.72 1791.65C1330.67 1773.6 1429.05 1689.26 1490.81 1569.37C1552.58 1449.46 1578.22 1293.25 1553.72 1129.07L1543.32 1130.62ZM1208.17 1781.24L1206.62 1770.84C1128.28 1782.52 1050.19 1762.83 979.352 1718.43L973.765 1727.34L968.178 1736.26C1042.59 1782.9 1125.68 1804.18 1209.72 1791.65L1208.17 1781.24ZM973.765 1727.34L968.178 1718.43C897.339 1762.83 819.253 1782.52 740.917 1770.84L739.365 1781.24L737.813 1791.65C821.854 1804.18 904.943 1782.9 979.352 1736.26L973.765 1727.34ZM739.365 1781.24L740.917 1770.84C628.362 1754.05 534.965 1675.32 475.423 1559.74C415.89 1444.17 390.702 1292.48 414.616 1132.17L404.211 1130.62L393.807 1129.07C369.315 1293.25 394.95 1449.46 456.719 1569.37C518.478 1689.26 616.861 1773.6 737.813 1791.65L739.365 1781.24ZM404.211 1130.62L414.616 1132.17C438.531 971.86 506.892 834.132 597.562 740.969C688.246 647.793 800.552 599.755 913.107 616.546L914.66 606.141L916.212 595.736C795.261 577.693 676.546 629.648 582.484 726.295C488.409 822.956 418.299 964.884 393.807 1129.07L404.211 1130.62ZM914.66 606.141L913.107 616.546C932.784 619.481 951.846 624.303 970.228 630.866L973.765 620.958L977.302 611.051C957.651 604.034 937.259 598.876 916.212 595.736L914.66 606.141ZM973.765 620.958L977.302 630.866C995.684 624.302 1014.75 619.481 1034.42 616.546L1032.87 606.141L1031.32 595.736C1010.27 598.876 989.88 604.034 970.228 611.051L973.765 620.958Z" fill="#423535" mask="url(#path-10-inside-3_2494_5)"/>
<path d="M1196.95 152.905C1380.54 8.68795 1701.94 -140.006 1474.3 370.364C1442 329.269 1349.39 219.271 1196.95 152.905Z" fill="#ABA198" stroke="#423434" stroke-width="10.8551"/>
<path d="M1283.79 211.56C1415.46 109.591 1605.59 -26.0232 1415.46 314.106L1283.79 211.56Z" fill="#707171" stroke="#423434" stroke-width="10.3612"/>
<path d="M771.222 130.544C590.804 -1.13144 287.302 -134.876 494.335 331.79C526.071 294.269 621.417 191.139 771.222 130.544Z" fill="#ABA198" stroke="#423434" stroke-width="12.1236"/>
<path d="M699.779 187.916C570.384 94.8149 383.549 -29.0055 570.384 281.544L699.779 187.916Z" fill="#707171" stroke="#423434" stroke-width="10.52"/>
<path d="M802.127 834.62C846.64 812.751 908.138 807.46 996.313 826.15L996.854 826.265H997.404C1055.64 826.265 1101.92 828.358 1139.86 839.789C1177.48 851.121 1206.99 871.67 1231.58 909.078C1256.32 946.732 1276.17 1001.61 1293.85 1081.74C1311.52 1161.8 1326.92 1266.63 1343.02 1403.9L1343.09 1404.45L1343.26 1404.98C1356.1 1442.78 1356.03 1475.95 1345.12 1504.49C1334.21 1533.06 1312.22 1557.58 1280.14 1577.64C1215.82 1617.85 1111.91 1639.46 980.5 1639.46C864.484 1639.46 766.308 1620.09 698.895 1572.13C632.059 1524.58 594.624 1448.29 600.972 1332.09C627.537 1262.53 643.749 1191.18 658.585 1124.75C673.518 1057.89 687.016 996.28 708.164 945.7C729.262 895.242 757.707 856.444 802.127 834.62Z" fill="#D9D9D9" stroke="#423735" stroke-width="10.52"/>
<path d="M967.948 78.8213C1116.25 78.8214 1250.78 134.338 1348.19 216.093C1445.68 297.915 1505.52 405.57 1505.52 509.614C1505.52 613.262 1446.11 694.72 1348.95 750.53C1251.67 806.406 1116.95 836.26 967.948 836.26C818.946 836.26 684.885 806.406 588.274 750.538C491.787 694.741 433.007 613.287 433.007 509.614C433.007 405.549 492.208 297.893 589.036 216.081C685.786 134.335 819.648 78.8213 967.948 78.8213Z" fill="#ABA198" stroke="#423434" stroke-width="10.52"/>
<path d="M255.721 662.178C858.726 1175.86 1472.11 879.041 1706.09 664.421L1632.26 650.606L1677.5 563.291C1637.1 580.123 1539.68 494.21 1496.03 449.149C1344.54 246.64 1185.69 264.522 1196.21 256.107C1204.62 249.375 1232.5 214.337 1223.56 205.086C1160.02 175.63 1085.57 235.377 1047.35 279.035C1039.64 287.839 1031.04 298.956 1024.73 294.505C991.909 271.36 946.532 284.861 927.947 294.505C835.371 196.038 763.835 187.552 739.639 195.617C721.124 209.503 747.354 241.73 762.783 256.107H748.055C535.026 267.679 400.896 578.544 278.865 566.972L323.049 647.45L255.721 662.178Z" fill="#E1DED7"/>
<path d="M1708.53 662.178C1476.39 876.96 860.83 1177.66 255.721 662.178L323.049 647.45L278.865 566.972C400.896 578.544 535.026 267.679 748.055 256.107H762.783C747.354 241.73 721.124 209.503 739.64 195.617C763.835 187.552 835.371 196.038 927.947 294.505C946.532 284.861 991.908 271.36 1024.73 294.505C1031.04 298.956 1039.64 287.839 1047.35 279.035C1085.57 235.377 1160.02 175.63 1223.56 205.086C1232.5 214.337 1204.62 249.375 1196.21 256.107C1185.69 264.522 1344.54 246.64 1496.03 449.149C1539.68 494.21 1637.1 580.123 1677.5 563.291L1632.26 650.606L1713.79 665.86" stroke="#423434" stroke-width="10.52"/>
<path d="M739.139 677.402C559.247 714.222 485.607 623.75 485.607 543.798C509.593 417.138 631.309 334.977 689.169 309.729C779.22 278.59 852.579 309.729 878.002 329.191C959.637 224.412 1034.05 285.533 1061.05 329.191C1104.81 287.111 1196.76 287.38 1233.05 301.839C1362.45 353.387 1443.1 479.1 1452.92 523.81C1459.65 623.119 1388.22 664.93 1353.51 682.142C1253.36 731.796 1143.98 654.609 1103.13 613.23C994.564 509.714 888.522 564.838 849.073 605.34C806.572 644.895 758.075 669.863 739.139 677.402Z" fill="#707171" stroke="#423434" stroke-width="8.41598"/>
<path d="M1116.4 652.012C1096.08 698.509 1038.41 754.022 970.298 604.101" stroke="#6C1F10" stroke-width="11.509"/>
<path d="M831.039 657.766C851.362 704.263 909.035 759.776 977.144 609.854" stroke="#6C1F10" stroke-width="11.509"/>
<path d="M972.024 616.761C938.073 690.418 902.971 703.653 885.132 709.408C911.602 770.405 951.884 789.395 979.505 792.272C1030.72 784.791 1058.15 730.316 1069.28 701.352C1028.42 701.352 991.206 646.492 979.505 616.761H972.024Z" fill="#D78A91" stroke="#6F1D0C" stroke-width="10.3581"/>
<path d="M907.457 568.997C925.827 549.274 991.617 523.863 1040.01 568.997C1023.18 595.951 972.155 663.023 907.457 568.997Z" fill="#383838"/>
<path d="M907.457 568.997C925.827 549.274 991.617 523.863 1040.01 568.997C1023.18 595.951 972.155 663.023 907.457 568.997Z" stroke="black" stroke-width="6.31198"/>
<path d="M907.457 568.997C925.827 549.274 991.617 523.863 1040.01 568.997C1023.18 595.951 972.155 663.023 907.457 568.997Z" stroke="#6F1D0C" stroke-width="6.31198"/>
<path d="M1177.43 337.551C1204.44 335.763 1230.25 348.528 1250.13 371.409C1270.02 394.293 1283.71 427.069 1286.18 464.342C1288.64 501.615 1279.39 535.909 1262.69 561.214C1246 586.516 1222.1 602.571 1195.09 604.359C1168.08 606.146 1142.27 593.381 1122.39 570.5C1102.51 547.615 1088.82 514.84 1086.35 477.567C1083.88 440.294 1093.14 406 1109.83 380.694C1126.52 355.393 1150.43 339.338 1177.43 337.551Z" fill="#D9D9D9" stroke="#423434" stroke-width="11.1879"/>
<path d="M770.085 337.551C743.076 335.763 717.267 348.528 697.387 371.409C677.503 394.293 663.81 427.069 661.343 464.342C658.876 501.615 668.131 535.909 684.825 561.214C701.517 586.516 725.418 602.571 752.427 604.359C779.437 606.146 805.245 593.381 825.125 570.5C845.009 547.615 858.703 514.84 861.169 477.567C863.636 440.294 854.381 406 837.687 380.694C820.996 355.393 797.094 339.338 770.085 337.551Z" fill="#D9D9D9" stroke="#423434" stroke-width="11.1879"/>
<path d="M791.63 368.737C772.079 367.443 753.165 377.667 738.427 396.182C723.702 414.682 713.462 441.143 711.473 471.195C709.484 501.248 716.148 528.827 728.306 549.106C740.475 569.401 757.878 582.029 777.428 583.323C796.979 584.617 815.895 574.393 830.632 555.878C845.357 537.379 855.597 510.918 857.586 480.865C859.575 450.813 852.912 423.233 840.753 402.955C828.584 382.659 811.181 370.03 791.63 368.737Z" fill="#242323" stroke="#181515" stroke-width="8.66428"/>
<path d="M1155.55 369.149C1175.1 367.855 1194.01 378.08 1208.75 396.595C1223.48 415.094 1233.72 441.555 1235.7 471.607C1237.69 501.66 1231.03 529.239 1218.87 549.518C1206.7 569.813 1189.3 582.441 1169.75 583.735C1150.2 585.029 1131.28 574.805 1116.55 556.29C1101.82 537.791 1091.58 511.33 1089.59 481.277C1087.6 451.225 1094.27 423.645 1106.42 403.367C1118.59 383.071 1136 370.443 1155.55 369.149Z" fill="#242323" stroke="#181515" stroke-width="8.66428"/>
<mask id="path-29-inside-4_2494_5" fill="white">
<path d="M672.862 397.068C693.682 355.502 730.201 328.849 769.937 331.478C818.685 334.705 856.828 380.983 865.01 440.972L672.862 397.068Z"/>
</mask>
<path d="M672.862 397.068C693.682 355.502 730.201 328.849 769.937 331.478C818.685 334.705 856.828 380.983 865.01 440.972L672.862 397.068Z" fill="#707171"/>
<path d="M672.862 397.068L663.456 392.357L657.455 404.339L670.519 407.324L672.862 397.068ZM769.937 331.478L770.631 320.981L770.631 320.981L769.937 331.478ZM865.01 440.972L862.666 451.228L877.488 454.615L875.433 439.551L865.01 440.972ZM672.862 397.068L682.268 401.779C701.866 362.653 735.053 339.713 769.242 341.975L769.937 331.478L770.631 320.981C725.349 317.985 685.498 348.351 663.456 392.357L672.862 397.068ZM769.937 331.478L769.242 341.975C811.113 344.746 846.786 385.201 854.586 442.394L865.01 440.972L875.433 439.551C866.87 376.764 826.257 324.663 770.631 320.981L769.937 331.478ZM865.01 440.972L867.353 430.717L675.206 386.812L672.862 397.068L670.519 407.324L862.666 451.228L865.01 440.972Z" fill="#423434" mask="url(#path-29-inside-4_2494_5)"/>
<mask id="path-31-inside-5_2494_5" fill="white">
<path d="M1274.24 397.068C1253.42 355.502 1216.9 328.85 1177.16 331.479C1128.41 334.706 1090.27 380.983 1082.09 440.972L1274.24 397.068Z"/>
</mask>
<path d="M1274.24 397.068C1253.42 355.502 1216.9 328.85 1177.16 331.479C1128.41 334.706 1090.27 380.983 1082.09 440.972L1274.24 397.068Z" fill="#707171"/>
<path d="M1274.24 397.068L1283.64 392.357L1289.64 404.339L1276.58 407.324L1274.24 397.068ZM1177.16 331.479L1176.47 320.982L1176.47 320.982L1177.16 331.479ZM1082.09 440.972L1084.43 451.228L1069.61 454.615L1071.67 439.551L1082.09 440.972ZM1274.24 397.068L1264.83 401.78C1245.23 362.654 1212.05 339.714 1177.86 341.976L1177.16 331.479L1176.47 320.982C1221.75 317.985 1261.6 348.351 1283.64 392.357L1274.24 397.068ZM1177.16 331.479L1177.86 341.976C1135.99 344.747 1100.31 385.201 1092.51 442.394L1082.09 440.972L1071.67 439.551C1080.23 376.765 1120.84 324.664 1176.47 320.982L1177.16 331.479ZM1082.09 440.972L1079.75 430.717L1271.89 386.812L1274.24 397.068L1276.58 407.324L1084.43 451.228L1082.09 440.972Z" fill="#423434" mask="url(#path-31-inside-5_2494_5)"/>
<mask id="path-33-outside-6_2494_5" maskUnits="userSpaceOnUse" x="-1.24963" y="1238.01" width="100.741" height="114.046" fill="black">
<rect fill="white" x="-1.24963" y="1238.01" width="100.741" height="114.046"/>
<path d="M95.2304 1339.68L13.648 1348.48L3.15625 1251.21L84.7387 1242.41L95.2304 1339.68ZM15.789 1260.43L24.1372 1337.83L82.7096 1331.51L74.3614 1254.11L15.789 1260.43Z"/>
</mask>
<path d="M95.2304 1339.68L13.648 1348.48L3.15625 1251.21L84.7387 1242.41L95.2304 1339.68ZM15.789 1260.43L24.1372 1337.83L82.7096 1331.51L74.3614 1254.11L15.789 1260.43Z" fill="#2C2F74"/>
<path d="M95.2304 1339.68L95.5689 1342.82C97.3018 1342.63 98.5551 1341.08 98.3682 1339.34L95.2304 1339.68ZM13.648 1348.48L10.5102 1348.82C10.6971 1350.55 12.2534 1351.81 13.9864 1351.62L13.648 1348.48ZM3.15625 1251.21L2.81781 1248.07C1.98561 1248.16 1.22316 1248.58 0.698181 1249.23C0.173201 1249.88 -0.071303 1250.72 0.0184572 1251.55L3.15625 1251.21ZM84.7387 1242.41L87.8765 1242.07C87.7868 1241.24 87.3701 1240.48 86.7182 1239.95C86.0663 1239.43 85.2325 1239.18 84.4003 1239.27L84.7387 1242.41ZM15.789 1260.43L15.4506 1257.29C13.7176 1257.48 12.4643 1259.03 12.6512 1260.77L15.789 1260.43ZM24.1372 1337.83L20.9994 1338.17C21.0892 1339 21.5059 1339.76 22.1578 1340.29C22.8097 1340.81 23.6435 1341.06 24.4757 1340.97L24.1372 1337.83ZM82.7096 1331.51L83.048 1334.65C84.781 1334.46 86.0343 1332.9 85.8474 1331.17L82.7096 1331.51ZM74.3614 1254.11L77.4992 1253.77C77.4094 1252.94 76.9928 1252.18 76.3408 1251.65C75.6889 1251.13 74.8551 1250.88 74.023 1250.97L74.3614 1254.11ZM95.2304 1339.68L94.892 1336.54L13.3095 1345.34L13.648 1348.48L13.9864 1351.62L95.5689 1342.82L95.2304 1339.68ZM13.648 1348.48L16.7857 1348.14L6.29404 1250.87L3.15625 1251.21L0.0184572 1251.55L10.5102 1348.82L13.648 1348.48ZM3.15625 1251.21L3.49469 1254.35L85.0772 1245.55L84.7387 1242.41L84.4003 1239.27L2.81781 1248.07L3.15625 1251.21ZM84.7387 1242.41L81.6009 1242.75L92.0926 1340.02L95.2304 1339.68L98.3682 1339.34L87.8765 1242.07L84.7387 1242.41ZM15.789 1260.43L12.6512 1260.77L20.9994 1338.17L24.1372 1337.83L27.275 1337.49L18.9268 1260.09L15.789 1260.43ZM24.1372 1337.83L24.4757 1340.97L83.048 1334.65L82.7096 1331.51L82.3712 1328.37L23.7988 1334.69L24.1372 1337.83ZM82.7096 1331.51L85.8474 1331.17L77.4992 1253.77L74.3614 1254.11L71.2236 1254.45L79.5718 1331.85L82.7096 1331.51ZM74.3614 1254.11L74.023 1250.97L15.4506 1257.29L15.789 1260.43L16.1274 1263.57L74.6998 1257.25L74.3614 1254.11Z" fill="#222059" mask="url(#path-33-outside-6_2494_5)"/>
<path d="M149.333 1411.94C205.001 1373.34 232.987 1346.17 276.369 1287.43L309.126 1315.48C270.332 1378.16 242.263 1406.96 179.802 1446.52L149.333 1411.94Z" fill="#BE2424" stroke="#951515" stroke-width="10.52"/>
<path d="M78.0132 1272.5C145.754 1272.37 184.222 1265.91 253.299 1242.22L264.316 1283.92C196.773 1313.46 157.311 1321.21 83.438 1318.27L78.0132 1272.5Z" fill="#BE2424" stroke="#951515" stroke-width="10.52"/>
<path d="M389.903 1668.95C366.512 1639.05 379.971 1570.05 400.974 1506.46L437.878 1533.65C417.611 1601.43 404.299 1648.32 437.878 1661.37C471.457 1674.41 413.294 1698.86 389.903 1668.95Z" fill="#D65F34" stroke="#962A02" stroke-width="10.52"/>
<path d="M424.622 1685.72C462.529 1683.6 505.538 1627.99 539.506 1570.28L494.735 1560.45C457.129 1620.38 430.647 1661.29 398.7 1644.65C366.752 1628 386.715 1687.85 424.622 1685.72Z" fill="#D65F34" stroke="#962A02" stroke-width="10.52"/>
<path d="M274.385 1374.1C279.345 1367.16 311.176 1307.96 326.472 1279.23L465.371 1350.54C459.419 1387.25 401.941 1440.86 359.155 1459.06C305.208 1482 248.961 1459.06 242.76 1437.35C236.56 1415.65 268.184 1382.78 274.385 1374.1Z" fill="#707171"/>
<path d="M274.385 1374.1C279.345 1367.16 311.176 1307.96 326.472 1279.23L465.371 1350.54C459.419 1387.25 401.941 1440.86 359.155 1459.06C305.208 1482 248.961 1459.06 242.76 1437.35C236.56 1415.65 268.184 1382.78 274.385 1374.1Z" stroke="#423535" stroke-width="8.41598"/>
<path d="M274.385 1374.1C279.345 1367.16 311.176 1307.96 326.472 1279.23L465.371 1350.54C459.419 1387.25 401.941 1440.86 359.155 1459.06C305.208 1482 248.961 1459.06 242.76 1437.35C236.56 1415.65 268.184 1382.78 274.385 1374.1Z" stroke="black" stroke-opacity="0.2" stroke-width="8.41598"/>
<path d="M264.052 1455.97C274.486 1444.64 283.761 1434.44 292.456 1426.51" stroke="#423535" stroke-width="8.41598"/>
<path d="M264.052 1455.97C274.486 1444.64 283.761 1434.44 292.456 1426.51" stroke="black" stroke-opacity="0.2" stroke-width="8.41598"/>
<path d="M292.456 1465.43C300.571 1456.53 308.762 1449.13 318.23 1440.19" stroke="#423535" stroke-width="8.41598"/>
<path d="M292.456 1465.43C300.571 1456.53 308.762 1449.13 318.23 1440.19" stroke="black" stroke-opacity="0.2" stroke-width="8.41598"/>
<path d="M245.115 1441.76C249.323 1428.09 264.682 1412.41 273.519 1408.63" stroke="#423535" stroke-width="8.41598"/>
<path d="M245.115 1441.76C249.323 1428.09 264.682 1412.41 273.519 1408.63" stroke="black" stroke-opacity="0.2" stroke-width="8.41598"/>
<path d="M497.155 1408.3C495.398 1407.67 493.082 1406.84 490.277 1405.81C483.378 1403.28 473.514 1399.59 461.671 1394.92C437.975 1385.6 406.404 1372.41 374.837 1356.98C343.222 1341.52 311.831 1323.91 288.368 1305.77C276.634 1296.69 267.063 1287.62 260.44 1278.77C253.797 1269.89 250.405 1261.62 250.317 1254.04C250.227 1246.3 253.786 1235.39 260.935 1221.75C267.994 1208.27 278.203 1192.76 290.604 1176.02C315.398 1142.55 348.613 1104.61 381.957 1068.83C415.282 1033.07 448.645 999.575 473.684 975.011C486.201 962.731 496.633 952.688 503.933 945.717C507.583 942.232 510.451 939.515 512.404 937.671C512.557 937.527 512.704 937.388 512.845 937.254L732.334 1035.8L497.155 1408.3Z" fill="#2C2F74" stroke="#222059" stroke-width="10.52"/>
<path d="M679.593 1323.74L679.437 1324.07L679.326 1324.4L587.291 1604.93L373.155 1515.29L490.273 1261.45L490.499 1260.96L490.62 1260.43L559.807 962.681L822.476 1029.73L679.593 1323.74Z" fill="#2C2F74" stroke="#222059" stroke-width="10.52"/>
<path d="M415.961 1082.64C421.833 1080.23 426.672 1078.47 430.146 1077.53C431.383 1077.2 432.329 1077 433.016 1076.89C433.981 1078.22 435.136 1080.12 436.388 1082.54C438.054 1085.77 439.724 1089.57 441.174 1093.38C442.626 1097.2 443.818 1100.92 444.561 1104C444.933 1105.54 445.174 1106.84 445.29 1107.85C445.294 1107.89 445.297 1107.93 445.301 1107.97C444.201 1108.63 442.588 1109.5 440.453 1110.57C435.827 1112.87 429.208 1115.87 421.201 1119.33C405.21 1126.25 383.973 1134.9 362.731 1143.38C341.5 1151.85 320.304 1160.12 304.415 1166.28C299.239 1168.29 294.626 1170.07 290.759 1171.56C292.419 1168.36 294.295 1164.77 296.241 1161.12C299.351 1155.3 302.613 1149.36 305.441 1144.57C306.857 1142.17 308.134 1140.12 309.208 1138.53C309.744 1137.74 310.204 1137.1 310.585 1136.62C310.774 1136.37 310.929 1136.19 311.052 1136.05C311.112 1135.98 311.16 1135.93 311.195 1135.89C311.23 1135.86 311.248 1135.84 311.249 1135.84C311.285 1135.82 311.712 1135.5 312.841 1134.78C313.933 1134.09 315.417 1133.2 317.259 1132.13C320.936 1129.99 325.917 1127.21 331.785 1124.02C343.517 1117.65 358.7 1109.71 373.901 1102.15C389.122 1094.59 404.27 1087.45 415.961 1082.64Z" fill="#BE2424" stroke="#951515" stroke-width="10.52"/>
<path d="M315.606 1259.22C316.655 1265.32 317.715 1270.22 318.745 1273.57C319.104 1274.74 319.428 1275.61 319.695 1276.22C321.329 1276.33 323.566 1276.3 326.289 1276.07C329.905 1275.78 334.012 1275.17 338.012 1274.38C342.02 1273.58 345.811 1272.61 348.811 1271.61C350.314 1271.11 351.541 1270.62 352.464 1270.18C352.531 1270.15 352.594 1270.11 352.656 1270.08C352.671 1268.93 352.612 1267.29 352.464 1265.17C352.137 1260.47 351.416 1253.9 350.407 1246.01C348.391 1230.28 345.266 1209.66 341.988 1189.14C338.712 1168.62 335.291 1148.24 332.688 1132.99C331.637 1126.82 330.717 1121.5 329.997 1117.34C327.386 1119.89 324.309 1122.95 321.213 1126.15C317.195 1130.3 313.211 1134.61 310.173 1138.31C308.65 1140.16 307.433 1141.78 306.584 1143.09C305.684 1144.48 305.516 1145.06 305.521 1145C305.513 1145.11 305.471 1145.65 305.464 1146.87C305.456 1148.14 305.484 1149.84 305.547 1151.92C305.674 1156.08 305.942 1161.65 306.333 1168.16C307.115 1181.18 308.385 1197.86 309.986 1214.34C311.59 1230.85 313.518 1247.07 315.606 1259.22ZM352.581 1271.4C352.581 1271.4 352.581 1271.4 352.581 1271.39C352.581 1271.4 352.581 1271.4 352.581 1271.4C352.581 1271.4 352.58 1271.4 352.58 1271.4C352.581 1271.4 352.58 1271.41 352.581 1271.4Z" fill="#BE2424" stroke="#951515" stroke-width="10.52"/>
<path d="M865.794 970.405L839.296 1037.27L448.151 892.205L475.802 861.604L461.977 817.404C628.14 854.216 716.995 886.595 865.794 970.405Z" fill="#F2561D" stroke="#962A02" stroke-width="10.52"/>
<path d="M456.04 905.245C608.61 943.977 688.596 973.444 823.188 1037.27C647.762 1012.75 549.956 1006.61 377.141 1016.23C418.406 976.955 436.013 952.724 456.04 905.245Z" fill="#F2561D" stroke="#962A02" stroke-width="10.52"/>
<path d="M690.423 1118.15L600.474 1101.93L568.956 1207.72L660.015 1229.63L690.423 1118.15Z" fill="#BE2424" stroke="#951515" stroke-width="10.52"/>
<mask id="path-50-outside-7_2494_5" maskUnits="userSpaceOnUse" x="1882.74" y="1225.39" width="100.741" height="114.046" fill="black">
<rect fill="white" x="1882.74" y="1225.39" width="100.741" height="114.046"/>
<path d="M1887 1327.06L1968.58 1335.86L1979.07 1238.59L1897.49 1229.79L1887 1327.06ZM1966.44 1247.8L1958.09 1325.2L1899.52 1318.89L1907.87 1241.49L1966.44 1247.8Z"/>
</mask>
<path d="M1887 1327.06L1968.58 1335.86L1979.07 1238.59L1897.49 1229.79L1887 1327.06ZM1966.44 1247.8L1958.09 1325.2L1899.52 1318.89L1907.87 1241.49L1966.44 1247.8Z" fill="#2C2F74"/>
<path d="M1887 1327.06L1886.66 1330.2C1884.92 1330.01 1883.67 1328.45 1883.86 1326.72L1887 1327.06ZM1968.58 1335.86L1971.72 1336.2C1971.53 1337.93 1969.97 1339.18 1968.24 1339L1968.58 1335.86ZM1979.07 1238.59L1979.41 1235.45C1981.14 1235.64 1982.4 1237.19 1982.21 1238.92L1979.07 1238.59ZM1897.49 1229.79L1894.35 1229.45C1894.54 1227.72 1896.09 1226.46 1897.83 1226.65L1897.49 1229.79ZM1966.44 1247.8L1966.78 1244.67C1968.51 1244.85 1969.76 1246.41 1969.58 1248.14L1966.44 1247.8ZM1958.09 1325.2L1961.23 1325.54C1961.04 1327.28 1959.48 1328.53 1957.75 1328.34L1958.09 1325.2ZM1899.52 1318.89L1899.18 1322.02C1898.35 1321.93 1897.58 1321.52 1897.06 1320.87C1896.53 1320.21 1896.29 1319.38 1896.38 1318.55L1899.52 1318.89ZM1907.87 1241.49L1904.73 1241.15C1904.91 1239.42 1906.47 1238.16 1908.2 1238.35L1907.87 1241.49ZM1887 1327.06L1887.33 1323.92L1968.92 1332.72L1968.58 1335.86L1968.24 1339L1886.66 1330.2L1887 1327.06ZM1968.58 1335.86L1965.44 1335.52L1975.93 1238.25L1979.07 1238.59L1982.21 1238.92L1971.72 1336.2L1968.58 1335.86ZM1979.07 1238.59L1978.73 1241.72L1897.15 1232.92L1897.49 1229.79L1897.83 1226.65L1979.41 1235.45L1979.07 1238.59ZM1897.49 1229.79L1900.63 1230.12L1890.13 1327.4L1887 1327.06L1883.86 1326.72L1894.35 1229.45L1897.49 1229.79ZM1966.44 1247.8L1969.58 1248.14L1961.23 1325.54L1958.09 1325.2L1954.95 1324.87L1963.3 1247.47L1966.44 1247.8ZM1958.09 1325.2L1957.75 1328.34L1899.18 1322.02L1899.52 1318.89L1899.86 1315.75L1958.43 1322.07L1958.09 1325.2ZM1899.52 1318.89L1896.38 1318.55L1904.73 1241.15L1907.87 1241.49L1911 1241.83L1902.65 1319.22L1899.52 1318.89ZM1907.87 1241.49L1908.2 1238.35L1966.78 1244.67L1966.44 1247.8L1966.1 1250.94L1907.53 1244.63L1907.87 1241.49Z" fill="#222059" mask="url(#path-50-outside-7_2494_5)"/>
<path d="M1832.89 1399.32C1777.23 1360.72 1749.24 1333.55 1705.86 1274.8L1673.1 1302.85C1711.89 1365.54 1739.96 1394.34 1802.42 1433.9L1832.89 1399.32Z" fill="#BE2424" stroke="#951515" stroke-width="10.52"/>
<path d="M1904.21 1259.88C1836.47 1259.74 1798 1253.29 1728.93 1229.6L1717.91 1271.29C1785.45 1300.83 1824.92 1308.58 1898.79 1305.64L1904.21 1259.88Z" fill="#BE2424" stroke="#951515" stroke-width="10.52"/>
<path d="M1592.32 1656.33C1615.72 1626.42 1602.26 1557.43 1581.25 1493.84L1544.35 1521.03C1564.62 1588.81 1577.93 1635.69 1544.35 1648.74C1510.77 1661.79 1568.93 1686.23 1592.32 1656.33Z" fill="#D65F34" stroke="#962A02" stroke-width="10.52"/>
<path d="M1721.64 1366.74C1716.68 1359.79 1684.85 1300.6 1669.56 1271.87L1530.66 1343.18C1536.61 1379.89 1594.09 1433.49 1636.87 1451.69C1690.82 1474.63 1747.07 1451.69 1753.27 1429.99C1759.47 1408.28 1727.84 1375.42 1721.64 1366.74Z" fill="#707171"/>
<path d="M1721.64 1366.74C1716.68 1359.79 1684.85 1300.6 1669.56 1271.87L1530.66 1343.18C1536.61 1379.89 1594.09 1433.49 1636.87 1451.69C1690.82 1474.63 1747.07 1451.69 1753.27 1429.99C1759.47 1408.28 1727.84 1375.42 1721.64 1366.74Z" stroke="#423535" stroke-width="8.41598"/>
<path d="M1721.64 1366.74C1716.68 1359.79 1684.85 1300.6 1669.56 1271.87L1530.66 1343.18C1536.61 1379.89 1594.09 1433.49 1636.87 1451.69C1690.82 1474.63 1747.07 1451.69 1753.27 1429.99C1759.47 1408.28 1727.84 1375.42 1721.64 1366.74Z" stroke="black" stroke-opacity="0.2" stroke-width="8.41598"/>
<path d="M1557.6 1673.1C1519.7 1670.97 1476.69 1615.37 1442.72 1557.66L1487.49 1547.83C1525.1 1607.75 1551.58 1648.67 1583.53 1632.02C1615.47 1615.37 1595.51 1675.22 1557.6 1673.1Z" fill="#D65F34" stroke="#962A02" stroke-width="10.52"/>
<path d="M1485.07 1395.68C1486.83 1395.05 1489.14 1394.21 1491.95 1393.19C1498.85 1390.66 1508.71 1386.96 1520.56 1382.3C1544.25 1372.97 1575.82 1359.79 1607.39 1344.35C1639 1328.9 1670.4 1311.29 1693.86 1293.14C1705.59 1284.07 1715.16 1275 1721.79 1266.15C1728.43 1257.27 1731.82 1249 1731.91 1241.42C1732 1233.68 1728.44 1222.77 1721.29 1209.12C1714.23 1195.64 1704.02 1180.14 1691.62 1163.39C1666.83 1129.92 1633.61 1091.98 1600.27 1056.2C1566.94 1020.45 1533.58 986.951 1508.54 962.387C1496.03 950.107 1485.59 940.064 1478.29 933.093C1474.64 929.608 1471.78 926.891 1469.82 925.047C1469.67 924.903 1469.52 924.764 1469.38 924.63L1249.89 1023.18L1485.07 1395.68Z" fill="#2C2F74" stroke="#222059" stroke-width="10.52"/>
<path d="M1302.63 1311.12L1302.79 1311.44L1302.9 1311.78L1394.94 1592.31L1609.07 1502.66L1491.95 1248.82L1491.73 1248.33L1491.61 1247.81L1422.42 950.057L1159.75 1017.1L1302.63 1311.12Z" fill="#2C2F74" stroke="#222059" stroke-width="10.52"/>
<path d="M1566.27 1070.02C1560.39 1067.6 1555.55 1065.85 1552.08 1064.91C1550.84 1064.57 1549.9 1064.37 1549.21 1064.27C1548.25 1065.59 1547.09 1067.5 1545.84 1069.92C1544.17 1073.14 1542.5 1076.94 1541.05 1080.75C1539.6 1084.57 1538.41 1088.3 1537.67 1091.38C1537.29 1092.92 1537.05 1094.21 1536.94 1095.23C1536.93 1095.27 1536.93 1095.31 1536.93 1095.34C1538.03 1096.01 1539.64 1096.88 1541.77 1097.94C1546.4 1100.25 1553.02 1103.24 1561.03 1106.71C1577.02 1113.62 1598.25 1122.28 1619.5 1130.75C1640.73 1139.22 1661.92 1147.5 1677.81 1153.66C1682.99 1155.67 1687.6 1157.45 1691.47 1158.94C1689.81 1155.73 1687.93 1152.14 1685.99 1148.5C1682.88 1142.67 1679.61 1136.73 1676.79 1131.95C1675.37 1129.55 1674.09 1127.49 1673.02 1125.91C1672.48 1125.12 1672.02 1124.48 1671.64 1123.99C1671.45 1123.75 1671.3 1123.56 1671.17 1123.43C1671.11 1123.36 1671.07 1123.31 1671.03 1123.27C1671 1123.23 1670.98 1123.22 1670.98 1123.22C1670.94 1123.19 1670.51 1122.87 1669.39 1122.16C1668.29 1121.47 1666.81 1120.58 1664.97 1119.51C1661.29 1117.37 1656.31 1114.59 1650.44 1111.4C1638.71 1105.03 1623.53 1097.09 1608.33 1089.53C1593.1 1081.96 1577.96 1074.82 1566.27 1070.02Z" fill="#BE2424" stroke="#951515" stroke-width="10.52"/>
<path d="M1666.62 1246.6C1665.57 1252.7 1664.51 1257.6 1663.48 1260.95C1663.12 1262.11 1662.8 1262.98 1662.53 1263.59C1660.9 1263.71 1658.66 1263.68 1655.94 1263.45C1652.32 1263.15 1648.21 1262.55 1644.21 1261.75C1640.21 1260.96 1636.42 1259.99 1633.42 1258.99C1631.91 1258.48 1630.69 1258 1629.76 1257.56C1629.7 1257.52 1629.63 1257.49 1629.57 1257.46C1629.56 1256.31 1629.61 1254.67 1629.76 1252.55C1630.09 1247.85 1630.81 1241.27 1631.82 1233.39C1633.84 1217.65 1636.96 1197.04 1640.24 1176.51C1643.51 1156 1646.94 1135.62 1649.54 1120.36C1650.59 1114.2 1651.51 1108.87 1652.23 1104.72C1654.84 1107.27 1657.92 1110.33 1661.01 1113.53C1665.03 1117.67 1669.02 1121.98 1672.05 1125.68C1673.58 1127.54 1674.79 1129.15 1675.64 1130.47C1676.54 1131.86 1676.71 1132.43 1676.71 1132.38C1676.71 1132.49 1676.76 1133.03 1676.76 1134.25C1676.77 1135.52 1676.74 1137.21 1676.68 1139.3C1676.55 1143.46 1676.28 1149.03 1675.89 1155.54C1675.11 1168.56 1673.84 1185.23 1672.24 1201.72C1670.64 1218.23 1668.71 1234.45 1666.62 1246.6ZM1629.65 1258.77C1629.65 1258.77 1629.65 1258.77 1629.65 1258.77C1629.65 1258.77 1629.65 1258.77 1629.65 1258.77C1629.65 1258.77 1629.65 1258.78 1629.65 1258.78C1629.65 1258.77 1629.65 1258.78 1629.65 1258.77Z" fill="#BE2424" stroke="#951515" stroke-width="10.52"/>
<path d="M1144.57 958.648L1169.74 1023.6L1541.18 882.693L1514.92 852.971L1528.05 810.04C1370.26 845.795 1285.88 877.244 1144.57 958.648Z" fill="#F2561D" stroke="#962A02" stroke-width="10.52"/>
<path d="M1526.19 892.622C1373.62 931.354 1293.63 960.821 1159.04 1024.65C1334.46 1000.13 1432.27 993.992 1605.09 1003.61C1563.82 964.332 1546.21 940.101 1526.19 892.622Z" fill="#F2561D" stroke="#962A02" stroke-width="10.52"/>
<path d="M1291.21 1118.15L1381.16 1101.93L1412.68 1207.72L1321.62 1229.63L1291.21 1118.15Z" fill="#BE2424" stroke="#951515" stroke-width="10.52"/>
<path d="M1735.27 1446.5C1724.83 1435.17 1715.56 1424.97 1706.86 1417.04" stroke="#423535" stroke-width="8.41598"/>
<path d="M1735.27 1446.5C1724.83 1435.17 1715.56 1424.97 1706.86 1417.04" stroke="black" stroke-opacity="0.2" stroke-width="8.41598"/>
<path d="M1754.21 1432.3C1750 1418.62 1734.64 1402.95 1725.8 1399.16" stroke="#423535" stroke-width="8.41598"/>
<path d="M1754.21 1432.3C1750 1418.62 1734.64 1402.95 1725.8 1399.16" stroke="black" stroke-opacity="0.2" stroke-width="8.41598"/>
<path d="M1754.21 1432.3C1750 1418.62 1734.64 1402.95 1725.8 1399.16" stroke="black" stroke-opacity="0.2" stroke-width="8.41598"/>
<path d="M892.619 1375.5C899.352 1314.48 969.415 1138.79 1005.18 1052C1025.7 1079.35 1079.17 1245.58 1106.17 1375.5L1005.18 1480.16L892.619 1375.5Z" fill="#2C2F74" stroke="#222059" stroke-width="10.52"/>
<path d="M1144.21 1037.54H858.593L925.921 1082.25L1007.45 1119.07L1072.67 1086.98L1144.21 1037.54Z" fill="#2C2F74" stroke="#222059" stroke-width="10.52"/>
<path d="M1706.87 1455.97C1698.75 1447.07 1690.56 1439.66 1681.09 1430.72" stroke="#423535" stroke-width="8.41598"/>
<path d="M1706.87 1455.97C1698.75 1447.07 1690.56 1439.66 1681.09 1430.72" stroke="black" stroke-opacity="0.2" stroke-width="8.41598"/>
<path d="M1106.62 973.203C1044.83 952.963 947.452 964.77 909.36 973.204C887.775 968.867 856.984 971.397 844.287 973.204C832.013 998.504 839.173 1028.32 844.287 1040.07C849.366 1048.02 876.383 1046.39 889.256 1044.58C924.236 1062.47 1027.26 1067.79 1104 1046C1120.82 1047.87 1140.97 1042.31 1151.83 1040.07C1186.85 1032.84 1164.89 957.776 1145.85 957.776L1106.62 973.203Z" fill="#BE2424" stroke="#951515" stroke-width="8.41598"/>
<path d="M1004.12 1279.33C1018.28 1279.71 1031.18 1289.24 1040.55 1302.73C1049.9 1316.18 1055.4 1333.12 1055.02 1347.42C1054.64 1361.7 1048.28 1377.55 1038.27 1389.71C1028.26 1401.89 1014.9 1410.05 1000.66 1409.68C986.43 1409.3 973.516 1400.44 964.164 1387.75C954.82 1375.07 949.307 1358.91 949.686 1344.62C950.066 1330.32 956.46 1313.7 966.511 1300.76C976.583 1287.79 989.965 1278.96 1004.12 1279.33Z" fill="#D65F34" stroke="#962A02" stroke-width="4.54843"/>
<path d="M1004.4 1290.83C1015.71 1291.13 1026.1 1298.98 1033.72 1310.28C1041.31 1321.54 1045.76 1335.73 1045.45 1347.68C1045.13 1359.62 1039.95 1372.89 1031.83 1383.08C1023.68 1393.29 1012.89 1400.03 1001.51 1399.73C990.121 1399.43 979.707 1392.12 972.116 1381.49C964.538 1370.89 960.075 1357.37 960.392 1345.42C960.709 1333.47 965.913 1319.54 974.087 1308.7C982.29 1297.82 993.091 1290.53 1004.4 1290.83Z" fill="#D65F34" stroke="#962A02" stroke-width="4.77108"/>
<path d="M1010.35 1344.55L1031.57 1345.11M1026.19 1350.44L1031.57 1345.11L1026.49 1339.08" stroke="#222059" stroke-width="3.03229"/>
<path d="M1014.18 1345.87C1014.02 1351.98 1009.42 1356.82 1001.45 1356.61C993.489 1356.4 988.942 1351.32 989.104 1345.2C989.267 1339.08 994.078 1334.25 1002.04 1334.46C1010 1334.67 1014.34 1339.75 1014.18 1345.87Z" fill="#222059"/>
<path d="M1012.12 1340.09C1012.02 1343.66 1012.11 1340.09 1010.26 1340.04C1008.41 1339.99 1003.2 1339.49 1003.25 1337.71C1003.29 1335.94 1006.77 1331.73 1008.62 1331.78C1010.47 1331.83 1012.17 1338.32 1012.12 1340.09Z" fill="#222059"/>
<path d="M992.114 1339.56C992.019 1343.13 992.125 1339.56 993.975 1339.61C995.825 1339.66 1001.06 1339.43 1001.1 1337.65C1001.15 1335.88 997.903 1331.49 996.054 1331.44C994.204 1331.39 992.161 1337.78 992.114 1339.56Z" fill="#222059"/>
<path d="M993.079 1353.34L978.051 1368.33M977.892 1360.75L978.051 1368.33L985.922 1368.81" stroke="#222059" stroke-width="3.03229"/>
<path d="M988.089 1283.47L991.041 1293.39C996.063 1291 1008.4 1287.79 1017.56 1294.1L1021.43 1284.35C1016.16 1281.18 1002.28 1275.96 988.892 1283.49" stroke="#962A02" stroke-width="4.54843"/>
</svg>
