<svg xmlns="http://www.w3.org/2000/svg" width="48" height="48" fill="none" viewBox="0 0 48 48"><path stroke="url(#a)" stroke-width="3" d="M24.518 2.246c11.915.385 21.262 10.357 20.877 22.272S35.038 45.78 23.122 45.395C11.207 45.009 1.86 35.038 2.246 23.122 2.63 11.207 12.603 1.86 24.518 2.246Z"/><path fill="url(#b)" d="M14.162 22.469a1.5 1.5 0 1 0-.097 2.998l.049-1.5zm20.82 3.235a1.5 1.5 0 0 0 .07-2.12l-9.233-9.85a1.5 1.5 0 0 0-2.189 2.052l8.207 8.755-8.756 8.207a1.5 1.5 0 0 0 2.052 2.189zm-20.868-1.736-.049 1.5 19.843.641.049-1.5.048-1.499-19.843-.641z"/><defs><linearGradient id="a" x1="24.567" x2="23.074" y1=".746" y2="46.894" gradientUnits="userSpaceOnUse"><stop stop-color="#abe0fb"/><stop offset="1" stop-color="#668595"/></linearGradient><linearGradient id="b" x1="24.022" x2="24.049" y1="24.525" y2="24.053" gradientUnits="userSpaceOnUse"><stop stop-color="#abe0fb"/><stop offset="1" stop-color="#fff"/></linearGradient></defs></svg>