<svg xmlns="http://www.w3.org/2000/svg" width="48" height="48" fill="none" viewBox="0 0 48 48"><path stroke="url(#a)" stroke-width="3" d="M24.527 2.148c12.026.336 21.5 10.345 21.166 22.353-.335 12.008-10.353 21.474-22.379 21.14-12.026-.336-21.501-10.346-21.166-22.354S12.5 1.813 24.527 2.148Z"/><path fill="url(#b)" d="M14.174 22.586a1.5 1.5 0 0 0-.083 3l.042-1.5zm21.003 3.148a1.5 1.5 0 0 0 .059-2.121l-9.276-9.808a1.5 1.5 0 1 0-2.18 2.061l8.246 8.719-8.72 8.245a1.5 1.5 0 1 0 2.062 2.18zm-21.044-1.648-.042 1.5 20.013.557.042-1.5.042-1.499-20.014-.558z"/><defs><linearGradient id="a" x1="24.568" x2="23.272" y1=".649" y2="47.139" gradientUnits="userSpaceOnUse"><stop stop-color="#1ac8be"/><stop offset="1" stop-color="#187c75"/></linearGradient><linearGradient id="b" x1="24.151" x2="24.127" y1="24.127" y2="24.602" gradientUnits="userSpaceOnUse"><stop stop-color="#1ac8be"/><stop offset="1" stop-color="#187c75"/></linearGradient></defs></svg>