<svg xmlns="http://www.w3.org/2000/svg" width="196" height="196" fill="none" viewBox="0 0 196 196"><g filter="url(#a)"><path fill="url(#b)" d="m134.151 109.487-7.967 29.253-4.439-11.874-20.397-3.994 11.518-19.754-20.84-5.181L52.89 63.27l55.537 27.975 16.402-6.693-7.08 31.628z"/><path fill="url(#c)" d="m91.736 68.3 20.588 11.416-9.307-14.004 5.396-8.8L73.66 44.274l24.484 13.577z"/></g><path fill="url(#d)" d="m134.151 109.487-7.967 29.253-4.439-11.874-20.397-3.994 11.518-19.754-20.84-5.181L52.89 63.27l55.537 27.975 16.402-6.693-7.08 31.628z"/><path fill="url(#e)" d="m91.736 68.3 20.588 11.416-9.307-14.004 5.396-8.8L73.66 44.274l24.484 13.577z"/><defs><linearGradient id="b" x1="69.981" x2="126.116" y1="108.984" y2="87.996" gradientUnits="userSpaceOnUse"><stop stop-color="#ffa147"/><stop offset="1" stop-color="#d34426"/></linearGradient><linearGradient id="c" x1="99.231" x2="90.48" y1="51.821" y2="67.603" gradientUnits="userSpaceOnUse"><stop stop-color="#ffa147"/><stop offset="1" stop-color="#d34426"/></linearGradient><linearGradient id="d" x1="69.981" x2="126.116" y1="108.984" y2="87.996" gradientUnits="userSpaceOnUse"><stop stop-color="#ffa147"/><stop offset="1" stop-color="#d34426"/></linearGradient><linearGradient id="e" x1="99.231" x2="90.48" y1="51.821" y2="67.603" gradientUnits="userSpaceOnUse"><stop stop-color="#ffa147"/><stop offset="1" stop-color="#d34426"/></linearGradient><filter id="a" width="131.841" height="145.045" x="27.6" y="18.984" color-interpolation-filters="sRGB" filterUnits="userSpaceOnUse"><feFlood flood-opacity="0" result="BackgroundImageFix"/><feBlend in="SourceGraphic" in2="BackgroundImageFix" result="shape"/><feGaussianBlur result="effect1_foregroundBlur_152_15118" stdDeviation="12.645"/></filter></defs></svg>