<svg xmlns="http://www.w3.org/2000/svg" width="181" height="182" fill="none" viewBox="0 0 181 182"><g filter="url(#a)"><path fill="url(#b)" d="m81.119 125.101-27.65-3.98 10.876-5.362 2.802-18.995 18.95 8.27 3.889-19.53 30.567-39.46-23.581 53.628 6.986 14.168-29.825-2.907z"/><path fill="url(#c)" d="m117.117 81.92-9.536 20.088 12.674-9.95 8.651 4.107 9.824-33.256-11.34 23.888z"/></g><path fill="url(#d)" d="m81.119 125.101-27.65-3.98 10.876-5.362 2.802-18.995 18.95 8.27 3.889-19.53 30.567-39.46-23.581 53.628 6.986 14.168-29.825-2.907z"/><path fill="url(#e)" d="m117.117 81.92-9.536 20.088 12.674-9.95 8.651 4.107 9.824-33.256-11.34 23.888z"/><defs><linearGradient id="b" x1="78.681" x2="102.326" y1="66.689" y2="114.645" gradientUnits="userSpaceOnUse"><stop stop-color="#ffa147"/><stop offset="1" stop-color="#d34426"/></linearGradient><linearGradient id="c" x1="133.158" x2="118.019" y1="87.207" y2="80.02" gradientUnits="userSpaceOnUse"><stop stop-color="#ffa147"/><stop offset="1" stop-color="#d34426"/></linearGradient><linearGradient id="d" x1="78.681" x2="102.326" y1="66.689" y2="114.645" gradientUnits="userSpaceOnUse"><stop stop-color="#ffa147"/><stop offset="1" stop-color="#d34426"/></linearGradient><linearGradient id="e" x1="133.158" x2="118.019" y1="87.207" y2="80.02" gradientUnits="userSpaceOnUse"><stop stop-color="#ffa147"/><stop offset="1" stop-color="#d34426"/></linearGradient><filter id="a" width="121.612" height="115.408" x="35.293" y="27.869" color-interpolation-filters="sRGB" filterUnits="userSpaceOnUse"><feFlood flood-opacity="0" result="BackgroundImageFix"/><feBlend in="SourceGraphic" in2="BackgroundImageFix" result="shape"/><feGaussianBlur result="effect1_foregroundBlur_184_5407" stdDeviation="9.088"/></filter></defs></svg>