<svg xmlns="http://www.w3.org/2000/svg" width="142" height="135" fill="none" viewBox="0 0 142 135"><g filter="url(#a)"><path fill="url(#b)" d="m73.617 95.135-22.769-2.154 6.934-4.68-3.354-15.26 17.221 5.9-2.66-15.728 12.37-32.612-2.776 43.66 9.595 11.046-24.156-1.219z"/><path fill="url(#c)" d="m90.839 59.367-2.395 16.057 6.876-8.598 7.098 2.423-.302-26.1-2.849 19.095z"/></g><path fill="url(#d)" d="m73.617 95.135-22.769-2.154 6.934-4.68-3.354-15.26 17.221 5.9-2.66-15.728 12.37-32.612-2.776 43.66 9.595 11.046-24.156-1.219z"/><path fill="url(#e)" d="m90.839 59.367-2.395 16.057 6.876-8.598 7.098 2.423-.302-26.1-2.849 19.095z"/><defs><linearGradient id="b" x1="54.663" x2="82.166" y1="48.62" y2="89.365" gradientUnits="userSpaceOnUse"><stop stop-color="#ffa147"/><stop offset="1" stop-color="#d34426"/></linearGradient><linearGradient id="c" x1="103.486" x2="90.717" y1="62.089" y2="60.184" gradientUnits="userSpaceOnUse"><stop stop-color="#ffa147"/><stop offset="1" stop-color="#d34426"/></linearGradient><linearGradient id="d" x1="54.663" x2="82.166" y1="48.62" y2="89.365" gradientUnits="userSpaceOnUse"><stop stop-color="#ffa147"/><stop offset="1" stop-color="#d34426"/></linearGradient><linearGradient id="e" x1="103.486" x2="90.717" y1="62.089" y2="60.184" gradientUnits="userSpaceOnUse"><stop stop-color="#ffa147"/><stop offset="1" stop-color="#d34426"/></linearGradient><filter id="a" width="102.149" height="115.114" x="25.558" y="5.311" color-interpolation-filters="sRGB" filterUnits="userSpaceOnUse"><feFlood flood-opacity="0" result="BackgroundImageFix"/><feBlend in="SourceGraphic" in2="BackgroundImageFix" result="shape"/><feGaussianBlur result="effect1_foregroundBlur_152_15139" stdDeviation="12.645"/></filter></defs></svg>