<svg xmlns="http://www.w3.org/2000/svg" width="163" height="163" fill="none" viewBox="0 0 163 163"><g filter="url(#a)"><path fill="url(#b)" d="m90.507 111.652 24.611-4.207-9.891-4.528-3.082-16.887-16.698 7.83-4.071-17.34-28.537-34.493 22.718 47.305-5.82 12.811 26.59-3.302z"/><path fill="url(#c)" d="m57.045 73.964 9.122 17.71-11.64-8.572-7.63 3.888-9.762-29.471L47.983 78.58z"/></g><path fill="#b93535" d="m90.507 111.652 24.611-4.207-9.891-4.528-3.082-16.887-16.698 7.83-4.071-17.34-28.537-34.493 22.718 47.305-5.82 12.811 26.59-3.302zM57.045 73.964l9.122 17.71-11.64-8.572-7.63 3.888-9.762-29.471L47.983 78.58z"/><defs><linearGradient id="b" x1="90.916" x2="71.091" y1="59.462" y2="102.762" gradientUnits="userSpaceOnUse"><stop stop-color="#ffa147"/><stop offset="1" stop-color="#d34426"/></linearGradient><linearGradient id="c" x1="42.828" x2="56.151" y1="79.092" y2="72.229" gradientUnits="userSpaceOnUse"><stop stop-color="#ffa147"/><stop offset="1" stop-color="#d34426"/></linearGradient><filter id="a" width="128.562" height="120.204" x="11.845" y="16.738" color-interpolation-filters="sRGB" filterUnits="userSpaceOnUse"><feFlood flood-opacity="0" result="BackgroundImageFix"/><feBlend in="SourceGraphic" in2="BackgroundImageFix" result="shape"/><feGaussianBlur result="effect1_foregroundBlur_152_15132" stdDeviation="12.645"/></filter></defs></svg>