<svg xmlns="http://www.w3.org/2000/svg" width="157" height="158" fill="none" viewBox="0 0 157 158"><g filter="url(#a)"><path fill="url(#b)" d="m75.952 110.753-24.915 1.614 8.57-6.699-.917-17.14 18.06 3.744-.06-17.81 19.76-40.17-11.13 51.282 8.63 11.113-26.629 2.953z"/><path fill="url(#c)" d="m99.764 66.333-4.767 19.344 9.335-11.038 8.324 2.012 2.663-30.93-5.67 23.002z"/></g><path fill="#b93535" d="m75.952 110.753-24.915 1.614 8.57-6.699-.917-17.14 18.06 3.744-.06-17.81 19.76-40.17-11.13 51.282 8.63 11.113-26.629 2.953zM99.764 66.333l-4.767 19.344 9.335-11.038 8.324 2.012 2.663-30.93-5.67 23.002z"/><defs><linearGradient id="b" x1="63.453" x2="92.778" y1="60.08" y2="97.604" gradientUnits="userSpaceOnUse"><stop stop-color="#ffa147"/><stop offset="1" stop-color="#d34426"/></linearGradient><linearGradient id="c" x1="114.782" x2="100.231" y1="68.025" y2="64.439" gradientUnits="userSpaceOnUse"><stop stop-color="#ffa147"/><stop offset="1" stop-color="#d34426"/></linearGradient><filter id="a" width="114.861" height="128.653" x="25.747" y="9.002" color-interpolation-filters="sRGB" filterUnits="userSpaceOnUse"><feFlood flood-opacity="0" result="BackgroundImageFix"/><feBlend in="SourceGraphic" in2="BackgroundImageFix" result="shape"/><feGaussianBlur result="effect1_foregroundBlur_152_15125" stdDeviation="12.645"/></filter></defs></svg>