<svg xmlns="http://www.w3.org/2000/svg" width="181" height="181" fill="none" viewBox="0 0 181 181"><g filter="url(#a)"><path fill="url(#b)" d="m98.203 125.247 27.785-2.886-10.655-5.787-2.051-19.09-19.26 7.515-3.117-19.67L61.92 44.696l21.447 54.517-7.54 13.882 29.917-1.729z"/><path fill="url(#c)" d="m63.937 80.68 8.735 20.448-12.271-10.442-8.807 3.762-8.503-33.618 10.388 24.317z"/></g><path fill="url(#d)" d="m98.203 125.247 27.785-2.886-10.655-5.787-2.051-19.09-19.26 7.515-3.117-19.67L61.92 44.696l21.447 54.517-7.54 13.882 29.917-1.729z"/><path fill="url(#e)" d="m63.937 80.68 8.735 20.448-12.27-10.442-8.807 3.762L43.09 60.83l10.388 24.317z"/><defs><linearGradient id="b" x1="102.943" x2="77.424" y1="66.977" y2="113.962" gradientUnits="userSpaceOnUse"><stop stop-color="#ffa147"/><stop offset="1" stop-color="#d34426"/></linearGradient><linearGradient id="c" x1="47.699" x2="63.11" y1="85.329" y2="78.745" gradientUnits="userSpaceOnUse"><stop stop-color="#ffa147"/><stop offset="1" stop-color="#d34426"/></linearGradient><linearGradient id="d" x1="102.943" x2="77.424" y1="66.977" y2="113.962" gradientUnits="userSpaceOnUse"><stop stop-color="#ffa147"/><stop offset="1" stop-color="#d34426"/></linearGradient><linearGradient id="e" x1="47.699" x2="63.11" y1="85.329" y2="78.745" gradientUnits="userSpaceOnUse"><stop stop-color="#ffa147"/><stop offset="1" stop-color="#d34426"/></linearGradient><filter id="a" width="119.249" height="116.903" x="24.915" y="26.52" color-interpolation-filters="sRGB" filterUnits="userSpaceOnUse"><feFlood flood-opacity="0" result="BackgroundImageFix"/><feBlend in="SourceGraphic" in2="BackgroundImageFix" result="shape"/><feGaussianBlur result="effect1_foregroundBlur_184_5400" stdDeviation="9.088"/></filter></defs></svg>