<svg width="608" height="730" viewBox="0 0 608 730" fill="none" xmlns="http://www.w3.org/2000/svg">
<g filter="url(#filter0_d_3330_618)">
<path d="M376.801 0C390.704 2.28793 405.058 3.60574 419.014 5.89729C423.248 13.3759 427.422 20.8859 431.543 28.4265C432.99 31.0428 436.35 37.4767 438.01 39.5724C440.08 44.8199 435.633 66.6453 435.745 73.3459C435.774 74.9002 435.254 79.0329 434.968 80.613C434.875 81.8043 434.819 83.1265 434.581 84.286C448.226 91.3238 462.476 97.7775 476.21 104.662C481.48 107.303 490.109 111.051 494.871 113.973C501.789 137.721 507.651 162.888 514.81 186.345C529.337 180.297 543.817 174.134 558.244 167.857C559.686 164.106 561.479 159.774 562.728 156.006C566.152 154.475 573.279 151.734 576.905 150.69C580.027 151.533 587.142 153.579 590.139 154.055C591.972 156.785 593.354 166.181 594.204 170.072C592.661 172.666 591.606 174.066 589.736 176.464C588.629 180.288 591.582 200.143 591.896 205.944C592.452 206.54 594.184 208.305 594.511 208.887C597.597 212.705 600.791 216.56 603.72 220.492C600.175 225.729 591.251 239.188 587.549 243.527L528.286 266.94C530.147 272.451 531.859 280.474 533.447 286.296C544.288 289.694 565.701 294.273 574.721 298.951C570.33 309.343 561.197 326.228 555.79 336.523L530.796 384.699L487.446 468.292C480.328 482.034 473.116 496.376 465.776 509.953C471.255 509.011 480.638 507.399 486.089 507.319C500.673 507.101 529.43 509.764 541.331 517.378C555.113 526.197 558.131 542.2 560.729 557.251C565.052 582.294 562.957 618.992 555.726 643.511C552.45 657.353 547.926 669.484 542.979 682.698C537.475 697.403 532.343 704.224 518.709 712.741C505.483 721 491.37 723.24 476.242 719.082C467.746 716.838 455.144 711.959 447.779 706.947C432.833 699.079 427.833 679.29 424.755 664.005C423.655 658.55 422.503 653.047 422.193 647.479C422.015 646.222 422.044 645.497 421.286 644.482C417.177 643.72 411.299 643.289 407.016 642.862L383.094 640.521C382.054 634.732 380.902 622.585 380.664 616.897C379.701 611.893 378.295 598.449 378.005 593.3C373.904 593.131 364.892 591.439 360.533 590.742L328.85 585.722L217.153 568.088C214.387 567.677 211.624 567.246 208.864 566.799C200.086 565.361 191.299 563.975 182.503 562.646C181.92 573.576 181.737 584.312 181.585 595.25C181.508 600.733 181.045 606.394 181.09 611.804C167.922 609.528 151.72 608.436 138.098 606.535C138.227 609.25 137.918 614.669 137.034 617.175C135.007 630.945 125.711 647.044 115.923 656.705C102.968 670.104 91.8424 671.289 73.7174 668.715C58.1342 666.499 43.7523 662.385 29.6219 655.387C17.4438 650.404 7.64343 610.862 5.88891 597.949C3.71822 583.587 3.60864 568.987 5.56339 554.592C8.61154 530.762 16.5542 507.822 28.8931 487.207C37.3466 473.046 40.8452 469.867 57.849 468.07C67.7537 467.023 74.3326 468.018 84.0214 469.384C86.5518 469.497 87.8797 469.98 90.2716 470.681C101.56 451.75 114.162 432.255 125.863 413.453L195.927 300.931L222.644 257.949C227.942 249.469 234.673 239.313 239.381 230.668C243.403 231.202 247.741 231.508 251.677 232.262C257.371 232.337 264.423 233.569 270.192 234.211L307.079 238.307C311.124 238.744 316.704 239.584 320.511 239.872C323.178 240.108 324.83 240.293 327.456 240.804C322.098 232.969 313.739 223.829 309.508 215.501C308.844 214.195 307.357 203.126 306.557 200.649C305.252 196.606 310.205 191.795 313.082 188.027L317.88 187.821C313.771 182.944 304.636 172.345 301.707 167.118C300.627 165.19 297.58 151.69 296.67 148.276C300.432 143.648 306.344 138.194 310.54 133.533C313.457 132.478 321.832 136.102 325.035 137.268C325.877 139.973 326.602 144.11 327.191 146.979C327.738 136.389 326.953 122.186 327.001 111.13C332.545 107.816 340.211 104.083 346.033 101.039C355.767 95.8908 365.532 90.8041 375.33 85.7782C369.613 73.2464 362.986 56.6544 357.914 43.7297C359.211 39.5801 362.623 32.3368 364.461 28.1497L376.801 0ZM373.69 233.188L371.737 234.249C369.448 234.922 366.487 234.389 364.082 234.091C356.931 226.833 349.232 216.544 342.024 209.697C339.152 209.706 337.754 209.486 334.918 209.072L319.21 189.39L314.202 189.372C312.034 192.262 309.911 195.186 307.834 198.141C308.811 202.147 310.028 213.38 311.684 216.019C316.676 223.978 324.246 233.497 329.87 241.012C338.713 241.475 353.639 243.513 362.95 244.598L414.659 250.415L492.74 259.146C501.773 260.076 510.797 261.107 519.809 262.238C523.52 262.67 526.545 261.658 528.528 264.879C533.733 263.319 583.73 243.763 586.034 241.945C589.632 239.108 598.302 225.215 601.537 220.576C599.184 217.306 595.828 213.277 593.282 210.047L594.511 208.887C594.184 208.305 592.452 206.54 591.896 205.944C591.582 200.143 588.629 180.288 589.736 176.464L588.588 175.243C585.111 180.03 581.675 184.847 578.287 189.694C576.514 190.391 574.153 191.394 572.401 191.981C548.631 200.437 525.051 209.567 501.342 218.201C492.849 221.293 491.584 220.415 482.713 219.744C474.115 219.091 465.526 218.368 456.941 217.576C453.315 217.255 446.107 216.407 442.691 216.527L394.882 212.491C387.054 212.142 379.161 210.685 371.225 210.793C369.69 211.834 367.659 211.386 365.601 211.651C361.508 211.554 348.599 210.607 344.724 209.921C350.4 216.188 359.465 227.003 365.121 232.474C368.006 232.646 370.83 232.764 373.69 233.188ZM141.921 568.652C142.382 565.067 143.179 560.023 143.297 556.526C141.457 556.183 139.221 555.696 137.4 555.462C138.847 559.431 139.469 568.89 141.109 569.809L141.937 569.527L141.921 568.652Z" fill="black"/>
<path d="M377.859 1.96094C390.506 3.09705 405.227 6.40707 417.599 7.12177C423.888 16.8593 430.431 32.0203 436.711 40.969C437.219 44.7407 433.992 75.0978 433.271 80.394C433.13 81.9974 432.92 83.8575 432.876 85.4444L472.33 104.742C479.066 108.03 486.559 111.922 493.315 114.966C497.747 130.669 502.09 146.397 506.34 162.15C508.399 169.686 512.299 182.33 513.64 189.477C516.537 186.98 520.215 185.897 523.656 184.348C535.38 179.076 547.933 174.681 559.484 169.113C561.002 165.3 562.743 160.651 564.395 156.953C568.44 155.501 572.762 153.873 576.815 152.534C578.306 152.898 588.112 155.461 589.095 155.434C590.07 158.206 591.839 166.693 592.423 169.854C591.162 171.619 589.804 173.465 588.591 175.248C585.115 180.034 581.678 184.852 578.29 189.698C576.517 190.396 574.156 191.398 572.404 191.986C548.634 200.441 525.054 209.572 501.345 218.206C492.852 221.297 491.587 220.42 482.716 219.748C474.118 219.095 465.529 218.373 456.944 217.581C453.318 217.259 446.11 216.411 442.694 216.531L394.885 212.496C387.057 212.146 379.165 210.689 371.228 210.797C368.025 210.165 362.401 209.827 358.968 209.539C351.354 208.896 343.732 208.314 336.109 207.793L314.281 180.759C311.836 177.725 304.355 168.836 303.126 166.061C301.891 163.272 299.422 152.247 298.519 148.617L312.086 134.697C315.861 135.966 319.64 137.214 323.427 138.441C324.462 141.623 325.945 151.387 327.54 152.672L328.189 152.299C329.849 149.714 328.628 117.238 328.644 112.12C340.573 106.365 352.398 99.3154 364.323 93.456C368.44 91.434 373.557 88.7951 377.348 86.2759L359.601 43.4467C365.878 29.7916 371.683 15.7066 377.859 1.96094Z" fill="#F3F1F0"/>
<path d="M465.779 509.956C471.258 509.013 480.641 507.401 486.092 507.321C500.676 507.103 529.434 509.766 541.335 517.381C555.117 526.2 558.135 542.202 560.733 557.253C565.056 582.296 562.961 618.994 555.729 643.513C552.454 657.356 547.93 669.486 542.982 682.701C537.479 697.406 532.346 704.226 518.713 712.743C505.487 721.002 491.374 723.242 476.246 719.084C467.749 716.84 455.147 711.961 447.783 706.95C432.836 699.081 427.837 679.292 424.759 664.007C423.659 658.552 422.506 653.049 422.196 647.481C422.019 646.224 422.047 645.499 421.29 644.484C417.18 643.722 411.303 643.291 407.02 642.864L383.097 640.524C382.058 634.734 380.906 622.588 380.668 616.899L382.009 615.106C381.067 608.028 380.599 601.001 379.612 593.786C392.545 595.353 406.029 598.165 419.167 599.821C419.956 598.246 421.346 595.144 422.611 594.124L422.583 593.492L422.063 593.137C421.439 593.371 421.225 593.492 420.633 593.794C421.858 590.752 423.353 588.516 424.489 585.144L425.379 585.446C432.28 561.33 438.799 542.56 454.833 522.521C457.883 518.706 462.879 511.744 467.874 511.16C466.706 510.987 466.694 510.782 465.779 509.956Z" fill="#393939"/>
<path d="M379.612 593.785C392.545 595.352 406.029 598.164 419.167 599.82C419.956 598.245 421.346 595.143 422.611 594.124C420.436 612.692 419.594 623.763 421.552 642.565C410.291 641.985 396.086 640.128 384.491 639.072C383.496 631.249 382.888 623.026 382.009 615.105C381.067 608.027 380.599 601.001 379.612 593.785Z" fill="#6A6969"/>
<path d="M465.776 509.956C471.256 509.013 480.639 507.401 486.089 507.321C500.674 507.103 529.431 509.766 541.332 517.381C555.114 526.2 558.132 542.202 560.73 557.253C565.053 582.296 562.958 618.994 555.726 643.513C552.451 657.356 547.927 669.486 542.979 682.701C537.476 697.406 532.344 704.226 518.71 712.743C505.484 721.002 491.371 723.242 476.243 719.084C467.747 716.84 455.145 711.961 447.78 706.95C432.833 699.081 427.834 679.292 424.756 664.007C423.656 658.552 422.504 653.049 422.193 647.481C422.016 646.224 422.044 645.499 421.287 644.484C417.178 643.722 411.3 643.291 407.017 642.864L383.094 640.524C382.055 634.734 380.903 622.588 380.665 616.899L382.007 615.106C382.885 623.027 383.493 631.249 384.488 639.073C396.083 640.129 410.288 641.986 421.549 642.566C419.591 623.764 420.433 612.693 422.608 594.124L422.58 593.492L422.06 593.137C421.436 593.371 421.222 593.492 420.63 593.794C421.855 590.752 423.35 588.516 424.486 585.144L425.376 585.446C425.098 589.85 424.429 594.056 423.801 598.423C421.565 613.926 421.686 630.117 423.434 645.652C426.069 663.302 429.731 691.717 444.827 702.877C446.314 703.984 447.832 705.052 449.375 706.079C461.071 712.296 474.342 718.395 487.669 719.463C504.904 721.224 529.04 708.025 536.743 692.486C544.132 677.576 550.28 657.751 554.562 641.511C561.052 610.497 564.404 583.613 557.983 551.851C553.595 530.144 547.202 517.127 523.223 512.735C510.314 510.371 497.527 508.304 484.24 509.061C478.745 509.376 473.367 510.544 467.871 511.16C466.703 510.987 466.691 510.782 465.776 509.956Z" fill="black"/>
<path d="M541.28 539.993C545.796 538.901 550.184 546.523 551.308 550.141C562.298 585.409 557.939 623.674 545.301 657.886C542.074 668.035 538.383 678.155 531.873 686.744C529.013 690.519 524.698 697.859 519.259 694.898C503.716 683.855 502.717 666.774 501.512 649.732C499.357 619.194 502.072 589.474 516.721 562.074C522.442 551.37 529.428 543.623 541.28 539.993Z" fill="black"/>
<path d="M539.897 542.028C545.461 541.544 548.044 545.597 549.623 550.496C562.414 590.24 554.417 634.596 538.379 672.213C535.736 678.413 528.871 690.326 522.517 693.775C521.506 694.206 520.567 693.662 519.653 693.198C513.626 688.545 509.855 682.53 506.991 675.553C504.05 668.381 504.033 661.198 503.332 653.543C500.726 624.959 502.64 596.742 514.544 570.277C520.108 557.913 526.611 547.16 539.897 542.028Z" fill="#FE9F00"/>
<path d="M5.88891 597.945C3.71822 583.582 3.60864 568.982 5.56339 554.587C8.61154 530.757 16.5542 507.817 28.8931 487.202C37.3466 473.041 40.8452 469.862 57.849 468.066C67.7537 467.018 74.3326 468.013 84.0214 469.379L81.3032 470.503C84.4565 471.019 86.8383 471.333 89.8594 472.348C92.904 486.618 97.7103 509.904 91.7501 523.481C92.5337 524.69 92.0281 524.271 93.2464 524.867L92.6731 525.032L91.958 527.474C92.7884 528.63 92.5567 529.653 92.5204 531.128C92.313 536.369 92.2183 543.363 91.6643 548.431C102.748 549.447 114.17 552.271 125.026 553.431L126.054 552.275C131.438 553.366 136.767 553.789 142.189 554.555C164.5 557.705 186.734 562.129 209.056 565.134L208.864 566.794C200.086 565.356 191.299 563.97 182.503 562.641C181.92 573.571 181.737 584.307 181.585 595.245C181.508 600.729 181.045 606.389 181.09 611.8C167.922 609.523 151.72 608.432 138.098 606.53C138.227 609.245 137.918 614.664 137.034 617.17C135.007 630.94 125.711 647.039 115.923 656.7C102.968 670.1 91.8424 671.284 73.7174 668.71C58.1342 666.494 43.7523 662.381 29.6219 655.383C17.4438 650.399 7.64343 610.857 5.88891 597.945ZM141.921 568.648C142.382 565.062 143.179 560.018 143.297 556.521C141.457 556.179 139.221 555.691 137.4 555.457C138.847 559.426 139.469 568.885 141.109 569.804L141.937 569.522L141.921 568.648Z" fill="#393939"/>
<path d="M5.88891 597.945C3.71822 583.582 3.60864 568.982 5.56339 554.587C8.61154 530.757 16.5542 507.817 28.8931 487.202C37.3466 473.041 40.8452 469.862 57.849 468.066C67.7537 467.018 74.3326 468.013 84.0214 469.379L81.3032 470.503L80.8656 470.491C77.8312 470.366 75.0989 469.798 72.1233 469.621C62.5006 469.053 46.6869 469.182 39.1769 475.994C34.5035 480.237 30.3753 487.899 27.392 493.382C14.1414 517.225 6.78168 543.891 5.92557 571.157C5.64315 580.694 6.45979 587.26 7.21397 596.607C9.70696 610.188 17.4526 644.9 28.7501 652.832C29.5792 653.417 30.4526 653.944 31.3168 654.472C49.6239 662.356 68.1271 668.17 88.3257 668.037C99.771 667.964 106.9 663.142 114.859 655.512C126.638 641.455 132.758 632.193 136.004 613.975C136.027 612.001 136.405 608.971 136.456 606.518L130.831 605.881C130.47 622.802 120.277 641.548 103.111 646.241C91.597 641.967 84.9025 624.542 82.486 613.572C75.7366 582.938 79.9644 552.295 91.7501 523.481C92.5337 524.69 92.0281 524.271 93.2464 524.867L92.6731 525.032L91.958 527.474C92.7884 528.63 92.5567 529.653 92.5204 531.128C92.313 536.369 92.2183 543.363 91.6643 548.431C102.748 549.447 114.17 552.271 125.026 553.431L126.054 552.275C131.438 553.366 136.767 553.789 142.189 554.555C164.5 557.705 186.734 562.129 209.056 565.134L208.864 566.794C200.086 565.356 191.299 563.97 182.503 562.641C181.92 573.571 181.737 584.307 181.585 595.245C181.508 600.729 181.045 606.389 181.09 611.8C167.922 609.523 151.72 608.432 138.098 606.53C138.227 609.245 137.918 614.664 137.034 617.17C135.007 630.94 125.711 647.039 115.923 656.7C102.968 670.1 91.8424 671.284 73.7174 668.71C58.1342 666.494 43.7523 662.381 29.6219 655.383C17.4438 650.399 7.64343 610.857 5.88891 597.945ZM141.921 568.648C142.382 565.062 143.179 560.018 143.297 556.521C141.457 556.179 139.221 555.691 137.4 555.457C138.847 559.426 139.469 568.885 141.109 569.804L141.937 569.522L141.921 568.648Z" fill="black"/>
<path d="M91.9564 527.48C92.7868 528.637 92.5551 529.66 92.5188 531.135C92.3114 536.376 92.2167 543.37 91.6627 548.438C102.747 549.453 114.168 552.277 125.025 553.438C127.787 556.923 128.502 564.448 129.184 568.916C124.599 568.562 119.995 568.078 115.42 567.772C113.169 567.619 111.192 567.857 109.589 569.605C105.684 573.855 103.825 583.013 103.89 588.633C103.959 594.672 104.964 599.007 109.21 603.286C115.092 604.172 121.136 604.41 126.982 605.401C127.865 605.55 128.625 605.82 128.897 606.742C129.507 611.323 128.027 614.739 126.677 619.505C124.271 627.994 111.919 646.317 101.569 643.916C97.6881 643.013 90.0496 630.858 88.3515 626.729C85.8158 620.565 83.2024 611.484 82.4852 604.498C78.1245 578.202 82.3748 552.233 91.9564 527.48Z" fill="#FE9F00"/>
<path d="M144.928 556.859C150.522 557.149 156.639 558.584 162.153 559.309C168.445 560.139 174.487 560.957 180.769 561.936C180.729 566.383 180.327 571.754 180.205 576.375L179.603 609.676C168.348 608.951 155.32 606.893 143.743 605.736C132.489 604.197 121.029 603.122 109.705 601.635C102.97 592.752 104.852 577.539 111.881 569.361C120.923 569.288 133.951 571.029 143.628 571.492C143.86 566.452 144.658 561.807 144.928 556.859Z" fill="#6A6969"/>
<path d="M127.529 553.926C130.274 554.139 132.807 554.554 135.524 554.977C137.063 559.167 137.815 565.021 138.502 569.533C135.445 569.436 133.921 569.42 130.955 568.8C129.976 562.934 129.339 559.598 127.529 553.926Z" fill="#393939"/>
<path d="M95.9573 499.789C103.928 502.158 115.99 503.33 124.507 504.563L171.599 511.456L337.219 535.597L386.684 542.752C393.682 543.739 408.613 545.536 415.059 547.038C415.888 552.183 416.102 560.228 416.4 565.599L418.112 598.123L291.063 578.04C267.568 574.349 241.683 570.812 218.385 566.554L209.053 565.135C186.731 562.13 164.497 557.706 142.186 554.556C136.763 553.79 131.435 553.367 126.051 552.276C115.407 550.213 103.525 548.859 93.3975 546.692C93.9861 542.043 93.9728 536.938 94.3007 532.225C95.0448 521.528 95.1661 510.449 95.9573 499.789Z" fill="#F3F1F0"/>
<path d="M588.587 175.246L589.735 176.467C588.627 180.291 591.58 200.145 591.895 205.947C592.451 206.543 594.183 208.308 594.509 208.889L593.28 210.05C595.827 213.28 599.183 217.309 601.535 220.579C598.3 225.218 589.63 239.111 586.033 241.948C583.728 243.766 533.731 263.322 528.526 264.881C526.544 261.66 523.518 262.673 519.808 262.241C510.796 261.11 501.771 260.079 492.739 259.149L414.657 250.418L362.948 244.601C353.638 243.516 338.711 241.478 329.868 241.015C324.244 233.5 316.674 223.981 311.683 216.022C310.027 213.383 308.81 202.15 307.833 198.144C309.91 195.188 312.033 192.265 314.2 189.375L319.208 189.393L334.916 209.075C337.753 209.489 339.151 209.708 342.023 209.7C349.231 216.547 356.929 226.836 364.081 234.094C366.486 234.391 369.447 234.925 371.735 234.252L373.689 233.191C372.968 227.835 372.698 217.915 372.372 212.171C369.842 212.083 368.105 212.038 365.599 211.654C367.658 211.389 369.689 211.837 371.223 210.795C379.16 210.687 387.052 212.145 394.88 212.494L442.69 216.53C446.106 216.41 453.313 217.258 456.939 217.579C465.525 218.371 474.114 219.093 482.711 219.747C491.583 220.418 492.848 221.296 501.34 218.204C525.049 209.57 548.63 200.44 572.399 191.984C574.152 191.397 576.513 190.394 578.285 189.696C581.674 184.85 585.11 180.033 588.587 175.246ZM483.763 221.605L483.783 241.787L484.516 241.793C489.057 241.851 505.917 243.792 508.491 243.344C513.455 242.479 530.746 236.621 536.261 234.64C544.782 231.58 558.081 228.017 565.961 224.676C567.714 221.229 572.21 210.945 575.175 209.827C576.372 209.714 576.315 209.735 577.407 209.245L574.954 193.357C573.608 193.058 573.358 193.452 571.795 194.004C547.079 202.776 521.23 212.932 496.421 221.766C493.943 222.649 486.631 221.84 483.763 221.605ZM390.626 234.428C392.467 234.584 393.696 234.651 395.521 235.091C397.878 234.823 410.411 235.973 413.521 236.219L445.224 238.668C451.658 239.192 459.892 240.116 466.234 240.184C465.621 236.28 465.569 224.347 465.585 219.884C458.313 219.386 446.183 218.865 439.273 217.799C425.974 216.915 407.635 215.714 394.84 214.035C393.45 213.974 392.024 213.949 390.654 213.74L390.626 234.428Z" fill="#F3F1F0"/>
<path d="M442.691 216.522C446.108 216.402 453.315 217.25 456.941 217.572C465.526 218.364 474.116 219.086 482.713 219.739C491.584 220.411 492.849 221.288 501.342 218.196C525.051 209.563 548.631 200.432 572.401 191.977L571.797 193.996C547.08 202.768 521.232 212.924 496.423 221.759C493.945 222.641 486.633 221.833 483.764 221.597L483.785 241.779L484.518 241.786C489.058 241.844 505.919 243.784 508.493 243.336C513.456 242.472 530.748 236.613 536.263 234.633C544.784 231.573 558.083 228.009 565.963 224.668C567.716 221.222 572.212 210.938 575.177 209.82L576.216 210.913C573.638 212.298 568.791 222.958 567.111 226.291C554.183 230.46 541.279 234.706 528.403 239.029C524.946 240.174 511.921 244.779 509.077 244.879C501.612 245.14 491.653 243.659 483.696 243.483L483.708 248.647C481.5 250.339 479.276 252.01 477.04 253.66L466.848 251.489C466.425 247.808 466.264 245.58 466.247 241.888C452.872 241.259 438.558 239.777 425.158 238.782C414.949 238.024 402.879 237.478 392.819 236.197C394.177 235.924 394.334 235.748 395.523 235.084C397.879 234.816 410.413 235.966 413.523 236.211L445.225 238.66C451.659 239.185 459.894 240.108 466.235 240.177C465.623 236.273 465.571 224.34 465.587 219.877C458.315 219.379 446.184 218.857 439.275 217.792C425.976 216.908 407.637 215.706 394.842 214.028L394.882 212.487L442.691 216.522Z" fill="black"/>
<path d="M467.083 220.027C469.702 220.355 472.031 220.399 474.661 220.481C474.774 231.083 475.286 240.85 475.23 251.626C473.417 251.322 470.532 250.569 468.667 250.138C467.265 244.238 467.063 226.569 467.083 220.027Z" fill="#6A6969"/>
<path d="M476.424 220.891C478.245 220.972 480.235 221.192 482.064 221.354C481.999 229.478 482.366 237.799 482.024 245.916C481.939 247.958 481.544 248.012 480.219 249.13L476.919 251.712C476.867 241.746 476.327 230.465 476.424 220.891Z" fill="#6A6969"/>
<path d="M371.227 210.795C379.163 210.687 387.056 212.144 394.884 212.493L394.843 214.035C393.453 213.973 392.027 213.948 390.657 213.74L390.629 234.427C392.47 234.583 393.699 234.65 395.524 235.091C394.336 235.755 394.178 235.931 392.821 236.204C391.519 236.251 391.955 235.997 391.088 236.598C390.766 241.634 389.457 242.277 385.742 245.094C381.701 244.827 378.16 244.351 374.176 243.741C374.103 241.459 374.079 238.785 373.656 236.551C373.346 234.91 373.052 235.064 371.738 234.251L373.692 233.191C372.971 227.835 372.701 217.914 372.375 212.171C369.845 212.082 368.108 212.037 365.603 211.654C367.661 211.388 369.692 211.836 371.227 210.795Z" fill="black"/>
<path d="M374.105 212.41C376.918 212.607 379.726 212.851 382.53 213.143C383.126 222.132 383.424 234.303 383.452 243.26C380.882 242.978 378.311 242.733 375.733 242.525C374.75 234.906 374.802 221.093 374.105 212.41Z" fill="#6A6969"/>
<path d="M383.996 213.188C385.716 213.407 387.517 213.53 389.25 213.677C389.294 221.905 389.354 230.402 389.342 238.642C389.342 239.993 389.036 240.22 388.263 240.915L384.951 243.703C384.878 235.04 384.89 221.535 383.996 213.188Z" fill="#393939"/>
<path d="M588.586 175.246L589.734 176.467C588.626 180.291 591.579 200.145 591.893 205.947C592.449 206.543 594.182 208.308 594.508 208.889L593.279 210.05L592.635 209.885C592.204 211.582 592.816 216.662 593.07 218.619C590.846 219.521 588.638 220.471 586.455 221.468C584.049 220.456 581.511 219.337 579.07 218.456C578.731 216.712 578.139 212.503 577.503 211.291L576.213 210.92L575.174 209.827C576.371 209.714 576.314 209.735 577.406 209.245L574.952 193.357C573.607 193.058 573.357 193.452 571.794 194.004L572.398 191.984C574.151 191.397 576.512 190.394 578.284 189.696C581.672 184.85 585.109 180.033 588.586 175.246Z" fill="black"/>
<path d="M587.432 179.68C589.048 191.901 590.248 204.959 591.42 217.249C590.313 217.972 588.334 218.846 587.086 219.445C585.933 208.536 584.29 197.142 582.827 186.245L587.432 179.68Z" fill="#6A6969"/>
<path d="M581.343 188.531C582.745 192.322 584.823 214.272 585.412 219.276L581.758 217.688L580.718 217.042C579.646 214.768 577.06 196.078 576.436 192.179C579.268 191.448 579.473 190.821 581.343 188.531Z" fill="#6A6969"/>
<path d="M538.05 303.184C549.125 302.461 561.251 301.182 572.358 300.168C568.91 306.515 565.425 313.937 562.109 320.457L546.018 351.475L465.492 506.844C462.933 511.703 458.337 515.599 454.646 520.151C448.007 528.305 442.306 537.177 437.645 546.604C431.553 558.803 427.13 571.764 424.487 585.139C423.351 588.511 421.856 590.747 420.632 593.789C420.406 593.998 420.599 593.861 419.83 594.196C419.379 592.443 419.093 583.608 418.891 581.074C418.033 570.064 417.819 558.622 416.853 547.639C426.393 530.03 436.42 508.174 445.481 489.916L508.587 362.285L527.224 324.483C530.6 317.663 534.319 309.742 538.05 303.184Z" fill="#F3F1F0"/>
<path d="M92.6712 525.031C92.8903 527.086 93.1437 529.104 92.5185 531.127C92.5547 529.652 92.7864 528.629 91.9561 527.473L92.6712 525.031Z" fill="#F38D02"/>
<path d="M240.591 232.449C244.01 232.9 247.437 233.286 250.87 233.609C259.274 234.878 267.861 235.547 276.325 236.482C290.948 238.099 305.894 240.103 320.516 241.437C336.051 243.534 352.867 245.104 368.495 246.86L475.007 258.788C491.742 260.675 509.191 262.362 525.846 264.576L401.281 518.819C383.929 515.402 362.121 512.655 344.463 510.004L250.708 495.782L142.332 479.317C126.011 476.867 107.87 473.644 91.6338 471.763C106.52 447.135 122.448 422.241 137.685 397.751L240.591 232.449Z" fill="#F3F1F0"/>
<path d="M201.54 307.414C206.739 307.34 247.147 308.443 249.466 309.728C250.351 316.646 249.265 330.85 249.205 338.17C249.168 342.723 249.12 348.222 248.942 352.758L249.168 353.689C254.248 354.862 265.631 356.139 271.079 356.856L307.049 361.714C354.232 368.177 403.153 374.046 450.088 381.173L451.503 381.516C452.353 382.978 447.909 391.394 446.938 393.465L437.607 413.379L416.9 458.014C413.584 465.157 409.781 473.907 406.235 480.817C405.712 482.174 405.748 482.307 404.745 483.415C404.422 483.568 403.975 483.814 403.601 483.762C391.845 482.138 380.028 480.462 368.276 478.834L249.952 462.296C213.39 456.668 176.425 452.349 139.821 446.882C137.677 446.56 126.927 445.488 125.924 444.187C127.311 440.005 138.308 423.044 141.453 417.988L170.234 371.694C175.32 363.519 181.704 353.81 186.327 345.567C190.514 345.724 196.224 346.687 200.498 347.3C200.515 334.383 201.031 320.416 201.54 307.414Z" fill="black"/>
<path d="M187.295 347.34C191.502 347.473 195.665 348.528 200.356 348.693C199.728 353.415 199.754 367.061 199.65 372.366L198.68 409.628C207.381 410.64 216.077 411.703 224.767 412.811C229.835 413.456 236.778 414.544 241.759 414.717L247.958 415.788L248.737 380.694C248.794 376.468 248.505 358.576 249.34 355.675C268.854 357.718 290.268 361.114 309.803 363.753L449.489 382.628C449.847 383.965 444.465 394.682 443.558 396.632L417.871 451.89C414.861 458.356 407.477 473.045 405.253 479.185C404.483 480.708 404.008 482.36 401.792 481.993C398.287 481.417 394.81 480.877 391.293 480.394L363.503 476.558L287.321 465.898C274.575 464.129 260.973 461.881 248.261 460.536C246.612 460.032 238.542 459.005 236.477 458.723L212.438 455.415C184.537 451.491 155.165 446.878 127.285 443.647C133.5 434.933 141.948 420.377 147.846 410.877L187.295 347.34Z" fill="#2D3F71"/>
<path d="M295.926 369.922C305.55 371.525 316.382 372.734 326.128 374.031L380.766 381.432C393.864 383.144 408.331 384.744 421.332 386.835L421.585 387.02C423.547 389.107 427.161 397.861 428.535 400.955C417.851 423.428 404.705 446.428 394.335 468.856C392.997 468.594 390.697 468.228 389.464 467.869L388.928 467.805C385.218 467.792 375.972 466.495 371.931 466.016L341.256 462.438L289.779 456.516C280.716 455.468 271.13 454.59 262.161 453.184C261.12 447.894 260.036 440.038 259.671 434.765C271.467 413.59 283.684 390.65 295.926 369.922Z" fill="#FE9F00"/>
<path d="M261.061 436.809C262.78 436.128 303.622 441.966 308.749 442.655L387.946 453.057C388.925 456.022 391.503 463.246 392.011 466.034C391.58 466.674 391.874 466.481 391.149 466.642L315.879 457.916C299.152 455.958 280.009 453.315 263.403 452.042C262.94 448.581 262.25 439.714 261.061 436.809Z" fill="#FE9F00"/>
<path d="M421.585 387.016C423.547 389.103 427.161 397.857 428.535 400.951C417.85 423.423 404.705 446.424 394.335 468.852C392.997 468.59 390.697 468.223 389.464 467.865C391.103 467.655 393.867 468.159 394.544 466.596L393.932 465.879C392.433 462.257 390.592 455.972 389.339 452.104C397.183 437.822 404.33 422.146 412.049 407.711C415.026 402.148 418.394 394.561 421.613 389.381L422.117 389.094L421.585 387.016Z" fill="#FE9F00"/>
<path d="M421.581 387.016C423.543 389.103 427.157 397.857 428.531 400.951C417.847 423.423 404.701 446.424 394.331 468.852C392.993 468.59 390.693 468.223 389.46 467.865C391.1 467.655 393.863 468.159 394.54 466.596L393.928 465.879C404.415 444.429 416.553 422.356 426.549 400.947C424.994 397.023 423.169 393.482 421.609 389.381L422.113 389.094L421.581 387.016Z" fill="black"/>
<path d="M295.926 369.922C305.55 371.525 316.382 372.734 326.128 374.031L380.766 381.432C393.864 383.144 408.331 384.744 421.332 386.835C419.877 386.947 418.419 387.04 416.96 387.105L416.517 387.717C406.433 386.625 396.055 385.042 385.971 383.692L323.816 375.381C314.88 374.204 305.524 372.722 296.606 371.836C285.469 392.684 273.235 413.473 261.867 434.289L261.286 434.027C260.418 434.708 260.748 434.293 260.439 435.397C260.68 436.231 260.552 436.288 261.06 436.807C262.25 439.712 262.94 448.579 263.403 452.04C280.008 453.313 299.152 455.956 315.879 457.914L391.148 466.64C389.984 467.071 389.79 466.991 388.928 467.805C385.218 467.792 375.972 466.495 371.931 466.016L341.256 462.438L289.779 456.516C280.716 455.468 271.13 454.59 262.161 453.184C261.12 447.894 260.036 440.038 259.671 434.765C271.467 413.59 283.684 390.65 295.926 369.922Z" fill="black"/>
<path d="M421.33 386.832L421.584 387.017L422.115 389.096L421.612 389.382C418.393 394.563 415.025 402.149 412.048 407.713C404.328 422.148 397.181 437.824 389.337 452.106C390.59 455.973 392.432 462.258 393.93 465.88L394.543 466.597C393.866 468.161 391.102 467.657 389.462 467.866L388.927 467.802C389.789 466.988 389.982 467.069 391.146 466.638C391.872 466.476 391.577 466.67 392.009 466.029C391.501 463.241 388.923 456.018 387.944 453.053L308.746 442.65C303.62 441.961 262.777 436.124 261.058 436.805C260.55 436.285 260.678 436.229 260.438 435.395C260.746 434.291 260.417 434.706 261.284 434.025L261.865 434.287C264.182 435.568 290.307 438.577 294.864 439.166L351.29 446.651C361.704 448.005 377.634 449.709 387.609 451.675C390.321 447.755 419.606 389.028 419.626 388.556C418.3 387.96 417.909 387.944 416.516 387.714L416.959 387.102C418.417 387.037 419.875 386.945 421.33 386.832Z" fill="black"/>
<path d="M202.838 309.117C206.963 308.991 211.571 309.412 215.796 309.539C226.547 309.94 237.304 310.177 248.062 310.25C247.948 317.451 247.973 324.745 247.938 331.954C247.366 337.292 247.636 345.781 247.523 351.441L246.818 388.481C246.706 396.865 246.873 404.951 246.212 413.359C245.267 413.867 245.764 413.701 244.656 413.665C230.623 411.252 214.471 410.466 200.376 408.061C200.818 375.231 202.176 342.046 202.838 309.117Z" fill="#467A0D"/>
<path d="M245.692 249.082C251.785 249.252 259.156 250.299 265.249 251.001C273.674 251.892 282.094 252.833 290.508 253.824C300.575 254.991 315.787 256.052 325.416 257.637C330.625 258.177 335.83 258.754 341.031 259.369C338.24 265.245 332.398 274.44 328.925 280.287C326.552 284.277 314.973 304.618 312.77 306.265C307.977 306.557 296.697 305.229 291.301 304.774C278.684 303.835 266.076 302.764 253.481 301.563C250.674 301.465 247.599 301.175 244.775 300.964C235.155 300.201 225.542 299.361 215.937 298.442C216.767 296.575 217.845 294.844 218.91 293.104C227.873 278.453 236.606 263.658 245.692 249.082Z" fill="black"/>
<path d="M246.76 250.285C253.779 251.71 264.694 252.445 272.123 253.309C289.318 255.455 306.544 257.347 323.794 258.983C328.431 259.766 334.784 259.822 338.555 260.699C335.082 266.583 331.557 272.77 327.992 278.569C322.952 287.028 317.634 296.435 312.441 304.698C299.016 304.436 285.199 302.482 271.759 301.587C266.956 301.267 261.115 300.529 256.43 300.604C254.056 300.052 251.702 299.842 249.274 299.794C240.181 298.374 227.018 298.753 218.4 297.035L246.76 250.285Z" fill="#393939"/>
<path d="M381.502 482.523C388.843 482.362 394.942 488.143 395.172 495.483C395.406 502.82 389.689 508.98 382.353 509.286C377.542 509.487 372.994 507.09 370.44 503.005C367.885 498.924 367.724 493.783 370.012 489.545C372.301 485.311 376.688 482.628 381.502 482.523Z" fill="black"/>
<path d="M379.193 484.515C383.31 483.576 387.617 484.934 390.449 488.064C393.285 491.195 394.208 495.614 392.866 499.619C391.521 503.623 388.124 506.589 383.975 507.378C377.718 508.571 371.659 504.53 370.357 498.293C369.052 492.061 372.984 485.929 379.193 484.515Z" fill="#DA3823"/>
<path d="M336.78 478.183C343.931 476.238 351.304 480.48 353.214 487.639C355.123 494.802 350.845 502.151 343.674 504.024C336.555 505.885 329.267 501.643 327.373 494.532C325.476 487.421 329.682 480.113 336.78 478.183Z" fill="black"/>
<path d="M337.457 479.745C341.534 478.717 345.853 479.962 348.754 483.004C351.654 486.05 352.694 490.417 351.477 494.442C350.256 498.466 346.965 501.524 342.86 502.443C336.631 503.837 330.439 499.969 328.96 493.761C327.482 487.548 331.269 481.304 337.457 479.745Z" fill="#FEFDBB"/>
<path d="M344.32 333.746C340.105 326.319 341.383 318.629 349.065 314.136C351.861 312.478 355.213 312.04 358.34 312.924C362.042 313.961 365.156 316.465 366.965 319.857C370.184 325.898 368.52 334.54 361.982 337.674C357.719 339.713 355.419 339.378 351.072 338.891C347.688 337.316 346.68 336.619 344.32 333.746Z" fill="black"/>
<path d="M343.641 326.038C343.661 321.096 346.779 316.699 351.432 315.044C356.09 313.39 361.283 314.833 364.417 318.653C367.551 322.472 367.954 327.846 365.424 332.092C362.89 336.334 357.971 338.534 353.12 337.591C350.006 336.983 347.267 335.142 345.538 332.479C344.289 330.565 343.629 328.325 343.641 326.038Z" fill="#393939"/>
<path d="M371.498 279.413C378.842 278.351 385.647 283.481 386.646 290.835C387.645 298.19 382.456 304.949 375.096 305.886C367.82 306.811 361.16 301.699 360.173 294.432C359.186 287.166 364.238 280.462 371.498 279.413Z" fill="black"/>
<path d="M371.511 281.125C375.673 280.421 379.891 282.013 382.554 285.29C385.213 288.567 385.902 293.023 384.359 296.952C382.816 300.88 379.278 303.674 375.096 304.263C368.755 305.157 362.873 300.791 361.89 294.463C360.911 288.135 365.198 282.192 371.511 281.125Z" fill="#393939"/>
<path d="M296.532 471.292C303.828 470.95 310.048 476.53 310.491 483.822C310.93 491.114 305.435 497.407 298.151 497.947C293.35 498.305 288.728 496.049 286.054 492.048C283.381 488.044 283.069 482.911 285.238 478.613C287.408 474.314 291.723 471.518 296.532 471.292Z" fill="black"/>
<path d="M294.42 473.267C300.728 471.724 307.083 475.624 308.567 481.945C310.049 488.266 306.09 494.587 299.754 496.009C293.501 497.415 287.284 493.519 285.821 487.279C284.358 481.038 288.195 474.786 294.42 473.267Z" fill="#98FEC1"/>
<path d="M91.5859 473.387C94.3436 473.508 102.069 474.857 105.003 475.3L131.533 479.333L218.174 492.483L338.678 510.79L378.119 516.752C384.831 517.759 394.814 518.948 401.224 520.431C405.801 528.456 411.038 537.178 415.264 545.304L196.851 513.449L132.128 504.033C121.749 502.527 106.075 500.762 96.0865 498.373L91.5859 473.387Z" fill="#F3F1F0"/>
<path d="M526.499 267.484C527.365 269.092 529.258 276.872 529.838 279.08C531.986 287.012 534.016 294.976 535.926 302.97C532.493 311.199 525.358 324.592 521.193 333.015L491.465 393.144L443.772 489.641C435.014 507.363 425.953 526.649 416.804 544.033C416.046 542.994 415.273 541.708 414.572 540.617C410.893 533.941 406.579 526.21 402.578 519.792C412.614 499.866 422.363 479.525 432.198 459.482L487.819 346.02L513.353 293.962C517.051 286.424 522.446 274.294 526.499 267.484Z" fill="#F3F1F0"/>
<path d="M533.947 288.266L555.932 294.449C559.856 295.519 564.864 296.479 568.522 298.176L568.603 298.653L567.466 298.832C558.938 299.799 545.687 301.264 537.295 301.494L533.947 288.266Z" fill="#F3F1F0"/>
</g>
<defs>
<filter id="filter0_d_3330_618" x="0.00041914" y="0" width="607.895" height="729.474" filterUnits="userSpaceOnUse" color-interpolation-filters="sRGB">
<feFlood flood-opacity="0" result="BackgroundImageFix"/>
<feColorMatrix in="SourceAlpha" type="matrix" values="0 0 0 0 0 0 0 0 0 0 0 0 0 0 0 0 0 0 127 0" result="hardAlpha"/>
<feOffset dy="4.17439"/>
<feGaussianBlur stdDeviation="2.08719"/>
<feComposite in2="hardAlpha" operator="out"/>
<feColorMatrix type="matrix" values="0 0 0 0 0 0 0 0 0 0 0 0 0 0 0 0 0 0 0.25 0"/>
<feBlend mode="normal" in2="BackgroundImageFix" result="effect1_dropShadow_3330_618"/>
<feBlend mode="normal" in="SourceGraphic" in2="effect1_dropShadow_3330_618" result="shape"/>
</filter>
</defs>
</svg>
