<svg width="867" height="600" viewBox="0 0 867 600" fill="none" xmlns="http://www.w3.org/2000/svg">
<g filter="url(#filter0_d_3330_409)">
<path d="M103.408 127.49C126.824 98.776 180.801 81.2246 214.891 68.3237L302.82 34.9835L358.055 14.0816C366.318 10.9342 383.176 3.96461 391.06 2.34091C407.03 -0.947742 428.723 -1.20013 444.09 4.3739C442.503 4.96564 442.149 4.94995 440.513 5.10237C447.936 7.572 475.658 20.2586 480.119 25.7869C480.706 26.7538 480.339 26.3724 481.181 26.9717L480.312 27.9781C487.897 30.35 493.236 33.1487 499.893 37.4855L501.753 36.4477C511.459 43.8323 517.874 51.2614 522.325 62.8353L535.743 57.1057C565.352 71.4003 594.805 86.4933 624.352 101.015C627.893 99.3476 631.385 97.9651 634.98 96.4391C647.649 103.686 660.277 111.015 672.852 118.425C677.393 121.077 686.538 126.763 690.846 128.728C690.667 122.209 689.923 112.332 689.197 105.821C693.491 103.979 697.338 102.366 701.735 100.753C706.388 102.692 717.708 110.046 722.634 112.984C724.862 119.821 724.262 134.987 725.472 142.564C725.947 145.514 726.947 155.488 726.853 157.97C727.633 158.166 728.081 158.221 728.866 158.312C735.684 159.105 742.691 162.559 749.263 164.228C780.114 172.069 804.81 187.749 825.813 211.705C843.682 232.087 848.187 257.055 845.766 283.805C845.053 291.368 843.825 298.872 842.099 306.269C836.648 326.487 832.326 336.636 821.863 354.698C819.815 357.827 817.699 360.915 815.52 363.955C806.379 376.529 794.424 388.454 781.203 396.756C777.698 398.957 771.337 401.625 767.329 403.44L745.439 413.37L676.317 444.974L563.407 496.55L528.274 512.648C517.47 517.606 506.429 523.577 494.572 525.084C487.695 525.958 476.819 526.63 470.023 525.218C436.236 518.211 407.41 495.012 380.305 475.054L361.396 542.831C359.253 550.47 354.076 570.769 351.349 577.39L350.832 577.547C347.8 576.955 267.239 526.15 257.038 519.825L93.8203 418.503L34.8183 381.99C23.4003 374.92 11.1802 367.586 0 360.265C2.14036 354.81 5.46958 341.159 7.13529 334.995L20.2493 286.553L51.8878 169.737C57.4058 149.37 62.8175 128.34 68.6475 108.095C78.6377 112.923 93.3653 121.819 103.408 127.49Z" fill="#DAD9DC"/>
<path d="M409.484 299.819C418.934 289.419 426.8 283.129 438.478 275.674C454.818 265.463 471.822 256.353 489.377 248.407C511.249 238.414 534.443 229.579 556.808 220.656C590.686 206.771 624.877 193.658 659.35 181.328C672.575 176.613 685.844 172.024 699.154 167.561C707.779 164.654 723.729 158 732.22 160.907C745.597 165.486 761.157 169.071 774.009 174.746C796.594 184.717 818.587 203.213 832.193 223.804C848.129 248.56 846.112 280.108 839.778 307.615L842.1 306.27C836.649 326.488 832.327 336.637 821.864 354.699L819.941 353.73C813.145 367.721 794.572 385.366 781.948 393.973C777.676 396.887 769.472 400.317 764.55 402.558L739.069 414.16L653.693 453.21L555.325 498.169C546.386 502.181 537.478 506.256 528.598 510.399C520.515 514.142 513.109 517.661 504.762 520.62C465.106 534.727 426.513 506.135 396.016 484.178C391.809 481.148 385.134 475.548 380.744 473.486C384.778 455.806 426.733 313.357 425.836 309.386C423.16 307.068 413.103 301.818 409.484 299.819Z" fill="#393939"/>
<path d="M839.776 307.622L842.098 306.277C836.647 326.495 832.326 336.644 821.863 354.706L819.939 353.738C828.654 341.818 835.769 321.703 839.776 307.622Z" fill="black"/>
<path d="M751.989 191.219C758.409 191.072 768.123 190.841 773.942 193.598L773.22 193.884L772.96 194.616L773.288 194.93C770.194 194.429 763.815 193.223 761.152 192.745C757.405 192.071 745.148 194.207 741.195 195.476C731.655 198.54 720.569 203.408 711.155 207.271L654.226 230.63L551.541 272.675C529.194 281.796 504.982 290.842 483.962 302.726C478.147 306.03 473.355 310.638 468.195 314.763C443.454 334.528 425.693 364.46 417.614 394.899C410.882 420.259 413.97 459.139 427.997 481.764C437.33 497.015 452.366 507.917 469.764 512.046C488.31 516.345 495.644 511.593 511.617 504.246L543.015 489.833L651.954 439.925L733.955 402.408L758.023 391.384C772.355 384.817 777.062 381.791 788.489 370.664C809.406 350.294 824.827 326.423 831.135 297.562C836.595 272.582 831.193 252.77 817.529 231.7C815.911 234.542 810.778 241.354 808.604 244.406C810.608 248.743 812.75 253.01 815.037 257.203C818.381 258.117 821.819 258.649 825.28 258.785C826.105 263.976 826.867 267.649 828.064 272.755C825.208 275.353 820.085 279.913 817.776 282.768C817.108 287.731 817.233 292.335 816.418 297.773C818.914 300.171 822.16 302.744 824.845 305.169C823.061 308.814 820.232 316.807 818.959 320.743C815.194 321.917 811.684 322.68 807.851 323.545L799.79 338.665C800.839 341.839 802.22 345.269 803.422 348.42C799.602 352.598 796.15 357.229 792.134 361.206C789.287 359.937 785.983 358.189 783.154 356.776C779.828 360.555 773.373 366.495 769.589 370.203L771.745 379.899C765.277 383.418 751.779 388.623 744.61 391.55C740.782 388.753 736.514 385.897 732.601 383.172L722.003 388.69C720.484 393.478 719.085 398.301 717.812 403.161C710.585 406.312 702.53 409.325 695.128 412.4C690.367 410.042 684.818 407.787 679.904 405.698C677.488 407.025 675.036 408.285 672.548 409.468C671.902 413.745 671.158 418.004 670.32 422.24C662.502 426.243 654.025 430.126 646.068 434.053C641.813 431.641 637.12 428.489 632.969 425.826C629.938 427.508 627.679 428.915 624.787 430.829C623.931 435.272 622.783 439.88 621.752 444.305C615.153 447.501 607.398 450.98 600.615 453.853C597.15 455.324 589.897 450.021 586.073 447.873C582.666 449.572 579.842 450.966 576.614 452.961C576.524 457.422 576.081 461.667 576.049 466.172C567.814 468.92 556.791 473.273 548.771 476.573C545.929 473.681 543.36 471.287 540.347 468.571C537.33 469.445 533.081 470.247 529.871 471.01C527.84 476.093 525.173 483.521 522.671 488.139C517.848 491.595 508.806 496.647 503.453 499.857C500.364 495.876 497.787 491.546 494.295 487.825C490.888 487.39 487.427 487.018 484.011 486.623L465.25 503.067L458.324 503.649C457.633 498.732 455.728 491.138 454.634 486.014C450.927 483.476 446.184 479.85 442.069 478.048C440.764 477.478 439.63 478.344 438.308 478.962C436.452 479.612 433.117 481.266 431.202 482.158C430.194 479.599 429.109 475.564 428.293 472.821C430.606 469.678 434.757 465.218 437.429 462.165C436.299 458.641 435.371 455.261 434.399 451.688C430.736 449.563 423.537 446.56 419.501 444.74C419.687 437.724 419.268 430.507 419.145 423.442C422.564 421.339 428.472 418.394 432.144 416.435C432.135 413.216 431.996 409.558 432.543 406.42C430.458 404.317 427.248 401.726 424.926 399.745L435.712 372.511C440.85 372.171 443.719 371.763 448.753 370.911C450.636 367.369 452.451 363.546 454.226 359.937C452.631 356.463 450.985 353.006 449.295 349.577C454.679 343.686 460.942 337.751 466.568 331.659C470.1 332.878 474.171 334.658 477.677 336.088C481.397 332.995 485.15 329.937 488.929 326.916C488.973 322.222 489.57 317.869 489.579 313.023C495.572 309.45 507.918 303.524 514.454 300.382C517.7 302.883 521.017 305.286 524.406 307.59C528.539 306.411 531.924 304.824 535.726 302.865C536.981 299.915 539.227 291.864 540.419 288.314C547.982 285.274 555.58 282.324 563.215 279.464C566.294 281.356 574.283 284.705 578.049 286.39C580.702 285.158 583.226 283.764 585.804 282.378C586.185 278.832 587.212 273.632 587.853 270.019L612.625 258.433C616.422 261.228 621.367 264.369 625.365 267.038C627.93 265.468 630.521 263.932 633.13 262.431C634.457 258.688 635.806 252.657 636.891 248.619C643.154 245.466 653.724 241.084 660.296 238.382L672.588 245.64L682.168 240.666C682.088 236.317 682.626 231.942 682.76 227.516C691.712 224.097 701.274 220.794 710.321 217.528L718.569 225.772L729.032 223.133C731.319 217.564 733.672 212.022 736.093 206.51C741.522 206.196 747.973 204.606 753.697 203.953C755.15 207.447 756.791 212.675 758.073 216.363C762.556 215.851 767.809 214.54 772.283 213.552L780.227 199.604C782.998 201.045 785.781 202.45 788.588 203.818C788.561 208.79 788.404 214.241 788.83 219.155C791.381 221.091 796.984 224.32 799.898 226.116C803.099 224.954 809.859 221.366 812.06 221.673C813.992 223.234 815.929 226.571 817.489 228.655C825.634 239.519 831.727 253.218 834.026 266.682C838.698 294.047 826.316 325.697 810.612 347.941C801.153 361.336 785.911 377.339 772.279 386.641C770.033 388.17 751.46 396.419 747.941 398.028L697.253 421.182L547.439 489.811C535.116 495.553 522.748 501.197 510.334 506.743C505.757 508.805 496.267 514.063 491.757 514.709C474.66 517.152 458.436 512.4 444.378 502.309C417.705 483.176 411.313 446.735 412.54 415.888C414.817 378.989 436.658 338.401 465.214 314.852C471.266 309.863 477.421 304.282 484.266 300.279C499.114 291.99 515.584 285.418 531.261 279.016L591.726 254.259L686.006 215.621C702.897 208.684 719.973 201.575 736.958 194.853C740.522 193.443 748.174 191.794 751.989 191.219Z" fill="black"/>
<path d="M780.946 202.066C782.865 203.093 784.793 204.105 786.725 205.101C786.702 210.115 786.76 215.128 786.908 220.139C789.674 222.208 796.43 226.148 799.689 228.271C803.603 226.676 807.265 225.168 811.112 223.392C813.156 225.893 814.77 227.934 816.617 230.574C813.259 234.436 809.439 240.012 806.364 244.278C808.848 249.052 811.264 253.862 813.609 258.707C817.042 259.34 820.207 260.044 823.605 260.831C824.556 264.557 825.246 268.482 825.977 272.269C822.754 275.107 819.571 278.174 816.428 281.118C815.693 286.861 815.334 293.119 814.9 298.915C816.724 300.821 820.463 303.766 822.61 305.559C820.898 310.221 819.136 314.865 817.329 319.487C813.447 320.281 810.551 321.088 806.736 322.208C804.082 326.418 799.958 334.115 797.847 338.607C799.021 341.763 800.151 344.941 801.231 348.129C798.111 351.746 794.964 355.341 791.795 358.914L782.954 354.754C777.952 359.156 772.357 364.845 767.61 369.561C768.295 372.914 768.959 375.609 769.873 378.913C761.522 382.436 752.74 385.995 744.536 389.77C741.187 386.681 736.494 383.669 732.665 381.06C728.241 383.449 724.82 383.162 719.755 383.588L713.788 393.697C708.946 392.886 704.123 391.994 699.313 391.025C700.138 386.986 701.693 382.606 702.98 378.648C700.814 377.057 698.205 375.384 695.946 373.865C693.74 372.408 691.521 370.969 689.298 369.543L672.37 377.527C669.761 374.465 666.207 368.508 663.938 364.939C667.914 360.385 671.868 355.606 675.786 350.984C674.477 345.883 672.335 339.508 670.761 334.397C665.296 333.165 660.437 332.488 654.91 331.712C654.645 326.274 654.798 319.559 654.78 314.027C660.603 312.897 666.561 311.225 672.527 310.006C672.962 304.313 673.375 296.356 674.321 290.927L659.729 278.818C663.378 273.36 666.91 267.823 670.322 262.213C675.361 263.978 681.175 265.684 686.317 267.304C690.477 262.767 695.448 256.404 699.465 251.559C696.269 245.749 693.108 239.915 689.993 234.06C693.31 230.512 696.547 226.892 699.703 223.202L709.762 219.721L717.836 227.537C721.866 226.578 725.959 225.519 730.052 224.922C732.387 219.925 735.153 213.468 737.054 208.334C742.357 207.388 747.091 206.595 752.439 205.923L757.052 218.718C762.096 217.327 768.282 216.165 773.428 215.174C776.091 210.837 778.476 206.51 780.946 202.066Z" fill="#DAD9DC"/>
<path d="M761.408 224.003C771.961 222.999 784.397 227.066 792.461 233.89C803.153 242.942 807.995 256.873 809.075 270.486C812.769 317.008 771.473 375.672 723.156 378.792C695.519 379.885 678.094 361.775 675.314 334.891C672.481 307.554 684.083 279.213 701.302 258.384C716.781 239.655 736.815 226.226 761.408 224.003Z" fill="black"/>
<path d="M761.451 225.788C768.857 224.646 781.745 228.329 787.81 232.764C820.038 256.339 807.36 307.582 787.604 335.071C775.151 352.407 758.694 367.599 738.014 374.158C732.971 375.781 728.735 376.224 723.759 377.134C696.431 378.094 679.629 360.525 677.096 333.91C674.59 307.623 686.12 279.99 702.649 259.979C717.926 241.48 737.203 228.204 761.451 225.788Z" fill="#87868B"/>
<path d="M758.672 236.109C766.006 235.132 777.124 238.556 782.867 243.174C810.401 265.324 797.822 310.573 779.253 334.194C764.68 352.731 749.37 363.682 726.328 366.82C717.587 367.161 706.994 364.772 700.377 358.989C672.946 335.01 687.453 288.8 707.558 265.24C721.747 248.616 737.347 238.09 758.672 236.109Z" fill="black"/>
<path d="M758.284 237.896C765.609 236.893 777.099 240.581 782.537 245.288C809.098 268.263 794.793 312.893 775.727 335.67C762.323 351.688 746.696 362.751 726.294 364.93C703.297 366.351 688.898 349.469 687.445 327.52C684.859 288.376 717.799 241.696 758.284 237.896Z" fill="#DAD9DC"/>
<path d="M743.891 287.112C760.702 285.825 756.802 310.02 740.431 315.677C722.365 316.166 728.336 291.998 743.891 287.112Z" fill="black"/>
<path d="M744.966 288.855C749.36 288.851 750.211 289.779 752.61 293.374C753.009 302.936 750.059 311.1 739.919 313.928C724.484 314.26 731.737 291.967 744.966 288.855Z" fill="#393939"/>
<path d="M513.76 302.637C516.449 303.493 521.466 307.864 523.438 310.096C540.859 309.177 538.59 312.356 554.819 303.892L565.6 311.67C564.188 317.103 562.834 322.55 561.538 328.014C564.918 336.003 570.76 347.811 575.063 355.495C575.476 356.23 581.81 361.313 583.164 362.51C583.186 367.76 583.334 373.189 582.814 378.393C578.605 382.988 573.732 386.776 572.965 393.299C572.391 398.172 571.867 403.067 571.351 407.944C573.055 409.348 574.718 411.087 576.301 412.656C574.857 417.058 573.445 422.406 572.14 426.925C561.507 433.448 564.497 430.305 555.908 441.315C557.32 445.022 558.459 448.004 559.521 451.854C557.159 456.086 553.303 461.788 550.632 466.007C541.173 467.863 539.263 466.343 528.661 469.719C526.262 474.968 523.766 481.401 521.685 486.803C515.764 490.3 509.869 493.85 504.009 497.45C501.36 493.823 498.334 489.439 495.362 486.157C491.547 485.709 487.745 485.176 483.957 484.562L480.335 487.507C476.709 490.685 464.721 502.623 460.422 501.516C458.755 499.83 456.979 488.466 455.98 484.925C453.451 482.75 444.849 477.375 441.8 475.461C438.797 476.483 435.143 478.299 432.193 479.662C431.342 477.012 430.996 475.587 430.463 472.866C433.39 469.634 436.322 466.146 439.191 462.842C437.932 458.709 437.062 454.41 435.784 450.16L421.34 443.552C421.394 436.998 421.183 430.924 420.919 424.37C424.833 422.541 430.225 419.56 433.852 417.358C433.87 413.1 433.906 409.599 434.224 405.331C432.068 403.336 429.468 401.211 427.213 399.275C429.356 392.501 434.363 381.056 437.147 374.143C440.922 373.982 446.597 372.973 450.309 372.229C452.151 368.038 454.16 364.182 455.984 359.87C454.742 356.687 452.963 353.069 451.51 349.927C456.737 344.718 461.96 339.181 467.142 333.883L477.906 338.025C482.792 334.075 484.361 333.008 489.965 329.978C490.771 325.656 491.175 318.336 491.381 313.929C498.352 310.764 506.802 306.169 513.76 302.637Z" fill="#DAD9DC"/>
<path d="M521.567 324.866C532.37 323.772 545.667 326.511 554.009 333.46C587.205 361.114 571.466 416.245 548.509 445.119C532.294 465.508 512.354 480.472 486.672 483.749C456.86 485.95 438.077 467.337 435.105 438.162C430.219 390.195 471.793 329.25 521.567 324.866Z" fill="black"/>
<path d="M520.849 326.639C530.555 325.101 544.488 328.32 552.109 334.408C585.107 360.758 569.888 414.262 548.114 442.535C532.366 462.991 512.296 478.389 486.891 482.007C459.492 484.015 440.879 467.729 437.234 440.702C430.743 392.529 471.798 333.05 520.849 326.639Z" fill="#87868B"/>
<path d="M520.309 337.426C543.992 335.418 560.158 354.008 561.798 376.468C564.833 418.082 530.884 466.87 487.943 471.16C462.484 471.895 447.484 455.784 445.848 430.917C443.141 389.751 477.695 340.788 520.309 337.426Z" fill="black"/>
<path d="M519.411 339.207C527.019 337.997 538.293 341.256 544.368 345.882C564.151 360.967 562.694 390.783 554.427 411.687C543.238 439.983 519.873 465.024 488.69 469.453C464.881 470.937 450.164 455.233 447.873 432.308C443.924 392.836 478.783 342.964 519.411 339.207Z" fill="#DAD9DC"/>
<path d="M504.002 393.763C518.379 392.355 514.725 409.26 503.872 414.581C489.706 416.966 492.696 399.967 504.002 393.763Z" fill="#393939"/>
<path d="M694.289 225.16L694.729 225.55C694.357 227.089 689.116 232.313 687.668 233.909C690.797 239.126 694.554 245.973 697.212 251.415C693.397 256.097 689.641 260.779 685.615 265.283L669.674 260.15C665.702 265.76 661.237 273.169 657.458 279.061C661.026 282.701 668.351 288.376 672.529 291.792C672.507 296.19 671.691 303.412 671.44 308.253C666.177 309.907 658.83 311.329 653.163 312.821C653.634 318.689 653.482 327.077 653.522 333.062C658.682 334.061 663.869 334.918 669.078 335.63C670.943 340.239 672.287 345.233 673.695 350.016C640.647 364.509 607.729 380.455 574.623 395.024L575.206 389.497C578.268 385.933 581.746 382.203 584.898 378.662L584.992 368.965L585.001 361.653C583.584 360.192 577.586 355.615 576.968 354.665C572.104 347.201 567.267 335.854 563.349 327.758C564.788 322.168 566.155 316.556 567.459 310.93C563.349 307.747 559.233 304.896 555.172 301.574C543.44 307.93 542.902 308.495 529.512 308.025C532.206 306.765 534.945 305.268 537.585 303.873C538.46 300.041 540.575 293.778 541.692 289.658C548.707 287.054 555.71 284.395 562.685 281.688C567.899 283.902 573.103 286.148 578.29 288.421C581.222 286.874 584.172 285.368 587.139 283.902L589.461 271.485C595.316 268.164 605.681 263.719 612.19 260.643C616.381 263.226 620.936 266.362 625.078 269.094C627.476 268.104 632.596 264.951 635.044 263.532C636.155 258.821 637.137 254.459 638.612 249.833L660.004 240.344C664.124 242.88 668.298 245.328 672.521 247.686C675.681 246.229 681.056 243.363 683.988 241.598C683.943 237.312 684.427 233.129 684.597 228.817C687.771 227.705 691.125 226.36 694.289 225.16Z" fill="#393939"/>
<path d="M688.895 371.621C690.706 372.307 698.565 377.727 700.735 379.175C699.502 384.07 698.206 387.795 696.552 392.547C702.958 393.547 708.226 394.466 714.569 395.775C716.438 392.659 718.222 389.571 720.374 386.639C718.935 392.094 717.729 396.582 716.012 401.997L695.27 410.21C690.204 407.995 684.955 405.866 679.844 403.728C676.724 405.27 673.878 406.7 670.847 408.403C670.072 412.406 669.493 416.692 668.879 420.74C661.756 424.582 653.409 428.37 646.048 431.903C641.69 429.146 637.355 426.357 633.038 423.533C629.761 425.479 626.48 427.357 623.364 429.554C622.275 434.01 621.231 438.474 620.24 442.953C613.61 446.32 605.37 449.767 598.534 452.761C594.342 450.444 590.2 448.032 586.112 445.531C583.462 447.068 576.518 450.493 574.685 452.129C574.707 456.281 574.55 460.571 574.456 464.731C567.391 467.855 556.704 471.473 549.226 474.27L543.717 469.025C546.411 468.487 549.11 467.985 551.817 467.524C555.126 462.53 558.448 457.047 561.657 451.955C560.407 448.512 559.241 445.042 558.152 441.545C559.488 439.734 563.002 434.781 564.585 433.498C568.973 429.944 571.363 431.024 574.86 425.936C582.503 422.847 591.092 420.408 599.054 417.252C599.874 412.344 601.075 406.458 602.174 401.621C604.388 400.379 607.293 399.052 609.624 397.913C613.65 400.155 617.792 402.647 621.786 404.969C628.452 402.383 640.489 396.994 646.877 393.78C648.836 389.454 650.907 383.676 652.723 379.143C659.34 377.391 665.898 374.974 671.887 379.78C677.598 377.144 683.269 374.427 688.895 371.621Z" fill="#393939"/>
<path d="M669.754 353.781C670.108 353.902 669.902 353.795 670.278 354.243C669.274 356.144 663.469 362.747 661.774 364.805C663.872 368.449 666.266 371.771 668.458 375.653C660.317 374.707 659.125 375.402 651.392 377.76C649.347 382.131 647.173 388.111 645.255 392.711C638.405 395.293 629 399.852 622.002 402.869C617.958 400.462 613.874 398.122 609.755 395.853C607.123 396.902 603.071 399.085 600.435 400.408C599.247 405.057 598.485 411.1 597.332 416.147L583.525 420.886L574.685 423.961C576.03 419.828 577.204 416.138 578.303 411.915L573.134 406.751C573.685 403.712 574.111 400.197 574.55 397.108C606.204 383.171 638.248 368.158 669.754 353.781Z" fill="#393939"/>
<path d="M535.71 59.2734C555.246 68.4965 574.783 78.8686 594.292 88.3118C599.129 90.6524 619.984 100.635 623.543 103.254C624.565 109.595 625.95 117.144 626.623 123.469C629.407 126.123 641.627 133.512 645.666 136.076L680.556 158.414C683.766 156.777 687.59 154.694 690.836 153.265C695.516 155.337 706.598 160.525 710.901 161.741C661.459 178.002 612.596 195.987 564.409 215.663C520.118 233.32 438.238 262.832 407.974 298.96L369.556 277.321C363.062 273.664 355.231 269.522 348.97 265.655C346.319 272.917 343.901 282.073 341.729 289.6L328.598 334.877C326.537 341.956 324.04 351.594 321.64 358.408C314.281 354.176 299.385 346.506 291.608 342.834C297.333 323.177 303.25 301.238 308.306 281.383C311.242 270.204 314.339 259.068 317.596 247.979C304.802 241.557 289.868 232.213 276.963 225.301C271.026 222.122 253.566 212.543 248.796 209.122C248.778 208.661 248.819 208.968 248.483 208.247L246.488 208.551L246.366 208.128C249.382 206.437 262.457 201.338 266.315 199.749L308.647 182.239L453.623 122.16C452.561 118.332 451.705 114.075 450.84 110.17C451.091 108.572 451.23 106.541 451.386 104.896C450.149 103.315 444.07 99.5164 442.062 98.1563C443.541 97.4753 445.222 96.8374 446.742 96.2237C475.607 84.2669 506.804 70.5134 535.71 59.2734Z" fill="#393939"/>
<path d="M451.386 104.887C452.794 110.701 454.641 117.652 455.56 123.457C411.028 141.163 365.651 160.618 321.276 178.992L273.062 198.957C266.718 201.583 254.47 206.218 248.796 209.113C248.778 208.651 248.819 208.958 248.483 208.238L246.488 208.541L246.366 208.118C249.382 206.427 262.457 201.328 266.315 199.74L308.647 182.23L453.623 122.15C452.561 118.322 451.705 114.065 450.84 110.16C451.091 108.562 451.23 106.531 451.386 104.887Z" fill="black"/>
<path d="M572.233 144.168C569.055 132.319 589.475 125.902 597.342 128.231C613.884 129.605 609.571 144.663 612.292 157.011C613.211 161.182 614.005 167.803 614.328 172.011C609.011 185.852 591.989 185.863 580.258 181.199C579.46 180.887 578.675 180.544 577.904 180.169C578.245 182.149 578.738 184.558 578.855 186.524C571.346 196.703 554.898 199.175 543.077 194.16C541.257 193.387 540.58 190.174 540.346 188.489C540.069 182.399 538.302 170.339 538.455 164.609C537.894 161.97 537.908 158.674 537.823 155.932C534.102 156.716 531.887 157.081 528.193 156.034L528.301 155.726C529.323 155.003 532.667 155.195 534.581 154.994C536.222 154.45 537.096 154.326 537.8 152.72C540.49 146.563 545.878 144.811 551.684 142.187L553.132 142.542C559.287 140.732 566.558 140.949 572.233 144.168Z" fill="#DAD9DC"/>
<path d="M575.124 147.07C585.726 151.454 601.264 149.939 608.158 139.871C609.351 148.556 610.889 163.421 612.574 171.585C607.352 184.033 592.204 183.917 581.409 179.624C580.23 179.155 578.925 178.328 577.787 177.953C577.832 171.877 576.267 153.013 575.124 147.07Z" fill="#DAD9DC"/>
<path d="M607.079 137.887C607.442 138.706 607.572 139.294 608.159 139.867C601.265 149.935 585.727 151.45 575.125 147.065C576.268 153.008 577.832 171.873 577.788 177.949C578.209 178.547 578.491 178.958 578.877 179.585L578.415 179.892C577.756 179.622 576.99 179.351 576.38 178.993C575.47 173.234 574.654 160.53 574.358 154.633C565.419 163.873 550.899 166.362 539.696 159.824L539.396 159.501C539.19 161.25 539.45 163.956 538.881 164.786L538.455 164.601C537.894 161.962 537.908 158.667 537.823 155.925C534.102 156.708 531.887 157.074 528.193 156.026L528.301 155.718C529.323 154.995 532.667 155.187 534.581 154.987C536.222 154.443 537.096 154.318 537.8 152.712C540.49 146.555 545.878 144.803 551.684 142.18L553.132 142.534C559.287 140.724 566.558 140.941 572.233 144.161L572.955 144.345C572.848 143.235 572.897 143.081 573.435 142.105C580.504 152.388 600.794 147.685 607.079 137.887Z" fill="black"/>
<path d="M558.855 143.31C561.818 142.956 567.843 143.511 570.408 145.066C575.899 148.511 573.214 154.38 568.673 157.238C564.203 160.049 560.756 160.859 555.623 161.445C553.633 161.531 551.467 161.578 549.513 161.408C536.091 160.24 537.413 150.434 548.334 145.818C552.144 144.208 554.637 143.717 558.855 143.31Z" fill="#DAD9DC"/>
<path d="M573.434 142.109C574.828 131.648 588.635 129.595 597.224 129.768C602.483 131.804 606.966 130.768 607.078 137.891C600.793 147.689 580.503 152.392 573.434 142.109Z" fill="#DAD9DC"/>
<path d="M572.234 144.168C569.056 132.319 589.475 125.902 597.343 128.231C613.885 129.605 609.572 144.663 612.293 157.011C613.212 161.182 614.006 167.803 614.329 172.011C609.012 185.852 591.99 185.863 580.259 181.199C579.461 180.887 578.676 180.544 577.905 180.169C578.246 182.149 578.739 184.558 578.855 186.524C571.347 196.703 554.899 199.175 543.077 194.16C541.257 193.387 540.58 190.174 540.347 188.489C540.069 182.399 538.303 170.339 538.456 164.609L538.882 164.794C539.451 163.964 539.191 161.257 539.397 159.509L539.697 159.832C540.657 169.675 540.594 180.254 542.324 189.842C543.382 195.673 558.696 195.038 563.044 194.22C568.679 193.16 573.27 190.417 577.022 186.198C576.789 183.8 576.574 181.401 576.381 179C576.991 179.359 577.757 179.629 578.416 179.9L578.878 179.593C578.492 178.966 578.21 178.554 577.789 177.957C578.927 178.332 580.232 179.158 581.411 179.628C592.206 183.921 607.353 184.036 612.576 171.589C610.89 163.424 609.353 148.56 608.16 139.875C607.573 139.302 607.443 138.714 607.08 137.894C606.968 130.771 602.485 131.807 597.226 129.771C588.637 129.598 574.83 131.651 573.436 142.112C572.898 143.088 572.848 143.242 572.956 144.352L572.234 144.168Z" fill="black"/>
<path d="M461.838 130.047C464.196 130.041 473.054 136.866 475.86 138.827C476.362 143.245 476.757 147.675 477.039 152.113C474.489 153.342 471.75 154.497 469.145 155.638C469.714 159.664 470.683 167.885 471.628 171.493C464.684 185.365 445.977 188.679 432 186.444C425.06 185.542 423.11 185.014 417.07 181.528C415.659 174.699 412.922 153.481 413.276 146.964C420.075 134.708 438.989 133.217 451.352 135.003C454.791 133.232 458.287 131.579 461.838 130.047Z" fill="black"/>
<path d="M472.686 142.157C473.063 142.148 473.493 142.294 473.883 142.388C474.892 144.641 474.892 148.263 475.233 151.053C472.583 151.997 469.638 153.468 467.051 154.678C467.899 160.452 468.643 165.486 469.876 171.185C459.74 187.009 435.442 188.705 419.833 181.061C417.484 179.121 417.444 169.239 416.848 165.741C416.19 161.878 416.11 158.123 415.186 154.12C417.369 155.552 418.899 156.459 421.38 157.435C433.102 162.047 459.928 159.62 464.554 145.793L472.686 142.157Z" fill="#87868B"/>
<path d="M462.239 131.891C463.311 132.163 472.012 138.535 473.823 139.678C471.129 141.119 465.274 142.888 463.051 144.846C461.881 145.877 461.329 149.295 458.734 151.072C449.88 157.145 438.301 158.724 427.959 157.361C423.857 156.682 411.974 152.663 415.471 147.159C422.032 136.831 439.632 135.129 450.593 136.647C451.92 136.832 460.218 132.75 462.239 131.891Z" fill="#87868B"/>
<path d="M517.253 151.913C516.2 145.141 515.361 138.209 515.5 131.348C515.698 117.226 539.681 112.825 548.934 120.093C554.179 124.215 552.493 135.985 553.13 142.532L551.682 142.177C545.877 144.801 540.488 146.553 537.798 152.71C537.095 154.316 536.22 154.44 534.58 154.984C532.665 155.185 529.321 154.993 528.299 155.716L528.192 156.024C524.341 155.768 520.436 154.004 517.253 151.913Z" fill="black"/>
<path d="M550.841 132.145C550.779 136.448 550.859 138.025 551.684 142.179C545.879 144.803 540.49 146.555 537.801 152.712C537.097 154.318 536.223 154.442 534.582 154.987C527.477 154.624 525.477 153.934 519.067 151.121C518.018 146.462 517.56 140.58 517.045 135.751C527.84 144.544 541.66 141.295 550.841 132.145Z" fill="#87868B"/>
<path d="M532.945 118.57C552.549 115.968 558.179 132.666 535.653 138.587C527.301 139.813 520.694 138.907 516.995 130.597C519.878 122.797 525.194 120.132 532.945 118.57Z" fill="#87868B"/>
<path d="M114.521 236.866C119.842 219.286 123.743 200.981 128.974 183.351C130.348 178.721 135.215 172.555 138.254 168.675C153.991 148.586 174.075 132.322 196.997 121.104C214.973 112.401 237.97 103.804 256.842 96.2464L347.5 59.774L402.819 37.49C412.142 33.7347 426.028 27.5989 435.415 25.3714C448.21 22.3342 467.863 23.645 480.312 27.9795C487.897 30.3514 493.236 33.1501 499.893 37.4868C509.356 44.6626 516.377 52.1324 520.38 63.5513L492.81 75.1481C491.268 73.0577 487.807 68.2771 485.79 66.7543L485.086 68.4627C486.857 70.5872 489.385 73.8055 491.223 75.7327L462.098 87.8938C457.579 89.7789 450.962 92.7905 446.47 94.3474L446.744 96.2177C445.224 96.8314 443.543 97.4693 442.064 98.1502C444.072 99.5104 450.151 103.309 451.388 104.89C451.231 106.535 451.092 108.566 450.841 110.164C451.706 114.069 452.562 118.326 453.625 122.154L308.649 182.233L266.317 199.743C262.459 201.332 249.383 206.431 246.368 208.121L246.49 208.545L248.485 208.241C248.82 208.962 248.78 208.654 248.798 209.116C253.567 212.537 271.027 222.116 276.964 225.295C289.87 232.207 304.803 241.551 317.597 247.973C314.34 259.062 311.243 270.198 308.308 281.377L306.709 280.7C309.338 270.629 312.313 258.818 315.363 248.955L169.712 167.082C166.261 176.581 162.648 189.607 159.538 199.573C153.84 217.829 147.907 236.355 142.454 254.662C135.192 251.044 126.423 245.804 119.209 241.771L119.529 241.262C120.713 240.646 120.435 240.886 122.138 241.355L124.035 238.167L123.099 236.328L120.589 240.473C118.498 239.352 116.539 238.11 114.521 236.866Z" fill="black"/>
<path d="M450.136 37.9975L459.95 36.4258C459.25 39.1173 458.636 42.1782 458.022 44.9195C462.702 48.1472 469.919 52.4167 474.895 55.2096C478.177 53.164 482.068 50.2152 485.269 47.9204L489.927 52.3172C488.914 54.7487 487.918 57.1865 486.937 59.6306C485.811 62.4853 483.955 65.8779 485.085 68.4673C486.856 70.5917 489.384 73.81 491.222 75.7372L462.097 87.8984C457.578 89.7834 450.961 92.795 446.469 94.3519C443.726 95.7376 437.687 98.0431 434.621 99.3185L410.878 109.211C383.183 120.752 354.875 132.212 327.342 144.018C326.336 138.933 325.068 134.375 323.71 129.381C326.236 126.831 328.383 124.494 330.77 121.81C331.94 114.538 332.719 106.872 333.568 99.5283L327.353 95.0289C328.778 91.9832 333.092 84.0484 332.748 81.2574L332.182 81.0875C329.951 83.5535 326.678 92.2203 325.256 95.6511C327.291 97.373 329.628 98.9146 331.828 100.438C330.665 106.18 329.908 114.538 329.458 120.445C327.25 123.202 324.28 126.214 321.841 128.787L325.792 144.734C308.282 151.221 288.232 160.388 270.533 167.558C268.119 164.503 265.721 161.433 263.341 158.351C263.69 155.447 264.49 151.937 265.079 149.018L258.693 133.182C242.058 129.318 243.256 130.333 229.2 120.966L235.968 117.558C239.807 120.409 243.411 123.089 247.391 125.753C250.729 124.801 254.506 123.847 257.627 122.424C258.857 118.01 260.041 111.875 261.049 107.27C268.166 104.089 276.094 100.899 283.297 97.9351L294.078 106.427C297.943 104.976 301.792 103.485 305.625 101.953C306.728 97.169 307.537 92.6794 308.398 87.8558C316.124 85.7744 326.349 82.1114 334.129 79.5727C336.196 81.5107 339.178 84.9683 341.173 87.1412L350.66 82.9847C351.8 79.0079 353.429 74.4932 354.66 70.385C362.015 67.6863 370.42 64.0261 377.775 61.0445C380.725 62.978 384.247 65.7067 387.146 67.8262C390.67 66.4907 394.147 65.0365 397.572 63.4657C399.641 60.2299 402.333 54.4385 404.07 50.8038C410.546 48.3982 417.055 46.0837 423.593 43.8607C426.113 46.5746 428.672 49.2531 431.268 51.8949C435.128 50.9454 438.23 50.6895 442.152 50.2515L450.136 37.9975Z" fill="#DAD9DC"/>
<path d="M114.521 236.866C119.842 219.286 123.743 200.981 128.974 183.351C130.348 178.721 135.215 172.555 138.254 168.675C153.991 148.586 174.075 132.322 196.997 121.104C214.973 112.401 237.97 103.804 256.842 96.2464L347.5 59.774L402.819 37.49C412.142 33.7347 426.028 27.5989 435.415 25.3714C448.21 22.3342 467.863 23.645 480.312 27.9795C487.897 30.3514 493.236 33.1501 499.893 37.4868C509.356 44.6626 516.377 52.1324 520.38 63.5513L492.81 75.1481C491.268 73.0577 487.807 68.2771 485.79 66.7543C488.098 62.882 489.995 56.2751 492.214 51.9213C489.869 49.605 488.009 47.8553 485.494 45.7331C481.885 48.1947 478.312 50.6993 474.766 53.2465C470.992 50.884 463.227 46.3598 459.955 43.8799C460.883 40.3245 461.367 38.1853 461.887 34.5658C457.695 35.0898 453.508 35.6444 449.326 36.228C446.538 40.2218 443.857 44.2905 441.293 48.4296C438.432 48.9079 434.895 49.393 432.183 50.2183C429.435 47.4043 426.741 44.5389 424.101 41.6237C417.307 44.1628 409.398 46.7601 402.842 49.3804C400.76 53.5154 398.494 57.8454 396.495 61.9984C394.02 63.1093 389.961 64.7966 387.731 66.0819C384.743 63.8436 381.288 61.1103 378.262 59.0173C371.827 61.5752 359.543 66.9726 353.266 69.0347L349.529 81.0785C346.914 82.8434 344.561 83.8238 341.656 85.032C339.459 82.5798 337.057 79.9941 334.978 77.4698C327.168 79.9385 314.113 83.7494 306.881 86.6445C306.103 91.2672 305.358 95.8954 304.644 100.528C301.654 101.681 297.18 103.253 294.383 104.574C290.88 101.573 287.325 98.6335 283.722 95.7551C276.724 98.759 266.686 103.419 259.716 105.881C258.655 111.034 257.477 116.162 256.183 121.26C253.384 122.175 250.58 123.022 247.886 124.208C244.096 121.245 240.259 118.343 236.376 115.504C229.703 118.713 222.769 122.323 216.123 125.382C214.56 129.242 211.954 136.161 210.194 139.57C208.051 140.915 204.323 143.115 202.435 144.57C199.294 141.587 196.092 138.669 192.83 135.819L169.461 150.894C169.388 156.81 169.165 159.738 168.404 165.512C166.577 167.132 164.046 169.509 162.132 170.847C158.178 170.164 155.305 169.722 151.298 169.475C145.658 176.034 139.766 182.909 133.986 189.325C136.3 192.171 138.579 195.045 140.821 197.948C139.59 201.593 138.478 204.699 137.034 208.259C133.373 209.646 128.355 211.286 124.916 212.842C123.14 217.474 121.305 222.083 119.412 226.668C121.265 229.078 123.508 231.415 124.036 234.317C123.7 235.097 123.5 235.576 123.099 236.328L120.589 240.473C118.498 239.352 116.539 238.11 114.521 236.866Z" fill="#393939"/>
<path d="M227.659 197.37C233.762 194.521 241.52 191.545 247.812 188.956L283.504 174.278L391.328 129.948L432.021 113.162C434.931 111.957 447.191 106.66 449.294 106.281C450.495 107.331 450.397 108.351 450.84 110.163C451.706 114.067 452.562 118.325 453.624 122.152L308.648 182.232L266.316 199.742C262.458 201.33 249.383 206.43 246.367 208.12C241.086 204.653 233.46 200.845 227.659 197.37Z" fill="#87868B"/>
<path d="M163.167 172.502L167.137 169.059L141.345 252.018C135.213 248.579 128.338 244.52 122.135 241.367L124.032 238.179C124.833 236.788 125.781 235.238 126.449 233.797C124.753 231.04 123.407 229.13 121.476 226.523C123.064 222.458 124.717 217.989 126.381 213.986C130.082 212.691 135.168 211.076 138.586 209.393C140.019 205.518 141.5 201.66 143.029 197.821C140.809 195.053 138.569 192.186 136.318 189.455C140.277 184.907 148.25 175.185 152.349 171.243C155.659 171.662 159.908 172.322 163.167 172.502Z" fill="#DAD9DC"/>
<path d="M227.738 121.531L228.182 121.684C229.216 123.711 231.114 124.125 232.726 125.465C240.191 131.672 247.707 132.442 257.084 134.522C258.599 137.289 261.668 145.338 263.098 148.789C262.54 152.215 262.014 155.647 261.521 159.083C263.66 162.023 266.598 165.474 268.918 168.354C250.946 175.655 233.237 183.316 215.189 190.477L208.198 186.539C195.593 179.679 182.742 172.2 170.206 165.13C170.705 160.497 170.325 156.462 171.315 151.865C178.4 147.201 185.545 142.627 192.747 138.144C195.846 141.002 198.867 143.814 202.093 146.534C205.648 144.583 208.611 142.63 211.992 140.419C213.743 136.406 215.631 131.186 217.249 127.031C220.271 125.228 224.419 123.359 227.738 121.531Z" fill="#DAD9DC"/>
<path d="M439.615 99.1367C441.049 99.5397 446.631 103.569 448.128 104.603L225.656 196.043C224.221 195.744 219.206 192.707 217.572 191.757L378.525 124.67C398.748 116.254 419.573 107.867 439.615 99.1367Z" fill="#87868B"/>
<path d="M105.069 128.463C128.548 100.133 182.731 82.534 216.371 69.795L314.4 32.6354L362.889 14.2344C370.73 11.2506 381.688 6.49249 389.677 4.60251C405.471 0.86691 424.848 0.459867 440.511 5.10549C447.935 7.57512 475.657 20.2617 480.118 25.79C467.355 22.4462 452.171 20.8624 439.063 22.877C427.524 24.6518 411.965 31.8043 400.749 36.3306L352.268 55.8904L263.304 91.6747C244.902 99.0347 223.556 107.077 205.631 115.078C196.835 118.912 188.324 123.368 180.163 128.413C159.758 140.981 145.336 155.861 131.238 174.921C133.885 166.025 135.826 156.127 138.688 147.406C127.593 141.029 116.054 134.978 105.069 128.463Z" fill="#393939"/>
<path d="M103.408 127.49C126.824 98.776 180.801 81.2246 214.891 68.3237L302.82 34.9835L358.055 14.0816C366.318 10.9342 383.176 3.96461 391.06 2.34091C407.03 -0.947742 428.723 -1.20013 444.09 4.3739C442.503 4.96564 442.149 4.94995 440.513 5.10237C424.849 0.45675 405.472 0.863793 389.678 4.59939C381.689 6.48938 370.731 11.2475 362.89 14.2313L314.401 32.6323L216.372 69.7919C182.732 82.5309 128.549 100.13 105.071 128.46C116.055 134.974 127.594 141.026 138.69 147.402C135.828 156.124 133.886 166.022 131.239 174.918C145.337 155.858 159.759 140.978 180.164 128.41C188.326 123.365 196.836 118.909 205.632 115.075C223.558 107.074 244.903 99.0315 263.305 91.6715L352.269 55.8873L400.75 36.3275C411.966 31.8011 427.526 24.6487 439.065 22.8739C452.173 20.8593 467.356 22.4431 480.119 25.7869C480.706 26.7538 480.339 26.3724 481.181 26.9717L480.312 27.9781C467.863 23.6436 448.21 22.3328 435.415 25.37C426.028 27.5975 412.142 33.7333 402.819 37.4886L347.5 59.7726L256.842 96.245C237.97 103.802 214.973 112.4 196.997 121.103C174.075 132.321 153.992 148.585 138.254 168.673C135.215 172.553 130.348 178.72 128.974 183.349C123.743 200.979 119.842 219.285 114.521 236.864C116.539 238.108 118.498 239.35 120.589 240.471L123.099 236.326L124.035 238.166L122.138 241.353C120.435 240.885 120.713 240.645 119.529 241.26L119.209 241.77C117.067 240.555 114.493 239.173 112.447 237.88C119.282 211.334 126.897 184.922 133.808 158.39C134.654 155.143 135.559 151.646 136.597 148.46L93.1407 123.971C85.8968 119.893 76.9826 114.539 69.7736 110.869L28.3105 263.936L11.7062 325.312C8.76625 336.165 5.64172 348.874 2.29439 359.494L229.995 500.773L309.397 550.026C322.666 558.257 337.111 567.667 350.449 575.44C352.852 564.062 358.251 546.808 361.506 535.219L382.207 461.283L409.549 363.677C414.216 346.956 419.263 326.76 424.54 310.438L372.671 281.214C365.442 277.145 356.952 272.635 349.941 268.4C340.165 298.047 332.411 330.885 322.87 360.875C314.705 356.975 297.178 348.184 289.534 343.603L306.709 280.699L308.308 281.375C303.251 301.23 297.334 323.169 291.61 342.827C299.387 346.498 314.283 354.169 321.642 358.401C324.042 351.587 326.539 341.948 328.599 334.87L341.731 289.593C343.902 282.066 346.32 272.91 348.972 265.648C355.233 269.515 363.063 273.657 369.557 277.313L407.976 298.953C438.24 262.825 520.12 233.312 564.411 215.655C612.597 195.98 661.461 177.995 710.903 161.734C706.599 160.518 695.517 155.33 690.837 153.258C687.592 154.686 683.768 156.77 680.558 158.407L645.668 136.069C641.629 133.505 629.408 126.115 626.624 123.462C625.952 117.137 624.567 109.587 623.545 103.246C619.985 100.628 599.131 90.645 594.294 88.3044C574.784 78.8612 555.248 68.4891 535.711 59.266C506.806 70.506 475.609 84.2595 446.744 96.2163L446.47 94.346C450.962 92.7891 457.579 89.7775 462.098 87.8925L491.223 75.7313C489.385 73.8041 486.857 70.5858 485.086 68.4613L485.79 66.7529C487.807 68.2758 491.268 73.0563 492.81 75.1467L520.38 63.5499C516.377 52.1311 509.356 44.6612 499.893 37.4855L501.753 36.4477C511.459 43.8323 517.874 51.2614 522.325 62.8353L535.743 57.1057C565.352 71.4003 594.805 86.4933 624.352 101.015C627.893 99.3476 631.385 97.9651 634.98 96.4391C647.649 103.686 660.277 111.015 672.852 118.425C677.393 121.077 686.538 126.763 690.846 128.728C690.667 122.209 689.923 112.332 689.197 105.821C693.491 103.979 697.338 102.366 701.735 100.753C706.388 102.692 717.708 110.046 722.634 112.984C724.862 119.821 724.262 134.987 725.472 142.564C725.947 145.514 726.947 155.488 726.853 157.97C727.633 158.166 728.081 158.221 728.866 158.312C735.684 159.105 742.691 162.559 749.263 164.228C780.114 172.069 804.81 187.749 825.813 211.705C843.682 232.087 848.187 257.055 845.766 283.805C845.053 291.368 843.825 298.872 842.099 306.269L839.777 307.614C846.111 280.107 848.129 248.559 832.192 223.803C818.586 203.212 796.593 184.716 774.008 174.745C761.156 169.07 745.596 165.485 732.219 160.906C723.728 157.999 707.778 164.653 699.153 167.56C685.843 172.023 672.574 176.612 659.349 181.327C624.876 193.657 590.685 206.77 556.808 220.655C534.443 229.578 511.248 238.413 489.376 248.407C471.821 256.352 454.817 265.462 438.477 275.673C426.799 283.128 418.934 289.418 409.483 299.818C413.102 301.818 423.159 307.067 425.836 309.385C426.732 313.356 384.778 455.805 380.743 473.485C385.133 475.548 391.809 481.147 396.016 484.177C426.512 506.134 465.106 534.726 504.761 520.619C513.109 517.66 520.514 514.141 528.597 510.398C537.478 506.255 546.385 502.18 555.324 498.168L653.692 453.209L739.069 414.159L764.549 402.557C769.472 400.316 777.675 396.886 781.948 393.972C794.571 385.365 813.144 367.721 819.94 353.729L821.863 354.698C819.815 357.827 817.699 360.915 815.52 363.955C806.379 376.529 794.424 388.454 781.203 396.756C777.698 398.957 771.337 401.625 767.329 403.44L745.439 413.37L676.317 444.974L563.407 496.55L528.274 512.648C517.47 517.606 506.429 523.577 494.572 525.084C487.695 525.958 476.819 526.63 470.023 525.218C436.236 518.211 407.41 495.012 380.305 475.054L361.396 542.831C359.253 550.47 354.076 570.769 351.349 577.39L350.832 577.547C347.8 576.955 267.239 526.15 257.038 519.825L93.8203 418.503L34.8183 381.99C23.4003 374.92 11.1802 367.586 0 360.265C2.14036 354.81 5.46958 341.159 7.13529 334.995L20.2493 286.553L51.8878 169.737C57.4058 149.37 62.8175 128.34 68.6475 108.095C78.6377 112.923 93.3653 121.819 103.408 127.49Z" fill="black"/>
<path d="M721.697 116.465C721.89 114.63 721.885 114.686 722.634 112.992C724.862 119.829 724.261 134.995 725.472 142.573C725.947 145.522 726.946 155.496 726.852 157.979L726.027 156.056L725.131 157.861C722.724 158.908 719.433 158.417 715.26 160.411C713.547 149.104 712.431 130 711.754 118.422C714.502 117.527 718.599 114.853 721.024 115.121L721.697 116.465Z" fill="#87868B"/>
<path d="M721.696 116.465C721.889 114.63 721.884 114.686 722.633 112.992C724.861 119.829 724.26 134.995 725.471 142.573C725.946 145.522 726.945 155.496 726.851 157.979L726.027 156.056L725.13 157.861C724.242 151.881 723.745 144.057 723.153 137.941C722.516 131.344 721.611 122.976 721.696 116.465Z" fill="black"/>
<path d="M625.92 105.363C643.717 116.247 662.007 127.207 679.598 138.352L679.58 155.519L628.462 122.818C627.7 116.784 626.346 111.576 625.92 105.363Z" fill="#87868B"/>
<path d="M691.537 109.25C697.589 112.393 703.668 115.49 709.769 118.541C710.836 132.114 711.863 147.776 713.315 161.131C707.129 157.976 699.136 154.933 692.514 151.837C692.492 141.457 692.963 131.07 692.165 120.726C691.869 116.897 691.627 113.089 691.537 109.25Z" fill="#87868B"/>
<path d="M634.732 98.6953C636.714 99.4215 649.315 106.954 651.978 108.504C664.835 115.932 677.656 123.434 690.428 131.008C687.384 132.691 684.174 134.674 681.157 136.455C677.728 135.756 631.922 106.808 625.251 102.75C628.353 101.208 631.523 99.9846 634.732 98.6953Z" fill="#87868B"/>
<path d="M701.353 102.711C702.42 102.807 717.307 112.034 719.401 113.291C717.123 114.255 712.511 116.361 710.323 116.813C704.132 113.348 697.479 110.382 691.239 106.915C694.785 105.539 697.887 104.28 701.353 102.711Z" fill="#87868B"/>
<path d="M690.243 133.176C691.378 134.448 690.916 148.084 690.902 150.958C687.72 152.658 685.07 154.022 681.78 155.491C681.152 154.355 681.448 140.891 681.452 138.503L690.243 133.176Z" fill="#87868B"/>
<path d="M444.088 4.37891C458.232 8.61928 476.576 20.8818 488.872 28.6596C493.1 31.3323 497.717 33.5863 501.752 36.4527L499.891 37.4905C493.234 33.1537 487.895 30.355 480.31 27.9831L481.18 26.9767C480.337 26.3774 480.704 26.7589 480.117 25.7919C475.657 20.2636 447.934 7.577 440.511 5.10738C442.147 4.95496 442.501 4.97065 444.088 4.37891Z" fill="black" fill-opacity="0.988235"/>
</g>
<defs>
<filter id="filter0_d_3330_409" x="0" y="0" width="866.396" height="599.681" filterUnits="userSpaceOnUse" color-interpolation-filters="sRGB">
<feFlood flood-opacity="0" result="BackgroundImageFix"/>
<feColorMatrix in="SourceAlpha" type="matrix" values="0 0 0 0 0 0 0 0 0 0 0 0 0 0 0 0 0 0 127 0" result="hardAlpha"/>
<feOffset dx="10.5401" dy="12.6481"/>
<feGaussianBlur stdDeviation="4.74304"/>
<feComposite in2="hardAlpha" operator="out"/>
<feColorMatrix type="matrix" values="0 0 0 0 0 0 0 0 0 0 0 0 0 0 0 0 0 0 0.25 0"/>
<feBlend mode="normal" in2="BackgroundImageFix" result="effect1_dropShadow_3330_409"/>
<feBlend mode="normal" in="SourceGraphic" in2="effect1_dropShadow_3330_409" result="shape"/>
</filter>
</defs>
</svg>
